<svg width="205" height="217" viewBox="0 0 205 217" fill="none" xmlns="http://www.w3.org/2000/svg">
<path d="M101.782 216.424C95.035 216.424 88.295 215.755 81.75 214.434C76.812 213.45 71.922 212.087 67.23 210.39C56.998 206.692 47.472 201.391 38.919 194.637C38.664 194.434 38.427 194.241 38.186 194.041C38.073 193.956 37.959 193.865 37.849 193.775C28.704 186.354 20.983 177.507 14.898 167.478C14.842 167.386 14.736 167.195 14.736 167.195C14.622 167.004 14.509 166.813 14.403 166.622C5.777 152.107 0.902999 135.501 0.306999 118.586C0.295999 118.394 0.291001 118.202 0.290001 118.009C0.249001 116.967 0.237 115.934 0.237 114.892C0.237 82.324 16.036 51.51 42.504 32.451C42.709 32.299 42.913 32.156 43.119 32.015C45.469 30.341 47.931 28.751 50.461 27.271C61.197 2.989 66.683 1.577 69.354 0.889997C70.106 0.696997 70.888 0.598999 71.679 0.598999C76.815 0.598999 82.025 4.428 89.777 14.069C90.563 13.976 91.347 13.892 92.123 13.82C92.365 13.793 92.616 13.769 92.86 13.753C95.794 13.491 98.795 13.358 101.782 13.358C119.307 13.358 136.572 17.893 151.721 26.475C151.844 26.54 151.96 26.605 152.075 26.671C159.689 31.02 166.718 36.344 172.964 42.493C173.115 42.633 173.26 42.776 173.4 42.927C189.757 59.192 200.047 80.48 202.653 103.273C204.056 104.44 204.935 106.202 204.922 108.151C204.911 109.76 204.295 111.232 203.283 112.343C203.305 113.203 203.317 114.053 203.317 114.892V115.29C203.317 115.461 203.314 115.632 203.305 115.802C203.266 121.025 202.816 126.27 201.964 131.424C202.857 132.711 203.207 134.012 203.323 135.045C203.336 135.166 203.346 135.291 203.352 135.419C203.452 136.39 203.361 137.359 203.089 138.276C203.606 139.95 203.405 141.389 203.262 142.036C203.247 142.102 203.232 142.168 203.215 142.233C202.992 143.101 202.636 143.721 202.502 143.954C202.344 144.227 202.157 144.507 201.96 144.754C201.89 144.847 201.766 145.005 201.613 145.18C201.138 145.736 200.257 146.646 197.623 148.833C197.561 148.886 197.501 148.936 197.441 148.985C193.123 161.112 186.608 172.174 178.05 181.917L177.684 182.328C177.326 182.73 176.966 183.133 176.6 183.525C176.125 184.054 175.63 184.572 175.145 185.079C174.564 185.68 174.026 186.227 173.483 186.768C173.218 187.033 172.941 187.299 172.664 187.565L172.351 187.865C172.243 187.977 172.148 188.07 172.053 188.161L171.865 188.337C171.429 188.75 171.032 189.121 170.634 189.488C170.253 189.841 169.862 190.198 169.468 190.551L168.847 191.112L168.57 191.348C167.677 192.128 166.804 192.872 165.916 193.598L165.736 193.75C165.594 193.866 165.038 194.301 165.038 194.301C164.474 194.752 163.897 195.208 163.313 195.655L163.149 195.783C162.766 196.078 162.344 196.395 161.91 196.711C161.873 196.74 160.61 197.647 160.61 197.647C160.466 197.753 160.318 197.855 160.169 197.957L159.853 198.178C159.47 198.448 159.086 198.717 158.699 198.98C158.65 199.014 158.217 199.3 158.21 199.304C157.591 199.719 156.971 200.13 156.343 200.532L155.636 200.973C154.077 201.951 152.457 202.906 150.834 203.804L150.264 204.122L150.018 204.252C149.493 204.535 149.028 204.781 148.562 205.024L148.499 205.057C148.316 205.157 148.13 205.253 147.94 205.348C147.94 205.348 147.566 205.538 147.468 205.583C147.065 205.787 146.662 205.989 146.255 206.188L146.027 206.302L145.646 206.48C144.655 206.953 143.675 207.405 142.687 207.839C142.687 207.839 142.362 207.984 142.344 207.991C140.519 208.786 138.685 209.523 136.858 210.195C136.653 210.274 136.357 210.382 136.351 210.384C135.395 210.73 134.461 211.054 133.52 211.363C123.304 214.721 112.626 216.424 101.782 216.424Z" fill="white"/>
<path d="M197.518 114.89V115.288C197.518 115.382 197.518 115.477 197.508 115.571C197.477 121.209 196.942 126.721 195.957 132.076C195.957 132.17 195.936 132.265 195.915 132.349C195.821 132.873 195.716 133.397 195.611 133.921C195.454 134.707 195.286 135.493 195.098 136.268C195.077 136.394 195.045 136.509 195.014 136.635C194.794 137.599 194.553 138.553 194.301 139.506C194.259 139.642 194.228 139.778 194.186 139.915C194.008 140.575 193.83 141.225 193.631 141.875C193.537 142.2 193.442 142.525 193.338 142.85C193.097 143.657 192.835 144.453 192.573 145.239C188.507 157.353 182.062 168.377 173.815 177.767C173.364 178.27 172.914 178.784 172.453 179.276C172.002 179.779 171.531 180.272 171.07 180.754C170.562 181.28 170.049 181.8 169.533 182.315C168.211 183.637 166.848 184.916 165.449 186.155C165.356 186.238 165.264 186.321 165.17 186.404C164.217 187.242 163.253 188.067 162.267 188.866C161.68 189.348 161.083 189.82 160.485 190.27C160.265 190.448 160.045 190.616 159.825 190.783C159.458 191.066 159.081 191.349 158.693 191.632C158.263 191.957 157.823 192.271 157.383 192.575C156.796 193.005 156.199 193.413 155.591 193.822C154.071 194.859 152.51 195.844 150.917 196.788C150.435 197.082 149.942 197.375 149.45 197.647C148.895 197.972 148.318 198.286 147.742 198.6C147.166 198.914 146.579 199.229 145.981 199.533C145.74 199.659 145.499 199.784 145.258 199.9C144.755 200.162 144.242 200.414 143.728 200.665C142.649 201.189 141.569 201.682 140.469 202.164C140.039 202.353 139.61 202.541 139.17 202.719C138.688 202.929 138.206 203.128 137.713 203.316C137.346 203.473 136.99 203.609 136.623 203.746C136.005 203.998 135.397 204.228 134.768 204.448C134.632 204.5 134.496 204.553 134.349 204.595C133.584 204.878 132.819 205.14 132.044 205.392C122.676 208.473 112.668 210.139 102.272 210.139C95.838 210.139 89.561 209.5 83.483 208.274C78.809 207.341 74.261 206.073 69.86 204.481C60.177 200.981 51.228 195.961 43.305 189.705C43.054 189.506 42.812 189.307 42.561 189.097C42.488 189.045 42.404 188.982 42.331 188.919C33.801 182.003 26.486 173.651 20.765 164.219C20.723 164.135 20.671 164.051 20.629 163.978C20.535 163.821 20.44 163.664 20.357 163.506C12.414 150.176 7.64601 134.761 7.08001 118.277C7.07001 118.141 7.07 118.004 7.07 117.868C7.028 116.872 7.01801 115.887 7.01801 114.892C7.01801 83.025 22.674 54.814 46.713 37.524C46.881 37.398 47.048 37.283 47.216 37.168C49.993 35.187 52.885 33.364 55.882 31.698C58.648 30.137 61.509 28.722 64.444 27.454C65.461 27.014 66.487 26.595 67.525 26.186C73.896 23.692 80.603 21.858 87.551 20.789C89.427 20.496 91.334 20.255 93.252 20.076C93.441 20.055 93.64 20.034 93.828 20.024C96.615 19.773 99.424 19.647 102.274 19.647C119.345 19.647 135.357 24.132 149.211 32.002C149.295 32.044 149.368 32.086 149.441 32.128C156.651 36.246 163.274 41.276 169.142 47.071C169.215 47.134 169.278 47.197 169.341 47.27C186.746 64.516 197.518 88.441 197.518 114.89Z" fill="#7282FF"/>
<path d="M53.847 36.956C51.489 37.019 49.058 37.082 46.711 37.522C46.879 37.396 47.046 37.281 47.214 37.166C49.404 36.81 51.657 36.747 53.837 36.694C55.409 36.652 57.033 36.61 58.605 36.453C69.776 35.395 79.543 29.013 88.984 22.84C90.399 21.918 91.813 20.985 93.249 20.073C93.438 20.052 93.637 20.031 93.825 20.021C92.243 21.016 90.681 22.043 89.13 23.06C79.657 29.243 69.869 35.646 58.625 36.714C57.044 36.872 55.419 36.914 53.847 36.956Z" fill="#FFECE0"/>
<path d="M149.439 32.125C148.475 34.305 147.113 36.285 145.53 37.868C140.888 42.531 134.401 44.973 128.145 47.079C122.224 49.08 116.157 50.967 110.278 52.801C95.649 57.36 80.517 62.065 66.496 68.813C43.002 80.11 22.472 97.285 7.07799 118.275C7.06799 118.139 7.06799 118.002 7.06799 117.866C22.462 96.96 42.949 79.847 66.381 68.572C80.423 61.823 95.566 57.108 110.205 52.549C116.073 50.726 122.151 48.829 128.062 46.838C134.287 44.742 140.742 42.301 145.353 37.679C146.914 36.118 148.266 34.147 149.209 31.999C149.293 32.041 149.366 32.083 149.439 32.125Z" fill="#FFECE0"/>
<path d="M39.742 134.245C38.935 136.089 38.107 137.997 37.248 139.83C32.836 149.251 27.251 157.488 20.764 164.215C20.722 164.131 20.67 164.047 20.628 163.974C27.073 157.278 32.627 149.083 37.007 139.714C37.866 137.88 38.694 135.983 39.501 134.139C43.012 126.122 46.627 117.844 53.501 112.468C58.72 108.392 65.217 106.495 71.504 104.671C74.983 103.655 78.588 102.596 81.952 101.192C91.058 97.367 98.887 90.608 103.99 82.151C105.195 80.149 106.285 78.012 107.343 75.937C109.869 70.98 112.478 65.866 116.837 62.345C122.684 57.64 130.439 56.676 137.942 55.754C139.42 55.565 140.929 55.387 142.396 55.167C151.702 53.826 160.682 51.101 169.139 47.067C169.212 47.13 169.275 47.193 169.338 47.266C160.829 51.332 151.785 54.078 142.438 55.429C140.971 55.639 139.451 55.827 137.984 56.016C130.512 56.938 122.789 57.881 117.005 62.555C112.687 66.034 110.089 71.127 107.574 76.052C106.516 78.138 105.426 80.286 104.21 82.287C99.075 90.786 91.205 97.587 82.046 101.433C78.672 102.848 75.067 103.896 71.577 104.912C65.31 106.746 58.834 108.632 53.668 112.677C46.847 118.003 43.232 126.26 39.742 134.245Z" fill="#FFECE0"/>
<path d="M193.128 130.913C194.082 131.248 195.025 131.636 195.957 132.076C195.957 132.17 195.936 132.265 195.915 132.349C194.961 131.898 194.008 131.511 193.044 131.165C184.702 128.21 175.68 129.583 170.063 134.675C163.251 140.847 162.361 150.583 161.501 160.004C161.229 162.917 160.956 165.935 160.506 168.786C158.756 179.831 153.694 190.447 145.982 199.532C145.772 199.647 145.552 199.752 145.332 199.867C153.275 190.698 158.473 179.935 160.244 168.743C160.695 165.903 160.967 162.895 161.239 159.972C162.109 150.509 162.999 140.722 169.895 134.476C175.575 129.331 184.692 127.926 193.128 130.913Z" fill="#FFECE0"/>
<path d="M197.518 115.288C197.518 115.382 197.518 115.477 197.508 115.571C189.848 118.537 180.993 118.641 172.347 118.757L171.236 118.767C140.783 119.176 117.257 123.42 97.21 132.128C72.091 143.037 52.841 161.774 44.405 183.539C43.671 185.436 43.053 187.291 42.561 189.093C42.488 189.041 42.404 188.978 42.331 188.915C42.834 187.134 43.442 185.321 44.165 183.445C52.622 161.617 71.925 142.827 97.106 131.887C117.195 123.158 140.742 118.914 171.236 118.505L172.347 118.495C180.992 118.38 189.868 118.275 197.518 115.288Z" fill="#FFECE0"/>
<path d="M157.385 59.4179C157.385 59.4179 162.87 63.9219 162.736 71.5469C162.536 82.9229 156.493 85.4599 142.223 91.1679C127.953 96.8759 76.583 97.7679 76.583 97.7679L100.128 67.8019L135.445 54.424L157.385 59.4179Z" fill="#502750"/>
<path d="M123.419 68.341V68.425C123.44 69.63 122.581 70.888 121.386 70.992C120.537 71.055 119.709 70.583 118.871 70.688C116.744 70.95 116.796 74.041 115.738 75.917C114.386 78.327 111.169 78.537 108.329 78.023C107.92 77.96 107.533 77.876 107.145 77.782C104.075 77.028 100.438 76.126 98.07 78.222C95.261 80.706 96.194 85.819 93.847 88.471C93.847 88.471 93.847 88.4809 93.837 88.4919C93.596 88.7649 93.313 89.016 92.988 89.226C92.684 89.436 92.349 89.5929 92.003 89.7289C91.374 90.0009 90.704 90.201 90.085 90.504C89.205 90.944 88.45 91.6149 87.895 92.4219C87.36 93.2079 86.994 94.109 86.847 95.042C86.711 95.817 86.742 96.603 86.931 97.368C87.078 97.955 87.151 98.552 87.162 99.16C87.172 99.38 87.172 99.6 87.162 99.82C87.089 102.042 86.365 104.399 85.716 106.611C85.475 107.428 85.245 108.225 85.066 108.99C84.657 110.73 84.364 112.48 84.186 114.251C83.453 121.136 84.196 128.189 84.626 135.168C84.668 135.786 84.699 136.405 84.731 137.023C84.773 137.851 84.815 138.668 84.846 139.496C85.045 145.207 84.93 150.95 84.5 156.672C84.49 156.787 84.479 156.902 84.469 157.018C84.385 158.097 84.291 159.177 84.176 160.256C84.05 161.576 83.904 162.897 83.736 164.207C82.332 175.462 79.712 186.57 75.887 197.175C75.09 199.386 74.242 201.576 73.34 203.745C72.187 204.038 71.035 204.29 69.861 204.479C60.178 200.979 51.229 195.959 43.306 189.703C43.055 189.504 42.813 189.305 42.562 189.095C42.489 189.043 42.405 188.98 42.332 188.917C33.802 182.001 26.487 173.649 20.766 164.217C20.724 164.133 20.672 164.049 20.63 163.976C20.536 163.819 20.441 163.662 20.358 163.504C20.484 157.101 21.783 150.709 24.183 144.767C29.37 131.919 39.399 121.283 51.419 114.388C55.443 112.072 59.75 110.123 63.177 106.99C64.455 105.816 65.577 104.517 66.572 103.123C73.876 92.885 74.348 77.637 83.884 69.055C91.282 62.401 102.191 61.604 112.115 62.296C115.489 62.527 119.094 62.988 121.651 65.209C122.353 65.817 122.961 66.582 123.254 67.441V67.4509C123.346 67.7439 123.409 68.037 123.419 68.341Z" fill="#FFECE0"/>
<path d="M132.044 205.389C122.676 208.47 112.668 210.136 102.272 210.136C95.8381 210.136 89.5611 209.497 83.4831 208.271C78.8091 207.338 74.2611 206.07 69.8601 204.478C60.1771 200.978 51.2281 195.958 43.3051 189.702L55.6291 138.27C55.6291 138.26 55.6291 138.239 55.6391 138.228L55.7121 137.903L57.0531 134.686L73.9661 150.625L84.173 160.255L101.883 176.959L132.044 205.389Z" fill="#993F8D"/>
<path d="M173.814 177.766C172.022 179.799 170.146 181.759 168.197 183.614C158.043 193.381 145.729 200.894 132.043 205.39C122.675 208.471 112.667 210.137 102.271 210.137C95.8371 210.137 89.5601 209.498 83.4821 208.272C77.0791 199.857 72.7411 191.914 70.8751 188.56C66.7361 181.12 54.3281 160.035 55.2401 141.938C55.3031 140.701 55.4181 139.475 55.6281 138.27C55.6491 138.092 55.6801 137.903 55.7121 137.725C59.1071 118.82 84.6141 102.588 84.6141 102.588C84.6141 102.588 81.7531 127.026 90.1371 131.479C98.5201 135.943 122.424 165.725 122.424 165.725C122.424 165.725 139.998 141.79 144.671 137.704C144.818 137.568 144.954 137.463 145.08 137.369C148.999 134.508 158.095 150.919 164.519 161.45C166.468 164.646 169.937 170.755 173.814 177.766Z" fill="#993F8D"/>
<path d="M173.814 177.766C172.022 179.799 170.146 181.759 168.197 183.614C166.856 182 165.567 180.355 164.32 178.678C161.669 175.094 159.217 171.374 156.974 167.528C155.245 164.583 153.652 161.565 152.175 158.484C151.347 156.744 150.435 154.879 149.545 152.951C147.271 148.047 145.112 142.692 144.672 137.704C144.819 137.568 144.955 137.463 145.081 137.369C147.397 135.682 151.526 140.722 155.843 147.314C158.819 151.862 161.9 157.154 164.52 161.451C164.813 161.943 165.149 162.488 165.505 163.107C167.537 166.522 170.524 171.824 173.814 177.766Z" fill="#502750"/>
<path d="M197.613 140.669C197.602 140.711 197.571 140.763 197.529 140.837C197.487 140.889 197.435 140.963 197.361 141.047C196.868 141.623 195.663 142.692 194.06 144.023C193.987 144.086 193.924 144.138 193.85 144.191C189.281 147.964 181.652 153.675 177.366 156.452C174.736 158.15 170.072 160.707 165.503 163.106C162.391 164.762 159.32 166.334 156.973 167.528C155.244 164.583 153.651 161.565 152.174 158.484C151.346 156.744 150.434 154.879 149.544 152.951C150.707 151.997 152.908 150.111 155.695 147.449C155.747 147.397 155.8 147.355 155.842 147.313C159.939 143.341 162.171 139.579 167.725 138.081C170.848 137.243 175.06 135.597 178.309 134.466C178.393 134.434 178.466 134.403 178.55 134.372C180.51 133.701 182.071 133.219 182.784 133.23C182.92 133.23 183.025 133.251 183.088 133.303C183.119 133.313 183.14 133.334 183.161 133.355C183.779 134.246 185.215 136.384 184.136 137.274C183.067 138.165 169.696 144.767 170.408 145.395C171.121 146.013 174.778 146.286 179.86 143.163C184.942 140.04 193.682 133.438 195.202 133.795C195.569 133.879 195.936 134.046 196.261 134.256C196.921 134.696 197.435 135.335 197.571 135.922V135.953C197.623 136.236 197.581 136.508 197.435 136.739C197.372 136.833 197.32 136.917 197.246 137.001C197.225 137.032 197.215 137.064 197.183 137.095C196.554 137.892 195.737 138.436 195.737 138.436C195.737 138.436 195.821 138.478 195.947 138.551C196.47 138.856 197.822 139.726 197.613 140.669Z" fill="#FF8C9C"/>
<path d="M180.217 149.002C180.173 149.002 180.131 148.98 180.106 148.94C180.068 148.879 180.087 148.798 180.148 148.76C180.29 148.672 194.335 139.918 196.087 138.078C196.974 137.146 197.372 136.39 197.303 135.768C197.25 135.291 196.927 134.87 196.287 134.443C196.227 134.403 196.211 134.322 196.251 134.261C196.291 134.201 196.373 134.184 196.433 134.225C197.142 134.697 197.501 135.178 197.564 135.739C197.642 136.443 197.222 137.267 196.277 138.259C194.503 140.123 180.867 148.621 180.287 148.982C180.264 148.996 180.24 149.002 180.217 149.002Z" fill="#502750"/>
<path d="M183.329 134.403C183.329 134.56 183.329 134.728 183.245 134.875C183.172 135.011 183.046 135.106 182.931 135.179C182.04 135.755 181.024 136.08 180.039 136.394C179.871 136.446 179.704 136.488 179.525 136.488C179.41 136.488 179.295 136.467 179.19 136.415C178.98 136.289 178.865 136.069 178.781 135.87C178.592 135.419 178.425 134.948 178.309 134.466C178.393 134.434 178.466 134.403 178.55 134.372C178.676 134.854 178.833 135.315 179.022 135.776C179.095 135.933 179.179 136.101 179.315 136.185C179.493 136.279 179.724 136.216 179.954 136.143C180.929 135.839 181.924 135.514 182.794 134.959C182.878 134.896 182.972 134.833 183.014 134.749C183.066 134.655 183.066 134.539 183.066 134.424C183.045 134.015 182.951 133.607 182.783 133.229C182.919 133.229 183.024 133.25 183.087 133.302C183.225 133.648 183.309 134.025 183.329 134.403Z" fill="#502750"/>
<path d="M193.53 140.291C193.481 140.291 193.434 140.264 193.412 140.217C193.182 139.739 193.026 139.231 192.947 138.705C192.91 138.458 192.89 138.173 193.019 137.926C193.099 137.772 193.221 137.66 193.349 137.548C193.797 137.161 194.315 136.775 194.932 136.368C195.251 136.158 195.596 135.951 195.986 135.92C196.372 135.876 197.181 136.265 197.29 136.71C197.307 136.781 197.264 136.851 197.194 136.869C197.121 136.884 197.053 136.842 197.035 136.773C196.967 136.494 196.323 136.149 196.006 136.182C195.677 136.208 195.378 136.389 195.075 136.588C194.467 136.988 193.958 137.367 193.52 137.747C193.411 137.841 193.309 137.934 193.25 138.047C193.156 138.228 193.174 138.461 193.205 138.666C193.28 139.165 193.429 139.648 193.648 140.103C193.679 140.169 193.652 140.246 193.587 140.278C193.568 140.287 193.548 140.291 193.53 140.291Z" fill="#502750"/>
<path d="M197.529 140.837C197.487 140.889 197.435 140.963 197.361 141.047C197.151 140.743 196.9 140.46 196.617 140.23C196.565 140.188 196.502 140.136 196.449 140.125C196.376 140.115 196.292 140.167 196.208 140.209C195.359 140.701 194.584 141.299 193.882 141.99C193.756 142.105 193.641 142.231 193.589 142.378C193.505 142.619 193.599 142.892 193.715 143.185L194.061 144.023C193.988 144.086 193.925 144.138 193.851 144.191L193.474 143.279C193.369 143.028 193.212 142.64 193.338 142.294C193.411 142.095 193.558 141.938 193.705 141.802C194.418 141.1 195.214 140.492 196.073 139.989C196.188 139.916 196.335 139.842 196.492 139.874C196.607 139.885 196.702 139.958 196.785 140.031C197.068 140.261 197.309 140.533 197.529 140.837Z" fill="#502750"/>
<path d="M130.902 85.559C130.902 85.957 130.892 86.345 130.871 86.733C130.787 88.19 130.578 89.594 130.242 90.967C130.043 92.078 129.76 93.534 129.383 95.222C127.172 105.093 121.754 122.657 111.306 121.525C96.824 119.964 84.615 114.148 85.464 102.652C85.653 100.168 85.957 97.716 86.334 95.4C84.94 92.403 84.144 89.081 84.144 85.56C84.144 72.65 94.613 62.181 107.523 62.181C120.433 62.181 130.902 72.648 130.902 85.559Z" fill="#FF8C9C"/>
<path d="M150.969 148.036C150.979 149.639 150.896 151.232 150.697 152.825C150.687 152.93 150.676 153.035 150.655 153.139C150.425 154.952 150.047 156.754 149.481 158.494C149.471 158.525 149.46 158.567 149.45 158.599C149.429 158.672 149.398 158.746 149.377 158.819C147.983 163.011 145.583 166.773 142.523 169.927C142.46 170 142.387 170.063 142.324 170.126C140.658 171.813 138.792 173.322 136.791 174.621C136.718 174.663 136.644 174.715 136.571 174.757C135.555 175.417 134.486 176.014 133.396 176.549C133.312 176.591 133.228 176.633 133.144 176.675C132.107 177.178 131.069 177.629 129.99 178.016C129.98 178.026 129.969 178.026 129.958 178.026C129.654 178.141 129.35 178.246 129.046 178.34L129.036 178.35C128.491 178.528 127.946 178.696 127.391 178.843C117.352 181.578 106.359 179.713 97.2211 174.756C88.0731 169.81 80.706 161.95 75.34 153.032C70.782 145.466 67.5431 136.81 67.8581 127.976C68.0471 122.768 69.5981 117.539 72.4691 113.169C73.7581 111.209 75.3301 109.438 77.1221 107.929C78.9241 106.42 80.999 105.309 82.686 103.643C83.954 102.396 85.1911 100.782 85.6201 99.022C85.8611 98.058 85.4631 95.302 86.7311 94.946C87.1501 95.25 87.5481 95.585 87.9261 95.931C88.0101 96.004 88.0941 96.078 88.1771 96.141C89.3191 97.178 90.388 98.289 91.74 99.138C91.834 99.201 91.9181 99.264 92.0121 99.295C92.1271 99.379 92.243 99.452 92.368 99.515C94.6 100.72 97.094 101.454 99.63 101.6C99.756 101.61 99.8821 101.61 99.9971 101.61C100.091 101.62 100.186 101.62 100.28 101.61C103.811 101.683 107.312 100.761 110.822 100.321C111.115 100.279 111.409 100.248 111.702 100.227C111.786 100.217 111.88 100.206 111.975 100.206C115.601 99.892 119.468 100.279 122.716 101.684C122.842 101.736 122.967 101.789 123.083 101.852C125.263 102.858 127.138 104.336 128.448 106.4C130.313 109.324 130.733 112.97 132.441 115.989C132.85 116.712 133.332 117.383 133.856 118.012C133.95 118.138 134.045 118.253 134.16 118.368C135.847 120.317 137.974 121.921 140.008 123.618L140.018 123.628C140.196 123.764 140.364 123.9 140.542 124.047C141.202 124.613 141.841 125.179 142.449 125.787C147.008 130.262 149.617 136.371 150.56 142.732V142.753C150.612 143.004 150.644 143.256 150.675 143.508V143.518C150.865 145.029 150.959 146.527 150.969 148.036Z" fill="#FFECE0"/>
<path d="M129.958 178.028C129.654 178.143 129.35 178.248 129.046 178.342L129.036 178.352C128.334 178.394 127.632 178.415 126.919 178.415C121.386 178.415 115.549 177.189 109.806 174.779C103.728 172.243 97.556 168.345 90.933 162.864C82.916 156.241 77.698 150.09 74.512 143.509C70.467 135.146 70.037 125.883 73.359 118.715C75.099 114.963 77.834 111.746 80.474 108.634C82.297 106.475 84.184 104.254 85.735 101.854C86.636 100.471 87.852 98.1971 87.925 95.9331C88.009 96.0061 88.093 96.0801 88.176 96.1431C88.029 98.4071 86.845 100.628 85.954 102.001C84.393 104.411 82.506 106.643 80.673 108.802C78.043 111.893 75.318 115.1 73.599 118.831C70.309 125.925 70.738 135.105 74.752 143.394C77.917 149.933 83.114 156.063 91.1 162.665C97.702 168.125 103.853 172.013 109.9 174.538C116.681 177.368 123.577 178.573 129.958 178.028Z" fill="#FFA8DE"/>
<path d="M133.396 176.55C133.312 176.592 133.228 176.634 133.144 176.676C132.327 175.921 131.384 175.23 130.336 174.653C127.716 173.207 124.751 172.431 121.879 171.687C121.428 171.572 120.988 171.456 120.538 171.341C111.149 168.836 103.802 165.483 98.0811 161.071C91.0081 155.622 86.2391 148.14 84.9921 140.563C83.7031 132.704 85.9771 124.792 88.1881 117.152C89.8861 111.263 91.6251 105.206 91.7401 99.1381C91.8341 99.2011 91.9181 99.2641 92.0121 99.2951C91.8651 105.342 90.1261 111.367 88.4391 117.225C86.2381 124.843 83.9751 132.713 85.2531 140.52C86.4791 148.034 91.2161 155.453 98.2371 160.86C103.927 165.251 111.242 168.594 120.6 171.088C121.051 171.203 121.501 171.319 121.952 171.434C124.834 172.189 127.82 172.964 130.461 174.421C131.562 175.031 132.547 175.754 133.396 176.55Z" fill="#FFA8DE"/>
<path d="M136.791 174.622C136.718 174.664 136.644 174.716 136.571 174.758C135.827 173.731 134.999 172.715 134.098 171.719C130.524 167.8 126.165 164.583 121.942 161.46C121.198 160.915 120.454 160.36 119.71 159.815C115.11 156.367 109.901 152.238 106.338 146.779C101.958 140.041 99.977 131.217 100.291 119.784C100.333 118.443 100.396 117.07 100.459 115.749C100.679 111.033 100.899 106.202 99.998 101.612C100.092 101.622 100.187 101.622 100.281 101.612C101.161 106.212 100.941 111.054 100.721 115.759C100.658 117.079 100.595 118.452 100.553 119.794C100.239 131.164 102.198 139.946 106.558 146.631C110.089 152.059 115.287 156.167 119.867 159.604C120.611 160.149 121.355 160.704 122.099 161.249C126.322 164.372 130.703 167.6 134.286 171.54C135.198 172.547 136.036 173.574 136.791 174.622Z" fill="#FFA8DE"/>
<path d="M142.523 169.927C142.46 170 142.387 170.063 142.324 170.126C141.486 168.271 140.532 166.584 139.61 165.148C136.791 160.736 133.186 156.786 129.697 152.971C128.597 151.766 127.455 150.519 126.365 149.272C124.007 146.6 122.152 144.273 120.78 141.622C118.244 136.707 117.636 131.069 117.039 125.62C116.934 124.604 116.819 123.577 116.693 122.571C115.781 114.974 114.105 107.481 111.705 100.229C111.789 100.219 111.883 100.208 111.978 100.208C114.367 107.46 116.033 114.942 116.956 122.539C117.082 123.545 117.197 124.572 117.302 125.588C117.889 131.016 118.497 136.633 121.012 141.496C122.374 144.137 124.219 146.442 126.556 149.093C127.656 150.34 128.799 151.587 129.899 152.792C133.389 156.617 136.993 160.568 139.833 165C140.752 166.427 141.695 168.094 142.523 169.927Z" fill="#FFA8DE"/>
<path d="M149.481 158.495C149.471 158.526 149.46 158.568 149.45 158.6C149.429 158.673 149.398 158.747 149.377 158.82C148.56 157.531 147.595 156.305 146.474 155.163C144.326 152.973 141.664 151.244 139.097 149.556C135.576 147.251 131.929 144.861 129.603 141.298C127.455 138.028 126.428 133.879 126.344 128.23C126.323 126.459 126.386 124.646 126.438 122.896C126.532 120.203 126.627 117.405 126.407 114.68C126.03 110.163 124.762 105.731 122.718 101.686C122.844 101.738 122.969 101.791 123.085 101.854C125.066 105.857 126.302 110.217 126.669 114.66C126.889 117.406 126.795 120.204 126.701 122.907C126.649 124.657 126.586 126.459 126.607 128.23C126.691 133.826 127.707 137.934 129.824 141.151C132.119 144.672 135.745 147.04 139.245 149.335C141.823 151.022 144.485 152.772 146.664 154.973C147.752 156.074 148.685 157.258 149.481 158.495Z" fill="#FFA8DE"/>
<path d="M150.697 152.825C150.687 152.93 150.676 153.035 150.655 153.139C146.002 149.262 142.041 144.148 139.233 138.227C136.446 132.359 134.643 125.589 133.857 118.013C133.951 118.139 134.046 118.254 134.161 118.369C134.968 125.767 136.739 132.38 139.474 138.112C142.24 143.949 146.138 149 150.697 152.825Z" fill="#FFA8DE"/>
<path d="M150.676 143.509L140.018 123.63C140.196 123.766 140.364 123.902 140.542 124.049L150.56 142.734V142.755C150.613 143.006 150.645 143.258 150.676 143.509Z" fill="#FFA8DE"/>
<path d="M120.57 86.4C121.667 90.73 121.736 95.269 121.281 99.712C121.151 100.98 120.964 102.288 120.291 103.371C119.618 104.454 118.331 105.254 117.085 104.98C116.314 104.81 115.681 104.271 114.95 103.975C114.137 103.646 113.237 103.63 112.366 103.526C111.495 103.422 110.581 103.196 109.973 102.563C109.366 101.93 109.235 100.78 109.908 100.218C114.084 96.737 117.097 90.584 120.57 86.4Z" fill="#FF8C9C"/>
<path d="M106.666 95.1101H102.955C102.394 95.1101 101.934 94.6511 101.934 94.0891C101.934 93.5281 102.393 93.0681 102.955 93.0681H106.666C107.227 93.0681 107.687 93.5271 107.687 94.0891C107.687 94.6501 107.228 95.1101 106.666 95.1101Z" fill="#502750"/>
<path d="M129.466 94.8231C129.476 94.8121 129.466 94.8121 129.466 94.8121C129.319 94.6551 129.131 94.5401 128.9 94.5191L125.725 94.2361C125.704 94.2361 125.673 94.2361 125.652 94.2361C125.201 94.2361 124.814 94.5711 124.761 95.0321C124.719 95.5141 125.075 95.9441 125.557 95.9861L128.743 96.2791C128.764 96.2791 128.795 96.2791 128.816 96.2791C128.931 96.2791 129.046 96.2581 129.151 96.2061L129.466 94.8231Z" fill="#502750"/>
<path d="M111.299 98.4371C111.299 98.4371 108.289 100.377 109.761 102.183C111.233 103.989 112.437 103.253 113.908 103.721C115.38 104.189 117.988 106.463 119.794 103.989C121.6 101.514 121.868 97.7011 121.667 93.6211C121.466 89.5411 120.664 85.5271 120.664 85.5271" stroke="#502750" stroke-width="0.524" stroke-miterlimit="10" stroke-linecap="round" stroke-linejoin="round"/>
<path d="M100.168 84.2261C99.6031 84.4041 99.0311 84.6161 98.5851 85.0061C97.8731 85.6301 97.5951 86.6031 97.3761 87.5251C97.1881 88.3171 97.0171 89.1251 97.0561 89.9391C97.0951 90.7521 97.3681 91.5831 97.9531 92.1491C98.7211 92.8921 99.8661 93.0581 100.931 93.1491C103.423 93.3611 105.94 93.3651 108.417 93.0191C109.334 92.8911 110.31 92.6801 110.941 92.0021C111.546 91.3521 111.703 90.4091 111.749 89.5221C111.888 86.8831 110.78 84.1421 107.996 83.3951C107.026 83.1351 105.907 83.3021 104.922 83.3621C103.307 83.4611 101.712 83.7411 100.168 84.2261Z" fill="#FFECE0"/>
<path d="M130.87 86.732C130.786 88.189 130.577 89.593 130.241 90.966C130.042 92.077 129.759 93.533 129.382 95.221C128.711 95.263 127.999 95.148 127.328 95.011C125.955 94.739 124.383 94.288 123.838 92.999C123.628 92.517 123.607 91.972 123.618 91.438C123.628 90.621 123.712 89.803 123.859 88.996C123.995 88.294 124.194 87.581 124.666 87.047C125.347 86.282 126.458 86.062 127.474 86.062C128.628 86.062 129.801 86.292 130.87 86.732Z" fill="#FFECE0"/>
<path d="M71.946 72.796C71.946 72.796 74.622 76.185 53.396 84.925C32.17 93.665 23.786 95.27 26.284 102.049C28.782 108.828 55.537 112.751 86.217 93.487C116.897 74.223 131.523 54.067 157.387 59.418C157.387 59.418 151.144 54.067 136.696 53.71C122.248 53.353 117.075 54.959 117.075 54.959C117.075 54.959 103.697 42.473 97.098 33.733C90.498 24.993 77.656 5.37199 71.413 6.97699C65.17 8.58199 54.646 34.625 54.646 34.625L67.31 25.35C67.31 25.35 69.807 34.804 71.056 48.003C72.302 61.202 71.946 72.796 71.946 72.796Z" fill="#993F8D"/>
<path d="M120.055 37.086L132.296 36.116L120.164 34.992C121.946 32.954 124.622 29.758 124.622 29.758C124.622 29.758 121.342 32.643 119.125 34.625L118.183 21.811L117.288 34.227C115.169 32.359 111.945 29.926 111.945 29.926C111.945 29.926 114.91 33.194 116.734 35.186L104.327 35.988L116.629 37.018C114.739 39.123 112.113 42.603 112.113 42.603C112.113 42.603 115.414 39.607 117.403 37.786L118.311 49.651L119.288 37.741C121.3 39.511 124.79 42.434 124.79 42.434C124.79 42.434 122.03 39.297 120.055 37.086Z" fill="#FFA861"/>
<path d="M176.659 109.887L199.124 108.108L176.858 106.044C180.128 102.303 185.04 96.438 185.04 96.438C185.04 96.438 179.02 101.733 174.952 105.371L173.223 81.854L171.58 104.641C167.691 101.213 161.774 96.747 161.774 96.747C161.774 96.747 167.217 102.744 170.564 106.4L147.794 107.873L170.373 109.764C166.904 113.628 162.084 120.014 162.084 120.014C162.084 120.014 168.143 114.515 171.793 111.173L173.46 132.95L175.254 111.092C178.946 114.341 185.351 119.705 185.351 119.705C185.351 119.705 180.285 113.946 176.659 109.887Z" fill="#FFA861"/>
<path opacity="0.4" d="M194.497 111.718C196.441 99.8724 188.413 88.6938 176.567 86.7503C164.721 84.8068 153.543 92.8343 151.599 104.68C149.655 116.526 157.683 127.705 169.529 129.648C181.375 131.592 192.554 123.564 194.497 111.718Z" fill="#FFECE0"/>
<path d="M161.442 64.9051C161.321 64.8861 161.327 64.7091 161.449 64.6991C163.106 64.5571 166.326 64.1641 166.687 63.2321C167.07 62.2441 167.777 58.4321 168.065 56.8291C168.086 56.7111 168.257 56.7161 168.271 56.8361C168.474 58.6231 169.047 63.1351 169.698 63.5581C170.317 63.9611 173.222 64.3861 174.575 64.5671C174.693 64.5831 174.697 64.7511 174.58 64.7721C173.497 64.9661 172.413 65.1961 171.364 65.5301C170.835 65.6991 170.249 65.9031 169.799 66.2641C169.276 66.6851 169.163 67.1861 169.022 67.8081C168.703 69.2111 168.488 70.6411 168.276 72.0641C168.258 72.1841 168.084 72.1811 168.07 72.0601C167.889 70.4891 167.369 67.2161 166.119 66.2631C165.218 65.5781 162.804 65.1181 161.442 64.9051Z" fill="#FFECE0"/>
<path d="M158.762 171.534C158.641 171.515 158.647 171.338 158.769 171.328C160.426 171.186 163.646 170.793 164.007 169.861C164.39 168.873 165.097 165.061 165.385 163.458C165.406 163.34 165.577 163.345 165.591 163.465C165.794 165.252 166.367 169.764 167.018 170.187C167.637 170.589 170.541 171.016 171.895 171.196C172.013 171.212 172.017 171.38 171.9 171.401C170.817 171.595 169.733 171.825 168.684 172.159C168.155 172.328 167.569 172.532 167.119 172.893C166.596 173.314 166.483 173.815 166.342 174.437C166.023 175.84 165.808 177.27 165.596 178.693C165.578 178.813 165.404 178.81 165.39 178.689C165.209 177.118 164.689 173.845 163.439 172.892C162.538 172.207 160.124 171.748 158.762 171.534Z" fill="#FFECE0"/>
<path d="M133.433 107.321C133.312 107.302 133.318 107.125 133.44 107.115C135.097 106.973 138.317 106.58 138.678 105.648C139.06 104.66 139.768 100.848 140.056 99.2451C140.077 99.1271 140.248 99.1321 140.262 99.2521C140.465 101.039 141.038 105.551 141.689 105.974C142.308 106.376 145.212 106.803 146.566 106.983C146.684 106.999 146.688 107.167 146.571 107.188C145.488 107.382 144.404 107.612 143.355 107.946C142.826 108.115 142.24 108.319 141.79 108.68C141.267 109.101 141.154 109.602 141.013 110.224C140.694 111.627 140.479 113.057 140.267 114.48C140.249 114.6 140.075 114.597 140.061 114.476C139.88 112.905 139.36 109.632 138.11 108.679C137.21 107.994 134.795 107.534 133.433 107.321Z" fill="#FFECE0"/>
<path d="M48.115 65.095C47.943 65.068 47.951 64.818 48.125 64.803C50.473 64.602 55.035 64.045 55.546 62.725C56.088 61.325 57.09 55.925 57.498 53.654C57.528 53.487 57.77 53.494 57.789 53.663C58.077 56.195 58.888 62.587 59.811 63.186C60.688 63.756 64.803 64.36 66.72 64.616C66.887 64.638 66.892 64.877 66.727 64.907C65.193 65.181 63.657 65.507 62.171 65.981C61.421 66.22 60.591 66.509 59.954 67.021C59.212 67.617 59.053 68.327 58.853 69.209C58.401 71.197 58.096 73.223 57.796 75.238C57.771 75.408 57.524 75.403 57.504 75.232C57.247 73.006 56.511 68.37 54.74 67.019C53.466 66.049 50.045 65.398 48.115 65.095Z" fill="#FFECE0"/>
<path d="M21.138 121.559C21.016 121.54 21.022 121.363 21.145 121.353C22.802 121.211 26.022 120.818 26.383 119.886C26.766 118.898 27.473 115.086 27.761 113.483C27.782 113.365 27.953 113.37 27.967 113.49C28.17 115.277 28.743 119.789 29.394 120.212C30.013 120.614 32.918 121.041 34.271 121.221C34.389 121.237 34.393 121.405 34.276 121.426C33.193 121.62 32.109 121.85 31.06 122.184C30.531 122.353 29.945 122.557 29.495 122.918C28.972 123.339 28.859 123.84 28.718 124.462C28.399 125.865 28.184 127.295 27.972 128.718C27.954 128.838 27.78 128.835 27.766 128.714C27.585 127.143 27.065 123.87 25.815 122.917C24.914 122.232 22.5 121.773 21.138 121.559Z" fill="#FFECE0"/>
<path d="M13.773 86.212C13.601 86.185 13.609 85.935 13.783 85.92C16.131 85.719 20.693 85.162 21.204 83.842C21.746 82.442 22.748 77.042 23.156 74.771C23.186 74.604 23.428 74.611 23.447 74.78C23.735 77.312 24.546 83.704 25.468 84.303C26.345 84.873 30.46 85.477 32.377 85.733C32.544 85.755 32.549 85.994 32.384 86.024C30.85 86.298 29.314 86.624 27.828 87.098C27.078 87.337 26.248 87.626 25.611 88.139C24.869 88.735 24.71 89.445 24.51 90.327C24.058 92.315 23.753 94.341 23.453 96.356C23.428 96.527 23.181 96.521 23.161 96.35C22.904 94.124 22.168 89.487 20.397 88.137C19.123 87.166 15.703 86.515 13.773 86.212Z" fill="#FFECE0"/>
</svg>
