<svg width="204" height="203" viewBox="0 0 204 203" fill="none" xmlns="http://www.w3.org/2000/svg">
<path d="M101.726 202.622C95.007 202.622 88.295 201.955 81.777 200.641C77.114 199.713 72.494 198.446 68.061 196.879C68.061 196.879 67.635 196.73 67.514 196.685C67.437 196.657 67.279 196.596 67.279 196.596C57.048 192.883 47.607 187.622 39.125 180.924L38.851 180.701C36.02 178.916 33.502 176.705 31.354 174.118C25.101 168.056 19.668 161.247 15.202 153.873C15.146 153.781 15.041 153.592 15.041 153.592C14.922 153.392 14.813 153.206 14.711 153.022C6.12297 138.571 1.26996 122.036 0.674957 105.195C0.663957 105.001 0.658959 104.808 0.657959 104.613C0.615959 103.576 0.60498 102.547 0.60498 101.509C0.60498 69.077 16.339 38.391 42.696 19.411C42.9 19.259 43.104 19.117 43.308 18.977C46.22 16.903 49.307 14.954 52.485 13.187C55.364 11.562 58.433 10.041 61.57 8.685C62.644 8.22 63.73 7.777 64.827 7.344C71.709 4.65 78.866 2.722 86.113 1.607C88.119 1.293 90.14 1.04 92.108 0.855997C92.35 0.829997 92.599 0.805996 92.842 0.788996C95.759 0.527996 98.748 0.395996 101.727 0.395996C119.141 0.395996 136.295 4.892 151.356 13.4C151.561 13.477 151.762 13.565 151.958 13.663C152.162 13.764 152.341 13.864 152.516 13.965C152.849 14.158 153.158 14.376 153.442 14.617C160.105 18.58 166.306 23.316 171.901 28.717C172.327 28.939 172.732 29.212 173.104 29.536C173.418 29.808 173.7 30.091 173.965 30.403C174.286 30.778 174.558 31.187 174.778 31.618C192.38 49.977 202.272 73.863 202.813 99.303C203.275 100.186 203.526 101.179 203.526 102.205C203.526 102.549 203.512 102.89 203.471 103.23C203.374 104.033 203.126 104.795 202.752 105.482C202.608 109.308 202.24 113.147 201.652 116.952C201.86 117.578 201.97 118.241 201.97 118.923C201.97 119.687 201.845 120.291 201.75 120.678C201.524 121.603 201.094 122.453 200.504 123.171C200.433 123.491 200.359 123.81 200.284 124.128C200.249 124.294 200.211 124.458 200.169 124.627C199.939 125.629 199.688 126.621 199.427 127.613C199.406 127.692 199.309 128.039 199.281 128.132C199.091 128.833 198.901 129.525 198.688 130.216C198.605 130.506 198.503 130.854 198.39 131.206C198.137 132.052 197.863 132.886 197.589 133.709C195.057 141.27 191.594 148.556 187.292 155.377C184.484 159.837 181.25 164.169 177.679 168.246L177.31 168.66C176.953 169.06 176.595 169.461 176.231 169.851C175.756 170.38 175.261 170.899 174.776 171.406C174.224 171.981 173.681 172.524 173.138 173.066C171.778 174.437 170.307 175.822 168.781 177.167L168.497 177.418C167.433 178.342 166.445 179.198 165.413 180.035C164.815 180.526 164.181 181.028 163.545 181.509C163.309 181.698 163.073 181.879 162.837 182.059C162.465 182.345 162.06 182.65 161.644 182.954C161.181 183.302 160.71 183.641 160.237 183.969C159.607 184.429 158.966 184.867 158.314 185.305C156.793 186.343 155.113 187.41 153.358 188.449C152.889 188.735 152.347 189.057 151.801 189.361C151.535 189.516 151.265 189.669 150.992 189.821C150.901 189.931 150.81 190.04 150.717 190.148C150.221 190.734 149.619 191.224 148.945 191.593C148.759 191.695 148.567 191.793 148.372 191.891L148.189 191.985C147.322 192.437 146.39 192.667 145.464 192.691C144.479 193.165 143.434 193.644 142.278 194.15C141.827 194.348 141.368 194.548 140.897 194.74C140.389 194.96 139.881 195.17 139.364 195.37C138.973 195.534 138.592 195.683 138.201 195.829C137.547 196.093 136.901 196.337 136.237 196.572C136.055 196.64 135.872 196.707 135.683 196.768C134.893 197.057 134.102 197.328 133.302 197.586C123.16 200.926 112.526 202.622 101.726 202.622Z" fill="white"/>
<path d="M196.576 101.511V101.908C196.576 102.002 196.576 102.096 196.566 102.19V102.461C196.566 102.555 196.566 102.649 196.556 102.743C196.504 108.17 195.972 113.471 195.022 118.626C195.022 118.72 195.001 118.803 194.98 118.887V118.897C194.886 119.419 194.782 119.941 194.677 120.462C194.52 121.245 194.353 122.027 194.166 122.799C194.145 122.924 194.114 123.039 194.082 123.164C193.863 124.124 193.623 125.074 193.372 126.023C193.33 126.159 193.299 126.294 193.257 126.43C193.08 127.088 192.902 127.735 192.704 128.382C192.61 128.705 192.516 129.029 192.412 129.352C192.172 130.156 191.911 130.949 191.65 131.731C189.239 138.932 185.973 145.736 181.997 152.039C179.305 156.318 176.278 160.346 172.97 164.123C172.521 164.624 172.073 165.135 171.613 165.626C171.164 166.127 170.695 166.617 170.235 167.097C169.734 167.619 169.223 168.13 168.711 168.641C167.396 169.966 166.04 171.239 164.641 172.471C164.547 172.554 164.453 172.638 164.359 172.721C163.409 173.546 162.46 174.37 161.468 175.173C160.884 175.653 160.289 176.123 159.694 176.571C159.475 176.749 159.256 176.915 159.036 177.082C158.671 177.364 158.295 177.645 157.909 177.927C157.481 178.251 157.043 178.564 156.605 178.866C156.021 179.294 155.426 179.701 154.82 180.108C153.307 181.141 151.752 182.122 150.166 183.061C149.686 183.353 149.196 183.645 148.705 183.917C148.152 184.241 147.578 184.554 147.004 184.867C146.973 184.888 146.941 184.898 146.91 184.919C146.701 185.034 146.493 185.149 146.284 185.253C145.94 185.441 145.595 185.618 145.251 185.796C145.011 185.921 144.771 186.046 144.531 186.161C144.03 186.422 143.519 186.672 143.007 186.923C141.932 187.445 140.857 187.935 139.762 188.415C139.334 188.603 138.906 188.791 138.468 188.968C137.988 189.177 137.508 189.375 137.017 189.563C136.652 189.719 136.297 189.855 135.932 189.991C135.316 190.242 134.711 190.471 134.085 190.69C133.949 190.742 133.814 190.794 133.668 190.836C132.906 191.118 132.144 191.379 131.372 191.629C122.043 194.697 112.076 196.356 101.724 196.356C95.316 196.356 89.066 195.719 83.013 194.499C78.609 193.622 74.31 192.443 70.146 190.972C69.979 190.909 69.812 190.857 69.645 190.795C69.582 190.774 69.509 190.743 69.447 190.722C59.804 187.237 50.892 182.238 43.003 176.008C42.846 175.883 42.7 175.758 42.544 175.632C42.45 175.559 42.356 175.486 42.262 175.402C42.189 175.35 42.106 175.287 42.033 175.225C41.396 174.714 40.77 174.192 40.154 173.66C38.724 172.429 37.326 171.166 35.959 169.861C35.949 169.861 35.949 169.851 35.938 169.84C30.021 164.142 24.834 157.693 20.556 150.628C20.514 150.545 20.462 150.461 20.42 150.388C20.326 150.231 20.232 150.075 20.149 149.918C12.239 136.644 7.49 121.293 6.927 104.878C6.917 104.742 6.91699 104.607 6.91699 104.471C6.87499 103.48 6.86499 102.499 6.86499 101.507C6.86499 69.772 22.456 41.679 46.395 24.46C46.562 24.335 46.729 24.22 46.896 24.105C49.661 22.133 52.542 20.317 55.526 18.658C58.281 17.103 61.13 15.694 64.052 14.431C65.064 13.993 66.087 13.575 67.12 13.168C73.465 10.684 80.144 8.85801 87.063 7.79401C88.931 7.50201 90.83 7.26201 92.74 7.08401C92.928 7.06301 93.126 7.04201 93.314 7.03201C96.09 6.78201 98.887 6.65601 101.725 6.65601C118.725 6.65601 134.67 11.122 148.467 18.96C148.55 19.002 148.623 19.043 148.696 19.085C148.842 19.168 148.988 19.252 149.124 19.335C149.197 19.377 149.27 19.418 149.343 19.471C156.272 23.489 162.649 28.373 168.315 33.966C168.388 34.029 168.451 34.091 168.513 34.164C168.586 34.237 168.669 34.32 168.743 34.394C168.806 34.457 168.868 34.519 168.931 34.592C186.025 51.743 196.576 75.39 196.576 101.511Z" fill="#993F8D"/>
<path d="M54.192 24.203C51.844 24.266 49.423 24.328 47.085 24.767C47.252 24.642 47.419 24.527 47.586 24.412C49.767 24.057 52.011 23.995 54.181 23.942C55.746 23.9 57.364 23.859 58.929 23.702C70.053 22.648 79.779 16.293 89.182 10.146C90.591 9.22799 92 8.29899 93.429 7.39099C93.617 7.36999 93.815 7.34899 94.003 7.33899C92.427 8.32999 90.872 9.35299 89.328 10.365C79.894 16.522 70.147 22.898 58.95 23.963C57.374 24.119 55.757 24.161 54.192 24.203Z" fill="#FFECE0"/>
<path d="M149.386 19.392C148.426 21.563 147.069 23.535 145.493 25.111C140.87 29.755 134.41 32.186 128.18 34.284C122.284 36.277 116.242 38.156 110.387 39.982C95.819 44.521 80.75 49.207 66.787 55.928C43.39 67.178 22.947 84.282 7.617 105.184C7.607 105.048 7.60699 104.913 7.60699 104.777C22.937 83.958 43.339 66.916 66.673 55.688C80.657 48.967 95.736 44.271 110.315 39.732C116.159 37.916 122.212 36.027 128.097 34.044C134.296 31.957 140.724 29.525 145.316 24.923C146.871 23.368 148.217 21.406 149.156 19.267C149.24 19.308 149.313 19.35 149.386 19.392Z" fill="#FFECE0"/>
<path d="M40.145 121.088C39.341 122.925 38.517 124.824 37.661 126.65C33.268 136.032 27.705 144.234 21.246 150.934C21.204 150.851 21.152 150.767 21.11 150.694C27.528 144.026 33.059 135.865 37.421 126.535C38.277 124.709 39.101 122.82 39.905 120.983C43.401 113 47.001 104.756 53.847 99.4019C59.044 95.3419 65.514 93.454 71.775 91.638C75.24 90.626 78.83 89.5719 82.179 88.1729C91.248 84.3639 99.043 77.6329 104.125 69.2109C105.325 67.2179 106.41 65.089 107.464 63.023C109.979 58.087 112.578 52.9939 116.919 49.4879C122.742 44.8019 130.465 43.842 137.936 42.924C139.407 42.736 140.91 42.5589 142.371 42.3399C151.638 41.0039 160.581 38.2909 169.003 34.2729C169.076 34.3359 169.139 34.398 169.201 34.471C160.727 38.52 151.721 41.2539 142.413 42.5999C140.952 42.8089 139.439 42.9969 137.978 43.1839C130.537 44.1019 122.846 45.0419 117.086 49.6959C112.787 53.1609 110.198 58.232 107.694 63.137C106.64 65.214 105.555 67.353 104.344 69.346C99.231 77.809 91.393 84.582 82.272 88.412C78.912 89.821 75.322 90.8639 71.847 91.8769C65.606 93.7029 59.157 95.582 54.012 99.61C47.22 104.912 43.62 113.136 40.145 121.088Z" fill="#FFECE0"/>
<path d="M192.892 117.769C193.842 118.103 194.781 118.489 195.71 118.927C195.71 119.021 195.689 119.115 195.668 119.198C194.718 118.749 193.769 118.363 192.809 118.019C184.502 115.076 175.517 116.443 169.924 121.515C163.141 127.662 162.254 137.356 161.398 146.738C161.127 149.639 160.855 152.645 160.407 155.483C158.664 166.482 153.624 177.054 145.943 186.101C145.734 186.216 145.515 186.32 145.296 186.435C153.206 177.304 158.382 166.586 160.146 155.441C160.595 152.613 160.866 149.618 161.137 146.706C162.003 137.283 162.89 127.536 169.757 121.316C175.413 116.193 184.492 114.795 192.892 117.769Z" fill="#FFECE0"/>
<path d="M197.265 102.209C197.265 102.303 197.265 102.397 197.255 102.491C189.627 105.444 180.808 105.549 172.199 105.664L171.093 105.674C140.767 106.081 117.339 110.307 97.375 118.98C72.361 129.844 53.19 148.503 44.79 170.177C44.06 172.066 43.444 173.913 42.953 175.708C42.88 175.656 42.797 175.593 42.723 175.531C43.224 173.757 43.829 171.952 44.549 170.084C52.971 148.346 72.193 129.635 97.27 118.74C117.275 110.047 140.724 105.821 171.092 105.414L172.198 105.404C180.808 105.288 189.647 105.184 197.265 102.209Z" fill="#FFECE0"/>
<path d="M63.002 24.415C63.002 24.415 72.772 18.908 86.094 23.705C99.416 28.501 108.298 43.244 118.6 52.126C128.902 61.008 137.961 63.494 135.652 68.113C133.343 72.731 120.731 73.442 108.83 80.547C96.929 87.652 89.646 100.442 89.646 100.442C89.646 100.442 91.778 85.166 77.567 82.146C63.357 79.126 50.035 81.968 53.409 71.311C56.784 60.653 60.159 59.41 57.672 51.772C55.186 44.132 52.167 31.875 63.002 24.415Z" fill="#993F8D"/>
<g opacity="0.49">
<path d="M63.002 24.415C63.002 24.415 72.772 18.908 86.094 23.705C99.416 28.501 108.298 43.244 118.6 52.126C128.902 61.008 137.961 63.494 135.652 68.113C133.343 72.731 120.731 73.442 108.83 80.547C96.929 87.652 89.646 100.442 89.646 100.442C89.646 100.442 91.778 85.166 77.567 82.146C63.357 79.126 50.035 81.968 53.409 71.311C56.784 60.653 60.159 59.41 57.672 51.772C55.186 44.132 52.167 31.875 63.002 24.415Z" fill="#502750"/>
</g>
<path d="M161.324 100.885L60.87 106.833C60.87 106.833 64.063 87.652 74.812 83.655C85.561 79.658 97.729 76.277 97.729 76.277L97.072 74.211L96.31 71.79L95.809 70.193L95.799 70.151L95.069 67.845L108.99 48.696L109.981 47.329L115.428 63.463L117.265 68.91C117.265 68.91 149.866 72.469 155.011 76.465C160.165 80.451 161.324 100.885 161.324 100.885Z" fill="#FF8C9C"/>
<g opacity="0.42">
<path d="M107.09 59.8929C107.048 63.1069 106.641 66.3319 105.504 69.3369C104.909 70.9229 104.137 72.4889 102.874 73.6259C101.622 74.7629 99.806 75.3899 98.199 74.8569C97.802 74.7209 97.427 74.4919 97.072 74.2099L96.31 71.7889L95.809 70.1919C100.192 67.5529 104.063 64.0359 107.09 59.8929Z" fill="#502750"/>
</g>
<path d="M161.324 100.885L60.87 106.833C60.87 106.833 64.063 87.6519 74.812 83.6549C85.561 79.6579 97.729 76.2769 97.729 76.2769L96.31 71.7899C102.645 68.9509 109.021 66.1759 115.428 63.4619L117.265 68.9089C117.265 68.9089 149.866 72.4679 155.011 76.4639C160.165 80.4509 161.324 100.885 161.324 100.885Z" fill="#502750"/>
<path d="M109.542 54.8729C110.21 63.6699 94.483 72.3319 86.897 72.8639C81.544 73.2399 74.802 61.8439 71.296 55.0809C70.816 54.1629 70.399 53.3279 70.054 52.6179C69.678 51.9499 69.355 51.2509 69.063 50.5409C68.959 50.3319 68.906 50.2169 68.906 50.2169L68.937 50.2069C68.927 50.1759 68.906 50.1339 68.895 50.1029C67.977 47.7239 67.444 45.1249 67.444 42.4219C67.444 31.7459 75.302 22.9179 85.56 21.4049C86.583 21.2589 87.626 21.1749 88.691 21.1749C99.481 21.1749 108.373 29.1999 109.75 39.6039C109.875 40.5219 109.938 41.4619 109.938 42.4219C109.938 44.6869 109.583 46.8569 108.926 48.9029C109.166 50.7829 109.385 52.7969 109.542 54.8729Z" fill="#FF8C9C"/>
<path d="M88.4921 49.9039C88.4921 50.8359 87.737 51.5919 86.804 51.5919C85.872 51.5919 85.1171 50.8359 85.1171 49.9039C85.1171 48.9719 85.872 48.2159 86.804 48.2159C87.736 48.2169 88.4921 48.9719 88.4921 49.9039Z" fill="#502750"/>
<path d="M76.724 55.811C76.724 56.743 75.969 57.499 75.036 57.499C74.104 57.499 73.349 56.743 73.349 55.811C73.349 54.879 74.104 54.124 75.036 54.124C75.969 54.123 76.724 54.879 76.724 55.811Z" fill="#502750"/>
<path d="M82.31 43.274C82.036 43.497 81.7681 43.737 81.5831 44.038C81.2621 44.559 81.2221 45.216 81.3541 45.813C81.4851 46.41 81.7731 46.961 82.0741 47.493C82.1981 47.711 82.33 47.934 82.534 48.08C82.874 48.324 83.333 48.302 83.749 48.252C85.173 48.081 86.5731 47.706 87.8931 47.142C88.5761 46.851 89.2771 46.471 89.6271 45.816C90.0601 45.004 89.8261 43.979 89.3461 43.194C88.9221 42.498 88.303 41.906 87.55 41.596C85.641 40.811 83.732 42.117 82.31 43.274Z" fill="#502750"/>
<path d="M75.438 50.866C75.396 51.44 75.041 51.941 74.676 52.4C73.852 53.464 72.923 54.56 71.639 54.988C71.524 55.03 71.409 55.061 71.295 55.082C70.815 54.164 70.398 53.329 70.053 52.619C69.677 51.951 69.354 51.252 69.062 50.542C68.958 50.333 68.905 50.218 68.905 50.218L68.936 50.208C68.926 50.177 68.905 50.135 68.894 50.104C69.677 49.217 70.595 48.445 71.618 47.839C71.983 47.62 72.39 47.422 72.829 47.411C73.32 47.411 73.779 47.682 74.123 48.037C74.467 48.392 74.697 48.83 74.937 49.268C75.209 49.76 75.48 50.303 75.438 50.866Z" fill="#502750"/>
<path d="M87.387 57.1379C86.949 56.4389 86.291 55.8959 85.529 55.5829C85.362 55.5199 85.164 55.4579 84.976 55.5309C84.694 55.6349 84.569 55.9589 84.611 56.4179C84.705 57.2739 84.976 58.1189 85.414 58.8699C84.214 59.4959 82.982 60.0809 81.741 60.6229C81.616 60.6749 81.48 60.7379 81.344 60.7269C81.104 60.7059 80.937 60.4769 80.78 60.2369C79.058 57.5129 77.743 54.5699 76.867 51.4809C76.836 51.3979 76.815 51.3139 76.794 51.2199C76.721 50.9799 76.658 50.7399 76.596 50.4999C76.575 50.4369 76.513 50.3959 76.429 50.4059C76.366 50.4269 76.325 50.4999 76.335 50.5729C76.398 50.8239 76.471 51.0639 76.544 51.3139C76.565 51.3969 76.586 51.4909 76.617 51.5749C77.514 54.6739 78.829 57.6279 80.562 60.3719C80.739 60.6639 80.969 60.9559 81.324 60.9879H81.376C81.553 60.9879 81.71 60.9149 81.846 60.8629C83.578 60.1009 85.3 59.2559 86.949 58.3379C87.231 58.1809 87.554 57.9619 87.554 57.6069C87.554 57.4299 87.47 57.2739 87.387 57.1379ZM86.823 58.1089C86.437 58.3279 86.04 58.5369 85.654 58.7459C85.226 58.0259 84.955 57.2219 84.871 56.3979C84.861 56.2729 84.84 55.8659 85.069 55.7719C85.09 55.7619 85.121 55.7619 85.163 55.7619C85.246 55.7619 85.341 55.7929 85.434 55.8249C86.144 56.1169 86.759 56.6289 87.166 57.2759C87.229 57.3799 87.291 57.4949 87.291 57.6099C87.293 57.8269 87.043 57.9939 86.823 58.1089Z" fill="#502750"/>
<path d="M84.074 61.7949C84.011 61.7949 83.956 61.7499 83.946 61.6859C83.934 61.6149 83.983 61.5479 84.054 61.5359C86.187 61.1919 88.145 59.6979 89.041 57.7319C89.07 57.6659 89.149 57.6369 89.213 57.6669C89.278 57.6969 89.308 57.7739 89.277 57.8399C88.332 59.9149 86.346 61.4299 84.095 61.7939C84.088 61.7949 84.081 61.7949 84.074 61.7949Z" fill="#502750"/>
<path d="M109.751 39.606C108.822 39.731 107.904 39.909 107.09 40.336C106.046 40.879 105.191 41.933 105.232 43.112C105.242 43.3 105.263 43.509 105.138 43.644C105.054 43.738 104.929 43.78 104.804 43.801C103.573 44.02 102.341 43.164 101.725 42.069C101.109 40.973 100.974 39.679 100.859 38.437C99.721 39.449 98.48 40.503 96.967 40.639C95.276 40.785 93.669 39.658 92.834 38.187C91.989 36.716 91.811 34.962 91.864 33.272C91.071 34.326 89.558 34.67 88.316 34.263C87.074 33.867 86.104 32.823 85.54 31.644C84.987 30.465 84.799 29.139 84.747 27.825C84.653 25.696 84.883 23.546 85.436 21.491L85.561 21.408C86.584 21.262 87.627 21.178 88.692 21.178C99.482 21.177 108.373 29.202 109.751 39.606Z" fill="#502750"/>
<path d="M68.869 26.3839C65.201 28.5179 61.857 31.5709 60.443 35.5729C59.856 37.2359 59.689 39.2719 60.854 40.5959C61.782 41.6509 63.382 41.9549 64.727 41.5489C63.113 43.1139 61.994 45.1829 61.567 47.3899C61.312 48.7119 61.313 50.1369 61.911 51.3429C62.51 52.5489 63.811 53.4689 65.149 53.3169C66.632 53.1489 67.691 51.8089 68.37 50.4799C69.673 47.9329 70.22 45.0769 70.752 42.2659C71.302 43.4969 72.089 44.7629 73.365 45.1979C74.185 45.4769 75.094 45.3639 75.913 45.0809C78.203 44.2909 79.911 42.2269 80.666 39.9249C81.421 37.6229 81.313 35.1109 80.793 32.7449C81.284 33.4439 82.306 33.6109 83.106 33.3119C83.907 33.0129 84.515 32.3479 84.997 31.6429C85.99 30.1879 86.542 28.4509 86.637 26.6959C86.71 25.3409 86.625 22.9319 85.651 21.8459C84.677 20.7599 82.091 21.7519 80.856 22.0049C78.921 22.3999 77.006 22.9039 75.137 23.5459C72.966 24.2949 70.856 25.2289 68.869 26.3839Z" fill="#502750"/>
<path d="M107.258 39.9399C109.081 39.1369 111.335 39.3219 112.931 40.5149C113.975 41.2959 114.706 42.4569 115.067 43.7099C115.793 46.2309 114.916 49.1939 112.801 50.7459C110.686 52.2979 107.444 52.1789 105.585 50.3279C102.419 47.1729 103.08 41.7799 107.258 39.9399Z" fill="#FF8C9C"/>
<path d="M109.417 49.6159C109.308 49.6159 109.206 49.5469 109.169 49.4369C108.768 48.2299 108.32 46.6369 108.413 45.0179C108.511 43.3259 109.211 41.8439 110.334 40.9519C110.446 40.8629 110.612 40.8809 110.7 40.9939C110.79 41.1069 110.771 41.2709 110.658 41.3609C109.651 42.1609 109.023 43.5049 108.935 45.0479C108.846 46.5789 109.279 48.1099 109.665 49.2739C109.711 49.4109 109.636 49.5579 109.5 49.6039C109.472 49.6119 109.445 49.6159 109.417 49.6159Z" fill="#502750"/>
<path d="M109.309 49.6109C109.168 49.6109 109.052 49.4989 109.048 49.3579C108.979 47.1119 110.278 44.9229 112.283 43.9109C112.411 43.8469 112.567 43.8979 112.634 44.0259C112.698 44.1549 112.647 44.3119 112.518 44.3759C110.72 45.2849 109.508 47.3259 109.571 49.3409C109.575 49.4849 109.462 49.6049 109.318 49.6099C109.314 49.6109 109.312 49.6109 109.309 49.6109Z" fill="#502750"/>
<path d="M181.997 152.04C179.305 156.319 176.278 160.347 172.97 164.124C172.521 164.625 172.073 165.136 171.613 165.627C171.164 166.128 170.695 166.618 170.235 167.098C169.734 167.62 169.223 168.131 168.711 168.642C167.396 169.967 166.04 171.24 164.641 172.472C164.547 172.555 164.453 172.639 164.359 172.722C163.409 173.547 162.46 174.371 161.468 175.174C160.884 175.654 160.289 176.124 159.694 176.572C159.475 176.75 159.256 176.916 159.036 177.083C158.671 177.365 158.295 177.646 157.909 177.928C157.481 178.252 157.043 178.565 156.605 178.867C156.021 179.295 155.426 179.702 154.82 180.109C153.307 181.142 151.752 182.123 150.166 183.062C149.686 183.354 149.196 183.646 148.705 183.918C148.152 184.242 147.578 184.555 147.004 184.868C146.973 184.889 146.941 184.899 146.91 184.92C146.701 185.035 146.493 185.15 146.284 185.254C145.94 185.442 145.595 185.619 145.251 185.797C145.011 185.922 144.771 186.047 144.531 186.162C144.03 186.423 143.519 186.673 143.007 186.924C141.932 187.446 140.857 187.936 139.762 188.416C139.334 188.604 138.906 188.792 138.468 188.969C137.988 189.178 137.508 189.376 137.017 189.564C136.652 189.72 136.297 189.856 135.932 189.992C135.316 190.243 134.711 190.472 134.085 190.691C133.949 190.743 133.814 190.795 133.668 190.837C132.906 191.119 132.144 191.38 131.372 191.63C122.043 194.698 112.076 196.357 101.724 196.357C95.316 196.357 89.066 195.72 83.013 194.5C78.609 193.623 74.31 192.444 70.146 190.973C69.979 190.91 69.812 190.858 69.645 190.796C69.582 190.775 69.509 190.744 69.447 190.723C59.804 187.238 50.892 182.239 43.003 176.009C42.846 175.884 42.7 175.759 42.544 175.633C42.45 175.56 42.356 175.487 42.262 175.403C42.189 175.351 42.106 175.288 42.033 175.226C41.396 174.715 40.77 174.193 40.154 173.661L44.307 160.032C44.307 160.032 44.307 160.032 44.317 160.032L45.058 157.58L45.225 157.048L45.308 156.777L45.892 154.878L45.975 154.596L46.1 154.179L49.419 143.315L50.473 139.84L51.61 136.104L51.704 135.822L52.737 132.42L52.821 132.159L53.917 128.58L53.969 128.382L54.052 128.121L55.357 123.853L59.98 108.7C57.423 108.001 53.176 106.634 49.179 104.453C49.095 104.411 49.022 104.369 48.949 104.328C43.658 101.396 38.868 97.023 39.014 90.845C39.369 75.922 43.105 73.261 48.792 67.928C50.817 66.029 52.737 64.307 54.333 62.627C54.542 62.398 54.751 62.178 54.959 61.959C56.785 59.914 58.1 57.92 58.497 55.698C58.643 54.894 58.674 54.07 58.56 53.193C58.56 53.193 59.019 55.593 58.341 60.007C58.331 60.111 58.31 60.226 58.289 60.341C58.028 61.969 57.611 63.847 56.964 65.976C54.47 74.147 52.873 75.389 57.674 76.996C61.754 78.353 73.453 78.687 79.902 81.838C79.902 81.838 79.912 81.828 79.912 81.838C81.029 82.381 81.989 83.007 82.719 83.737C83.001 84.029 83.283 84.332 83.554 84.666C84.086 85.323 84.577 86.064 85.036 86.847C85.078 86.92 85.119 86.993 85.161 87.066C87.676 91.48 89.012 97.272 89.471 99.505L89.732 99.463L89.857 99.442C90.661 96.217 93.969 85.98 104.383 81.962C105.969 81.346 107.691 80.751 109.476 80.167C118.555 77.193 129.325 74.469 133.196 71.025C133.697 70.597 134.073 70.138 134.323 69.679C134.751 68.896 134.803 68.082 134.406 67.216C133.07 64.315 129.355 60.881 124.805 56.937C124.805 56.937 124.795 56.927 124.784 56.916C122.279 54.756 119.524 52.429 116.78 49.945C116.707 49.882 116.644 49.82 116.582 49.768C115.987 49.225 115.392 48.672 114.798 48.119C113.702 47.107 112.627 46.063 111.573 44.988C111.448 44.863 111.333 44.748 111.218 44.623C110.769 44.164 110.341 43.715 109.913 43.245C109.767 43.099 109.642 42.953 109.506 42.807C109.381 42.682 109.266 42.546 109.13 42.41C108.859 42.097 108.577 41.784 108.295 41.46C108.107 41.241 107.909 41.022 107.711 40.813C107.648 40.74 107.586 40.667 107.523 40.594C107.419 40.479 107.325 40.375 107.22 40.27C107.157 40.197 107.084 40.124 107.011 40.051C106.458 39.456 105.873 38.872 105.258 38.277C105.258 38.277 105.248 38.277 105.248 38.267C100.385 33.602 93.894 29.157 86.641 26.496C86.015 26.266 85.389 26.047 84.752 25.849C82.435 25.108 80.056 24.565 77.635 24.273C76.404 24.106 75.151 24.012 73.899 23.991C69.453 23.897 64.935 24.669 60.479 26.6L60.51 26.548C60.51 26.548 60.969 26.078 61.804 25.296C61.846 25.265 61.887 25.223 61.929 25.192C62.545 24.608 63.348 23.877 64.308 23.042C64.454 22.917 64.6 22.781 64.757 22.656C70.851 17.386 82.529 8.54697 93.121 7.58697C93.309 7.56597 93.497 7.54497 93.685 7.53497C94.53 7.48297 95.376 7.48297 96.211 7.53497C109.694 8.44297 110.904 12.45 117.239 19.119C117.531 19.422 117.823 19.724 118.136 20.037C119.002 20.914 119.973 21.842 121.079 22.813C121.204 22.917 121.319 23.022 121.455 23.136C121.851 23.48 122.279 23.835 122.728 24.2C125.619 26.527 129.438 29.188 133.665 32.027C133.748 32.079 133.842 32.142 133.926 32.204C137.37 34.5 141.075 36.91 144.758 39.342C145.791 40.02 146.814 40.699 147.826 41.377C147.93 41.44 148.035 41.513 148.139 41.586C148.504 41.826 148.87 42.066 149.235 42.306C150.32 43.047 151.406 43.777 152.46 44.497C152.47 44.508 152.491 44.518 152.502 44.518C152.992 44.862 153.462 45.186 153.942 45.52C159.692 49.506 164.743 53.326 167.8 56.561C177.036 66.329 178.1 73.613 173.31 81.961C170.565 86.73 169.042 89.235 168.249 90.508L173.571 105.379L173.654 105.64L176.482 113.54C176.9 114.709 177.296 115.878 177.661 117.067C177.682 117.15 177.713 117.234 177.734 117.317C178.986 121.397 179.936 125.582 180.573 129.809C180.583 129.851 180.594 129.903 180.594 129.945C181.064 133.023 181.356 136.133 181.471 139.254L181.997 152.04Z" fill="#7282FF"/>
<path d="M84.14 131.169C84.14 131.169 72.239 126.462 63.446 124.508C54.653 122.554 39.732 125.396 39.644 126.817C39.555 128.238 39.555 130.547 40.088 130.458C40.621 130.369 40.621 130.369 40.621 130.369C40.621 130.369 39.466 130.635 39.466 131.701C39.466 132.767 39.732 138.451 40.443 138.629C41.153 138.807 42.131 138.629 42.131 138.629C42.131 138.629 42.042 141.915 42.753 142.093C43.464 142.271 51.901 138.54 57.141 139.073C62.381 139.606 77.302 148.132 77.302 148.132L84.229 130.813L84.14 131.169Z" fill="#FF8C9C"/>
<path d="M42.13 138.76C42.079 138.76 42.03 138.729 42.01 138.679C41.983 138.613 42.014 138.536 42.08 138.509C42.148 138.481 48.968 135.7 55.137 135.48C55.139 135.48 55.142 135.48 55.142 135.48C55.212 135.48 55.269 135.536 55.272 135.606C55.274 135.678 55.218 135.738 55.147 135.741C49.024 135.959 42.247 138.723 42.18 138.751C42.164 138.757 42.147 138.76 42.13 138.76Z" fill="#502750"/>
<path d="M39.822 134.897C39.77 134.897 39.72 134.865 39.701 134.814C39.674 134.747 39.708 134.671 39.775 134.645C39.859 134.613 48.233 131.403 55.293 132.328C55.364 132.338 55.414 132.403 55.405 132.474C55.396 132.545 55.341 132.597 55.258 132.587C48.27 131.666 39.952 134.856 39.868 134.889C39.854 134.894 39.837 134.897 39.822 134.897Z" fill="#502750"/>
<path d="M40.265 130.634C40.214 130.634 40.165 130.604 40.145 130.554C40.118 130.487 40.148 130.411 40.215 130.383C40.283 130.355 47.13 127.537 55.153 128.197C55.224 128.203 55.277 128.266 55.272 128.338C55.266 128.406 55.209 128.458 55.142 128.458C55.139 128.458 55.135 128.458 55.131 128.458C47.17 127.803 40.384 130.597 40.315 130.625C40.299 130.631 40.283 130.634 40.265 130.634Z" fill="#502750"/>
<path d="M41.647 126.661C41.042 126.275 40.207 126.598 40.176 126.609C40.124 126.63 40.093 126.682 40.093 126.734L40.229 129.708C40.229 129.75 40.239 129.781 40.271 129.802C40.292 129.823 40.323 129.833 40.354 129.833H40.364C40.385 129.833 42.357 129.624 42.222 127.788C42.18 127.245 41.981 126.869 41.647 126.661ZM40.479 129.551L40.354 126.817C40.573 126.754 41.116 126.64 41.512 126.88C41.773 127.047 41.919 127.36 41.961 127.809C42.054 129.144 40.886 129.478 40.479 129.551Z" fill="#502750"/>
<path d="M42.221 132.181C42.179 131.649 41.981 131.263 41.647 131.054C41.042 130.678 40.207 130.991 40.176 131.002C40.124 131.023 40.093 131.075 40.093 131.127L40.218 133.788L40.228 134.101C40.228 134.143 40.238 134.174 40.27 134.195C40.291 134.216 40.322 134.226 40.353 134.226H40.363C40.384 134.226 42.21 134.028 42.231 132.389C42.232 132.327 42.232 132.254 42.221 132.181ZM41.96 132.567C41.835 133.6 40.854 133.872 40.478 133.955L40.457 133.59L40.353 131.221C40.572 131.158 41.115 131.033 41.511 131.273C41.772 131.44 41.918 131.753 41.96 132.202C41.971 132.327 41.971 132.452 41.96 132.557V132.567Z" fill="#502750"/>
<path d="M42.983 136.001C42.889 135.469 42.67 135.104 42.315 134.926C41.678 134.602 40.875 134.989 40.844 135.009C40.792 135.03 40.761 135.082 40.771 135.134L41.168 138.087C41.168 138.129 41.189 138.16 41.22 138.181C41.241 138.191 41.272 138.202 41.293 138.202C41.303 138.202 41.314 138.202 41.314 138.202C41.334 138.202 43.286 137.816 42.983 136.001ZM41.407 137.91L41.042 135.207C41.251 135.123 41.783 134.946 42.2 135.155C42.471 135.301 42.649 135.593 42.722 136.042C42.941 137.357 41.804 137.796 41.407 137.91Z" fill="#502750"/>
<path d="M44.945 139.663C44.872 139.277 44.684 138.995 44.381 138.828C43.703 138.452 42.68 138.838 42.638 138.859C42.586 138.88 42.555 138.932 42.555 138.995L42.931 141.479C42.931 141.51 42.952 141.542 42.983 141.563C43.004 141.584 43.025 141.584 43.056 141.584C43.066 141.584 43.066 141.584 43.077 141.584C43.119 141.574 44.246 141.386 44.747 140.676C44.956 140.383 45.018 140.039 44.945 139.663ZM44.538 140.53C44.194 141.031 43.453 141.24 43.16 141.313L42.826 139.059C43.076 138.986 43.786 138.788 44.266 139.049C44.496 139.185 44.642 139.393 44.704 139.717C44.757 140.018 44.705 140.29 44.538 140.53Z" fill="#502750"/>
<path d="M56.452 165.452C63.1844 165.452 68.642 159.994 68.642 153.262C68.642 146.53 63.1844 141.072 56.452 141.072C49.7197 141.072 44.262 146.53 44.262 153.262C44.262 159.994 49.7197 165.452 56.452 165.452Z" fill="#FFECE0"/>
<path d="M48.128 156.788C47.815 157.456 45.634 158.969 45.634 158.969L46.6571 160.566C46.6571 160.566 43.839 160.409 42.097 158.667C41.21 157.79 41.3141 156.329 42.2951 155.557C42.5351 155.369 42.785 155.171 43.046 154.983C43.234 154.837 43.422 154.701 43.599 154.576C43.599 154.566 43.609 154.566 43.609 154.566C44.027 154.274 44.4131 154.013 44.7261 153.846C44.8201 153.794 44.903 153.752 44.987 153.721C45.165 153.638 45.3 153.606 45.373 153.638C45.905 153.908 48.441 156.131 48.128 156.788Z" fill="#FF8C9C"/>
<path d="M72.725 155.641C72.725 155.693 72.725 155.839 72.704 156.048C72.694 156.121 72.683 156.194 72.673 156.278C72.631 156.643 72.569 157.165 72.475 157.749C72.454 157.843 72.433 157.947 72.423 158.041C72.037 160.232 71.317 163.259 70.242 164.386C69.063 165.617 67.487 166.004 66.631 166.108C66.579 166.118 66.527 166.118 66.474 166.129C66.453 166.16 66.422 166.202 66.401 166.233C65.9 166.922 65.337 167.412 64.731 167.537C62.08 168.132 59.951 167.516 59.033 165.961C59.002 165.93 58.981 165.898 58.96 165.857C58.929 165.888 58.887 165.92 58.856 165.94C57.666 166.942 56.184 167.662 54.567 167.182C50.612 166.024 51.457 164.208 51.457 164.208C51.457 164.208 57.144 159.637 58.042 159.074C58.105 159.032 58.146 159.011 58.157 159.011C58.293 159.042 60.161 160.889 61.131 161.849C61.381 162.099 61.475 162.454 61.413 162.788L61.496 162.694C61.496 162.694 61.527 162.631 61.59 162.506C62.081 161.609 64.178 157.695 64.731 157.09C64.773 157.048 64.804 157.017 64.825 157.017C65.044 156.954 66.849 157.048 68.133 157.32C68.143 157.268 68.154 157.216 68.164 157.164C68.31 156.559 68.55 155.786 68.863 155.682C69.396 155.505 72.683 155.192 72.725 155.641Z" fill="#FF8C9C"/>
<path d="M46.448 155.098H46.437C46.291 154.921 46.145 154.754 45.978 154.597C45.675 154.274 45.342 153.981 44.987 153.721C44.904 153.752 44.82 153.794 44.726 153.846C45.144 154.149 45.53 154.493 45.895 154.879C46.02 155.004 46.135 155.13 46.25 155.265C46.448 155.505 46.5 155.829 46.396 156.142C46.292 156.445 46.041 156.664 45.728 156.726C45.582 156.757 45.446 156.778 45.311 156.778C45.123 156.799 44.956 156.799 44.789 156.778C44.57 156.778 44.372 156.736 44.194 156.663C43.86 156.538 43.432 156.298 43.265 155.88C43.087 155.431 43.296 154.941 43.547 154.628C43.557 154.607 43.578 154.586 43.599 154.576C43.422 154.701 43.234 154.837 43.046 154.983C42.931 155.286 42.889 155.64 43.025 155.974C43.223 156.485 43.714 156.767 44.1 156.903C44.33 156.986 44.591 157.039 44.872 157.049C44.914 157.059 44.966 157.059 45.018 157.059C45.081 157.059 45.154 157.059 45.227 157.049C45.404 157.039 45.592 157.018 45.78 156.986C46.176 156.903 46.5 156.621 46.646 156.224C46.782 155.828 46.709 155.411 46.448 155.098Z" fill="#502750"/>
<path d="M61.11 162.632L58.271 159.835C58.25 159.804 58.219 159.793 58.188 159.793C58.167 159.793 58.115 159.803 58.084 159.835C58.042 159.887 57.02 161.025 57.113 162.225C57.155 162.757 57.405 163.216 57.864 163.592C58.282 163.916 58.709 164.082 59.137 164.082C59.231 164.082 59.325 164.082 59.419 164.061C60.442 163.884 61.099 162.83 61.13 162.788C61.162 162.737 61.152 162.674 61.11 162.632ZM59.378 163.812C58.929 163.885 58.47 163.739 58.032 163.384C57.635 163.06 57.406 162.664 57.375 162.205C57.302 161.318 57.949 160.42 58.199 160.118L60.85 162.737C60.672 162.987 60.119 163.676 59.378 163.812Z" fill="#502750"/>
<path d="M68.415 158.396C68.415 158.344 68.373 158.292 68.321 158.281L67.611 158.156L64.908 157.697C64.877 157.697 64.845 157.697 64.814 157.718C64.793 157.739 64.772 157.77 64.772 157.801C64.762 157.853 64.605 159.179 65.273 159.992C65.513 160.284 65.826 160.472 66.223 160.545V160.555C66.306 160.565 66.39 160.576 66.484 160.586C66.547 160.586 66.609 160.596 66.661 160.596C67.141 160.596 67.538 160.439 67.83 160.158C68.478 159.523 68.425 158.437 68.415 158.396ZM67.674 159.992C67.392 160.274 67.006 160.399 66.505 160.357C66.463 160.357 66.422 160.347 66.38 160.336C65.994 160.294 65.681 160.127 65.441 159.846C64.95 159.241 64.971 158.281 64.992 157.947L67.517 158.375L68.195 158.49C68.196 158.761 68.144 159.533 67.674 159.992Z" fill="#502750"/>
<path d="M58.962 165.99C58.932 165.99 58.904 165.98 58.879 165.96C58.823 165.914 58.815 165.832 58.861 165.777C59.161 165.411 59.434 165.084 59.678 164.789C60.808 163.429 61.376 162.747 61.35 162.329C61.332 162.01 59.672 160.443 58.078 159.113C58.023 159.067 58.015 158.985 58.062 158.929C58.108 158.874 58.189 158.866 58.245 158.912C58.8 159.376 61.576 161.721 61.611 162.313C61.642 162.833 61.089 163.498 59.879 164.954C59.634 165.248 59.362 165.576 59.063 165.941C59.037 165.974 59 165.99 58.962 165.99Z" fill="#502750"/>
<path d="M66.477 166.261C66.46 166.261 66.441 166.257 66.425 166.25C66.359 166.221 66.328 166.144 66.358 166.078C66.371 166.046 67.74 162.91 68.051 161.786C68.408 160.498 68.647 159.262 68.786 158.452C68.864 157.992 68.582 157.541 68.143 157.425C66.809 157.07 64.848 157.141 64.829 157.144C64.761 157.144 64.697 157.091 64.694 157.019C64.691 156.947 64.747 156.887 64.819 156.883C64.897 156.879 66.837 156.808 68.211 157.173C68.789 157.326 69.147 157.894 69.044 158.496C68.904 159.312 68.663 160.558 68.303 161.855C67.988 162.997 66.655 166.052 66.598 166.182C66.575 166.232 66.527 166.261 66.477 166.261Z" fill="#502750"/>
<path d="M72.673 156.277L69.772 156.507C69.824 156.789 69.897 157.039 70.085 157.269C70.168 157.384 70.294 157.488 70.461 157.603C70.858 157.864 71.285 157.989 71.682 157.979C71.974 157.979 72.256 157.896 72.475 157.749C72.454 157.843 72.433 157.947 72.423 158.041C72.204 158.145 71.953 158.197 71.693 158.208H71.651C71.213 158.208 70.764 158.072 70.336 157.791C70.148 157.666 70.002 157.551 69.898 157.415C69.669 157.102 69.585 156.789 69.533 156.424C69.523 156.393 69.533 156.361 69.554 156.341C69.575 156.31 69.596 156.299 69.627 156.299L72.706 156.048C72.694 156.121 72.683 156.194 72.673 156.277Z" fill="#502750"/>
<path d="M143.615 89.6349L136.978 102.325L133.806 108.378L133.66 108.66L116.431 141.595C116.4 141.658 116.348 141.71 116.274 141.72C116.201 141.741 116.128 141.73 116.065 141.689L88.045 123.98C87.44 125.003 84.904 129.427 81.919 136.576C81.898 136.639 81.877 136.701 81.846 136.764C81.355 137.964 80.844 139.248 80.322 140.594C80.322 140.604 80.312 140.615 80.312 140.615C79.905 141.679 79.498 142.796 79.091 143.954C76.252 151.937 73.424 161.997 71.713 173.633C70.909 179.08 70.346 184.883 70.148 190.977C69.981 190.914 69.814 190.862 69.647 190.8C69.835 184.956 70.357 179.373 71.108 174.113C72.527 164.199 74.771 155.402 77.14 148.045C77.683 146.375 78.236 144.779 78.778 143.265C80.552 138.329 82.316 134.217 83.808 131.045C85.624 127.152 87.033 124.669 87.534 123.823C87.659 123.614 87.722 123.51 87.732 123.489C87.774 123.426 87.836 123.385 87.899 123.364C87.972 123.354 88.035 123.364 88.097 123.395L88.201 123.458L116.106 141.105L133.012 108.765L133.158 108.483L136.362 102.368L143.145 89.3959C143.218 89.2709 143.375 89.2189 143.5 89.2809C143.625 89.3529 143.677 89.5099 143.615 89.6349Z" fill="#502750"/>
<g opacity="0.4">
<path d="M55.719 179.307C69.7476 179.307 81.12 167.935 81.12 153.906C81.12 139.877 69.7476 128.505 55.719 128.505C41.6904 128.505 30.318 139.877 30.318 153.906C30.318 167.935 41.6904 179.307 55.719 179.307Z" fill="#FFECE0"/>
</g>
<path d="M38.568 64.576L50.758 63.611L38.676 62.491C40.45 60.461 43.116 57.279 43.116 57.279C43.116 57.279 39.85 60.152 37.642 62.126L36.704 49.366L35.812 61.73C33.702 59.87 30.491 57.447 30.491 57.447C30.491 57.447 33.444 60.701 35.26 62.685L22.905 63.484L35.156 64.51C33.274 66.607 30.658 70.072 30.658 70.072C30.658 70.072 33.946 67.088 35.926 65.275L36.83 77.091L37.803 65.231C39.806 66.994 43.282 69.904 43.282 69.904C43.282 69.904 40.536 66.779 38.568 64.576Z" fill="#FFA861"/>
<path d="M164.401 131.232L181.39 129.886L164.552 128.325C167.025 125.496 170.74 121.06 170.74 121.06C170.74 121.06 166.187 125.065 163.111 127.815L161.803 110.03L160.56 127.263C157.619 124.671 153.144 121.293 153.144 121.293C153.144 121.293 157.26 125.828 159.791 128.593L142.571 129.707L159.646 131.137C157.023 134.059 153.378 138.889 153.378 138.889C153.378 138.889 157.96 134.731 160.72 132.203L161.98 148.671L163.336 132.141C166.128 134.598 170.972 138.654 170.972 138.654C170.972 138.654 167.143 134.301 164.401 131.232Z" fill="#FFA861"/>
<path d="M150.04 41.112L162.23 40.147L150.148 39.027C151.922 36.997 154.588 33.815 154.588 33.815C154.588 33.815 151.322 36.688 149.114 38.662L148.176 25.902L147.284 38.266C145.174 36.406 141.963 33.983 141.963 33.983C141.963 33.983 144.916 37.237 146.732 39.221L134.377 40.02L146.628 41.046C144.746 43.143 142.13 46.608 142.13 46.608C142.13 46.608 145.418 43.624 147.398 41.811L148.302 53.627L149.275 41.767C151.278 43.53 154.754 46.44 154.754 46.44C154.754 46.44 152.008 43.314 150.04 41.112Z" fill="#FFA861"/>
<path d="M88.792 119.724C88.671 119.705 88.677 119.529 88.799 119.519C90.45 119.378 93.656 118.986 94.015 118.058C94.396 117.074 95.1 113.278 95.387 111.682C95.408 111.564 95.578 111.57 95.592 111.689C95.794 113.469 96.365 117.962 97.013 118.383C97.63 118.784 100.522 119.208 101.869 119.388C101.986 119.404 101.99 119.572 101.874 119.592C100.796 119.785 99.716 120.014 98.671 120.347C98.144 120.515 97.561 120.718 97.113 121.078C96.592 121.497 96.48 121.996 96.339 122.616C96.021 124.014 95.807 125.437 95.596 126.854C95.578 126.974 95.405 126.97 95.391 126.85C95.211 125.285 94.693 122.026 93.448 121.077C92.553 120.394 90.148 119.936 88.792 119.724Z" fill="#FFECE0"/>
<path d="M17.379 119.724C17.258 119.705 17.2639 119.529 17.3859 119.519C19.0359 119.378 22.2429 118.986 22.6019 118.058C22.9829 117.074 23.687 113.278 23.974 111.682C23.995 111.564 24.1649 111.57 24.1789 111.689C24.3809 113.469 24.952 117.962 25.6 118.383C26.217 118.784 29.109 119.208 30.456 119.388C30.573 119.404 30.577 119.572 30.461 119.592C29.383 119.785 28.303 120.014 27.258 120.347C26.731 120.515 26.148 120.718 25.699 121.078C25.178 121.497 25.0659 121.996 24.9249 122.616C24.6069 124.014 24.393 125.437 24.182 126.854C24.164 126.974 23.9909 126.97 23.9769 126.85C23.7969 125.285 23.279 122.026 22.034 121.077C21.14 120.394 18.735 119.936 17.379 119.724Z" fill="#FFECE0"/>
<path d="M174.62 91.291C174.499 91.272 174.505 91.096 174.627 91.086C176.278 90.945 179.484 90.553 179.843 89.625C180.224 88.641 180.928 84.845 181.215 83.249C181.236 83.131 181.406 83.137 181.42 83.256C181.622 85.036 182.193 89.529 182.841 89.95C183.458 90.351 186.35 90.775 187.697 90.955C187.814 90.971 187.818 91.139 187.702 91.159C186.624 91.352 185.544 91.581 184.499 91.914C183.972 92.082 183.389 92.285 182.941 92.645C182.42 93.064 182.308 93.563 182.167 94.183C181.849 95.58 181.635 97.004 181.424 98.421C181.406 98.541 181.233 98.537 181.219 98.417C181.039 96.852 180.521 93.593 179.276 92.644C178.382 91.962 175.977 91.504 174.62 91.291Z" fill="#FFECE0"/>
<path d="M115.542 19.51C115.421 19.491 115.427 19.315 115.549 19.305C117.2 19.164 120.406 18.772 120.765 17.844C121.146 16.86 121.85 13.064 122.137 11.468C122.158 11.35 122.328 11.356 122.342 11.475C122.544 13.255 123.115 17.748 123.763 18.169C124.38 18.57 127.272 18.994 128.619 19.174C128.736 19.19 128.74 19.358 128.624 19.378C127.546 19.571 126.466 19.8 125.421 20.133C124.894 20.301 124.311 20.504 123.863 20.864C123.342 21.283 123.23 21.782 123.089 22.402C122.772 23.799 122.557 25.223 122.346 26.64C122.328 26.76 122.155 26.756 122.141 26.636C121.961 25.071 121.443 21.812 120.198 20.863C119.304 20.18 116.899 19.722 115.542 19.51Z" fill="#FFECE0"/>
<path d="M43.7839 35.172C43.6789 35.156 43.6839 35.003 43.7899 34.994C45.2229 34.871 48.0079 34.531 48.3199 33.726C48.6509 32.871 49.2629 29.575 49.5119 28.189C49.5299 28.087 49.6779 28.092 49.6899 28.195C49.8659 29.741 50.361 33.642 50.924 34.008C51.459 34.356 53.9709 34.724 55.1409 34.881C55.2429 34.895 55.2459 35.04 55.1449 35.059C54.2089 35.227 53.271 35.425 52.364 35.715C51.906 35.861 51.3999 36.037 51.0109 36.35C50.5579 36.714 50.4609 37.147 50.3389 37.685C50.0629 38.899 49.8769 40.135 49.6939 41.365C49.6779 41.469 49.5279 41.466 49.5159 41.361C49.3589 40.002 48.9099 37.172 47.8289 36.348C47.0499 35.754 44.9619 35.357 43.7839 35.172Z" fill="#FFECE0"/>
</svg>
