<svg width="234" height="205" viewBox="0 0 234 205" fill="none" xmlns="http://www.w3.org/2000/svg">
<path d="M102.81 204.555C96.057 204.555 89.29 203.883 82.697 202.557C81.517 202.324 80.31 202.06 79.023 201.753L78.527 201.626C77.604 201.402 76.661 201.168 75.727 200.912L75.277 200.783L75.156 200.749C74.844 200.662 74.471 200.557 74.098 200.446C73.773 200.35 73.433 200.244 73.093 200.136L72.292 199.888C71.995 199.798 71.699 199.708 71.404 199.613C70.173 199.216 69.089 198.845 68.087 198.479C57.839 194.784 48.266 189.459 39.66 182.664C39.391 182.449 39.146 182.252 38.904 182.051C38.799 181.97 38.69 181.884 38.591 181.802C37.867 181.216 37.153 180.617 36.446 180.009C35.786 179.443 35.127 178.859 34.474 178.269C34.399 178.205 34.245 178.064 34.245 178.064C33.234 177.144 32.259 176.219 31.23 175.205L30.725 174.702C29.706 173.683 28.806 172.75 27.959 171.837L27.789 171.657C26.931 170.724 26.06 169.737 25.102 168.613L24.416 167.797C23.423 166.604 22.617 165.601 21.879 164.639C19.629 161.735 17.487 158.611 15.526 155.375C15.481 155.301 15.108 154.659 15.045 154.546C14.469 153.587 13.904 152.602 13.365 151.616C13.347 151.583 13.232 151.376 13.232 151.376C5.585 137.371 1.438 122.207 0.873997 106.251C0.863997 106.068 0.859996 105.893 0.857996 105.71C0.804996 104.559 0.796997 103.473 0.796997 102.556C0.796997 99.687 0.920996 96.763 1.164 93.866C1.178 93.656 1.196 93.444 1.22 93.234C3.886 63.848 19.196 37.075 43.241 19.752C43.467 19.582 43.692 19.422 43.918 19.272C45.301 18.282 46.711 17.332 48.11 16.447C48.11 16.447 48.663 16.099 48.837 15.996C50.336 15.054 51.754 14.218 53.169 13.439C55.973 11.855 59.062 10.324 62.29 8.923C63.298 8.483 64.387 8.03301 65.605 7.55801C68.892 6.27401 72.318 5.13701 75.786 4.18201L76.131 4.09C76.37 4.025 76.608 3.961 76.85 3.903C80.132 3.035 83.562 2.32 87.048 1.778C89.018 1.465 91.081 1.20699 93.16 1.01199C93.355 0.991993 93.603 0.968003 93.848 0.953003C96.831 0.690003 99.845 0.557007 102.809 0.557007C119.892 0.557007 136.769 4.85501 151.632 12.989C151.799 13.073 151.965 13.163 152.13 13.26C152.4 13.407 152.663 13.555 152.925 13.702C153.108 13.797 153.261 13.887 153.387 13.964C161.004 18.321 168.004 23.617 174.189 29.705H174.19C174.372 29.861 174.58 30.058 174.797 30.3C179.29 34.777 183.348 39.647 186.922 44.843C190.602 43.587 194.48 42.935 198.363 42.935C203.404 42.935 208.303 43.998 212.924 46.094C221.517 49.991 228.078 57.001 231.398 65.833C234.718 74.665 234.401 84.262 230.503 92.854C225.637 103.583 215.682 111.114 204.266 113.081C204.007 115.594 203.647 118.142 203.19 120.681C203.163 120.911 203.123 121.143 203.072 121.377C202.965 121.943 202.868 122.453 202.761 122.962C202.603 123.742 202.429 124.555 202.235 125.37C202.204 125.522 202.169 125.675 202.132 125.827C202.057 126.168 201.976 126.508 201.888 126.849C201.851 127.037 201.807 127.223 201.756 127.407C201.628 127.931 201.491 128.466 201.345 128.988L201.252 129.335H201.253C201.057 130.067 200.859 130.775 200.642 131.496L200.538 131.841C200.47 132.07 200.4 132.303 200.325 132.534C200.13 133.187 199.919 133.834 199.707 134.479L199.535 135.004C197.478 141.143 194.833 147.068 191.658 152.661C188.252 158.722 184.133 164.525 179.43 169.885C178.945 170.435 178.462 170.981 177.979 171.497C177.571 171.953 177.146 172.402 176.727 172.84C176.667 172.905 176.478 173.104 176.443 173.139L176.061 173.53C175.645 173.958 175.23 174.382 174.81 174.793C173.434 176.169 171.987 177.53 170.545 178.802C170.484 178.86 170.229 179.095 170.16 179.154C168.984 180.182 167.998 181.017 167.057 181.78C166.444 182.279 165.813 182.783 165.182 183.259C165.009 183.398 164.832 183.533 164.658 183.666L164.49 183.795C164.152 184.061 163.775 184.341 163.389 184.627C163.389 184.627 163.189 184.776 163.154 184.8C163.093 184.844 163.032 184.885 162.971 184.933C162.854 185.024 162.735 185.111 162.612 185.193L161.864 185.729C161.223 186.196 160.572 186.642 159.9 187.086C158.354 188.147 156.733 189.176 154.95 190.23C154.425 190.556 153.881 190.873 153.346 191.178C152.968 191.402 152.503 191.656 152.036 191.91L151.538 192.181C150.927 192.519 150.303 192.847 149.668 193.176C149.428 193.304 149.182 193.427 148.94 193.546L148.804 193.613C148.317 193.863 147.762 194.144 147.198 194.416C146.024 194.988 144.837 195.519 143.733 196.007C143.492 196.114 142.928 196.353 142.928 196.353C142.722 196.444 142.515 196.534 142.31 196.618C141.817 196.832 141.315 197.036 140.812 197.233C140.395 197.411 139.987 197.57 139.569 197.729C138.989 197.959 138.357 198.198 137.705 198.428C137.496 198.511 137.284 198.587 137.07 198.656C136.261 198.953 135.46 199.223 134.65 199.483C124.844 202.712 114.549 204.421 104.097 204.547C104.097 204.547 103.72 204.558 103.658 204.558C103.599 204.558 103.541 204.557 103.483 204.555C103.26 204.553 103.037 204.555 102.81 204.555Z" fill="white"/>
<path d="M199.271 102.555V102.955C199.271 103.045 199.271 103.145 199.261 103.235C199.251 105.695 199.141 108.135 198.931 110.545C198.931 110.655 198.921 110.765 198.911 110.865C198.651 113.915 198.241 116.915 197.701 119.875C197.701 119.975 197.681 120.065 197.661 120.145C197.561 120.675 197.461 121.205 197.351 121.735C197.191 122.525 197.021 123.315 196.831 124.105C196.811 124.225 196.781 124.345 196.751 124.465C196.671 124.835 196.581 125.205 196.481 125.575C196.471 125.665 196.451 125.765 196.421 125.855C196.301 126.355 196.171 126.865 196.031 127.365C195.991 127.505 195.961 127.635 195.921 127.775C195.741 128.445 195.561 129.095 195.361 129.755C195.261 130.075 195.171 130.405 195.061 130.735C194.821 131.545 194.551 132.345 194.291 133.145C192.351 138.935 189.871 144.465 186.901 149.695C183.631 155.515 179.751 160.945 175.381 165.925C174.931 166.435 174.471 166.955 174.011 167.445C173.611 167.895 173.191 168.335 172.781 168.765C172.731 168.825 172.671 168.875 172.621 168.935C172.101 169.465 171.591 169.995 171.071 170.505C169.731 171.845 168.361 173.135 166.951 174.375C166.861 174.465 166.761 174.545 166.671 174.635C165.711 175.475 164.741 176.305 163.741 177.115C163.151 177.595 162.551 178.075 161.951 178.525C161.731 178.705 161.501 178.875 161.281 179.045C160.911 179.335 160.531 179.615 160.141 179.905C160.001 180.005 159.861 180.105 159.721 180.215H159.711C159.571 180.315 159.441 180.415 159.291 180.525C159.131 180.635 158.981 180.745 158.821 180.855C158.231 181.285 157.631 181.695 157.011 182.105C155.481 183.155 153.911 184.145 152.301 185.095C151.821 185.395 151.321 185.685 150.831 185.965C150.271 186.295 149.681 186.605 149.101 186.925C148.521 187.245 147.931 187.555 147.331 187.865C147.091 187.995 146.841 188.115 146.601 188.235C146.091 188.495 145.581 188.755 145.061 189.005C143.971 189.535 142.881 190.025 141.771 190.515C141.521 190.625 141.261 190.735 141.001 190.845C140.821 190.925 140.641 191.005 140.461 191.075C139.981 191.285 139.491 191.485 139.001 191.675C138.631 191.835 138.271 191.975 137.901 192.115C137.271 192.365 136.661 192.595 136.031 192.815C135.891 192.875 135.751 192.925 135.611 192.965C134.831 193.255 134.061 193.515 133.281 193.765C124.171 196.765 114.461 198.435 104.371 198.545C104.001 198.555 103.641 198.555 103.271 198.555C96.791 198.555 90.461 197.905 84.341 196.675C79.631 195.735 75.041 194.455 70.611 192.845C60.851 189.325 51.831 184.265 43.841 177.955C43.591 177.755 43.341 177.555 43.091 177.345C43.021 177.295 42.931 177.225 42.861 177.165C41.561 176.115 40.291 175.025 39.051 173.895C38.981 173.845 38.901 173.775 38.831 173.705C34.551 169.825 30.621 165.575 27.101 160.985C24.941 158.195 22.951 155.285 21.121 152.265C21.081 152.185 21.031 152.105 20.981 152.025C20.891 151.865 20.791 151.705 20.711 151.555C20.151 150.625 19.611 149.685 19.091 148.735C19.041 148.635 18.981 148.535 18.931 148.445C11.991 135.735 7.86099 121.305 7.33099 105.965C7.32099 105.825 7.32099 105.695 7.32099 105.555C7.27099 104.545 7.26099 103.555 7.26099 102.555C7.26099 99.7749 7.38099 97.0349 7.61099 94.3149C7.62099 94.1649 7.63099 94.0149 7.65099 93.8649C10.211 65.3449 25.251 40.415 47.271 24.575C47.441 24.445 47.611 24.3249 47.781 24.2149C49.091 23.2749 50.421 22.375 51.781 21.515C51.991 21.385 52.201 21.2449 52.411 21.1249C53.761 20.2749 55.121 19.4649 56.521 18.6949C59.301 17.1249 62.191 15.7049 65.141 14.4249C66.171 13.9749 67.201 13.5549 68.251 13.1449C71.371 11.9249 74.571 10.8649 77.841 9.96494C78.151 9.88494 78.451 9.79495 78.761 9.72495C81.921 8.88495 85.151 8.21493 88.431 7.70493C90.321 7.40493 92.251 7.16492 94.181 6.98492C94.371 6.96492 94.571 6.94494 94.761 6.93494C97.571 6.68494 100.401 6.55493 103.271 6.55493C119.981 6.55493 135.681 10.815 149.351 18.325C149.441 18.365 149.531 18.4149 149.611 18.4649C149.941 18.6449 150.261 18.8249 150.581 19.0049C150.671 19.0449 150.741 19.0949 150.811 19.1349C158.041 23.2649 164.691 28.295 170.571 34.1049C170.601 34.1249 170.641 34.1649 170.671 34.1949C170.721 34.2349 170.771 34.275 170.811 34.325C170.831 34.345 170.851 34.3749 170.871 34.3949C188.421 51.7849 199.271 75.8949 199.271 102.555Z" fill="#FFA8DE"/>
<path d="M78.7609 9.72498C70.3209 15.115 61.5309 20.075 51.7809 21.515C51.9909 21.385 52.2009 21.245 52.4109 21.125C61.5409 19.615 69.851 15.025 77.841 9.96497C78.151 9.88497 78.4509 9.79498 78.7609 9.72498Z" fill="#FFECE0"/>
<path d="M149.611 18.4649C148.651 20.1849 147.471 21.7449 146.161 23.0549C141.001 28.2349 133.801 30.9449 126.861 33.2849C120.291 35.5049 113.551 37.5949 107.031 39.6349C90.791 44.6949 73.991 49.9149 58.431 57.4049C39.431 66.5349 22.181 79.1349 7.61096 94.3149C7.62096 94.1649 7.63096 94.0149 7.65096 93.8649C22.191 78.7749 39.381 66.2449 58.301 57.1349C73.891 49.6449 90.691 44.4149 106.941 39.3549C113.461 37.3349 120.211 35.225 126.771 33.015C133.681 30.685 140.841 27.9749 145.961 22.8449C147.251 21.5549 148.411 20.005 149.351 18.325C149.441 18.365 149.531 18.4149 149.611 18.4649Z" fill="#FFECE0"/>
<path d="M170.811 34.325C161.881 38.385 152.451 41.145 142.731 42.555C141.101 42.785 139.411 42.995 137.781 43.205C129.491 44.225 120.921 45.275 114.491 50.465C109.701 54.325 106.821 59.975 104.031 65.445C102.851 67.765 101.641 70.145 100.291 72.365C94.591 81.805 85.861 89.345 75.691 93.615C71.941 95.185 67.941 96.355 64.071 97.485C57.111 99.515 49.921 101.605 44.191 106.095C36.621 112.005 32.601 121.175 28.731 130.035C27.831 132.085 26.921 134.205 25.961 136.235C23.891 140.645 21.601 144.815 19.091 148.735C19.041 148.635 18.981 148.535 18.931 148.445C21.401 144.585 23.661 140.465 25.691 136.115C26.651 134.075 27.571 131.975 28.461 129.925C32.361 121.025 36.371 111.835 44.001 105.865C49.801 101.345 57.011 99.235 63.991 97.215C67.851 96.085 71.851 94.905 75.581 93.355C85.691 89.105 94.381 81.605 100.051 72.215C101.381 69.995 102.591 67.625 103.771 65.315C106.571 59.815 109.471 54.135 114.311 50.235C120.801 45.005 129.411 43.935 137.741 42.915C139.381 42.705 141.051 42.505 142.681 42.265C152.361 40.865 161.721 38.125 170.571 34.105C170.601 34.125 170.641 34.165 170.671 34.195C170.721 34.235 170.771 34.275 170.811 34.325Z" fill="#FFECE0"/>
<path d="M196.481 125.575C196.471 125.665 196.451 125.765 196.421 125.855C187.891 123.635 179.071 125.365 173.391 130.515C165.831 137.365 164.841 148.175 163.881 158.635C163.581 161.865 163.281 165.215 162.781 168.375C162.151 172.385 161.121 176.345 159.721 180.215H159.711C159.571 180.315 159.441 180.415 159.291 180.525C160.761 176.545 161.831 172.465 162.491 168.335C162.991 165.185 163.291 161.845 163.591 158.595C164.561 148.095 165.551 137.225 173.201 130.295C178.951 125.095 187.861 123.335 196.481 125.575Z" fill="#FFECE0"/>
<path d="M198.931 110.545C198.931 110.655 198.921 110.765 198.911 110.865C191.651 112.645 183.711 112.735 175.921 112.845L174.691 112.855C140.891 113.315 114.771 118.025 92.5209 127.685C68.9209 137.935 49.9809 154.415 39.0509 173.895C38.9809 173.845 38.9009 173.775 38.8309 173.705C49.7909 154.195 68.7609 137.695 92.4009 127.425C114.701 117.735 140.841 113.025 174.691 112.565L175.921 112.555C183.711 112.445 191.671 112.355 198.931 110.545Z" fill="#FFECE0"/>
<path d="M101.375 69.8639C104.516 89.0279 108.296 108.086 112.706 126.998C113.904 132.137 115.224 137.427 118.408 141.635C124.059 149.101 134.263 151.468 143.626 151.576C152.165 151.675 160.945 150.244 168.249 145.818C179.914 138.749 188.157 124.11 185.423 110.747C183.815 102.891 175.665 98.0559 167.814 96.4219C163.263 95.4749 158.225 95.1029 154.821 91.9369C150.321 87.7509 150.659 80.5329 152.313 74.6149C153.967 68.6959 156.616 62.7089 155.575 56.6519C154.702 51.5719 151.063 47.0559 146.285 45.1219C140.408 42.7429 133.724 44.2179 127.452 43.2919C125.772 43.0439 124.065 42.5959 122.724 41.5539C118.824 38.5249 119.812 32.5149 118.59 27.7299C117.04 21.6609 111.486 17.2669 105.519 15.3609C99.5519 13.4549 93.1499 13.6119 86.8879 13.7879C91.9299 32.1499 98.2949 51.0749 101.375 69.8639Z" fill="#502750"/>
<path d="M85.651 13.2319C76.338 12.7049 66.872 15.4909 59.33 20.9809C57.196 22.5339 55.196 24.3139 53.665 26.4649C49.51 32.2999 49.416 40.6329 53.137 46.7539C54.266 48.6119 55.778 50.6239 55.221 52.7259C54.989 53.6019 54.414 54.3449 53.813 55.0229C51.918 57.1609 49.63 58.9209 47.707 61.0339C43.51 65.6459 41.212 71.9369 41.449 78.1689C41.661 83.7579 43.859 88.8099 45.536 94.1459C45.865 95.1929 46.144 96.3299 45.799 97.3719C45.329 98.7939 43.87 99.6019 42.53 100.27C37.392 102.834 32.124 105.408 28.046 109.451C21.657 115.786 18.92 125.572 21.096 134.302C22.051 138.132 23.984 141.853 27.158 144.198C30.805 146.892 35.576 147.454 40.108 147.602C55.505 148.106 70.76 144.902 85.786 141.508C90.318 140.484 95.127 139.286 98.311 135.902C100.636 133.431 101.79 130.087 102.54 126.779C104.282 119.104 104.193 111.134 103.67 103.281C102.609 87.3439 99.806 71.5799 97.008 55.8539C94.514 41.8159 91.092 26.4119 85.651 13.2319Z" fill="#502750"/>
<path d="M175.441 117.025L102.931 137.275L37.9109 129.275C44.7209 111.915 81.9909 99.4849 86.2509 96.0849C87.8809 94.7749 88.4409 92.0949 88.5009 89.2749C88.5209 88.4449 88.5009 87.615 88.4509 86.795C88.3609 85.285 88.161 83.8449 87.971 82.6849C87.711 81.0249 87.441 79.9149 87.441 79.9149L114.331 59.825C114.331 59.825 114.571 69.0049 115.371 76.4349C115.751 79.8549 116.241 82.905 116.891 84.515C118.931 89.615 139.521 97.2749 154.501 101.875C169.481 106.465 175.441 117.025 175.441 117.025Z" fill="#FF8C9C"/>
<path opacity="0.46" d="M109.801 74.8149C108.031 78.7949 105.751 82.4549 102.481 85.3449C99.2209 88.2349 94.951 90.1349 90.591 89.9749C90.071 89.9549 89.5309 89.9049 89.0509 89.6649C88.8509 89.5649 88.6709 89.4249 88.5009 89.2749C88.5209 88.4449 88.5009 87.615 88.4509 86.795C88.3609 85.285 88.1609 83.8449 87.9709 82.6849C95.7609 81.9949 103.361 79.2449 109.801 74.8149Z" fill="#502750"/>
<path d="M88.5889 14.4679C73.5719 14.4679 61.3979 26.6419 61.3979 41.6589C61.3979 43.8679 61.6679 46.0129 62.1649 48.0689L62.2909 48.4249C62.2909 48.4249 69.5679 83.8289 82.8439 83.1479C96.1209 82.4669 112.461 76.1689 113.312 71.2329C113.826 68.2509 114.464 57.0129 114.889 48.5769C115.469 46.3679 115.78 44.0499 115.78 41.6579C115.781 26.6419 103.607 14.4679 88.5889 14.4679Z" fill="#FF8C9C"/>
<path d="M73.938 54.5808C73.938 56.0228 72.769 57.1908 71.328 57.1908C69.886 57.1908 68.718 56.0218 68.718 54.5808C68.718 53.1388 69.887 51.9708 71.328 51.9708C72.769 51.9708 73.938 53.1388 73.938 54.5808Z" fill="#502750"/>
<path d="M95.9389 49.5038C95.9389 50.9458 94.7699 52.1138 93.3289 52.1138C91.8869 52.1138 90.7189 50.9448 90.7189 49.5038C90.7189 48.0618 91.8879 46.8938 93.3289 46.8938C94.7699 46.8938 95.9389 48.0618 95.9389 49.5038Z" fill="#502750"/>
<path d="M65.5149 48.7168C65.1309 49.2738 64.8589 50.0658 65.2819 50.5938C65.7089 51.1268 66.5369 51.0278 67.1939 50.8398C68.4039 50.4928 69.5749 50.0098 70.6779 49.4038C71.0739 49.1868 71.4689 48.9448 71.7479 48.5908C72.0269 48.2358 72.1689 47.7428 72.0019 47.3238C71.8689 46.9918 71.5659 46.7548 71.2409 46.6058C69.1929 45.6608 66.6749 47.0338 65.5149 48.7168Z" fill="#502750"/>
<path d="M89.7109 42.0388C89.1809 42.4608 88.6909 43.1388 88.9429 43.7668C89.1969 44.4008 90.0179 44.5469 90.7009 44.5579C91.9589 44.5769 93.2199 44.4549 94.4519 44.1949C94.8939 44.1019 95.3429 43.9858 95.7119 43.7278C96.0819 43.4688 96.3619 43.0388 96.3229 42.5888C96.2929 42.2328 96.0709 41.9178 95.8039 41.6808C94.1179 40.1828 91.3089 40.7648 89.7109 42.0388Z" fill="#502750"/>
<path d="M78.4929 49.9598C78.9829 54.2928 79.4739 58.6268 79.9639 62.9608C80.9509 61.4318 81.9379 59.9038 82.9239 58.3748" stroke="#502750" stroke-width="0.5" stroke-miterlimit="10" stroke-linecap="round" stroke-linejoin="round"/>
<path d="M81.1949 64.7278C83.9579 64.8588 86.7439 63.4468 88.2719 61.1418" stroke="#502750" stroke-width="0.5" stroke-miterlimit="10" stroke-linecap="round" stroke-linejoin="round"/>
<path d="M81.102 14.2349C79.157 18.2269 80.844 23.3139 84.184 26.2409C87.524 29.1679 92.131 30.2489 96.571 30.3589C96.459 34.8279 98.349 39.3099 101.627 42.3489C104.905 45.3879 110.44 47.2149 114.887 46.7659C118.639 39.3439 116.677 29.8049 111.239 23.5119C107.321 18.9769 101.659 16.3139 95.941 14.5179C91.412 13.0959 85.505 12.4599 81.102 14.2349Z" fill="#502750"/>
<path d="M117.6 42.5469C118.811 42.3079 120.092 42.2709 121.257 42.6769C123.087 43.3149 124.407 44.9749 125.135 46.7709C126.058 49.0499 126.158 51.6689 125.318 53.9789C124.478 56.2889 122.684 58.2559 120.42 59.2139C118.716 59.9349 116.815 60.0839 114.971 59.9319C113.448 59.8069 111.886 59.4579 110.671 58.5309C109.283 57.4719 108.502 55.7419 108.352 54.0019C107.884 48.5799 112.445 43.5639 117.6 42.5469Z" fill="#FF8C9C"/>
<path d="M115.282 57.7439C115.094 52.9329 117.393 48.0899 121.241 45.1949" stroke="#502750" stroke-width="0.5" stroke-miterlimit="10" stroke-linecap="round" stroke-linejoin="round"/>
<path d="M115.309 55.9009C115.833 54.1399 116.915 52.5499 118.361 51.4159C119.807 50.2819 121.609 49.6099 123.444 49.5199" stroke="#502750" stroke-width="0.5" stroke-miterlimit="10" stroke-linecap="round" stroke-linejoin="round"/>
<path d="M175.441 117.025L102.931 137.275L37.9109 129.275C44.7209 111.915 81.9909 99.4849 86.2509 96.0849C88.3609 94.3949 88.6709 90.395 88.4509 86.795C98.3609 87.735 108.651 83.7849 115.371 76.4349C115.751 79.8549 116.241 82.905 116.891 84.515C118.931 89.615 139.521 97.2749 154.501 101.875C169.481 106.465 175.441 117.025 175.441 117.025Z" fill="#993F8D"/>
<path d="M186.901 149.695C183.631 155.515 179.751 160.945 175.381 165.925C174.931 166.435 174.471 166.955 174.011 167.445C173.561 167.955 173.081 168.455 172.621 168.935C172.101 169.465 171.591 169.995 171.071 170.505C169.731 171.845 168.361 173.135 166.951 174.375C166.861 174.465 166.761 174.545 166.671 174.635C165.711 175.475 164.741 176.305 163.741 177.115C163.151 177.595 162.551 178.075 161.951 178.525C161.731 178.705 161.501 178.875 161.281 179.045C160.911 179.335 160.531 179.615 160.141 179.905C159.711 180.225 159.261 180.545 158.821 180.855C158.231 181.285 157.631 181.695 157.011 182.105C155.481 183.155 153.911 184.145 152.301 185.095C151.821 185.395 151.321 185.685 150.831 185.965C150.271 186.295 149.681 186.605 149.101 186.925C148.521 187.245 147.931 187.555 147.331 187.865C147.091 187.995 146.841 188.115 146.601 188.235C146.091 188.495 145.581 188.755 145.061 189.005C143.971 189.535 142.881 190.025 141.771 190.515C141.341 190.705 140.911 190.895 140.461 191.075C139.981 191.285 139.491 191.485 139.001 191.675C138.631 191.835 138.271 191.975 137.901 192.115C137.271 192.365 136.661 192.595 136.031 192.815C135.891 192.875 135.751 192.925 135.611 192.965C134.831 193.255 134.061 193.515 133.281 193.765C124.171 196.765 114.461 198.435 104.371 198.545C104.001 198.555 103.641 198.555 103.271 198.555C96.791 198.555 90.461 197.905 84.341 196.675C82.121 196.235 79.931 195.715 77.771 195.125C77.271 194.985 76.771 194.845 76.271 194.695C74.361 194.135 72.471 193.525 70.611 192.845C60.851 189.325 51.8309 184.265 43.841 177.955C43.591 177.755 43.341 177.555 43.091 177.345C43.021 177.295 42.931 177.225 42.861 177.165C36.991 172.405 31.701 166.975 27.101 160.985C30.161 145.115 35.5909 124.945 44.2109 117.705C64.8909 100.345 82.3309 103.315 88.2109 91.0649C88.2109 91.0649 98.251 117.055 101.181 126.415C101.411 127.175 101.601 127.825 101.741 128.345L102.451 126.295L117.311 83.1449C117.311 83.1449 120.121 88.7649 132.631 93.1049C142.121 96.3949 157.061 100.575 165.941 105.745C168.311 107.115 170.251 108.565 171.531 110.085C171.791 110.375 172.011 110.675 172.211 110.975C176.731 117.755 184.051 140.345 186.901 149.695Z" fill="#7282FF"/>
<path d="M104.371 198.545L102.501 141.615" stroke="#502750" stroke-width="0.5" stroke-miterlimit="10"/>
<path d="M105.454 141.012C109.359 139.385 111.206 134.901 109.58 130.995C107.953 127.09 103.469 125.243 99.5634 126.87C95.6582 128.496 93.8111 132.981 95.4377 136.886C97.0643 140.791 101.549 142.638 105.454 141.012Z" fill="#FFA861"/>
<path d="M198.501 85.615L192.521 91.035L171.531 110.085L103.491 171.785L77.771 195.125C77.271 194.985 76.771 194.845 76.271 194.695L103.361 167.765L158.761 112.685L165.941 105.745L186.741 85.665L193.401 79.235L198.501 85.615Z" fill="#502750"/>
<path d="M210.173 88.3534C216.056 82.4706 216.056 72.9327 210.173 67.0499C204.29 61.1671 194.752 61.1671 188.87 67.0499C182.987 72.9327 182.987 82.4706 188.87 88.3534C194.752 94.2362 204.29 94.2362 210.173 88.3534Z" fill="#502750"/>
<path d="M200.292 80.014L212.521 84.433L201.313 78.042C203.923 76.856 207.902 74.944 207.902 74.944C207.902 74.944 203.477 76.292 200.472 77.234L205.168 64.465L198.874 76.047C197.647 73.319 195.603 69.562 195.603 69.562C195.603 69.562 197.034 74.01 197.921 76.729L185.605 72.076L197.019 78.451C194.275 79.655 190.221 81.862 190.221 81.862C190.221 81.862 194.715 80.417 197.43 79.53L193.116 91.37L199.268 80.312C200.434 82.899 202.521 87.244 202.521 87.244C202.521 87.244 201.23 83.011 200.292 80.014Z" fill="#FFA861"/>
<path opacity="0.4" d="M218.091 89.2157C224.141 78.5666 220.413 65.029 209.764 58.9788C199.115 52.9285 185.577 56.6567 179.527 67.3059C173.477 77.955 177.205 91.4926 187.854 97.5428C198.503 103.593 212.041 99.8649 218.091 89.2157Z" fill="#FFECE0"/>
<path opacity="0.4" d="M204.101 107.101C220.03 104.171 230.567 88.8832 227.638 72.9547C224.708 57.0262 209.42 46.4887 193.491 49.4185C177.563 52.3483 167.025 67.636 169.955 83.5645C172.885 99.493 188.173 110.031 204.101 107.101Z" fill="#FFECE0"/>
<path d="M184.291 114.805C182.931 117.875 174.761 132.335 173.061 144.765C172.911 145.845 172.801 147.045 172.731 148.345C172.391 153.915 172.621 161.235 172.781 168.765C172.731 168.825 172.671 168.875 172.621 168.935C172.101 169.465 171.591 169.995 171.071 170.505C169.731 171.845 168.361 173.135 166.951 174.375C166.861 174.465 166.761 174.545 166.671 174.635C165.711 175.475 164.741 176.305 163.741 177.115C163.151 177.595 162.551 178.075 161.951 178.525C161.731 178.705 161.501 178.875 161.281 179.045C160.911 179.335 160.531 179.615 160.141 179.905C159.711 180.225 159.261 180.545 158.821 180.855C158.231 181.285 157.631 181.695 157.011 182.105C155.481 183.155 153.911 184.145 152.301 185.095C151.821 185.395 151.321 185.685 150.831 185.965C150.271 186.295 149.681 186.605 149.101 186.925C148.521 187.245 147.931 187.555 147.331 187.865C147.091 187.995 146.841 188.115 146.601 188.235C146.091 188.495 145.581 188.755 145.061 189.005C143.971 189.535 142.881 190.025 141.771 190.515C141.521 190.625 141.261 190.735 141.001 190.845C144.581 180.365 149.031 166.945 151.101 159.235C152.421 154.305 153.391 148.705 154.191 143.395C155.661 133.665 156.601 124.915 158.251 123.145C160.801 120.425 163.531 117.875 163.531 117.875L162.941 117.425L157.841 113.595C157.841 113.595 157.841 113.585 157.851 113.555C157.941 113.215 158.601 110.755 159.661 109.325C159.751 109.185 159.851 109.065 159.971 108.955C160.021 108.895 160.081 108.845 160.131 108.795C160.301 108.645 160.471 108.525 160.651 108.435C160.921 108.305 161.201 108.265 161.491 108.335C161.491 108.335 161.501 108.245 161.531 108.075C161.681 107.295 162.311 104.915 164.551 103.235C167.091 101.335 168.001 102.235 168.111 102.365C168.101 102.335 168.071 102.255 168.031 102.135C167.981 101.915 167.921 101.555 167.951 101.075C168.011 100.295 168.321 99.2049 169.321 97.9549C171.361 95.4049 173.911 95.9149 173.911 95.9149C173.911 95.9149 173.911 95.9049 173.891 95.8849C173.681 95.5449 171.381 91.7049 169.871 88.3349C169.861 88.3149 169.841 88.2949 169.841 88.2749C168.871 86.1149 168.231 84.1649 168.671 83.4549C168.701 83.4249 168.721 83.3949 168.741 83.3749C168.761 83.3549 168.781 83.3349 168.801 83.3149C170.511 81.9549 183.781 98.1249 184.631 100.855C185.491 103.575 185.661 111.745 184.291 114.805Z" fill="#993F8D"/>
<path d="M184.287 114.806C182.927 117.876 174.757 132.336 173.057 144.766C172.907 145.846 172.797 147.046 172.727 148.346C169.447 148.916 165.957 148.456 162.767 147.386C160.067 146.476 156.857 145.126 154.187 143.396C155.657 133.666 155.939 124.174 157.589 122.404C160.139 119.684 163.015 117.361 163.015 117.361L157.823 113.531C157.823 113.531 159.267 107.825 161.487 108.335C161.487 108.335 161.827 105.275 164.547 103.235C167.087 101.335 167.997 102.235 168.107 102.365C168.027 102.165 167.387 100.365 169.317 97.9549C171.357 95.4049 173.907 95.9149 173.907 95.9149C173.907 95.9149 167.097 84.6749 168.797 83.3149C170.507 81.9549 183.777 98.1249 184.627 100.855C185.487 103.576 185.657 111.746 184.287 114.806Z" fill="#FF8C9C"/>
<path d="M168.797 83.3159C168.797 83.3159 167.781 84.0849 168.972 86.5529C170.163 89.0209 173.907 95.9159 173.907 95.9159" stroke="#502750" stroke-width="0.5" stroke-miterlimit="10" stroke-linecap="round" stroke-linejoin="round"/>
<path d="M167.866 102.043C167.866 102.043 167.781 99.1489 170.079 97.3619C172.377 95.5749 173.568 95.8299 174.505 96.3409C175.441 96.8519 179.696 100.426 180.888 102.639" stroke="#502750" stroke-width="0.5" stroke-miterlimit="10" stroke-linecap="round" stroke-linejoin="round"/>
<path d="M167.863 102.061C170.735 103.078 172.977 105.315 175.116 107.484" stroke="#502750" stroke-width="0.5" stroke-miterlimit="10" stroke-linecap="round" stroke-linejoin="round"/>
<path d="M161.498 108.057C163.757 109.26 165.726 111.004 167.191 113.102" stroke="#502750" stroke-width="0.5" stroke-miterlimit="10" stroke-linecap="round" stroke-linejoin="round"/>
<path d="M127.376 25.728L139.057 24.803L127.48 23.73C129.18 21.785 131.734 18.735 131.734 18.735C131.734 18.735 128.604 21.488 126.489 23.38L125.59 11.152L124.735 23C122.713 21.217 119.636 18.896 119.636 18.896C119.636 18.896 122.466 22.014 124.206 23.915L112.367 24.681L124.107 25.664C122.303 27.673 119.797 30.993 119.797 30.993C119.797 30.993 122.947 28.134 124.845 26.396L125.712 37.719L126.645 26.354C128.565 28.043 131.895 30.832 131.895 30.832C131.895 30.832 129.261 27.839 127.376 25.728Z" fill="#FFECE0"/>
<path d="M32.668 95.1989L44.349 94.2739L32.772 93.2009C34.472 91.2559 37.026 88.2059 37.026 88.2059C37.026 88.2059 33.896 90.959 31.781 92.851L30.882 80.6229L30.028 92.4709C28.006 90.6879 24.929 88.3669 24.929 88.3669C24.929 88.3669 27.759 91.4849 29.499 93.3859L17.66 94.1519L29.4 95.1349C27.596 97.1439 25.09 100.465 25.09 100.465C25.09 100.465 28.24 97.606 30.138 95.868L31.005 107.191L31.937 95.8259C33.857 97.5149 37.187 100.304 37.187 100.304C37.187 100.304 34.553 97.3099 32.668 95.1989Z" fill="#FFECE0"/>
<path d="M139.422 168.892L151.103 167.967L139.526 166.894C141.226 164.949 143.78 161.899 143.78 161.899C143.78 161.899 140.65 164.652 138.535 166.544L137.636 154.316L136.782 166.164C134.76 164.382 131.683 162.059 131.683 162.059C131.683 162.059 134.513 165.177 136.253 167.078L124.414 167.844L136.154 168.827C134.35 170.836 131.844 174.157 131.844 174.157C131.844 174.157 134.994 171.298 136.892 169.56L137.758 180.883L138.691 169.518C140.611 171.207 143.941 173.996 143.941 173.996C143.941 173.996 141.307 171.002 139.422 168.892Z" fill="#FFECE0"/>
<path d="M153.509 67.5539C153.393 67.5359 153.399 67.3669 153.516 67.3569C155.098 67.2219 158.17 66.846 158.514 65.957C158.879 65.014 159.554 61.3769 159.829 59.8469C159.849 59.7339 160.012 59.739 160.025 59.853C160.219 61.559 160.765 65.864 161.387 66.268C161.978 66.652 164.749 67.0589 166.041 67.2309C166.153 67.2459 166.157 67.407 166.045 67.427C165.012 67.612 163.977 67.8309 162.976 68.1499C162.471 68.3109 161.912 68.506 161.483 68.851C160.984 69.252 160.876 69.731 160.741 70.324C160.437 71.663 160.231 73.028 160.029 74.385C160.012 74.5 159.846 74.496 159.832 74.381C159.659 72.882 159.163 69.759 157.97 68.849C157.113 68.196 154.809 67.7579 153.509 67.5539Z" fill="#FFECE0"/>
<path d="M34.786 157.682C34.67 157.664 34.676 157.495 34.793 157.485C36.375 157.35 39.447 156.974 39.791 156.085C40.156 155.142 40.831 151.505 41.106 149.975C41.126 149.862 41.289 149.868 41.302 149.981C41.496 151.687 42.042 155.992 42.664 156.396C43.255 156.78 46.026 157.187 47.318 157.359C47.43 157.374 47.434 157.535 47.322 157.555C46.289 157.74 45.254 157.959 44.253 158.278C43.748 158.439 43.189 158.634 42.76 158.979C42.261 159.38 42.153 159.859 42.019 160.453C41.715 161.792 41.509 163.156 41.307 164.514C41.29 164.629 41.124 164.625 41.11 164.51C40.937 163.011 40.442 159.888 39.248 158.978C38.39 158.324 36.085 157.885 34.786 157.682Z" fill="#FFECE0"/>
<path d="M37.179 53.286C37.063 53.268 37.069 53.099 37.186 53.089C38.768 52.954 41.84 52.578 42.185 51.689C42.55 50.746 43.225 47.109 43.5 45.579C43.52 45.466 43.683 45.472 43.696 45.585C43.89 47.291 44.436 51.596 45.058 52C45.649 52.384 48.42 52.791 49.712 52.963C49.824 52.978 49.828 53.139 49.716 53.159C48.683 53.344 47.648 53.563 46.647 53.882C46.142 54.043 45.583 54.238 45.154 54.583C44.654 54.984 44.547 55.463 44.412 56.057C44.108 57.396 43.902 58.76 43.7 60.118C43.683 60.233 43.517 60.229 43.503 60.114C43.33 58.615 42.834 55.492 41.641 54.582C40.783 53.928 38.479 53.49 37.179 53.286Z" fill="#FFECE0"/>
</svg>
