<svg width="212" height="216" viewBox="0 0 212 216" fill="none" xmlns="http://www.w3.org/2000/svg">
<path d="M106.071 215.59C99.073 215.59 92.059 214.894 85.227 213.519C80.063 212.49 74.97 211.069 70.1 209.298C68.841 208.844 67.535 208.343 66.232 207.813C65.948 207.698 65.672 207.578 65.397 207.459L64.586 207.115C63.914 206.834 63.242 206.551 62.579 206.253L61.791 205.883C60.795 205.425 59.802 204.947 58.817 204.455L57.873 203.975C56.959 203.505 56.067 203.032 55.185 202.546L54.403 202.118C53.186 201.435 52.084 200.792 51.03 200.149L50.809 200.01C49.778 199.375 48.788 198.74 47.807 198.091L46.899 197.48C46.1 196.939 45.322 196.397 44.552 195.844C44.552 195.844 43.895 195.375 43.661 195.204C42.64 194.456 41.625 193.692 40.627 192.905C40.349 192.682 40.095 192.478 39.844 192.269C39.734 192.185 39.618 192.093 39.511 192.004C38.373 191.084 37.245 190.127 36.147 189.15C35.996 189.061 35.85 188.965 35.705 188.863C35.363 188.62 35.026 188.338 34.706 188.021C34.447 187.767 34.215 187.494 34.01 187.206C29.692 183.181 25.723 178.818 22.199 174.222C21.952 173.912 21.652 173.511 21.355 173.11C19.302 170.385 17.371 167.529 15.612 164.614C15.569 164.543 15.183 163.88 15.119 163.766C14.758 163.164 14.402 162.555 14.055 161.944C13.669 161.529 13.339 161.057 13.073 160.539L12.995 160.404C12.74 159.938 12.549 159.45 12.421 158.95C5.51299 145.817 1.53 131.628 0.582001 116.756C0.518001 115.732 0.465 114.722 0.431 113.704C0.421 113.519 0.416985 113.339 0.415985 113.152C0.359985 111.952 0.35199 110.829 0.35199 109.883C0.35199 107.436 0.438985 104.952 0.609985 102.48C0.510985 101.972 0.47501 101.445 0.51001 100.91C0.52901 100.624 0.552996 100.336 0.589996 100.049C0.653996 99.557 0.775989 99.079 0.950989 98.621C4.11699 68.801 19.871 41.696 44.339 24.069C44.573 23.892 44.806 23.726 45.041 23.57C46.051 22.847 47.07 22.148 48.084 21.481C48.42 21.144 48.8 20.841 49.219 20.582L49.372 20.485C49.606 20.337 49.841 20.191 50.074 20.058C50.387 19.881 50.714 19.731 51.051 19.611C52.29 18.85 53.466 18.165 54.626 17.527C57.53 15.885 60.732 14.299 64.078 12.846C65.155 12.376 66.284 11.912 67.52 11.43C70.498 10.265 73.625 9.20897 76.82 8.28897C77.179 8.11797 77.556 7.98097 77.942 7.88097L78.201 7.81097C78.492 7.73097 78.783 7.65398 79.078 7.58698C79.144 7.57198 79.209 7.55897 79.273 7.54597C90.34 0.817975 95.508 0.0219727 98.454 0.0219727C99.214 0.0219727 99.953 0.0859669 100.651 0.212967C104.71 0.954967 109.251 2.41697 113.854 4.46097C128.996 5.55897 143.394 9.79498 156.664 17.058C156.84 17.146 157.016 17.241 157.189 17.342C157.468 17.496 157.741 17.649 158.013 17.801C158.178 17.886 158.332 17.974 158.478 18.064C161.483 19.784 164.468 21.699 167.372 23.769C170.737 25.112 174.063 27.401 177.508 30.75C178.926 32.128 180.154 33.73 181.106 35.431C200.884 55.328 211.777 81.742 211.777 109.882V110.297C211.777 110.458 211.773 110.628 211.765 110.798C211.75 113.385 211.632 115.984 211.416 118.527C211.407 118.723 211.393 118.915 211.374 119.097C211.144 121.759 210.792 124.539 210.335 127.297C210.265 127.73 210.185 128.189 210.102 128.65C210.069 128.934 210.023 129.181 209.978 129.385C209.875 129.933 209.77 130.48 209.656 131.028C209.493 131.836 209.313 132.679 209.112 133.523C209.08 133.683 209.043 133.844 209.004 134.004C208.926 134.357 208.842 134.709 208.751 135.062C208.713 135.256 208.667 135.449 208.615 135.637C208.482 136.179 208.342 136.729 208.191 137.269L208.067 137.723C207.889 138.392 207.685 139.128 207.458 139.877L207.344 140.253C207.276 140.482 207.207 140.713 207.133 140.943C206.936 141.601 206.723 142.254 206.509 142.905L206.313 143.504C204.895 147.751 203.214 151.862 201.301 155.776C200.362 157.749 199.29 159.8 198.143 161.814C197.738 162.535 197.306 163.279 196.864 164.017C195.813 165.784 194.652 167.602 193.426 169.398L193.015 169.991C192.37 170.923 191.717 171.839 191.048 172.743L190.724 173.185C189.991 174.165 189.243 175.119 188.484 176.063L187.873 176.815C187.084 177.78 186.288 178.73 185.472 179.659C184.975 180.223 184.474 180.787 183.973 181.323C183.549 181.799 183.108 182.264 182.674 182.72C182.618 182.78 182.419 182.99 182.374 183.036L181.935 183.484C181.52 183.909 181.107 184.33 180.689 184.741C179.261 186.169 177.76 187.58 176.265 188.899C176.202 188.959 175.939 189.2 175.87 189.26C174.665 190.316 173.642 191.182 172.653 191.983C172.016 192.5 171.362 193.023 170.708 193.516C170.532 193.659 170.351 193.796 170.172 193.933L169.992 194.071C169.636 194.351 169.238 194.647 168.83 194.951C168.83 194.951 168.465 195.214 168.389 195.274C168.275 195.363 168.157 195.448 168.037 195.528L167.27 196.077C166.607 196.559 165.933 197.02 165.238 197.482C163.623 198.589 161.945 199.655 160.111 200.737C159.564 201.079 158.996 201.409 158.438 201.727C158.042 201.961 157.548 202.231 157.053 202.5L156.565 202.766C155.94 203.112 155.292 203.453 154.634 203.793C154.399 203.919 154.159 204.039 153.923 204.156L153.757 204.238C153.229 204.507 152.658 204.798 152.077 205.077C150.818 205.689 149.551 206.256 148.48 206.729C148.209 206.848 147.925 206.969 147.642 207.088C147.432 207.181 147.22 207.273 147.009 207.359C146.497 207.582 145.975 207.795 145.452 207.999C145.033 208.177 144.624 208.338 144.205 208.497C143.539 208.76 142.891 209.004 142.227 209.239C142.012 209.324 141.796 209.402 141.579 209.472C140.739 209.78 139.909 210.06 139.069 210.329C128.863 213.69 118.152 215.461 107.278 215.579C106.936 215.589 106.509 215.59 106.071 215.59Z" fill="white"/>
<path d="M205.981 109.883V110.297C205.981 110.39 205.981 110.494 205.971 110.587C205.961 113.136 205.847 115.665 205.629 118.163C205.629 118.277 205.619 118.391 205.608 118.495C205.38 121.127 205.048 123.718 204.624 126.278C204.541 126.796 204.448 127.314 204.354 127.833C204.354 127.937 204.333 128.03 204.313 128.113C204.209 128.662 204.106 129.211 203.992 129.761C203.826 130.58 203.65 131.398 203.453 132.217C203.432 132.341 203.401 132.466 203.37 132.59C203.287 132.973 203.194 133.357 203.09 133.74C203.08 133.833 203.059 133.937 203.028 134.03C202.904 134.548 202.769 135.077 202.624 135.595C202.583 135.74 202.551 135.875 202.51 136.02C202.323 136.714 202.137 137.388 201.93 138.072C201.826 138.404 201.733 138.746 201.619 139.088C201.37 139.927 201.091 140.757 200.821 141.585C199.505 145.523 197.94 149.358 196.137 153.047C195.215 154.985 194.22 156.881 193.163 158.737C192.396 160.105 191.598 161.442 190.759 162.758V162.768C187.93 167.297 184.728 171.567 181.225 175.557C180.759 176.086 180.282 176.624 179.805 177.132C179.391 177.598 178.955 178.054 178.53 178.5C178.478 178.562 178.416 178.614 178.364 178.676C177.825 179.225 177.297 179.775 176.758 180.303C175.369 181.692 173.95 183.029 172.488 184.314C172.395 184.407 172.291 184.49 172.198 184.583C171.203 185.454 170.198 186.314 169.162 187.153C168.551 187.65 167.929 188.148 167.307 188.614C167.079 188.801 166.841 188.977 166.613 189.153C166.229 189.454 165.836 189.744 165.431 190.044C165.286 190.148 165.141 190.251 164.996 190.365H164.986C164.841 190.469 164.706 190.572 164.551 190.686C164.385 190.8 164.23 190.914 164.064 191.028C163.453 191.474 162.831 191.899 162.188 192.323C160.602 193.411 158.975 194.437 157.307 195.422C156.81 195.733 156.291 196.034 155.784 196.324C155.204 196.666 154.592 196.987 153.991 197.319C153.39 197.651 152.778 197.972 152.157 198.293C151.908 198.428 151.649 198.552 151.4 198.677C150.871 198.946 150.343 199.216 149.804 199.475C148.674 200.024 147.545 200.532 146.394 201.04C146.135 201.154 145.865 201.268 145.596 201.382C145.41 201.465 145.223 201.548 145.036 201.62C144.539 201.838 144.031 202.045 143.523 202.242C143.139 202.408 142.766 202.553 142.383 202.698C141.73 202.957 141.098 203.195 140.445 203.423C140.3 203.485 140.155 203.537 140.01 203.578C139.202 203.879 138.404 204.148 137.595 204.407C128.154 207.516 118.091 209.247 107.634 209.361C107.251 209.371 106.877 209.371 106.494 209.371C99.779 209.371 93.218 208.697 86.876 207.423C81.995 206.449 77.238 205.122 72.647 203.454C70.243 202.583 67.88 201.63 65.558 200.583C58.138 197.236 51.215 193.007 44.904 188.022C44.645 187.815 44.386 187.608 44.127 187.39C44.054 187.338 43.961 187.266 43.889 187.204C42.542 186.116 41.226 184.986 39.94 183.815C39.867 183.763 39.785 183.691 39.712 183.618C35.276 179.597 31.203 175.192 27.556 170.436C27.276 170.084 27.007 169.721 26.737 169.358C24.809 166.798 23.017 164.145 21.358 161.399C21.317 161.316 21.265 161.233 21.213 161.15C21.12 160.984 21.016 160.818 20.933 160.663C20.353 159.699 19.793 158.725 19.254 157.74C19.202 157.636 19.14 157.533 19.088 157.439C12.341 145.086 8.15403 131.157 7.21103 116.358C7.14903 115.374 7.09704 114.399 7.06604 113.415C7.05604 113.27 7.05603 113.135 7.05603 112.99C7.00403 111.943 6.99402 110.917 6.99402 109.881C6.99402 107 7.11803 104.16 7.35703 101.341C7.36703 101.186 7.37804 101.03 7.39804 100.875C10.051 71.3179 25.638 45.4819 48.458 29.0659C48.634 28.9309 48.81 28.8069 48.987 28.6929C50.345 27.7189 51.723 26.7859 53.132 25.8949C53.35 25.7599 53.567 25.6149 53.785 25.4909C55.184 24.6099 56.594 23.7709 58.044 22.9729C60.925 21.3459 63.92 19.8739 66.977 18.5479C68.045 18.0819 69.112 17.6459 70.2 17.2209C73.433 15.9569 76.75 14.8579 80.139 13.9249C80.46 13.8419 80.771 13.7489 81.092 13.6759C84.367 12.8059 87.714 12.1109 91.114 11.5829C93.073 11.2719 95.073 11.0229 97.073 10.8369C97.27 10.8159 97.477 10.7959 97.674 10.7849C100.586 10.5259 103.519 10.3909 106.493 10.3909C123.811 10.3909 140.081 14.8059 154.248 22.5889C154.341 22.6309 154.435 22.6819 154.518 22.7339C154.86 22.9199 155.192 23.1069 155.523 23.2939C155.616 23.3349 155.689 23.3868 155.761 23.4288C163.254 27.7088 170.146 32.9219 176.239 38.9429C176.27 38.9639 176.312 39.0049 176.343 39.0359C176.395 39.0779 176.447 39.1189 176.488 39.1709C176.509 39.1919 176.53 39.2229 176.55 39.2439C194.736 57.2669 205.981 82.2539 205.981 109.883Z" fill="#7282FF"/>
<path d="M80.872 13.6509C72.125 19.2369 63.016 24.3769 52.911 25.8699C53.129 25.7349 53.346 25.5899 53.564 25.4659C63.026 23.9009 71.638 19.1439 79.918 13.8999C80.24 13.8169 80.551 13.7229 80.872 13.6509Z" fill="#FFECE0"/>
<path d="M154.297 22.7079C153.302 24.4909 152.079 26.1069 150.722 27.4649C145.374 32.8329 137.913 35.6419 130.72 38.0669C123.911 40.3679 116.926 42.5339 110.169 44.6479C93.339 49.8919 75.928 55.3019 59.803 63.0639C40.112 72.5259 22.235 85.5839 7.13599 101.316C7.14599 101.161 7.15701 101.005 7.17801 100.85C22.246 85.2109 40.061 72.2259 59.669 62.7849C75.826 55.0229 93.236 49.6029 110.077 44.3589C116.834 42.2659 123.829 40.0789 130.628 37.7889C137.789 35.3739 145.209 32.5659 150.516 27.2489C151.853 25.9119 153.055 24.3059 154.029 22.5649C154.121 22.6049 154.214 22.6569 154.297 22.7079Z" fill="#FFECE0"/>
<path d="M176.268 39.1449C167.013 43.3529 157.241 46.2129 147.167 47.6739C145.478 47.9119 143.726 48.1299 142.037 48.3469C133.446 49.4039 124.564 50.4919 117.9 55.8709C112.936 59.8709 109.951 65.7269 107.06 71.3949C105.837 73.7989 104.583 76.2659 103.184 78.5669C97.277 88.3499 88.23 96.1639 77.69 100.59C73.804 102.217 69.658 103.429 65.648 104.601C58.435 106.705 50.984 108.871 45.045 113.524C37.2 119.649 33.034 129.152 29.023 138.334C28.09 140.458 27.147 142.655 26.152 144.759C24.007 149.329 21.634 153.651 19.032 157.713C18.98 157.609 18.918 157.506 18.866 157.412C21.426 153.412 23.768 149.142 25.872 144.634C26.867 142.52 27.82 140.344 28.743 138.219C32.785 128.995 36.941 119.471 44.848 113.284C50.859 108.6 58.331 106.413 65.565 104.32C69.565 103.149 73.711 101.926 77.576 100.32C88.054 95.9149 97.059 88.1429 102.935 78.4109C104.313 76.1099 105.567 73.6539 106.79 71.2599C109.692 65.5599 112.697 59.6739 117.713 55.6319C124.439 50.2119 133.362 49.1029 141.995 48.0459C143.695 47.8279 145.425 47.6209 147.115 47.3719C157.147 45.9209 166.847 43.0819 176.019 38.9149C176.05 38.9359 176.092 38.9769 176.123 39.0079C176.175 39.0519 176.227 39.0929 176.268 39.1449Z" fill="#FFECE0"/>
<path d="M202.871 133.712C202.861 133.805 202.84 133.909 202.809 134.002C193.969 131.701 184.828 133.494 178.942 138.831C171.107 145.93 170.081 157.133 169.086 167.973C168.775 171.321 168.464 174.792 167.946 178.067C167.293 182.223 166.226 186.327 164.775 190.337H164.765C164.62 190.441 164.485 190.544 164.33 190.658C165.853 186.533 166.962 182.305 167.646 178.025C168.164 174.761 168.475 171.299 168.786 167.931C169.791 157.049 170.817 145.784 178.745 138.602C184.704 133.214 193.938 131.39 202.871 133.712Z" fill="#FFECE0"/>
<path d="M205.41 118.135C205.41 118.249 205.4 118.363 205.389 118.467C197.865 120.312 189.637 120.405 181.563 120.519L180.288 120.529C145.259 121.006 118.19 125.887 95.131 135.898C70.673 146.521 51.045 163.6 39.717 183.788C39.644 183.736 39.562 183.664 39.489 183.591C50.847 163.372 70.507 146.272 95.006 135.629C118.117 125.587 145.207 120.706 180.287 120.229L181.562 120.219C189.637 120.105 197.886 120.011 205.41 118.135Z" fill="#FFECE0"/>
<path d="M78.4581 54.9979C81.8571 51.1839 89.402 42.3959 88.853 40.1989C88.138 37.3799 81.2671 28.3849 77.3811 28.0319C73.5051 27.6799 58.333 32.0839 59.214 30.4989C60.095 28.9129 90.2631 4.56891 99.9631 6.33091C109.435 8.06191 124.462 14.8189 138.453 29.0999L78.4581 54.9979Z" fill="#993F8D"/>
<path d="M70.1681 62.3869C86.2071 45.3689 107.525 33.3959 130.404 28.5559C136.646 27.2359 143.036 26.4309 149.405 26.7989C154.705 27.1049 160.267 27.5589 165.23 29.4439C168.389 30.6439 171.175 32.8559 173.598 35.2109C176.022 37.5659 177.715 40.8309 177.594 44.2079C177.496 46.9329 176.257 49.4819 174.86 51.8239C167.626 63.9489 155.703 72.6759 142.947 78.7289C130.191 84.7809 116.462 88.4399 102.974 92.6159C94.4451 95.2569 85.9181 98.1299 77.0561 99.2169C73.3041 99.6769 69.4421 99.8049 65.7981 98.8019C59.1061 96.9579 55.5281 91.8319 55.9711 84.9859C56.2951 79.9789 59.4701 76.2509 62.1751 72.2249C64.5351 68.7099 67.2681 65.4629 70.1681 62.3869Z" fill="#502750"/>
<path d="M128.348 157.98C128.234 158.529 128.12 159.079 127.996 159.618C126.048 168.437 123.063 177.194 117.311 184.117C110.741 192.014 101.04 196.854 91.019 199.071C82.687 200.905 74.095 201.061 65.556 200.584C58.136 197.237 51.213 193.008 44.902 188.023C44.643 187.816 44.384 187.609 44.125 187.391C44.052 187.339 43.959 187.267 43.887 187.205C42.54 186.117 41.224 184.987 39.938 183.816C39.865 183.764 39.783 183.692 39.71 183.619C35.274 179.598 31.201 175.193 27.554 170.437C27.274 170.085 27.005 169.722 26.735 169.359C24.807 166.799 23.015 164.146 21.356 161.4C21.315 161.317 21.263 161.234 21.211 161.151C21.118 160.985 21.014 160.819 20.931 160.664C20.351 159.7 19.791 158.726 19.252 157.741C19.2 157.637 19.138 157.534 19.086 157.44C12.339 145.087 8.15205 131.158 7.20905 116.359C9.24005 114.255 11.613 112.535 14.349 111.385C22.64 107.903 32.972 110.214 40.289 104.991C45.564 101.229 47.772 94.545 49.171 88.223C50.58 81.901 51.617 75.206 55.524 70.045C58.923 65.558 64.364 62.697 69.981 62.438C74.386 62.241 78.78 63.547 83.163 63.081C90.076 62.335 95.433 57.35 99.268 51.899C100.957 49.495 102.077 46.023 105.486 46.096C108.761 46.179 112.212 49.288 114.108 51.672C116.512 54.708 118.005 58.356 119.352 61.994C120.316 64.575 121.228 67.176 122.088 69.798V69.808C131.364 98.182 134.39 128.796 128.348 157.98Z" fill="#FFA8DE"/>
<path d="M204.623 126.278C204.54 126.796 204.447 127.314 204.353 127.833C204.353 127.937 204.332 128.03 204.312 128.113C204.208 128.662 204.105 129.211 203.991 129.761C203.825 130.58 203.649 131.398 203.452 132.217C203.431 132.341 203.4 132.466 203.369 132.59C203.286 132.973 203.193 133.357 203.089 133.74C203.079 133.833 203.058 133.937 203.027 134.03C202.903 134.548 202.768 135.077 202.623 135.595C202.582 135.74 202.55 135.875 202.509 136.02C202.322 136.714 202.136 137.388 201.929 138.072C201.825 138.404 201.732 138.746 201.618 139.088C201.369 139.927 201.09 140.757 200.82 141.585C199.504 145.523 197.939 149.358 196.136 153.047C195.214 154.985 194.219 156.881 193.162 158.737C192.395 160.105 191.597 161.442 190.758 162.758V162.768C183.172 168.727 174.695 173.557 165.699 177.008C160.196 179.122 154.206 180.749 148.423 179.547C139.241 177.619 132.992 169.152 128.629 160.841C128.411 160.437 128.204 160.033 127.997 159.618C119.582 143.098 114.97 124.662 114.638 106.122C114.431 93.9239 116.12 81.4569 121.675 70.5959C121.81 70.3369 121.944 70.0679 122.089 69.8079V69.7979C127.706 59.2889 137.303 50.5939 148.899 47.9209L151.5 49.1849C153.075 53.6309 152.505 58.5019 152.64 63.2169C152.764 67.9319 153.904 73.1139 157.729 75.8709C162.113 79.0419 168.517 77.9229 173.015 80.9389C176.87 83.5299 178.352 88.7629 177.502 93.3439C176.901 96.5669 175.315 99.5929 175.077 102.868C174.776 106.868 176.683 110.962 179.927 113.315C184.736 116.797 191.379 116.237 196.789 118.683C200.167 120.215 202.975 122.962 204.623 126.278Z" fill="#FFA8DE"/>
<path d="M196.135 153.047C195.213 154.985 194.218 156.881 193.161 158.737C189.772 164.769 185.751 170.396 181.222 175.557C180.756 176.086 180.279 176.624 179.802 177.132C179.388 177.598 178.952 178.054 178.527 178.5C178.475 178.562 178.413 178.614 178.361 178.676C177.822 179.225 177.294 179.775 176.755 180.303C175.366 181.692 173.947 183.029 172.485 184.314C172.392 184.407 172.288 184.49 172.195 184.583C171.2 185.454 170.195 186.314 169.159 187.153C168.548 187.65 167.926 188.148 167.304 188.614C167.076 188.801 166.838 188.977 166.61 189.153C166.226 189.454 165.833 189.744 165.428 190.044C165.283 190.148 165.138 190.251 164.993 190.365H164.983C164.838 190.469 164.703 190.572 164.548 190.686C164.382 190.8 164.227 190.914 164.061 191.028C163.45 191.474 162.828 191.899 162.185 192.323C160.599 193.411 158.972 194.437 157.304 195.422C156.807 195.733 156.288 196.034 155.781 196.324C155.201 196.666 154.589 196.987 153.988 197.319C153.387 197.651 152.775 197.972 152.154 198.293C151.905 198.428 151.646 198.552 151.397 198.677C150.868 198.946 150.34 199.216 149.801 199.475C148.671 200.024 147.542 200.532 146.391 201.04C146.132 201.154 145.862 201.268 145.593 201.382C145.407 201.465 145.22 201.548 145.033 201.62C144.536 201.838 144.028 202.045 143.52 202.242C143.136 202.408 142.763 202.553 142.38 202.698C141.727 202.957 141.095 203.195 140.442 203.423C140.297 203.485 140.152 203.537 140.007 203.578C139.199 203.879 138.401 204.148 137.592 204.407C128.151 207.516 118.088 209.247 107.631 209.361C107.248 209.371 106.874 209.371 106.491 209.371C99.776 209.371 93.215 208.697 86.873 207.423C81.992 206.449 77.235 205.122 72.644 203.454C62.529 199.806 53.181 194.562 44.901 188.023C44.642 187.816 44.383 187.609 44.124 187.391C44.051 187.339 43.958 187.267 43.886 187.205C42.539 186.117 41.223 184.987 39.937 183.816C39.864 183.764 39.782 183.692 39.709 183.619C35.273 179.598 31.2 175.193 27.553 170.437C27.273 170.085 27.004 169.722 26.734 169.359C35.626 152.529 57.887 112.639 71.825 107.24C73.919 106.421 75.856 105.717 77.639 105.084C89.35 100.959 94.801 100.317 98.801 96.731L99.216 96.358C99.62 95.964 100.014 95.529 100.397 95.063L100.6 94.716C105.129 86.228 105.61 62.428 105.61 62.428L127.125 83.248L125.467 90.42L125.332 91C124.876 92.98 124.658 95 124.679 97.032C124.679 97.488 124.689 97.954 124.721 98.421C125.021 99.198 125.664 100.297 127.073 101.136C127.218 101.229 127.384 101.312 127.55 101.395C128.275 101.758 129.187 102.048 130.307 102.203C132.95 102.576 137.862 102.483 143.894 103.84C150.537 105.332 158.517 108.597 166.289 116.235C176.124 125.895 188.757 142.787 196.135 153.047Z" fill="#FF8C9C"/>
<path d="M125.467 90.42L125.332 90.9999C124.876 92.9799 124.658 95 124.679 97.032C122.565 97.136 120.44 96.7729 118.513 95.9229C115.249 94.4929 112.689 91.7979 110.803 88.7829C109.363 86.4719 108.761 84.316 108.077 81.674C113.113 85.85 119.114 88.845 125.467 90.42Z" fill="#502750"/>
<path d="M196.135 153.047C195.213 154.985 194.218 156.881 193.161 158.737C189.772 164.769 185.751 170.396 181.222 175.557C180.756 176.086 180.279 176.624 179.802 177.132C179.388 177.598 178.952 178.054 178.527 178.5C178.475 178.562 178.413 178.614 178.361 178.676C177.822 179.225 177.294 179.775 176.755 180.303C175.366 181.692 173.947 183.029 172.485 184.314C172.392 184.407 172.288 184.49 172.195 184.583C171.2 185.454 170.195 186.314 169.159 187.153C168.548 187.65 167.926 188.148 167.304 188.614C167.076 188.801 166.838 188.977 166.61 189.153C166.226 189.454 165.833 189.744 165.428 190.044C165.283 190.148 165.138 190.251 164.993 190.365H164.983C164.838 190.469 164.703 190.572 164.548 190.686C164.382 190.8 164.227 190.914 164.061 191.028C163.45 191.474 162.828 191.899 162.185 192.323C160.599 193.411 158.972 194.437 157.304 195.422C156.807 195.733 156.288 196.034 155.781 196.324C155.201 196.666 154.589 196.987 153.988 197.319C153.387 197.651 152.775 197.972 152.154 198.293C151.905 198.428 151.646 198.552 151.397 198.677C150.868 198.946 150.34 199.216 149.801 199.475C148.671 200.024 147.542 200.532 146.391 201.04C146.132 201.154 145.862 201.268 145.593 201.382C145.407 201.465 145.22 201.548 145.033 201.62C144.536 201.838 144.028 202.045 143.52 202.242C143.136 202.408 142.763 202.553 142.38 202.698C141.727 202.957 141.095 203.195 140.442 203.423C140.297 203.485 140.152 203.537 140.007 203.578C139.199 203.879 138.401 204.148 137.592 204.407C128.151 207.516 118.088 209.247 107.631 209.361C107.248 209.371 106.874 209.371 106.491 209.371C99.776 209.371 93.215 208.697 86.873 207.423C81.992 206.449 77.235 205.122 72.644 203.454C62.529 199.806 53.181 194.562 44.901 188.023C44.642 187.816 44.383 187.609 44.124 187.391C44.051 187.339 43.958 187.267 43.886 187.205C42.539 186.117 41.223 184.987 39.937 183.816C39.864 183.764 39.782 183.692 39.709 183.619C35.273 179.598 31.2 175.193 27.553 170.437C27.273 170.085 27.004 169.722 26.734 169.359C35.626 152.529 57.887 112.639 71.825 107.24C73.919 106.421 75.856 105.717 77.639 105.084C79.629 106.131 81.598 107.333 83.722 108.193C94.189 112.411 105.786 113.354 116.916 111.903C123.29 111.074 129.549 109.478 135.55 107.177C138.317 106.12 141.095 104.907 143.893 103.84C150.536 105.332 158.516 108.597 166.288 116.235C176.124 125.895 188.757 142.787 196.135 153.047Z" fill="#502750"/>
<path d="M150.694 62.5152C153.575 50.1821 145.913 37.8483 133.58 34.967C121.246 32.0857 108.913 39.748 106.031 52.0812C103.15 64.4143 110.812 76.7481 123.146 79.6294C135.479 82.5107 147.813 74.8484 150.694 62.5152Z" fill="#FF8C9C"/>
<path d="M150.764 63.1349C150.764 63.1349 146.53 94.3579 130.302 92.4169C114.073 90.4769 108.428 85.8899 106.664 79.0109C104.9 72.1309 105.606 54.7999 105.606 54.7999L150.764 63.1349Z" fill="#FF8C9C"/>
<path d="M123.891 37.647C125.144 39.476 125.521 41.766 125.603 43.981C125.722 47.226 124.816 51.105 121.769 52.23C119.504 53.066 116.804 52.026 114.642 53.1C112.637 54.096 111.852 56.511 111.366 58.696C110.879 60.887 110.357 63.325 108.522 64.62C106.745 65.875 104.168 65.562 102.432 64.252C100.696 62.941 99.717 60.824 99.324 58.685C98.14 52.229 101.832 45.744 106.713 41.357C110.587 37.875 119.661 31.47 123.891 37.647Z" fill="#FFA8DE"/>
<path d="M125.536 44.6659C127.371 45.2499 129.351 44.955 131.276 44.993C133.201 45.031 135.339 45.5539 136.357 47.1879C137.267 48.6489 137.001 50.516 137.212 52.225C137.593 55.314 139.653 58.0329 142.267 59.7219C144.881 61.4109 148 62.1709 151.099 62.4649C151.452 62.4989 151.867 62.502 152.089 62.225C152.22 62.062 152.247 61.841 152.267 61.634C152.893 55.365 152.711 48.6629 149.41 43.2969C145.985 37.7289 139.662 34.479 133.256 33.177C130.079 32.531 121.66 31.5259 119.574 35.0469C117.772 38.0899 122.852 43.8109 125.536 44.6659Z" fill="#FFA8DE"/>
<path d="M124.794 65.8829C124.794 67.1569 123.761 68.1889 122.488 68.1889C121.214 68.1889 120.182 67.1559 120.182 65.8829C120.182 64.6099 121.215 63.5769 122.488 63.5769C123.761 63.5759 124.794 64.6089 124.794 65.8829Z" fill="#502750"/>
<path d="M143.958 68.9359C143.958 70.2099 142.925 71.2419 141.652 71.2419C140.378 71.2419 139.346 70.2089 139.346 68.9359C139.346 67.6619 140.379 66.6299 141.652 66.6299C142.926 66.6299 143.958 67.6619 143.958 68.9359Z" fill="#502750"/>
<path d="M118.806 60.1689C119.56 59.2469 120.723 58.7699 121.882 58.6429C123.042 58.5279 124.283 58.7799 125.19 59.5639C125.422 59.7649 125.448 60.1159 125.247 60.3479C125.15 60.4599 125.018 60.5239 124.882 60.5369L124.846 60.5409C123.814 60.6409 122.966 60.6569 122.082 60.7359C121.197 60.8019 120.351 60.9489 119.33 61.0639L119.297 61.0679C118.994 61.1019 118.72 60.8839 118.686 60.5809C118.667 60.4269 118.715 60.2799 118.806 60.1689Z" fill="#502750"/>
<path d="M145.915 65.3159C144.96 64.9369 144.183 64.5739 143.346 64.2769C142.513 63.9679 141.699 63.7309 140.73 63.3629L140.697 63.3509C140.41 63.2419 140.265 62.9209 140.374 62.6339C140.427 62.4959 140.53 62.3899 140.653 62.3299C141.733 61.8109 142.997 61.8939 144.086 62.3099C145.171 62.7369 146.167 63.5029 146.653 64.5899C146.777 64.8679 146.653 65.1949 146.374 65.3199C146.233 65.3829 146.08 65.3819 145.946 65.3299L145.915 65.3159Z" fill="#502750"/>
<path d="M135.968 64.3558C135.254 67.3858 134.589 71.3208 133.8 74.3318C133.592 75.1248 132.574 75.3588 132.037 74.7398C131.52 74.1448 131.016 73.5379 130.527 72.9199" stroke="#502750" stroke-width="0.5089" stroke-miterlimit="10" stroke-linecap="round" stroke-linejoin="round"/>
<path d="M127.55 75.8529C128.868 77.5879 131.249 78.4399 133.369 77.9329" stroke="#502750" stroke-width="0.5089" stroke-miterlimit="10" stroke-linecap="round" stroke-linejoin="round"/>
<path d="M104.471 61.3659C103.755 60.6529 102.977 59.9799 102.061 59.5549C101.145 59.1289 100.069 58.9719 99.116 59.3079C98.243 59.6159 97.553 60.3019 97.006 61.0499C95.478 63.1389 94.874 65.9029 95.489 68.4179C96.104 70.9329 97.955 73.1349 100.364 74.0829C102.417 74.8909 104.978 74.6969 106.552 73.1499C107.505 72.2129 108.004 70.8899 108.18 69.5649C108.359 68.2139 108.477 66.4889 107.702 65.2959C106.789 63.8919 105.657 62.5459 104.471 61.3659Z" fill="#FF8C9C"/>
<path d="M97.712 64.1299C99.309 64.0789 100.981 64.1239 102.373 65.3169C104.031 66.7379 105.204 68.9489 105.871 71.4259" stroke="#502750" stroke-width="0.6644" stroke-miterlimit="10" stroke-linecap="round" stroke-linejoin="round"/>
<path d="M99.819 68.2059C100.896 67.8229 102.044 68.1009 103.104 68.5649C104.104 69.0029 105.119 69.6659 105.681 70.8669C105.696 70.8979 105.716 70.9339 105.743 70.9279C105.77 70.9219 105.762 70.8479 105.739 70.8669" stroke="#502750" stroke-width="0.6644" stroke-miterlimit="10" stroke-linecap="round" stroke-linejoin="round"/>
<path d="M127.55 101.395C124.741 115.78 120.917 130.092 116.212 143.979V143.989C115.984 144.683 115.746 145.357 115.507 146.041C115.466 146.145 115.372 146.217 115.258 146.217C115.248 146.217 115.248 146.217 115.248 146.217C115.124 146.207 115.03 146.124 114.999 146.01C114.843 145.336 114.688 144.663 114.512 143.989C112.895 137.429 110.657 130.962 108.48 124.682L98.8 96.7319L99.2151 96.3589L108.967 124.506C111.164 130.828 113.423 137.336 115.04 143.948C115.144 144.3 115.227 144.663 115.31 145.015C115.434 144.652 115.559 144.3 115.673 143.937C120.42 129.998 124.244 115.603 127.073 101.136C127.218 101.229 127.384 101.312 127.55 101.395Z" fill="#FFECE0"/>
<path d="M115.396 156.451C118.854 156.451 121.658 153.647 121.658 150.189C121.658 146.73 118.854 143.927 115.396 143.927C111.938 143.927 109.134 146.73 109.134 150.189C109.134 153.647 111.938 156.451 115.396 156.451Z" fill="#FFECE0"/>
<g opacity="0.48">
<path opacity="0.44" d="M112.971 200.375C133.649 200.375 150.412 183.612 150.412 162.934C150.412 142.256 133.649 125.493 112.971 125.493C92.2929 125.493 75.53 142.256 75.53 162.934C75.53 183.612 92.2929 200.375 112.971 200.375Z" fill="#FFECE0"/>
<path opacity="0.44" d="M113.932 200.141C130.081 200.141 143.173 187.049 143.173 170.9C143.173 154.751 130.081 141.659 113.932 141.659C97.7827 141.659 84.691 154.751 84.691 170.9C84.691 187.049 97.7827 200.141 113.932 200.141Z" fill="#FFECE0"/>
</g>
<path d="M106.001 200.319C98.655 198.88 91.401 194.84 88.083 188.129C86.874 185.685 86.228 182.905 86.624 180.207C87.02 177.509 88.546 174.92 90.917 173.574C92.167 172.864 93.782 172.535 95.02 173.266C96.252 173.994 96.729 175.497 97.307 176.807C98.039 178.468 99.187 180.08 100.889 180.713C102.591 181.346 104.872 180.582 105.345 178.829C105.615 177.826 105.269 176.773 104.933 175.79C103.977 172.996 103.063 170.157 102.781 167.217C102.499 164.277 102.893 161.195 104.404 158.657C105.915 156.12 108.665 154.223 111.619 154.216C112.832 154.213 114.147 154.593 114.827 155.596C115.522 156.62 115.373 157.979 115.146 159.195C114.355 163.442 112.954 167.801 114.024 171.987C114.35 173.263 115.21 174.688 116.526 174.635C117.981 174.577 118.659 172.839 118.979 171.419C119.261 170.165 119.544 168.912 119.826 167.659C120.096 166.46 120.8 164.948 122.011 165.157C122.449 165.233 122.812 165.543 123.092 165.889C124.551 167.699 124.128 170.31 124.41 172.618C124.537 173.656 125.03 174.868 126.066 175.008C126.535 175.071 127.002 174.885 127.417 174.656C129.613 173.444 131.235 170.905 133.742 170.814C135.316 170.757 136.788 171.781 137.617 173.12C138.446 174.459 138.724 176.068 138.807 177.641C139.251 186.053 134.06 194.481 126.349 197.871C120.877 200.277 114.685 200.229 108.708 200.14" fill="#FFA861"/>
<path d="M103.532 194.863C101.513 190.819 102.911 185.389 106.632 182.823C107.097 182.502 107.751 182.231 108.189 182.587C108.561 182.89 108.533 183.455 108.488 183.933C108.396 184.931 108.392 185.981 108.837 186.879C109.282 187.776 110.297 188.46 111.272 188.227C112.252 187.993 112.845 186.924 112.869 185.917C112.893 184.91 112.48 183.95 112.074 183.028C111.456 181.621 110.837 180.213 110.219 178.806C110.06 178.444 109.897 178.054 109.972 177.666C110.128 176.854 111.16 176.587 111.986 176.621C114.352 176.718 116.647 177.943 118.043 179.855C119.439 181.767 119.908 184.326 119.28 186.609C119.108 187.232 118.867 187.928 119.182 188.492C119.606 189.25 120.797 189.196 121.451 188.625C122.105 188.054 122.378 187.176 122.683 186.363C122.989 185.55 123.417 184.694 124.21 184.339C125.092 183.944 126.174 184.329 126.838 185.033C127.501 185.736 127.823 186.691 128.049 187.631C128.553 189.721 128.662 191.996 127.782 193.958C126.851 196.033 124.898 197.525 122.766 198.317C119.886 199.387 115.821 200.096 112.706 200.08C108.971 200.061 105.257 198.319 103.532 194.863Z" fill="#FFECE0"/>
<path d="M38.407 77.786L51.04 76.785L38.519 75.625C40.358 73.521 43.12 70.223 43.12 70.223C43.12 70.223 39.735 73.201 37.447 75.246L36.475 62.022L35.551 74.836C33.364 72.908 30.037 70.397 30.037 70.397C30.037 70.397 33.097 73.769 34.98 75.825L22.176 76.653L34.873 77.716C32.922 79.889 30.212 83.48 30.212 83.48C30.212 83.48 33.619 80.388 35.672 78.508L36.609 90.754L37.618 78.463C39.694 80.29 43.296 83.306 43.296 83.306C43.296 83.306 40.445 80.069 38.407 77.786Z" fill="#FFA861"/>
<path d="M168.814 146.865L186.421 145.471L168.97 143.854C171.533 140.922 175.383 136.325 175.383 136.325C175.383 136.325 170.665 140.475 167.477 143.326L166.122 124.895L164.834 142.754C161.786 140.067 157.149 136.567 157.149 136.567C157.149 136.567 161.415 141.267 164.038 144.132L146.192 145.286L163.888 146.768C161.169 149.797 157.392 154.801 157.392 154.801C157.392 154.801 162.14 150.491 165.001 147.872L166.307 164.939L167.713 147.808C170.606 150.354 175.627 154.558 175.627 154.558C175.627 154.558 171.655 150.046 168.814 146.865Z" fill="#FFA861"/>
<path d="M90.456 134.938C90.331 134.918 90.3371 134.736 90.4631 134.725C92.1731 134.579 95.497 134.173 95.869 133.211C96.264 132.191 96.994 128.257 97.291 126.603C97.313 126.481 97.489 126.487 97.503 126.61C97.713 128.455 98.3041 133.111 98.9761 133.547C99.6151 133.962 102.612 134.402 104.009 134.589C104.13 134.605 104.134 134.779 104.014 134.801C102.896 135.001 101.778 135.238 100.695 135.583C100.149 135.757 99.544 135.968 99.08 136.341C98.54 136.775 98.4241 137.292 98.2781 137.935C97.9491 139.383 97.727 140.859 97.508 142.327C97.49 142.451 97.3101 142.447 97.2951 142.323C97.1081 140.701 96.572 137.324 95.281 136.34C94.353 135.633 91.861 135.159 90.456 134.938Z" fill="#FFECE0"/>
<path d="M16.447 134.938C16.322 134.918 16.328 134.736 16.454 134.725C18.165 134.579 21.488 134.173 21.86 133.211C22.255 132.191 22.985 128.257 23.282 126.603C23.304 126.481 23.48 126.487 23.494 126.61C23.704 128.455 24.295 133.111 24.967 133.547C25.606 133.962 28.603 134.402 30 134.589C30.121 134.605 30.125 134.779 30.005 134.801C28.887 135.001 27.768 135.238 26.686 135.583C26.14 135.757 25.535 135.968 25.071 136.341C24.531 136.775 24.415 137.292 24.269 137.935C23.94 139.383 23.718 140.859 23.499 142.327C23.481 142.451 23.301 142.447 23.286 142.323C23.099 140.701 22.563 137.324 21.272 136.34C20.345 135.633 17.853 135.159 16.447 134.938Z" fill="#FFECE0"/>
<path d="M185.049 102.297C184.924 102.277 184.93 102.095 185.056 102.084C186.767 101.938 190.09 101.532 190.462 100.57C190.857 99.55 191.587 95.616 191.884 93.962C191.906 93.84 192.082 93.846 192.096 93.969C192.305 95.814 192.897 100.47 193.569 100.906C194.208 101.321 197.205 101.761 198.602 101.948C198.723 101.964 198.727 102.138 198.607 102.16C197.489 102.36 196.37 102.597 195.288 102.942C194.742 103.116 194.137 103.327 193.673 103.7C193.133 104.134 193.017 104.652 192.871 105.294C192.542 106.742 192.32 108.218 192.101 109.686C192.083 109.81 191.903 109.806 191.888 109.682C191.701 108.06 191.165 104.683 189.874 103.699C188.947 102.992 186.455 102.518 185.049 102.297Z" fill="#FFECE0"/>
<path d="M164.396 68.8309C164.271 68.8109 164.277 68.6289 164.403 68.6179C166.114 68.4719 169.437 68.0659 169.809 67.1039C170.204 66.0839 170.934 62.1499 171.231 60.4959C171.253 60.3739 171.429 60.3799 171.443 60.5029C171.653 62.3479 172.244 67.0039 172.916 67.4399C173.555 67.8549 176.552 68.2949 177.949 68.4819C178.07 68.4979 178.074 68.6719 177.954 68.6939C176.836 68.8939 175.718 69.1309 174.635 69.4759C174.089 69.6499 173.484 69.8609 173.02 70.2339C172.48 70.6679 172.364 71.1859 172.218 71.8279C171.889 73.2759 171.667 74.7519 171.448 76.2199C171.43 76.3439 171.25 76.3399 171.235 76.2159C171.048 74.5939 170.512 71.2169 169.221 70.2329C168.293 69.5259 165.802 69.0519 164.396 68.8309Z" fill="#FFECE0"/>
<path d="M43.812 47.313C43.703 47.296 43.709 47.138 43.818 47.128C45.303 47.001 48.189 46.648 48.512 45.813C48.855 44.927 49.489 41.511 49.747 40.075C49.766 39.969 49.919 39.974 49.931 40.081C50.113 41.683 50.626 45.726 51.21 46.105C51.765 46.466 54.368 46.847 55.58 47.009C55.685 47.023 55.689 47.174 55.584 47.193C54.613 47.367 53.642 47.573 52.702 47.872C52.228 48.023 51.703 48.206 51.3 48.53C50.831 48.907 50.73 49.356 50.603 49.914C50.317 51.172 50.124 52.453 49.934 53.728C49.918 53.836 49.762 53.833 49.749 53.724C49.587 52.316 49.121 49.383 48 48.529C47.197 47.917 45.033 47.504 43.812 47.313Z" fill="#FFECE0"/>
</svg>
