<svg width="213" height="212" viewBox="0 0 213 212" fill="none" xmlns="http://www.w3.org/2000/svg">
<path d="M106.497 211.802C101.867 211.802 97.1998 211.5 92.6258 210.904C92.5868 210.899 92.5158 210.889 92.4678 210.881C91.5178 210.756 90.6078 210.625 89.7008 210.482L88.7718 210.324C88.0598 210.205 87.4238 210.098 86.7938 209.98C86.5318 209.932 85.4148 209.707 85.4148 209.707C84.9138 209.608 84.4138 209.51 83.9158 209.403C83.6228 209.34 82.6998 209.126 82.6998 209.126L82.5568 209.094C82.0628 208.982 81.5688 208.87 81.0778 208.751C80.7368 208.667 79.7768 208.418 79.7768 208.418L79.5988 208.373C79.1508 208.259 78.7038 208.143 78.2598 208.022C77.9168 207.928 76.9088 207.638 76.9088 207.638L76.7508 207.593C76.3318 207.473 75.9148 207.353 75.4988 207.227C75.0668 207.096 74.6438 206.962 74.2218 206.827C74.2218 206.827 73.1278 206.479 72.7708 206.36C72.2848 206.198 71.7988 206.029 71.3118 205.859C71.3118 205.859 70.4058 205.542 70.0868 205.426C69.5528 205.232 69.0098 205.028 68.4668 204.821C68.1278 204.692 67.7938 204.564 67.4618 204.434C66.8848 204.207 66.2998 203.97 65.7168 203.729L64.9018 203.389C64.2598 203.117 63.6258 202.84 62.9948 202.558L62.3948 202.288C61.6948 201.97 61.0068 201.648 60.3228 201.319L59.9628 201.146C59.1838 200.768 58.4278 200.39 57.6788 200.003C57.6748 200.001 57.5848 199.955 57.5808 199.953C55.0628 198.652 52.5668 197.232 50.1668 195.735C49.7058 195.463 49.2518 195.172 48.8008 194.878C48.7828 194.867 48.7458 194.843 48.7458 194.843C47.4318 194.009 46.1168 193.125 44.8398 192.216C44.8248 192.205 44.6188 192.061 44.5358 192.001C41.1218 189.561 37.7708 186.849 34.5768 183.94C33.7988 183.233 33.0228 182.513 32.2678 181.77C28.3668 178.012 24.6388 173.799 21.2378 169.294C20.4868 168.287 19.7738 167.302 19.0728 166.294C17.7918 164.465 16.5088 162.504 15.2708 160.478C15.0898 160.192 14.8758 159.821 14.6628 159.45C13.1348 156.863 11.6788 154.13 10.3718 151.386C10.2958 151.232 10.2198 151.076 10.1428 150.902C10.1428 150.902 9.96281 150.529 9.90881 150.408C9.78881 150.173 9.67082 149.932 9.56882 149.701C4.90782 139.499 1.91881 128.612 0.713806 117.401L0.681824 117.104C0.650824 116.849 0.619827 116.52 0.591827 116.177C0.590827 116.162 0.567822 115.868 0.560822 115.732C0.254822 112.527 0.10083 109.245 0.10083 105.972C0.10083 92.9851 2.43383 80.3121 7.03583 68.3041L7.31583 67.5871C8.41483 64.7831 9.62982 62.0361 10.9138 59.4641C10.9258 59.4401 10.9378 59.4151 10.9508 59.3901C11.0648 59.1431 11.1818 58.9061 11.3038 58.6751C11.3108 58.6591 11.3198 58.6441 11.3268 58.6291C22.2298 36.9721 40.4308 19.5461 62.5778 9.56111C62.7738 9.46711 62.9458 9.38711 63.1188 9.31311C63.1618 9.29411 63.2058 9.27611 63.2488 9.25911C63.9358 8.95211 64.6158 8.65511 65.3138 8.36711C65.4728 8.29911 65.6388 8.23211 65.7998 8.17211C71.6658 5.75311 77.7668 3.85811 83.9398 2.53911C84.2148 2.46711 84.4638 2.41711 84.6798 2.38011C86.0648 2.08211 87.5418 1.80811 89.3128 1.51911C89.4948 1.48611 89.7408 1.44511 89.9988 1.41111C95.4398 0.569112 100.991 0.141113 106.498 0.141113C126.467 0.141113 145.916 5.67511 162.755 16.1471C162.986 16.2771 163.21 16.4141 163.433 16.5531C166.272 18.3421 169.081 20.3121 171.799 22.4221C171.986 22.5571 172.173 22.7021 172.355 22.8571C175.781 25.5361 179.086 28.4781 182.184 31.6051C182.387 31.7901 182.556 31.9661 182.696 32.1211C183.576 33.0161 184.406 33.8941 185.166 34.7321C185.276 34.8481 185.378 34.9631 185.478 35.0781C194.428 44.9151 201.344 56.1661 206.039 68.5271C206.099 68.6671 206.154 68.8071 206.204 68.9461C206.805 70.5431 207.354 72.1311 207.889 73.8131L207.982 74.0941C209.665 79.4021 210.928 84.8721 211.753 90.4031C211.783 90.5751 211.807 90.7511 211.828 90.9201C212.099 92.8101 212.321 94.7191 212.506 96.7531C212.51 96.8001 212.538 97.1431 212.538 97.1431C212.783 100.116 212.905 103.073 212.905 105.971C212.905 123.651 208.429 141.153 199.959 156.584C198.738 158.809 197.538 160.828 196.288 162.756C195.699 163.701 194.983 164.78 194.154 165.967C189.617 172.506 184.354 178.526 178.515 183.85C178.331 184.03 178.139 184.207 177.947 184.376C174.364 187.621 170.502 190.652 166.463 193.388C166.227 193.561 165.994 193.717 165.759 193.869C164.922 194.427 164 195.03 163.067 195.61L161.65 196.478C160.327 197.278 158.996 198.041 157.548 198.832L157.332 198.951C156.052 199.646 154.72 200.331 153.271 201.038L152.956 201.193C151.635 201.832 150.247 202.466 148.829 203.079L148.483 203.229C147.09 203.824 145.671 204.395 144.246 204.933L143.898 205.065C142.453 205.604 140.994 206.114 139.548 206.583L139.215 206.69C137.718 207.171 136.207 207.621 134.736 208.022L134.575 208.065C132.916 208.514 131.341 208.903 129.822 209.241C129.799 209.246 129.723 209.262 129.7 209.268C127.255 209.81 124.735 210.277 122.271 210.642C122.264 210.643 122.256 210.644 122.25 210.645C122.123 210.665 121.971 210.687 121.796 210.705C116.75 211.434 111.603 211.802 106.497 211.802Z" fill="white"/>
<path d="M206.306 105.972C206.306 123.183 201.902 139.378 194.152 153.499C193.072 155.466 191.939 157.39 190.721 159.272C190.08 160.298 189.406 161.303 188.711 162.297C184.424 168.476 179.464 174.152 173.916 179.198C173.777 179.337 173.627 179.476 173.478 179.604C173.478 179.604 173.467 179.604 173.467 179.615C170.046 182.715 166.401 185.569 162.553 188.167C162.403 188.285 162.254 188.381 162.104 188.477C161.238 189.054 160.372 189.621 159.496 190.166C159.036 190.455 158.577 190.733 158.117 191.01C147.716 197.296 136.053 201.743 123.6 203.902C123.504 203.923 123.408 203.934 123.311 203.945C122.595 204.073 121.878 204.191 121.152 204.298C121.067 204.309 120.981 204.33 120.895 204.33C116.138 205.025 111.274 205.388 106.314 205.388C101.899 205.388 97.5378 205.1 93.2718 204.544C78.8508 202.673 65.3928 197.756 53.5808 190.412C53.4848 190.369 53.3888 190.305 53.2918 190.241C52.8538 189.984 52.4258 189.706 51.9988 189.429C50.7698 188.649 49.5618 187.836 48.3748 186.992C48.2888 186.928 48.2038 186.874 48.1178 186.81C44.8248 184.458 41.6928 181.914 38.7108 179.199C37.9948 178.547 37.2788 177.884 36.5838 177.2C32.8108 173.566 29.3358 169.621 26.1718 165.43C25.4878 164.511 24.8138 163.581 24.1518 162.629C22.9008 160.844 21.7038 159.005 20.5598 157.134C20.3778 156.845 20.2068 156.546 20.0358 156.247C18.5708 153.767 17.2028 151.201 15.9528 148.572C15.9098 148.486 15.8668 148.401 15.8248 148.305C15.7718 148.187 15.7078 148.059 15.6538 147.942C15.6108 147.856 15.5678 147.771 15.5358 147.685C15.4398 147.493 15.3328 147.289 15.2468 147.097C10.9388 137.669 8.06278 127.46 6.90878 116.716C6.89778 116.62 6.8878 116.524 6.8768 116.417C6.8448 116.16 6.82379 115.914 6.80179 115.658V115.647C6.79079 115.54 6.78079 115.422 6.78079 115.305C6.48179 112.237 6.33179 109.126 6.33179 105.973C6.33179 93.5092 8.6298 81.5892 12.8418 70.6002C12.9278 70.3862 13.0018 70.1832 13.0878 69.9692C14.1138 67.3502 15.2468 64.7742 16.4978 62.2722C16.4978 62.2722 16.4978 62.2612 16.5088 62.2612C16.6158 62.0152 16.7328 61.7692 16.8718 61.5242V61.5132C27.1128 41.1702 44.1418 24.8252 65.0298 15.4082C65.1688 15.3442 65.3188 15.2692 65.4678 15.2052H65.4788C66.1948 14.8842 66.9008 14.5742 67.6278 14.2752C67.7238 14.2322 67.8308 14.1892 67.9268 14.1572C73.4748 11.8592 79.2798 10.0412 85.2978 8.76917C85.4258 8.72617 85.5548 8.70518 85.6938 8.68318C87.1688 8.36218 88.6548 8.09518 90.1618 7.84918C90.3438 7.81718 90.5258 7.78518 90.7068 7.76318C95.7848 6.97218 101.001 6.55518 106.314 6.55518C125.791 6.55518 143.964 12.0922 159.325 21.6812C159.507 21.7772 159.678 21.8842 159.849 21.9912C162.596 23.7232 165.247 25.5932 167.802 27.5822C167.898 27.6462 168.005 27.7322 168.101 27.8172C171.447 30.4252 174.622 33.2582 177.604 36.2832C177.69 36.3472 177.754 36.4222 177.807 36.4862C178.652 37.3412 179.485 38.2182 180.287 39.1052C180.362 39.1802 180.426 39.2552 180.49 39.3292C188.828 48.4802 195.467 59.1912 199.913 70.9502C199.956 71.0362 199.988 71.1322 200.02 71.2172C200.586 72.7242 201.11 74.2422 201.602 75.7922C201.634 75.8882 201.666 75.9842 201.698 76.0812C203.269 81.0412 204.456 86.1722 205.236 91.4422C205.257 91.5382 205.268 91.6452 205.279 91.7412C205.546 93.5902 205.76 95.4502 205.931 97.3322C205.931 97.3432 205.931 97.3432 205.931 97.3432C205.942 97.4612 205.952 97.5892 205.963 97.7072C206.188 100.435 206.306 103.193 206.306 105.972Z" fill="#502750"/>
<g opacity="0.27">
<path d="M65.4668 15.2051C63.6388 18.4871 60.7948 21.3731 58.0698 23.9711C52.0518 29.6581 45.7448 35.3451 39.6408 40.8501C31.8908 47.8521 24.0548 54.9291 16.5078 62.2621C16.6148 62.0161 16.7318 61.7701 16.8708 61.5251V61.5141C24.2468 54.3731 31.8898 47.4671 39.4478 40.6371C45.5518 35.1321 51.8588 29.4451 57.8668 23.7581C60.4858 21.2781 63.2118 18.5201 65.0288 15.4091C65.1668 15.3441 65.3168 15.2691 65.4668 15.2051Z" fill="#FFA8DE"/>
<path d="M85.6918 8.68408C85.5528 8.87608 85.4029 9.06908 85.2639 9.27208C81.7469 14.2641 79.7799 20.2721 77.8769 26.0871C75.5679 33.1641 73.1629 40.4651 67.9669 45.8531C64.7169 49.2101 60.5908 51.5611 56.5818 53.8601C52.6048 56.1371 48.4678 58.4991 45.2608 61.8241C41.3378 65.8861 38.9429 71.1781 36.6339 76.2881C36.0989 77.4851 35.5329 78.7251 34.9659 79.9331C28.4349 93.7121 18.6639 106.005 6.79785 115.648C6.78685 115.541 6.77686 115.423 6.77686 115.306C18.5359 105.696 28.2318 93.4881 34.7098 79.8051C35.2868 78.6081 35.8428 77.3681 36.3878 76.1701C38.7078 71.0281 41.1019 65.7151 45.0569 61.6321C48.2959 58.2751 52.4438 55.9021 56.4518 53.6151C60.4288 51.3381 64.5328 48.9761 67.7618 45.6621C72.9248 40.3171 75.2978 33.0371 77.5968 25.9931C79.5098 20.1671 81.4768 14.1381 85.0368 9.12408C85.1228 9.00608 85.2079 8.88908 85.2939 8.77108C85.4249 8.72708 85.5528 8.70508 85.6918 8.68408Z" fill="#FFA8DE"/>
<path d="M165.556 40.668C163.215 44.976 159.602 47.873 155.368 48.856C149.82 50.117 144.261 48.161 138.906 46.269C136.447 45.403 133.892 44.516 131.38 43.939C120.434 41.405 107.905 44.741 97.8888 52.844C89.6038 59.547 82.8378 69.403 77.7808 82.145C76.5838 85.202 75.4718 88.356 74.4028 91.434C71.5378 99.687 68.5558 108.217 63.2318 115.272C55.9948 124.861 44.8667 131.029 35.0537 136.459C28.7677 139.944 21.9367 143.728 15.9507 148.571C15.9077 148.485 15.8648 148.4 15.8228 148.304C21.8198 143.462 28.6398 139.699 34.9258 136.224C44.7068 130.794 55.8028 124.647 63.0078 115.101C68.3098 108.078 71.2818 99.569 74.1468 91.327C75.2048 88.27 76.3057 85.095 77.5247 82.048C82.6027 69.252 89.3798 59.353 97.7068 52.63C107.809 44.474 120.412 41.117 131.444 43.651C133.978 44.25 136.522 45.137 138.991 46.014C144.315 47.885 149.831 49.82 155.304 48.569C159.452 47.628 163.001 44.774 165.299 40.541C167.416 36.639 168.271 31.978 167.8 27.585C167.896 27.649 168.003 27.735 168.099 27.82C168.528 32.191 167.651 36.798 165.556 40.668Z" fill="#FFA8DE"/>
<path d="M180.49 39.3322C177.807 44.8052 175.583 50.5032 173.403 56.0832C171.65 60.5412 169.854 65.1592 167.855 69.5742C160.629 85.5552 151.36 95.9782 140.339 100.564C138.81 101.195 137.218 101.729 135.667 102.253C132.749 103.247 129.723 104.263 127.115 105.952C120.776 110.089 117.719 117.433 114.747 124.563C114.373 125.461 113.999 126.37 113.603 127.257C101.972 154.463 80.1008 177.253 53.5788 190.413C53.4828 190.37 53.3868 190.306 53.2898 190.242C79.8218 177.126 101.715 154.356 113.346 127.14C113.731 126.253 114.105 125.355 114.479 124.446C117.462 117.284 120.551 109.886 126.954 105.717C129.594 103.996 132.63 102.97 135.581 101.986C137.12 101.473 138.713 100.938 140.231 100.297C151.177 95.7431 160.381 85.3742 167.586 69.4572C169.596 65.0422 171.392 60.4352 173.134 55.9771C175.336 50.3651 177.581 44.6242 180.285 39.1082C180.361 39.1822 180.425 39.2572 180.49 39.3322Z" fill="#FFA8DE"/>
<path d="M201.698 76.0841C176.01 103.439 155.871 130.795 140.381 159.272C132.289 174.174 127.478 185.943 124.774 197.478C124.314 199.402 123.865 201.594 123.598 203.902C123.502 203.923 123.406 203.934 123.309 203.945C123.576 201.593 124.036 199.37 124.495 197.414C127.2 185.858 132.031 174.057 140.134 159.134C155.656 130.603 175.849 103.194 201.601 75.7961C201.634 75.8911 201.666 75.9871 201.698 76.0841Z" fill="#FFA8DE"/>
<path d="M205.964 97.7092C200.619 103.3 197.102 110.312 194.526 116.235C189.288 128.229 185.536 141.174 181.891 153.682C179.422 162.18 176.909 170.797 173.916 179.199C173.777 179.338 173.627 179.477 173.478 179.605C176.557 171.042 179.112 162.255 181.624 153.597C185.259 141.079 189.021 128.144 194.259 116.129C196.889 110.121 200.459 103.002 205.932 97.3472C205.942 97.4632 205.953 97.5912 205.964 97.7092Z" fill="#FFA8DE"/>
</g>
<g opacity="0.48">
<path opacity="0.38" d="M157.125 122.074C172.425 122.074 184.828 109.671 184.828 94.3715C184.828 79.0715 172.425 66.6685 157.125 66.6685C141.825 66.6685 129.422 79.0715 129.422 94.3715C129.422 109.671 141.825 122.074 157.125 122.074Z" fill="#FFECE0"/>
<path opacity="0.38" d="M182.998 111.789C197.44 97.3472 197.44 73.9317 182.998 59.4894C168.556 45.0472 145.141 45.0472 130.698 59.4894C116.256 73.9317 116.256 97.3471 130.698 111.789C145.141 126.232 168.556 126.232 182.998 111.789Z" fill="#FFA861"/>
</g>
<path d="M178.809 104.001C178.916 108.106 177.558 112.318 174.757 115.321C174.629 115.471 174.479 115.62 174.329 115.77C169.636 120.356 161.715 122.312 155.322 121.799C154.681 121.746 154.039 121.692 153.387 121.617C150.116 121.286 146.834 120.708 143.862 119.319C140.302 117.651 137.181 114.615 136.336 110.778C135.684 107.828 136.443 104.663 138.068 102.108C139.479 99.9174 142.44 96.7634 145.059 96.0474C147.443 95.4064 145.519 102.033 146.075 103.337C147.262 106.116 151.292 106.17 152.585 103.444C154.37 99.6814 150.832 95.2454 150.394 91.4504C150.063 88.6174 150.554 85.6034 152.201 83.2834C153.462 81.5084 155.483 80.1724 157.664 79.9054C160.55 79.5634 160.7 81.8724 160.101 84.1384C159.705 85.6134 159.47 87.1204 159.395 88.6494C159.31 90.3704 159.481 92.2734 160.667 93.5344C161.854 94.7954 164.334 94.8494 165.071 93.2884C165.787 91.7704 164.547 89.7504 165.499 88.3714C165.969 87.6974 166.835 87.4204 167.648 87.3774C170.545 87.2384 172.95 89.5584 174.596 91.9424C177.045 95.4924 178.692 99.6834 178.809 104.001Z" fill="#FFA861"/>
<path d="M174.961 113.665C174.961 114.232 174.897 114.787 174.758 115.322C174.63 115.472 174.48 115.621 174.33 115.771C169.637 120.357 161.716 122.313 155.323 121.8C154.682 121.747 154.04 121.693 153.388 121.618C150.865 120.271 149.091 118.037 149.005 114.68C148.973 113.408 149.272 112.082 150.074 111.099C150.887 110.105 152.276 109.549 153.495 109.945C154.254 110.202 154.874 110.779 155.654 110.961C156.616 111.185 157.642 110.715 158.294 109.967C158.935 109.229 159.256 108.246 159.416 107.273C159.662 105.862 159.608 104.408 159.266 103.018C159.02 101.992 158.614 100.998 158.528 99.9394C158.443 98.8914 158.763 97.7154 159.65 97.1494C161.029 96.2624 162.868 97.2774 163.947 98.5284C166.342 101.329 167.111 105.434 165.871 108.908C165.604 109.667 165.24 110.415 165.208 111.217C165.176 112.019 165.582 112.917 166.363 113.12C167.207 113.345 168.031 112.671 168.501 111.944C168.971 111.206 169.292 110.34 169.987 109.806C171.013 109.004 172.606 109.239 173.579 110.116C174.555 110.992 174.961 112.361 174.961 113.665Z" fill="#FFECE0"/>
<path d="M159.495 190.166C159.474 185.398 158.768 173.714 153.167 159.198C146.4 141.624 130.633 132.826 128.131 131.522C127.907 131.404 127.789 131.351 127.789 131.351L123.545 140.854C123.534 140.801 123.513 140.747 123.502 140.694C120.284 129.438 115.228 116.888 115.228 116.888L105.126 111.019C98.0388 107.748 95.0878 106.187 85.7558 105.973C61.7358 105.428 59.5548 125.621 55.1828 158.642C53.3758 172.336 52.4568 182.374 51.9968 189.429C64.1828 197.307 78.1978 202.588 93.2708 204.544C97.5358 205.1 101.898 205.389 106.313 205.389C111.273 205.389 116.137 205.025 120.894 204.331C120.98 204.331 121.065 204.31 121.151 204.299C134.524 202.321 147.031 197.714 158.117 191.011L159.495 190.166Z" fill="#993F8D"/>
<path d="M111.954 123.984L106.678 177.297L127.784 131.353" stroke="#502750" stroke-width="0.5345" stroke-miterlimit="10" stroke-linecap="round" stroke-linejoin="round"/>
<path opacity="0.56" d="M159.495 190.166L158.116 191.01C153.968 184.96 150.248 178.599 146.646 172.185C144.209 167.845 141.836 163.473 139.569 159.047C139.141 158.203 138.714 157.358 138.286 156.514C134.737 149.437 131.423 142.179 128.751 134.696C128.313 133.477 128.12 132.43 128.131 131.521C129.531 132.248 135.122 135.348 140.948 141.035C145.502 145.471 150.205 151.49 153.167 159.197C158.768 173.714 159.473 185.398 159.495 190.166Z" fill="#502750"/>
<path d="M167.384 124.455C168.271 124.07 172.526 122.242 173.028 123.097C173.573 124.048 167.566 127.939 158.971 129.511C150.366 131.082 144.091 131.628 142.722 133.872C142.295 134.578 141.642 137.442 140.947 141.034C139.974 146.08 138.916 152.579 138.285 156.513C134.736 149.436 131.422 142.178 128.75 134.695C128.312 133.476 128.119 132.429 128.13 131.52C128.13 131.52 131.433 121.365 134.127 120.093C139.183 117.709 143.406 118.596 150.301 116.886C157.196 115.186 160.328 113.743 160.809 114.705C161.29 115.656 152.278 120.98 152.278 120.98C152.278 120.98 156.65 121.258 163.534 118.863C170.429 116.479 173.23 115.25 173.978 115.859C174.716 116.468 169.766 119.697 167.019 121.215C167.874 120.787 175.314 116.993 176.02 117.773C176.77 118.586 170.088 123.119 167.384 124.455Z" fill="#FF8C9C"/>
<path d="M160.445 47.8363C160.445 47.8363 164.266 48.4733 158.261 53.7493C152.256 59.0263 115.411 70.3983 115.411 70.3983L99.0347 51.4753L147.253 45.2883L160.445 47.8363Z" fill="#502750"/>
<path opacity="0.43" d="M160.445 47.8363C160.445 47.8363 164.266 48.4733 158.261 53.7493C152.256 59.0263 115.411 70.3983 115.411 70.3983L99.0347 51.4753L147.253 45.2883L160.445 47.8363Z" fill="#993F8D"/>
<path d="M134.288 80.8193C132.022 80.1673 129.916 79.5363 127.714 78.8843C124.838 86.0783 119.9 92.5142 115.87 92.6852C106.923 93.0812 91.2298 86.2393 92.8658 70.9202C92.9508 70.1182 93.0797 69.2843 93.2607 68.4403C93.2927 68.3123 93.3247 68.1833 93.3467 68.0553C90.9417 64.4853 89.5308 60.1983 89.5308 55.5693C89.5308 43.2543 99.5048 33.2812 111.819 33.2812C122.851 33.2812 132.001 41.2883 133.787 51.8073C134.001 53.0263 134.108 54.2873 134.108 55.5703C134.108 56.4473 134.044 57.3023 133.948 58.1463L133.969 58.1572C133.969 58.1572 133.948 58.2963 133.894 58.5312C133.669 60.1452 133.285 61.7063 132.739 63.1923C132.108 65.5973 131.253 68.6653 130.216 71.9043C131.209 75.0253 132.567 78.0293 134.288 80.8193Z" fill="#FF8C9C"/>
<path d="M133.786 51.8072C133.487 51.6252 133.22 51.4112 132.984 51.1762C132.033 50.2252 131.167 48.9632 129.83 48.7922C128.419 48.6102 127.136 49.8082 126.644 51.1442C126.152 52.4802 126.216 53.9452 126.11 55.3672C126.003 56.7892 125.65 58.3072 124.56 59.2372C123.213 60.3812 121.118 60.2212 119.568 59.3762C118.563 58.8312 117.676 58.0292 116.564 57.8052C114.843 57.4632 113.132 58.6392 112.181 60.1142C111.219 61.5792 110.791 63.3212 110.107 64.9352C109.412 66.5492 108.343 68.1532 106.686 68.7302C103.372 69.8852 101.982 65.4702 98.8828 66.8172C96.6698 67.7902 95.3768 70.5802 92.8648 70.9222C92.9498 70.1202 93.0788 69.2862 93.2598 68.4422C93.2918 68.3142 93.3238 68.1852 93.3458 68.0572C90.9408 64.4872 89.5298 60.2002 89.5298 55.5712C89.5298 43.2562 99.5038 33.2832 111.818 33.2832C122.85 33.2812 132 41.2882 133.786 51.8072Z" fill="#FFA8DE"/>
<path d="M124.122 124.391C120.445 128.282 115.11 129.757 109.701 130.559C109.68 128.784 109.316 126.999 108.685 125.342C107.648 122.584 106.216 120.414 104.324 118.158C105.874 122.241 106.344 126.731 105.714 131.061C105.532 131.082 105.351 131.104 105.169 131.125C90.4488 132.718 75.7288 134.3 61.0088 135.882C56.9678 136.32 52.7457 136.716 48.6837 136.448C43.9477 133.198 40.1847 128.645 38.0687 123.257C38.1967 127.757 39.9608 132.172 42.9108 135.572C40.7838 135.005 38.7627 134.161 36.8817 132.921C29.4417 128.004 26.6837 118.223 27.0467 109.307C27.2067 105.095 27.9767 100.819 30.1147 97.1853C32.7337 92.7383 37.2767 89.5843 42.2367 88.1313C45.8497 87.0733 50.1257 86.5703 52.2107 83.4383C54.0707 80.6483 53.3437 76.9603 53.7497 73.6353C54.2737 69.2413 56.9457 65.2543 60.4847 62.6033C64.0337 59.9523 68.3957 58.5413 72.7887 58.0173C76.3587 57.5793 80.3147 57.5683 82.9977 55.1843C85.9377 52.5763 86.2158 48.1613 87.8078 44.5693C89.8498 39.9513 94.1038 36.3813 98.9358 34.9163C104.815 33.1413 114.65 31.6343 116.596 34.6383C117.729 36.3913 111.262 37.3963 110.236 38.7433C108.782 40.6463 107.553 42.7303 106.334 44.7933C104.549 47.8293 102.699 50.8223 100.914 53.8583C100.016 55.3763 99.2137 56.9583 98.3057 58.4653C97.2477 60.2183 96.5097 61.7153 96.8517 63.7993C97.1727 65.7663 98.1557 67.5733 99.1497 69.2723C100.166 71.0043 101.267 72.9813 102.795 74.3183C105.457 76.6383 109.401 76.3063 111.839 78.8933C113.977 81.1493 114.201 84.6983 113.293 87.5303C112.641 89.6153 111.305 91.9133 112.363 94.0943C113.047 95.5163 114.715 96.3713 116.136 96.8413C118.766 97.7073 121.428 97.9633 123.694 99.6953C125.672 101.213 127.158 103.383 127.949 105.735C130.012 111.809 128.569 119.709 124.122 124.391Z" fill="#FFA8DE"/>
<path d="M102.131 60.1384C100.861 59.3334 99.2508 59.0884 97.7988 59.4794C96.3468 59.8704 95.0768 60.8904 94.3828 62.2234C93.8758 63.1974 93.6738 64.3034 93.6018 65.3994C93.4928 67.0584 93.7068 68.8344 94.7358 70.1404C95.8188 71.5144 97.6188 72.1294 99.3588 72.3184C101.008 72.4984 102.76 72.3344 104.164 71.4504C108.304 68.8424 105.423 62.2244 102.131 60.1384Z" fill="#FF8C9C"/>
<path d="M95.3918 61.8065C96.5808 61.6795 97.8009 61.8535 98.9069 62.3085C100.445 62.9405 101.735 64.1015 102.669 65.4775C103.603 66.8535 104.197 68.4395 104.568 70.0605" stroke="#502750" stroke-width="0.5345" stroke-miterlimit="10" stroke-linecap="round" stroke-linejoin="round"/>
<path d="M96.002 67.1495C97.805 66.1635 100.14 65.9715 101.881 67.0645C102.973 67.7505 103.727 68.8495 104.433 69.9285" stroke="#502750" stroke-width="0.5345" stroke-miterlimit="10" stroke-linecap="round" stroke-linejoin="round"/>
<path d="M126.276 69.7515C125.786 70.8275 124.638 71.3585 123.712 70.9365C122.786 70.5145 122.432 69.3005 122.922 68.2245C123.412 67.1485 124.56 66.6175 125.486 67.0395C126.412 67.4615 126.766 68.6755 126.276 69.7515Z" fill="#502750"/>
<path d="M122.43 78.1243C123.403 79.7383 124.788 81.1023 126.416 82.0513" stroke="#502750" stroke-width="0.5345" stroke-miterlimit="10" stroke-linecap="round" stroke-linejoin="round"/>
<path d="M123.418 63.0424C124.443 62.2714 125.998 62.2693 127.074 62.9233" stroke="#502750" stroke-width="0.5345" stroke-miterlimit="10" stroke-linecap="round" stroke-linejoin="round"/>
<path d="M52.0457 68.4423C52.0457 68.4423 57.3677 64.4843 81.9317 56.8423C106.496 49.2003 136.746 44.7873 155.988 47.3803C168.847 49.1133 154.532 45.7883 154.532 45.7883C154.532 45.7883 130.65 39.6473 128.603 39.1013C126.556 38.5553 101.856 5.80327 92.3027 8.26027C82.7497 10.7163 62.9627 33.9163 62.9627 33.9163L79.0657 26.9563C79.0657 26.9563 85.0107 38.7753 81.1127 44.1513C75.4717 51.9303 52.0457 68.4423 52.0457 68.4423Z" fill="#993F8D"/>
</svg>
