<svg width="214" height="224" viewBox="0 0 214 224" fill="none" xmlns="http://www.w3.org/2000/svg">
<path d="M106.394 223.569C105.368 223.569 104.349 223.551 103.334 223.523L102.546 223.497C102.077 223.482 101.61 223.468 101.142 223.448C101.094 223.446 100.332 223.393 100.332 223.393C99.0819 223.323 97.8059 223.23 96.5359 223.112L96.2639 223.092C96.0339 223.071 95.8059 223.043 95.5769 223.015L95.3079 222.983C94.4569 222.894 93.6169 222.799 92.7799 222.691C92.7599 222.69 92.6519 222.678 92.5429 222.662C91.9089 222.585 91.1819 222.485 90.4579 222.374C89.8079 222.276 89.1489 222.163 88.4899 222.049C88.4899 222.049 88.0109 221.973 87.9749 221.968C87.8529 221.948 87.7349 221.926 87.6179 221.902C84.2549 221.301 80.8309 220.509 77.4659 219.555C77.3599 219.527 77.0569 219.436 77.0529 219.435C76.0209 219.137 74.9579 218.813 73.9039 218.473C73.7649 218.433 73.6359 218.394 73.5069 218.352C73.4319 218.329 73.0129 218.185 73.0129 218.185C71.6179 217.721 70.3439 217.272 69.1099 216.807L68.4529 216.551C66.2899 215.72 64.1159 214.8 61.9929 213.818L61.3169 213.513C61.2619 213.487 61.1429 213.429 61.0869 213.401C59.9529 212.865 58.7139 212.244 57.3569 211.534C57.3569 211.534 56.7529 211.222 56.5779 211.129C56.4359 211.056 56.3069 210.984 56.1809 210.91C56.1679 210.903 56.1579 210.897 56.1499 210.893C55.6559 210.627 55.1489 210.345 54.6429 210.061C54.6429 210.061 54.0569 209.735 54.0269 209.717C53.9319 209.663 53.6899 209.521 53.6899 209.521C53.1469 209.208 52.6309 208.905 52.1199 208.599L51.7809 208.4L51.4679 208.205C50.6879 207.729 49.9619 207.274 49.2399 206.81L48.5519 206.365C46.3539 204.929 44.1669 203.379 42.0609 201.765L45.8639 196.598L41.9659 201.691C41.9329 201.665 41.8249 201.582 41.7919 201.556C40.8889 200.86 39.9459 200.108 39.0159 199.339C38.9969 199.323 38.9789 199.308 38.9599 199.293C37.2879 197.909 35.6569 196.474 34.1119 195.028C34.0889 195.008 33.8279 194.765 33.8219 194.759C33.3689 194.53 32.9389 194.244 32.5399 193.902C32.3869 193.777 32.2379 193.645 32.0949 193.505C31.9249 193.339 31.7599 193.169 31.5949 192.998L31.3829 192.78C27.8979 189.327 24.7919 185.744 21.6259 181.524C20.8789 180.519 20.1569 179.523 19.4589 178.504C18.2289 176.75 16.9589 174.795 15.7159 172.746C15.5019 172.403 15.2989 172.05 15.0959 171.696C13.2729 168.591 11.5699 165.315 10.0599 162.005C9.96789 161.803 9.88689 161.597 9.81589 161.388C9.80089 161.356 9.78789 161.324 9.77289 161.292C5.09189 151.053 2.10189 140.163 0.902889 128.964L0.864889 128.604C0.481889 125.026 0.285889 121.283 0.285889 117.538C0.285889 104.551 2.62089 91.877 7.22589 79.869C7.24089 79.832 7.50689 79.152 7.50689 79.152C17.8839 52.593 39.0199 30.997 65.4809 19.941C65.6389 19.873 65.7969 19.807 65.9539 19.747C73.4849 16.637 81.3899 14.398 89.4489 13.092C89.6869 13.049 89.9359 13.008 90.1859 12.975C93.1609 12.515 96.2129 12.179 99.3009 11.971L102.345 4.397C103.265 2.11 105.414 0.552 107.874 0.389C108.016 0.38 108.158 0.375 108.298 0.375C110.6 0.375 112.74 1.612 113.882 3.636L118.832 12.403C134.185 14.149 149.105 19.254 162.236 27.273C162.508 27.38 162.776 27.506 163.036 27.652C163.299 27.8 163.563 27.962 163.824 28.127C164.173 28.346 164.498 28.597 164.797 28.877C170.98 32.891 176.739 37.546 181.934 42.729C182.622 43.248 183.065 43.782 183.211 43.959C183.296 44.06 183.376 44.164 183.453 44.269C193.477 54.638 201.138 66.686 206.229 80.093C206.286 80.23 206.341 80.369 206.391 80.505C208.989 87.429 210.853 94.64 211.939 101.961C211.97 102.137 211.995 102.316 212.016 102.49C212.727 107.412 213.088 112.473 213.088 117.537C213.088 132.444 210.027 146.858 203.987 160.392C203.912 160.613 203.823 160.833 203.722 161.055C203.61 161.299 203.492 161.538 203.372 161.776L203.232 162.061C202.711 163.176 202.167 164.299 201.599 165.408C201.372 165.849 201.145 166.275 200.917 166.702L200.56 167.375C200.424 167.635 200.289 167.894 200.148 168.151C199.928 168.554 199.694 168.96 199.46 169.366L199.201 169.816L199.043 170.103C198.92 170.33 198.796 170.557 198.666 170.779C198.484 171.096 198.282 171.448 198.068 171.791C197.164 173.282 196.185 174.802 195.076 176.436L194.839 176.793C194.682 177.034 194.524 177.274 194.361 177.51C194.228 177.7 194.103 177.87 193.978 178.039L193.842 178.224C193.301 178.995 192.746 179.779 192.175 180.547L191.295 181.702C189.353 184.229 187.445 186.504 185.451 188.666C185.244 188.893 184.571 189.612 184.571 189.612C184.319 189.877 183.714 190.5 183.714 190.5C178.813 195.62 173.399 200.258 167.636 204.271C167.452 204.454 167.257 204.626 167.052 204.787C166.748 205.025 166.451 205.226 166.149 205.421C165.849 205.615 165.538 205.781 165.219 205.919C158.971 210.027 152.276 213.477 145.305 216.179C143.748 216.795 142.046 217.418 140.288 218.013L139.622 218.238C139.01 218.44 138.404 218.633 137.796 218.822C137.424 218.937 137.056 219.05 136.685 219.16C136.121 219.328 135.551 219.495 134.977 219.655C134.641 219.749 134.301 219.841 133.959 219.932C133.264 220.118 132.671 220.276 132.073 220.426L131.31 220.609C130.556 220.791 129.807 220.969 129.051 221.134C129.051 221.134 128.478 221.259 128.407 221.273C128.247 221.308 127.073 221.541 127.073 221.541C126.706 221.616 126.34 221.69 125.972 221.76C125.529 221.843 125.085 221.918 124.641 221.993C124.641 221.993 123.073 222.262 122.823 222.3C122.454 222.358 122.08 222.41 121.704 222.462C121.704 222.462 120.431 222.643 120.078 222.689L119.607 222.752C119.334 222.786 118.442 222.884 118.442 222.884C117.963 222.939 117.474 222.992 116.985 223.041L116.355 223.107L115.491 223.179C114.939 223.226 114.382 223.268 113.826 223.306L113.061 223.364L112.495 223.394C111.845 223.43 111.189 223.458 110.532 223.483C110.532 223.483 109.92 223.513 109.734 223.519L109.525 223.524C108.442 223.552 107.42 223.569 106.394 223.569Z" fill="white"/>
<path d="M207.401 117.536C207.401 134.747 203.004 150.942 195.252 165.063C194.177 167.03 193.037 168.954 191.822 170.836C191.177 171.862 190.5 172.867 189.812 173.861C182.781 184.006 173.9 192.793 163.654 199.73C163.503 199.848 163.353 199.944 163.202 200.04C151.161 208.121 137.248 213.648 122.25 215.861C122.164 215.872 122.078 215.893 121.992 215.893C117.24 216.588 112.37 216.951 107.413 216.951C102.994 216.951 98.64 216.662 94.372 216.107C77.783 213.958 62.473 207.769 49.475 198.554C49.389 198.49 49.303 198.436 49.217 198.372C45.927 196.02 42.788 193.476 39.81 190.761C39.09 190.109 38.38 189.446 37.681 188.762C33.907 185.127 30.435 181.183 27.274 176.992C26.586 176.073 25.908 175.143 25.253 174.191C23.995 172.406 22.802 170.567 21.662 168.696C21.479 168.407 21.307 168.108 21.135 167.809C19.555 165.126 18.082 162.357 16.748 159.503C16.705 159.418 16.662 159.332 16.63 159.246C16.533 159.054 16.436 158.85 16.351 158.658C12.04 149.23 9.15798 139.021 8.00798 128.277C7.99698 128.181 7.98698 128.085 7.97598 127.978C7.60998 124.547 7.42798 121.062 7.42798 117.534C7.42798 105.07 9.72898 93.15 13.943 82.1609C14.029 81.9469 14.104 81.7439 14.19 81.5299C24.006 56.4089 43.799 36.2369 68.731 25.8359C68.828 25.7929 68.924 25.7509 69.021 25.7179C76.063 22.7999 83.514 20.6619 91.265 19.4109C91.437 19.3789 91.62 19.3469 91.803 19.3249C96.888 18.5339 102.103 18.1169 107.414 18.1169C126.884 18.1169 145.065 23.6539 160.428 33.2429C160.6 33.3389 160.772 33.4459 160.944 33.5529C167.416 37.6359 173.372 42.4359 178.705 47.8449C178.791 47.9089 178.855 47.9839 178.909 48.0479C188.51 57.7969 196.1 69.5129 201.014 82.5119C201.057 82.5979 201.089 82.6939 201.122 82.7789C203.541 89.2249 205.304 95.9919 206.336 103.004C206.358 103.1 206.368 103.207 206.379 103.303C207.057 107.958 207.401 112.704 207.401 117.536Z" fill="#FFA8DE"/>
<path d="M14.9739 82.1632C15.0589 81.9492 15.1339 81.7462 15.2199 81.5322C24.2529 72.2642 33.9489 63.5092 43.5159 54.8722C49.2459 49.6982 55.1679 44.3532 60.8119 39.0192C64.6819 35.3522 68.7969 31.0552 69.4489 25.8382C69.5449 25.7952 69.6419 25.7532 69.7379 25.7202C69.1289 31.0862 64.9379 35.4802 61.0039 39.2112C55.3489 44.5562 49.4269 49.9012 43.6969 55.0752C33.9809 63.8412 24.1359 72.7352 14.9739 82.1632Z" fill="#FFECE0"/>
<path d="M9.07399 128.279C9.06299 128.183 9.05299 128.087 9.04199 127.98C21.795 118.541 32.292 105.97 39.07 91.6671C39.605 90.5441 40.128 89.3791 40.641 88.2571C42.822 83.4251 45.067 78.4331 48.787 74.5951C51.834 71.4411 55.725 69.2071 59.488 67.0591C63.23 64.9211 67.089 62.7081 70.114 59.5871C74.967 54.5731 77.201 47.7321 79.361 41.1151C81.157 35.6421 83.006 29.9761 86.341 25.2621C87.87 23.0921 89.73 21.1361 91.857 19.4151C92.028 19.3831 92.21 19.3511 92.392 19.3291C90.126 21.1041 88.159 23.1451 86.555 25.4121C83.252 30.0941 81.403 35.7381 79.617 41.2011C77.447 47.8501 75.191 54.7131 70.306 59.7691C67.259 62.9221 63.379 65.1351 59.616 67.2951C55.874 69.4331 51.994 71.6561 48.98 74.7781C45.292 78.5941 43.047 83.5651 40.877 88.3651C40.374 89.4871 39.84 90.6531 39.305 91.7861C32.484 106.173 21.923 118.808 9.07399 128.279Z" fill="#FFECE0"/>
<path d="M161.981 54.9041C159.79 58.9451 156.39 61.6711 152.413 62.5901C147.196 63.7771 141.98 61.9381 136.945 60.1631C134.636 59.3511 132.242 58.5171 129.879 57.9721C119.595 55.5991 107.826 58.7311 98.419 66.3421C90.637 72.6381 84.276 81.8961 79.53 93.8681C78.397 96.7331 77.36 99.7051 76.355 102.591C73.661 110.341 70.86 118.359 65.858 124.986C59.059 133.997 48.604 139.791 39.39 144.89C32.142 148.909 24.136 153.346 17.764 159.503C17.721 159.418 17.679 159.332 17.646 159.246C24.038 153.089 32.024 148.663 39.261 144.665C48.454 139.566 58.877 133.793 65.644 124.825C70.625 118.229 73.415 110.233 76.109 102.494C77.103 99.6181 78.14 96.6361 79.284 93.7711C84.052 81.7561 90.423 72.4551 98.248 66.1381C107.73 58.4731 119.574 55.3201 129.943 57.7041C132.316 58.2601 134.711 59.0941 137.03 59.9171C142.033 61.6811 147.207 63.4981 152.349 62.3221C156.251 61.4351 159.586 58.7521 161.745 54.7751C164.471 49.7401 164.973 43.3581 163.049 38.1201C162.429 36.4311 161.627 34.8061 160.622 33.2451C160.793 33.3411 160.964 33.4481 161.135 33.5551C162.011 34.9981 162.728 36.4841 163.294 38.0231C165.253 43.3381 164.75 49.8051 161.981 54.9041Z" fill="#FFECE0"/>
<path d="M114.251 133.71C113.898 134.554 113.545 135.41 113.182 136.243C101.316 163.994 78.1189 186.849 50.3039 198.554C50.2189 198.49 50.1329 198.436 50.0469 198.372C77.8729 186.709 101.08 163.876 112.935 136.136C113.298 135.302 113.651 134.458 114.004 133.603C116.805 126.879 119.702 119.931 125.72 116.007C128.2 114.393 131.054 113.431 133.823 112.501C135.266 112.02 136.763 111.518 138.195 110.919C148.479 106.643 157.127 96.8941 163.894 81.9501C165.775 77.8021 167.464 73.4731 169.1 69.2831C171.922 62.0781 174.83 54.6491 178.796 47.8501C178.882 47.9141 178.946 47.9891 178.999 48.0531C175.044 54.8091 172.158 62.2061 169.357 69.3791C167.711 73.5691 166.022 77.9091 164.14 82.0571C157.352 97.0651 148.65 106.857 138.292 111.165C136.86 111.764 135.363 112.266 133.909 112.758C131.162 113.688 128.318 114.639 125.87 116.232C119.917 120.113 117.041 127.018 114.251 133.71Z" fill="#FFECE0"/>
<path d="M201.085 82.7841C174.478 110.278 153.9 137.687 138.335 166.325C130.735 180.318 126.213 191.382 123.669 202.211C122.76 206.07 121.852 211.051 122.664 215.862C122.579 215.873 122.493 215.894 122.407 215.894C121.584 211.041 122.492 206.038 123.412 202.158C125.956 191.297 130.489 180.212 138.1 166.197C153.697 137.516 174.317 110.054 200.978 82.5171C201.021 82.6021 201.053 82.6981 201.085 82.7841Z" fill="#FFECE0"/>
<path d="M206.312 103.308C205.991 103.49 205.681 103.693 205.371 103.896C197.151 109.38 192.404 118.53 189.197 125.896C184.28 137.163 180.752 149.317 177.331 161.066C173.536 174.108 169.666 187.438 163.83 199.731C163.68 199.849 163.531 199.945 163.381 200.041C169.325 187.641 173.248 174.161 177.075 160.991C180.496 149.232 184.023 137.078 188.951 125.789C192.179 118.392 196.936 109.198 205.221 103.672C205.563 103.447 205.916 103.223 206.269 103.009C206.291 103.105 206.301 103.212 206.312 103.308Z" fill="#FFECE0"/>
<path d="M94.1539 216.129C92.8599 215.958 91.5669 215.766 90.2839 215.541C90.1019 215.52 89.9309 215.488 89.7599 215.445C89.3749 215.392 88.9899 215.317 88.6049 215.242C88.4659 215.221 88.3159 215.189 88.1669 215.157C87.5999 215.05 87.0229 214.932 86.4569 214.815C85.1959 214.548 83.9339 214.259 82.6939 213.938C82.2449 213.831 81.8069 213.714 81.3679 213.596C80.8329 213.457 80.2989 213.318 79.7749 213.158C78.5879 212.816 77.4019 212.463 76.2369 212.078C75.7239 211.918 75.2209 211.747 74.7189 211.565C72.8699 210.934 71.0519 210.25 69.2669 209.502C68.5399 209.203 67.8129 208.903 67.1079 208.583C66.3169 208.241 65.5259 207.877 64.7449 207.514C63.8679 207.097 63.0129 206.68 62.1579 206.242C61.5269 205.921 60.8859 205.59 60.2659 205.258C60.2019 205.226 60.1479 205.194 60.0949 205.162C59.3999 204.788 58.7159 204.414 58.0429 204.029C57.9569 203.976 57.8719 203.933 57.7859 203.879C57.1229 203.505 56.4709 203.12 55.8189 202.724C53.9589 201.602 52.1419 200.426 50.3779 199.186C50.0149 198.94 49.6619 198.694 49.3089 198.427C49.2769 198.406 49.2449 198.395 49.2229 198.373C48.5389 197.881 47.8649 197.39 47.1919 196.877C46.9779 196.717 46.7639 196.546 46.5509 196.385C45.8349 195.829 45.1289 195.273 44.4239 194.696C44.2099 194.525 44.0069 194.354 43.7929 194.183C43.4299 193.884 43.0659 193.574 42.7029 193.264C42.5959 193.168 42.4779 193.072 42.3719 192.975C41.5379 192.259 40.7149 191.532 39.9029 190.784C39.6139 190.527 39.3359 190.26 39.0479 190.004C38.6199 189.598 38.2039 189.191 37.7869 188.785C37.6049 188.614 37.4339 188.443 37.2629 188.261C36.3969 187.406 35.5419 186.54 34.7079 185.653C34.6649 185.61 34.6329 185.578 34.6119 185.546C34.2169 185.129 33.8319 184.712 33.4579 184.295C32.5919 183.354 31.7479 182.392 30.9239 181.409C30.5929 181.014 30.2609 180.618 29.9409 180.212C29.0859 179.164 28.2519 178.095 27.4399 177.016C26.7559 176.097 26.0819 175.167 25.4299 174.215C24.1789 172.43 22.9929 170.591 21.8599 168.72C21.7749 168.581 21.6889 168.442 21.6139 168.292C21.5179 168.142 21.4219 167.993 21.3359 167.832C28.4019 161.6 34.2919 158.607 38.8029 157.42C38.8029 157.42 38.8139 157.42 38.8349 157.409C40.0959 157.088 41.2509 156.896 42.2879 156.821C45.6449 156.564 47.8569 157.441 48.7659 158.414C48.8189 158.467 48.8729 158.532 48.9159 158.585C50.9259 161.14 71.4819 188.249 81.8509 200.072C86.3299 205.182 89.3869 209.137 91.4079 211.98C92.7219 213.831 93.6089 215.21 94.1539 216.129Z" fill="#7282FF"/>
<path d="M194.457 165.267C193.388 167.234 192.255 169.158 191.047 171.04C190.406 172.066 189.732 173.071 189.048 174.065L39.9029 190.965C35.3279 186.785 31.1589 182.167 27.4389 177.196C26.7549 176.277 26.0809 175.347 25.4289 174.395C24.1779 172.61 22.9919 170.771 21.8589 168.9C22.2759 163.427 24.8309 158.05 27.7379 153.271C33.4889 143.811 41.1859 135.045 51.3729 130.673C54.6869 129.251 58.3529 128.225 60.8119 125.574C63.2709 122.901 64.0079 118.765 62.6079 115.408C61.3039 112.319 58.5139 110.138 56.6429 107.348C53.8209 103.158 53.2969 97.599 54.9859 92.853C56.6749 88.096 60.4699 84.194 65.0659 82.099C68.9139 80.346 73.2759 79.79 76.9419 77.663C80.5449 75.589 83.2489 72.019 84.2859 67.989C85.2269 64.322 90.6359 60.859 93.9389 59.02C104.308 53.29 116.944 51.783 128.371 54.904C131.418 55.738 134.432 56.924 136.848 58.966C144.117 65.145 143.839 77.16 150.937 83.531C156.474 88.512 165.048 88.684 170.884 93.323C174.593 96.284 176.86 100.977 176.86 105.723C176.849 109.967 175.16 113.997 174.006 118.07C172.852 122.154 172.264 126.75 174.316 130.46C176.7 134.8 181.874 136.628 185.765 139.696C190.565 143.48 193.462 149.338 194.456 155.367C194.981 158.553 194.885 161.921 194.457 165.267Z" fill="#502750"/>
<path d="M191.047 171.039C190.406 172.065 189.732 173.07 189.048 174.064C171.121 200.094 141.115 217.155 107.121 217.155C74.517 217.155 45.569 201.452 27.439 177.196C28.048 176.341 28.732 175.4 29.47 174.395C37.968 162.625 53.426 141.673 61.839 132.747C73.245 120.646 101.274 123.169 104.951 122.816C105.143 122.805 105.272 122.784 105.325 122.741C106.415 122.014 107.506 113.099 107.506 113.099L120.612 112.917L122.194 121.33L122.429 122.559C122.429 122.559 139.298 121.233 151.174 125.83C165.734 131.474 165.552 134.564 171.014 141.298C174.692 145.843 184.836 161.408 191.047 171.039Z" fill="#FF8C9C"/>
<path opacity="0.39" d="M107.303 114.555C107.303 114.555 115.15 115.715 121.223 114.418C121.223 114.418 119.517 119.877 114.127 119.877C108.736 119.877 107.236 114.828 107.236 114.828" fill="#502750"/>
<path d="M77.008 85.8681C75.056 87.6201 74.281 90.5211 74.944 93.0591C75.607 95.5961 77.618 97.7021 80.067 98.6401C82.516 99.5781 85.341 99.3821 87.716 98.2701C91.219 96.6291 91.164 90.6661 88.932 87.8591C86.188 84.4041 80.554 82.6861 77.008 85.8681Z" fill="#FF8C9C"/>
<path d="M78.875 87.762C82.569 89.136 85.559 92.281 86.745 96.04" stroke="#502750" stroke-width="0.4808" stroke-miterlimit="10" stroke-linecap="round" stroke-linejoin="round"/>
<path d="M77.7859 93.3959C79.3599 93.2779 80.9559 93.1909 82.5069 93.4869C84.0579 93.7829 85.5799 94.5029 86.5549 95.7449" stroke="#502750" stroke-width="0.4808" stroke-miterlimit="10" stroke-linecap="round" stroke-linejoin="round"/>
<path d="M147.839 84.3921C149.862 86.0611 150.757 88.9281 150.2 91.4911C149.643 94.0541 147.721 96.2411 145.313 97.2811C142.905 98.3201 140.075 98.2421 137.655 97.2301C134.086 95.7371 133.894 89.7771 136.006 86.8781C138.606 83.3121 144.164 81.3601 147.839 84.3921Z" fill="#FF8C9C"/>
<path d="M146.052 86.363C142.418 87.89 139.562 91.156 138.534 94.962" stroke="#502750" stroke-width="0.4808" stroke-miterlimit="10" stroke-linecap="round" stroke-linejoin="round"/>
<path d="M147.375 91.946C145.797 91.894 144.199 91.873 142.662 92.233C141.125 92.594 139.634 93.376 138.711 94.657" stroke="#502750" stroke-width="0.4808" stroke-miterlimit="10" stroke-linecap="round" stroke-linejoin="round"/>
<path d="M140.805 74.5251L140.674 74.5291C138.657 61.1371 127.102 50.8701 113.148 50.8701C98.31 50.8701 86.187 62.4791 85.358 77.1101C84.826 86.4981 81.995 96.0221 86.165 105.101C88.654 110.52 92.755 112.251 98.32 113.544C105.139 115.128 112.208 115.639 119.184 115.044C126.278 114.439 138.21 113.057 139.896 104.366C142.261 92.1751 140.805 74.5251 140.805 74.5251Z" fill="#FF8C9C"/>
<path d="M100.139 91.3561C101.697 91.3561 102.959 90.0935 102.959 88.5361C102.959 86.9786 101.697 85.7161 100.139 85.7161C98.5817 85.7161 97.3191 86.9786 97.3191 88.5361C97.3191 90.0935 98.5817 91.3561 100.139 91.3561Z" fill="#502750"/>
<path d="M126.067 91.3561C127.625 91.3561 128.887 90.0935 128.887 88.5361C128.887 86.9786 127.625 85.7161 126.067 85.7161C124.51 85.7161 123.247 86.9786 123.247 88.5361C123.247 90.0935 124.51 91.3561 126.067 91.3561Z" fill="#502750"/>
<path d="M97.1202 81.4071C96.6202 81.6241 96.1102 81.8991 95.8282 82.3661C95.5462 82.8331 95.5962 83.5381 96.0632 83.8191C96.2792 83.9491 96.5432 83.9701 96.7952 83.9801C98.0632 84.0331 99.3362 83.9231 100.586 83.7061C101.111 83.6151 101.649 83.4991 102.089 83.1961C103.388 82.3021 102.488 80.7061 101.202 80.4181C100.014 80.1531 98.1692 80.9521 97.1202 81.4071Z" fill="#502750"/>
<path d="M129.279 81.4071C129.779 81.6241 130.289 81.8991 130.571 82.3661C130.853 82.8331 130.803 83.5381 130.336 83.8191C130.12 83.9491 129.856 83.9701 129.604 83.9801C128.336 84.0331 127.063 83.9231 125.812 83.7061C125.287 83.6151 124.749 83.4991 124.309 83.1961C123.01 82.3021 123.91 80.7061 125.195 80.4181C126.384 80.1531 128.229 80.9521 129.279 81.4071Z" fill="#502750"/>
<path d="M114.664 84.7051C115.145 88.5171 115.709 92.3181 116.354 96.1061C115.521 95.4051 114.65 94.7471 113.747 94.1381" stroke="#502750" stroke-width="0.5345" stroke-miterlimit="10" stroke-linecap="round" stroke-linejoin="round"/>
<path d="M111.561 98.3972C112.736 99.0622 114.053 99.5432 115.404 99.5232C116.754 99.5032 118.14 98.9232 118.913 97.8152" stroke="#502750" stroke-width="0.5345" stroke-miterlimit="10" stroke-linecap="round" stroke-linejoin="round"/>
<path d="M142.443 85.215C138.737 86.08 135.267 85.618 131.573 84.703C130.12 84.343 128.686 83.841 127.426 83.033C123.431 80.473 121.875 75.246 122.243 70.516C122.324 69.473 122.474 68.373 122.041 67.42C121.436 66.09 119.875 65.47 118.421 65.319C116.174 65.086 113.932 65.663 111.685 65.897C108.094 66.269 104.317 65.712 101.271 63.775C98.2251 61.838 96.0341 58.393 96.1331 54.785C103.896 51.196 112.746 49.178 121.278 49.771C123.4 49.918 125.527 50.202 127.551 50.857C133.811 52.885 138.522 58.382 140.881 64.525C143.241 70.667 142.842 78.647 142.443 85.215Z" fill="#502750"/>
<path d="M96.317 54.6921C86.678 60.5571 80.857 71.2201 80.29 82.4891C82.232 83.3371 83.809 85.2401 84.392 87.2771C86.255 86.8161 88.263 86.3001 89.999 85.4821C91.572 84.7401 93.104 83.8371 94.27 82.5471C95.436 81.2571 96.204 79.5301 96.042 77.7991C95.901 76.2901 95.078 74.8511 95.259 73.3471C95.51 71.2601 97.536 69.9101 99.397 68.9321C101.258 67.9541 103.347 66.8371 103.937 64.8191C104.432 63.1261 103.682 61.3211 102.739 59.8311C101.402 57.7181 98.368 56.1211 96.317 54.6921Z" fill="#502750"/>
<path d="M84.3081 85.488L84.1721 93.403L90.9951 84.533L84.3081 85.488Z" fill="#502750"/>
<path d="M142.398 83.3961L141.215 91.9021L136.166 82.4861L142.398 83.3961Z" fill="#502750"/>
<path d="M191.047 171.039C190.406 172.065 189.732 173.07 189.048 174.064C183.137 182.648 175.9 190.27 167.636 196.62H167.625C166.406 197.561 165.166 198.469 163.894 199.357C156.871 204.253 149.185 208.262 140.996 211.223C137.778 212.399 134.475 213.404 131.108 214.237C130.028 214.504 128.949 214.75 127.858 214.985C121.166 216.407 114.239 217.155 107.12 217.155C105.431 217.155 103.763 217.112 102.096 217.037H102.085C100.578 216.952 99.0809 216.845 97.5849 216.706C96.4309 216.599 95.2869 216.471 94.1539 216.31C92.8499 216.15 91.5669 215.957 90.2839 215.722C90.1019 215.701 89.9199 215.669 89.7389 215.637H89.7279C89.3429 215.573 88.9799 215.509 88.6059 215.423C88.4669 215.402 88.3169 215.37 88.1679 215.338C87.6009 215.231 87.0239 215.113 86.4579 214.996C85.1969 214.729 83.9349 214.44 82.6949 214.119C82.2459 214.012 81.8079 213.895 81.3689 213.777C80.8339 213.638 80.2999 213.499 79.7759 213.339C78.5889 212.997 77.4029 212.644 76.2379 212.259C75.7249 212.099 75.2219 211.928 74.7199 211.746C72.8709 211.115 71.0529 210.431 69.2679 209.683C68.5409 209.384 67.8139 209.084 67.1089 208.764C66.3179 208.422 65.5269 208.058 64.7459 207.695C63.8689 207.278 63.0139 206.861 62.1589 206.423C61.5279 206.102 60.8869 205.771 60.2669 205.439C60.2029 205.407 60.1489 205.375 60.0959 205.343C59.4009 204.969 58.7169 204.595 58.0439 204.21C57.9579 204.157 57.8729 204.114 57.7869 204.06C57.1239 203.686 56.4719 203.301 55.8199 202.906C53.9599 201.784 52.1429 200.608 50.3789 199.368C50.0159 199.122 49.6629 198.876 49.3099 198.609C49.2779 198.588 49.2459 198.577 49.2239 198.556C48.5399 198.064 47.8659 197.572 47.1929 197.059C46.9789 196.899 46.7649 196.728 46.5519 196.567C45.8359 196.011 45.1299 195.455 44.4249 194.878C44.2109 194.707 44.0079 194.536 43.7939 194.365C43.4309 194.066 43.0669 193.756 42.7039 193.446C42.5859 193.361 42.4789 193.264 42.3729 193.168V193.157C41.5389 192.462 40.7159 191.725 39.9039 190.966C39.6149 190.709 39.3369 190.442 39.0489 190.186C38.6209 189.78 38.2049 189.374 37.7879 188.967C37.6059 188.796 37.4349 188.625 37.2639 188.443C36.3979 187.588 35.5429 186.722 34.7089 185.835C34.6659 185.792 34.6339 185.76 34.6129 185.728C34.2179 185.311 33.8329 184.894 33.4589 184.477C32.5929 183.536 31.7489 182.574 30.9249 181.591C30.5939 181.195 30.2619 180.8 29.9419 180.394C29.0869 179.346 28.2529 178.277 27.4409 177.198C28.0499 176.343 28.7339 175.402 29.4719 174.397C32.9139 169.64 37.4889 163.365 42.2889 157.005C49.3229 147.641 56.8269 138.063 61.8409 132.75C67.3999 126.849 76.9139 124.423 85.6369 123.45H85.6479C85.7439 123.439 85.8299 123.429 85.9259 123.429C87.9139 123.205 89.8489 123.066 91.6879 122.98C91.7309 122.969 91.7629 122.969 91.8059 122.969C98.2949 122.648 103.511 122.958 104.955 122.819C106.655 123.931 108.6 124.626 110.621 124.914C111.423 125.021 112.235 125.074 113.037 125.042C113.058 125.053 113.08 125.042 113.09 125.042C115.591 124.978 118.061 124.272 120.124 122.851C120.829 122.37 121.492 121.825 122.198 121.333L122.433 122.562C122.433 122.562 130.739 121.91 139.793 123.107C140.103 123.15 140.413 123.193 140.723 123.235C141.878 123.406 143.053 123.609 144.208 123.844C144.582 123.919 144.956 123.994 145.32 124.079C146.752 124.4 148.163 124.785 149.521 125.233H149.532C149.703 125.297 149.885 125.361 150.056 125.425H150.067C150.441 125.553 150.815 125.692 151.179 125.831C159.164 128.931 162.724 131.261 165.193 133.838C166.091 134.768 166.839 135.73 167.609 136.767L167.62 136.778C168.614 138.125 169.63 139.589 171.019 141.3C171.607 142.027 172.355 143.021 173.232 144.24V144.251C173.702 144.903 174.205 145.609 174.729 146.368C179.416 153.102 186.354 163.759 191.047 171.039Z" fill="#7282FF"/>
<path d="M62.7998 134.74C64.1438 134.806 65.4928 135.215 66.7088 135.996C70.4198 138.378 71.4978 143.321 69.1148 147.035C66.7328 150.746 61.7888 151.825 58.0778 149.443C56.8618 148.663 55.9288 147.607 55.3098 146.41C58.0728 146.551 60.8338 145.245 62.4358 142.749C64.0398 140.25 64.0748 137.199 62.7998 134.74Z" fill="#FFECE0"/>
<path d="M99.8909 164.505C99.1929 165.656 98.1909 166.647 96.9259 167.345C93.0649 169.475 88.2039 168.07 86.0719 164.206C83.9419 160.345 85.3469 155.484 89.2089 153.354C90.4739 152.656 91.8469 152.338 93.1939 152.364C91.7549 154.727 91.5889 157.777 93.0209 160.374C94.4549 162.972 97.1209 164.456 99.8909 164.505Z" fill="#FFECE0"/>
<path d="M85.6339 123.448H85.6449L86.4899 129.381L80.4069 126.377L85.1319 131.241L78.4509 132.395L85.1319 133.55L80.4069 138.414L86.4899 135.41L85.5269 142.123L88.6809 136.126L91.8449 142.123L90.8719 135.41L96.9549 138.414L92.2299 133.55L98.9109 132.395L92.2299 131.241L96.9549 126.377L90.8719 129.381L91.8019 122.967L91.8449 122.668L91.6849 122.978L88.6809 128.665L85.9229 123.426L85.6339 123.448Z" fill="#FFA861"/>
<path d="M123.479 150.591L116.796 151.745L121.523 156.607L115.438 153.611L116.409 160.323L113.248 154.321L110.086 160.323L111.058 153.611L104.972 156.607L109.699 151.745L103.017 150.591L109.699 149.438L104.972 144.576L111.058 147.572L110.086 140.859L113.248 146.862L116.409 140.859L115.438 147.572L121.524 144.576L116.796 149.438L123.479 150.591Z" fill="#FFA861"/>
<path d="M106.162 189.015L99.4799 190.169L104.207 195.031L98.1209 192.034L99.0929 198.747L95.9309 192.744L92.7699 198.747L93.7409 192.034L87.6549 195.031L92.3829 190.169L85.7009 189.015L92.3829 187.861L87.6549 182.999L93.7409 185.996L92.7699 179.283L95.9309 185.285L99.0929 179.283L98.1209 185.996L104.207 182.999L99.4799 187.861L106.162 189.015Z" fill="#FFA861"/>
<path d="M106.159 216.332L102.097 217.037H102.086C100.579 216.952 99.0818 216.845 97.5858 216.706C96.4318 216.599 95.2878 216.471 94.1548 216.31C92.8508 216.15 91.5678 215.957 90.2848 215.722C90.1028 215.701 89.9208 215.669 89.7398 215.637L89.7608 215.626H89.7718L92.3798 215.177L87.6548 210.313L91.4068 212.162L93.7368 213.306L92.7638 206.593L95.9278 212.601L99.0918 206.593L98.1188 213.306L104.202 210.313L99.4768 215.177L106.159 216.332Z" fill="#FFA861"/>
<path d="M174.724 146.367C174.296 146.837 173.794 147.254 173.227 147.618C169.518 150.002 164.568 148.922 162.184 145.213C159.8 141.504 160.88 136.554 164.589 134.181C164.781 134.053 164.985 133.935 165.188 133.839C166.086 134.769 166.834 135.731 167.604 136.768L167.615 136.779C167.636 138.201 168.043 139.633 168.866 140.927C169.924 142.584 171.485 143.717 173.227 144.241V144.252C173.697 144.902 174.2 145.608 174.724 146.367Z" fill="#FFECE0"/>
<path d="M131.411 162.686C132.109 163.837 133.111 164.828 134.376 165.526C138.237 167.656 143.098 166.251 145.229 162.387C147.359 158.526 145.954 153.665 142.092 151.535C140.827 150.837 139.454 150.519 138.107 150.545C139.546 152.908 139.712 155.958 138.28 158.555C136.848 161.153 134.181 162.637 131.411 162.686Z" fill="#FFECE0"/>
<path d="M167.636 196.62H167.625C166.406 197.561 165.166 198.469 163.894 199.357C163.359 197.283 162.002 195.434 159.981 194.333C157.373 192.922 154.326 193.104 151.974 194.558C151.942 193.211 152.252 191.843 152.936 190.571C155.042 186.691 159.895 185.258 163.776 187.364C167.134 189.191 168.662 193.092 167.636 196.62Z" fill="#FFECE0"/>
<path d="M150.896 136.596L144.813 133.592L145.775 140.305L142.621 134.308L139.457 140.305L140.43 133.592L134.337 136.596L139.073 131.732L132.392 130.577L139.073 129.423L134.337 124.559L140.43 127.552L139.789 123.105C140.099 123.148 140.409 123.191 140.719 123.233L142.622 126.846L144.204 123.842C144.578 123.917 144.952 123.992 145.316 124.077L144.814 127.551L149.518 125.231H149.529C149.7 125.295 149.882 125.359 150.053 125.423L146.173 129.421L152.854 130.575L146.173 131.73L150.896 136.596Z" fill="#FFA861"/>
<path d="M125.14 187.195L131.822 188.349L127.095 193.211L133.181 190.214L132.21 196.927L135.371 190.925L138.533 196.927L137.561 190.214L143.647 193.211L138.919 188.349L145.602 187.195L138.919 186.042L143.647 181.18L137.561 184.176L138.533 177.464L135.371 183.466L132.21 177.464L133.181 184.176L127.095 181.18L131.822 186.042L125.14 187.195Z" fill="#FFA861"/>
<path d="M143.648 208.496L140.997 211.222C137.779 212.398 134.476 213.403 131.109 214.236C130.029 214.503 128.95 214.749 127.859 214.984L125.144 214.514L131.825 213.36L127.1 208.496L133.182 211.489L132.209 204.776L135.373 210.784L138.527 204.776L137.565 211.489L143.648 208.496Z" fill="#FFA861"/>
<path d="M157.331 168.144L164.013 169.298L159.286 174.16L165.372 171.163L164.4 177.876L167.562 171.873L170.723 177.876L169.752 171.163L175.838 174.159L171.11 169.298L177.792 168.144L171.11 166.99L175.837 162.128L169.752 165.125L170.723 158.412L167.562 164.414L164.4 158.412L165.371 165.125L159.286 162.128L164.013 166.99L157.331 168.144Z" fill="#FFA861"/>
<path d="M131.109 214.237C123.423 216.151 115.395 217.155 107.121 217.155C103.903 217.155 100.728 217.005 97.5859 216.706C105.283 186.678 109.174 155.806 113.033 125.04C113.033 124.976 113.044 124.901 113.054 124.837C113.065 124.901 113.075 124.976 113.086 125.04C117.18 155.229 123.199 184.861 131.109 214.237Z" fill="#FFA8DE"/>
<path d="M103.565 134.785C101.186 138.058 98.9968 141.725 98.8308 145.768C99.4438 146.132 100.215 145.735 100.799 145.325C104.737 142.563 107.953 138.808 110.164 134.543C111.3 132.351 112.173 130.022 112.742 127.619C112.884 127.022 113.652 124.879 112.672 124.607C112.029 124.429 110.241 126.787 109.796 127.26C107.564 129.635 105.481 132.15 103.565 134.785Z" stroke="#502750" stroke-width="0.5345" stroke-miterlimit="10" stroke-linecap="round" stroke-linejoin="round"/>
<path d="M122.7 134.785C125.079 138.058 127.268 141.725 127.434 145.768C126.821 146.132 126.05 145.735 125.466 145.325C121.528 142.563 118.312 138.808 116.101 134.543C114.965 132.351 114.092 130.022 113.522 127.619C113.38 127.022 112.612 124.879 113.592 124.607C114.235 124.429 116.024 126.787 116.468 127.26C118.701 129.635 120.784 132.15 122.7 134.785Z" stroke="#502750" stroke-width="0.5345" stroke-miterlimit="10" stroke-linecap="round" stroke-linejoin="round"/>
<path d="M139.201 60.2281L133.525 60.6981L128.511 61.1151H128.5L124.139 61.4781C124.128 61.4781 124.128 61.4781 124.128 61.4781L121.958 61.6601L109.515 62.6861L106.864 62.9111H106.853L105.741 62.9971L103.272 63.2001L103.154 63.2111L100.631 63.4251L98.119 63.6281H98.108L95.81 63.8201L85.762 64.6541L93.598 45.1661L97.425 35.6201C97.489 35.4701 97.553 35.3311 97.607 35.1821L100.194 28.7571L109.024 6.78906L114.123 15.8221L114.134 15.8331L120.933 27.8701L139.201 60.2281Z" fill="#7282FF"/>
<path d="M104.128 41.6491C101.851 45.2091 97.4249 46.5881 93.5979 45.1661L97.4249 35.6201C97.4889 35.4701 97.5529 35.3311 97.6069 35.1821L100.194 28.7571C100.632 28.9391 101.06 29.1631 101.466 29.4201C105.571 32.0601 106.768 37.5341 104.128 41.6491Z" fill="#FFECE0"/>
<path d="M134.744 59.1382C134.402 59.6942 133.996 60.2282 133.525 60.6992L128.511 61.1162H128.5L124.139 61.4792C124.128 61.4792 124.128 61.4792 124.128 61.4792L121.958 61.6612C120.942 60.9342 120.077 59.9612 119.435 58.7962C117.073 54.5202 118.633 49.1432 122.909 46.7812C124.309 46.0112 125.827 45.6582 127.324 45.6802C125.731 48.2992 125.549 51.6772 127.132 54.5532C128.725 57.4382 131.676 59.0742 134.744 59.1382Z" fill="#FFECE0"/>
<path d="M119.671 27.25L120.74 34.69L117.244 28.041L113.738 34.69L114.818 27.25L108.083 30.574L113.31 25.187L105.913 23.915L113.31 22.632L108.083 17.255L114.818 20.569L114.134 15.833L120.932 27.87L119.671 27.25Z" fill="#FFA861"/>
<path d="M107.142 60.2492L109.516 62.6872L106.865 62.9112H106.854L105.646 62.3132L105.742 62.9972L103.273 63.2002L103.219 63.0932L103.155 63.2112L100.632 63.4242L100.793 62.3132L98.1199 63.6282H98.1089L95.8109 63.8202L99.2849 60.2492L91.8879 58.9672L99.2849 57.6952L94.0579 52.3072L100.793 55.6322L99.7129 48.1912L103.219 54.8402L106.715 48.1912L105.646 55.6322L112.38 52.3072L107.142 57.6952L114.54 58.9672L107.142 60.2492Z" fill="#FFA861"/>
<path d="M67.1431 202.817C65.9971 202.112 65.0121 201.104 64.3221 199.834C62.2161 195.959 63.6521 191.107 67.5291 189C71.4041 186.895 76.2561 188.33 78.3611 192.204C79.0511 193.473 79.3611 194.848 79.3261 196.195C76.9721 194.741 73.9231 194.556 71.3181 195.972C68.7111 197.391 67.2101 200.048 67.1431 202.817Z" fill="#FFECE0"/>
<path d="M55.1359 198.362L50.3789 199.185C50.0159 198.939 49.6629 198.693 49.3099 198.426C49.2779 198.405 49.2459 198.394 49.2239 198.372C48.5399 197.88 47.8659 197.389 47.1929 196.876C46.9789 196.716 46.7649 196.545 46.5519 196.384C45.8359 195.828 45.1299 195.272 44.4249 194.695C44.2109 194.524 44.0079 194.353 43.7939 194.182C43.4309 193.883 43.0669 193.573 42.7039 193.263C42.5859 193.178 42.4789 193.081 42.3729 192.985V192.974L41.7419 188.634L44.9059 194.631L48.0699 188.634L47.0969 195.347L53.1789 192.343L48.4539 197.207L55.1359 198.362Z" fill="#FFA861"/>
<path d="M73.971 169.781L67.289 170.935L72.016 175.797L65.93 172.801L66.902 179.513L63.74 173.511L60.579 179.513L61.55 172.801L55.465 175.797L60.192 170.935L53.51 169.781L60.192 168.628L55.465 163.766L61.55 166.762L60.579 160.049L63.74 166.052L66.902 160.049L65.93 166.762L72.016 163.766L67.289 168.628L73.971 169.781Z" fill="#FFA861"/>
<path opacity="0.49" d="M149.229 128.537C152.534 108.406 138.894 89.4085 118.764 86.1037C98.6332 82.799 79.6352 96.4389 76.3305 116.569C73.0257 136.7 86.6657 155.698 106.796 159.003C126.927 162.307 145.925 148.667 149.229 128.537Z" fill="#FFECE0"/>
<path d="M131.095 129.612C135.186 120.104 130.794 109.08 121.286 104.99C111.778 100.899 100.755 105.291 96.6643 114.799C92.5738 124.307 96.9655 135.33 106.473 139.421C115.981 143.511 127.005 139.12 131.095 129.612Z" fill="#FFECE0"/>
<path d="M40.547 184.088C39.339 185.905 38.238 187.552 37.308 188.92C33.759 185.435 30.477 181.672 27.484 177.674C26.8 176.755 26.126 175.825 25.474 174.873C24.223 173.088 23.037 171.249 21.903 169.378C21.818 169.239 21.732 169.1 21.657 168.95L38.846 158.078C38.846 158.078 38.856 158.078 38.878 158.067C39.391 157.874 45.709 155.672 48.328 158.152C48.552 158.366 48.702 158.676 48.809 159.071C49.954 163.585 43.808 179.192 40.547 184.088Z" fill="#993F8D"/>
<path d="M46.0528 128.319C43.5088 136.144 42.2368 145.968 40.7718 148.512C39.3178 151.056 38.0458 152.521 38.7728 157.427C38.8048 157.619 38.8268 157.833 38.8478 158.079C39.5428 164.001 40.4798 184.323 40.4798 184.323C40.4798 184.323 39.1828 187.462 37.4428 189.031C33.6908 185.396 30.6268 181.864 27.4838 177.673C26.7998 176.754 26.1258 175.824 25.4738 174.872C24.2228 173.087 23.0368 171.248 21.9028 169.377C21.7208 169.088 21.5498 168.789 21.3788 168.49C19.6468 165.54 18.0538 162.482 16.6218 159.34C16.6108 158.667 16.5898 158.025 16.5788 157.427C16.2048 143.049 14.0238 119.403 15.4778 115.213C16.9428 111.033 26.5848 98.2912 27.6748 96.8372C28.7648 95.3832 29.6738 99.1992 29.4918 101.573C29.4918 101.573 34.2278 93.0212 35.6808 93.5662C37.1348 94.1112 34.2268 106.116 32.5808 110.67C30.9458 115.213 30.9458 117.212 30.9458 117.212C30.9458 117.212 32.9448 113.396 33.8638 114.486C34.7728 115.576 34.0458 118.858 32.3998 122.311C30.7638 125.764 29.8558 127.592 33.8638 127.955C37.8618 128.319 46.5958 116.485 49.1398 116.303C51.6968 116.122 48.5968 120.494 46.0528 128.319Z" fill="#FF8C9C"/>
<path d="M15.0289 122.675C15.0289 122.675 14.2099 117.125 16.5759 113.122C18.9409 109.119 27.3109 95.6543 28.4029 96.4733C29.4949 97.2923 30.0409 99.8393 29.4949 102.114C28.9489 104.389 22.8539 113.85 22.3079 115.579C21.7619 117.308 22.3989 125.268 22.3989 125.268" stroke="#502750" stroke-width="0.5345" stroke-miterlimit="10" stroke-linecap="round" stroke-linejoin="round"/>
<path d="M17.1438 130.385C17.1438 130.385 24.1698 123.832 26.6278 121.31C29.2888 118.581 32.7638 113.805 34.0658 115.033C35.0568 115.968 33.1788 120.901 31.6778 123.562C30.1768 126.223 21.9888 136.731 21.8518 137.754C21.7158 138.778 33.6558 139.528 36.2488 139.938C38.8418 140.347 39.3198 140.961 39.0468 141.78C38.7738 142.599 30.9958 143.554 28.1298 144.236L26.3558 148.262" stroke="#502750" stroke-width="0.5345" stroke-miterlimit="10" stroke-linecap="round" stroke-linejoin="round"/>
<path d="M174.691 183.133C175.899 184.95 177 186.597 177.93 187.965C181.479 184.48 184.761 180.717 187.754 176.719C188.438 175.8 189.112 174.87 189.764 173.918C191.015 172.133 192.201 170.294 193.334 168.423C193.42 168.284 193.505 168.145 193.58 167.995L176.391 157.123C176.391 157.123 176.38 157.123 176.359 157.112C175.846 156.92 169.528 154.717 166.909 157.198C166.685 157.412 166.535 157.722 166.428 158.117C165.284 162.63 171.431 178.237 174.691 183.133Z" fill="#993F8D"/>
<path d="M169.186 127.364C171.73 135.189 173.002 145.013 174.467 147.557C175.921 150.101 177.193 151.566 176.466 156.472C176.434 156.664 176.413 156.878 176.391 157.124C175.696 163.046 174.759 183.368 174.759 183.368C174.759 183.368 176.056 186.507 177.795 188.076C181.547 184.441 184.611 180.909 187.754 176.718C188.438 175.799 189.112 174.869 189.764 173.917C191.015 172.132 192.201 170.293 193.334 168.422C193.516 168.133 193.687 167.834 193.858 167.535C195.59 164.585 197.183 161.527 198.615 158.385C198.626 157.711 198.647 157.07 198.658 156.472C199.032 142.094 201.213 118.448 199.759 114.258C198.295 110.078 188.652 97.3362 187.562 95.8822C186.472 94.4282 185.563 98.2442 185.745 100.618C185.745 100.618 181.009 92.0662 179.556 92.6112C178.102 93.1562 181.01 105.161 182.656 109.715C184.292 114.258 184.292 116.257 184.292 116.257C184.292 116.257 182.293 112.441 181.374 113.531C180.465 114.621 181.192 117.903 182.839 121.356C184.474 124.809 185.383 126.637 181.374 127C177.376 127.363 168.642 115.53 166.098 115.348C163.542 115.167 166.642 119.539 169.186 127.364Z" fill="#FF8C9C"/>
<path d="M200.21 121.72C200.21 121.72 201.029 116.17 198.663 112.167C196.298 108.164 187.928 94.6992 186.836 95.5182C185.744 96.3372 185.199 98.8842 185.744 101.159C186.29 103.433 192.385 112.895 192.931 114.624C193.477 116.353 192.84 124.313 192.84 124.313" stroke="#502750" stroke-width="0.5345" stroke-miterlimit="10" stroke-linecap="round" stroke-linejoin="round"/>
<path d="M198.094 129.43C198.094 129.43 191.068 122.877 188.61 120.355C185.949 117.626 182.474 112.85 181.173 114.078C180.182 115.013 182.06 119.946 183.561 122.607C185.062 125.268 193.25 135.776 193.387 136.8C193.523 137.823 181.583 138.574 178.99 138.984C176.397 139.393 175.92 140.007 176.192 140.826C176.465 141.645 184.243 142.6 187.109 143.282L188.883 147.308" stroke="#502750" stroke-width="0.5345" stroke-miterlimit="10" stroke-linecap="round" stroke-linejoin="round"/>
</svg>
