<svg width="209" height="210" viewBox="0 0 209 210" fill="none" xmlns="http://www.w3.org/2000/svg">
<path d="M108.861 209.267C104.534 209.267 100.169 208.985 95.8859 208.427C95.3949 208.364 94.8679 208.289 94.3529 208.215C92.9079 208.011 91.4299 207.761 89.9749 207.474C89.9129 207.465 89.8519 207.454 89.7899 207.443C88.3739 207.176 86.8889 206.855 85.3749 206.488C84.8829 206.372 84.3519 206.237 83.8199 206.102C82.8509 205.857 81.9239 205.598 80.9959 205.329C80.9889 205.327 80.8609 205.293 80.8039 205.275C79.9119 205.014 79.0219 204.742 78.1409 204.448L78.0299 204.412C77.1259 204.127 76.3009 203.845 75.4749 203.552L74.7149 203.278C73.9669 203.005 73.2139 202.727 72.4779 202.435C71.5669 202.077 70.6429 201.702 69.7279 201.309C69.5629 201.242 69.4019 201.171 69.2389 201.099C69.2179 201.09 69.1969 201.081 69.1759 201.073C68.7109 200.88 68.2659 200.676 67.8049 200.461C67.6659 200.403 67.1119 200.162 67.0629 200.14C66.9289 200.077 65.3499 199.321 64.8799 199.092C64.8799 199.092 63.8799 198.596 63.8289 198.569C63.7459 198.527 63.6689 198.487 63.5939 198.447C62.6489 197.964 61.7029 197.47 60.7789 196.967C60.7369 196.944 60.6949 196.92 60.6529 196.896C60.3669 196.731 60.0889 196.575 59.8019 196.418C59.7679 196.399 59.7339 196.381 59.6989 196.361C59.5059 196.251 59.3149 196.134 59.1259 196.018L58.9159 195.89C57.9239 195.316 56.9379 194.723 55.9639 194.113L55.0279 193.526C53.5819 192.599 52.3299 191.759 51.1939 190.957C51.1709 190.94 50.9659 190.796 50.8939 190.743C47.6529 188.427 44.5169 185.888 41.5729 183.198C40.8669 182.564 40.1309 181.873 39.4229 181.177C36.4849 178.349 33.5709 175.151 30.8129 171.715C30.2229 170.974 29.6639 170.245 29.1049 169.506C28.4329 168.605 27.7389 167.663 27.0529 166.663C25.9299 165.073 24.7599 163.283 23.5209 161.256C23.3859 161.043 23.2299 160.777 23.0709 160.5C21.6769 162.306 19.7839 163.216 17.4029 163.216C15.4269 163.216 13.5219 162.473 11.5779 160.945C6.93594 157.299 8.40694 151.537 10.2639 146.876C6.57194 144.937 4.07494 142.837 2.67594 140.506C1.50894 138.549 0.412941 135.338 1.30894 130.706C1.30294 130.617 1.29894 130.528 1.29694 130.438C1.27894 129.643 1.41594 128.852 1.69194 128.114C1.04194 125.889 1.80394 123.98 2.90794 122.494C2.23894 119.396 2.66094 117.752 2.82994 117.096C3.68394 113.762 6.41994 112.161 9.32694 111.315C9.32294 110.964 9.32094 110.617 9.32094 110.27C9.32094 99.1661 11.1519 88.2941 14.7669 77.9061C11.6239 72.9041 9.92194 67.0591 9.92194 61.1231C9.92194 43.7361 24.0679 29.5911 41.4539 29.5911C44.2499 29.5911 47.0029 29.9561 49.6779 30.6811C55.5449 26.3581 61.8499 22.6981 68.4689 19.7741C68.7399 19.5891 69.0269 19.4251 69.3269 19.2861L69.4179 19.2431C69.5799 19.1671 69.7489 19.0881 69.9169 19.0151C70.3119 18.8441 70.7179 18.7191 71.1279 18.6381C76.6899 16.3661 82.4939 14.5971 88.4199 13.3671C88.9919 12.9181 89.6479 12.5731 90.3539 12.3551C90.7819 12.2231 91.2079 12.1271 91.6559 12.0621C91.9459 12.0201 92.2349 11.9991 92.5219 11.9991C93.1739 11.9991 93.8139 12.1051 94.4189 12.3081C99.1929 11.6191 104.046 11.2701 108.86 11.2701C111.256 11.2701 113.723 11.3641 116.219 11.5481C130.746 1.56211 132.052 1.2731 133.432 0.967102C133.904 0.862102 134.395 0.808105 134.887 0.808105C137.778 0.808105 141.358 0.809111 153.334 21.7031C156.176 23.1171 158.925 24.6481 161.529 26.2691C161.707 26.3721 161.884 26.4821 162.061 26.5911C167.957 30.3091 173.408 34.6041 178.332 39.4011C178.513 39.5611 178.687 39.7321 178.854 39.9121C179.114 40.1621 179.374 40.4201 179.634 40.6801C179.808 40.8381 179.976 41.0061 180.138 41.1871C183.245 44.3471 186.172 47.7651 188.839 51.3491C188.912 51.4421 189.1 51.6911 189.124 51.7251C194.479 58.9761 198.802 66.8871 201.976 75.2421C202.031 75.3731 202.081 75.5041 202.129 75.6331C204.132 80.9721 205.673 86.5271 206.717 92.1671C206.762 92.3671 206.799 92.5691 206.828 92.7711C206.99 93.6291 207.147 94.5661 207.318 95.6961C207.346 95.8611 207.37 96.0281 207.389 96.1881C208.052 100.799 208.388 105.536 208.388 110.27C208.388 115.59 207.961 120.902 207.12 126.058C207.117 126.082 207.113 126.106 207.11 126.129C207.045 126.555 206.98 126.963 206.9 127.376C206.896 127.401 206.892 127.426 206.887 127.451C205.079 137.805 201.606 147.781 196.564 157.103C196.55 157.127 196.538 157.153 196.523 157.177C196.439 157.338 196.353 157.498 196.259 157.664L195.915 158.292C195.871 158.373 195.825 158.453 195.777 158.532C195.516 159.004 195.244 159.466 194.969 159.93L194.823 160.176C194.167 161.299 193.519 162.356 192.855 163.384C192.227 164.39 191.532 165.408 190.878 166.36C183.858 176.483 175.143 185.116 164.958 192.04C164.75 192.193 164.544 192.332 164.335 192.467C163.364 193.117 162.377 193.745 161.381 194.362C161.135 194.516 160.867 194.679 160.601 194.841C159.661 195.412 158.71 195.972 157.749 196.513L157.493 196.66C156.47 197.231 155.437 197.777 154.398 198.31L153.483 198.772C152.584 199.222 151.676 199.661 150.76 200.085L150.204 200.346C149.173 200.817 148.104 201.274 147.029 201.718C146.756 201.831 146.086 202.101 146.086 202.101C145.133 202.484 144.17 202.855 143.199 203.21L142.704 203.395C141.631 203.781 140.488 204.165 139.211 204.573L138.588 204.766C137.277 205.173 136.086 205.521 134.943 205.829C134.854 205.857 134.759 205.886 134.665 205.911C131.065 206.87 127.354 207.633 123.61 208.185C123.607 208.186 123.605 208.186 123.602 208.186C123.482 208.206 123.336 208.227 123.169 208.245C122.276 208.374 121.384 208.493 120.49 208.593C117.159 208.977 113.85 209.198 110.679 209.249L110.575 209.251C110.014 209.257 109.438 209.267 108.861 209.267Z" fill="white"/>
<path d="M202.391 110.266C202.391 115.356 201.981 120.356 201.181 125.216C201.181 125.226 201.181 125.226 201.181 125.226C201.121 125.626 201.061 126.006 200.981 126.396C200.981 126.396 200.981 126.406 200.981 126.416C199.251 136.326 195.921 145.686 191.291 154.246C191.291 154.246 191.291 154.246 191.281 154.256C191.201 154.416 191.121 154.566 191.031 154.726C190.901 154.966 190.771 155.196 190.641 155.436C190.631 155.446 190.631 155.446 190.631 155.446C190.321 156.016 189.991 156.566 189.661 157.126C189.071 158.136 188.461 159.136 187.821 160.126C187.221 161.086 186.581 162.026 185.941 162.956C179.361 172.446 171.051 180.666 161.471 187.156C161.331 187.266 161.191 187.356 161.051 187.446C152.701 193.046 143.411 197.336 133.441 200.016H133.431C133.321 200.056 133.211 200.086 133.101 200.116C129.721 201.016 126.261 201.726 122.741 202.246C122.661 202.256 122.581 202.276 122.501 202.276C121.611 202.406 120.721 202.526 119.831 202.626C116.791 202.976 113.711 203.196 110.591 203.246C110.021 203.256 109.441 203.266 108.861 203.266C104.721 203.266 100.651 202.996 96.661 202.476C96.181 202.416 95.691 202.346 95.211 202.276C93.791 202.076 92.381 201.836 90.981 201.556C90.951 201.556 90.931 201.546 90.901 201.546C89.521 201.286 88.151 200.986 86.791 200.656C86.281 200.536 85.771 200.406 85.261 200.276C84.391 200.056 83.531 199.816 82.671 199.566C82.611 199.546 82.551 199.526 82.491 199.516C81.671 199.276 80.851 199.026 80.041 198.756C79.951 198.726 79.861 198.696 79.761 198.666C79.001 198.426 78.241 198.166 77.481 197.896C77.341 197.846 77.201 197.796 77.061 197.746C76.271 197.456 75.471 197.166 74.691 196.856C73.801 196.506 72.911 196.146 72.031 195.766C71.421 195.516 70.821 195.246 70.221 194.966C70.001 194.876 69.781 194.776 69.571 194.686C69.461 194.636 69.361 194.586 69.261 194.536C69.151 194.486 69.041 194.436 68.941 194.386C68.171 194.026 67.421 193.656 66.661 193.276C62.471 191.166 58.461 188.746 54.661 186.056C54.581 185.996 54.501 185.946 54.421 185.886C51.341 183.686 48.401 181.306 45.621 178.766C44.941 178.156 44.281 177.536 43.631 176.896C40.731 174.106 38.021 171.106 35.491 167.956C34.951 167.276 34.421 166.586 33.891 165.886C33.251 165.026 32.611 164.156 32.001 163.266C30.821 161.596 29.711 159.876 28.641 158.126C28.471 157.856 28.311 157.576 28.151 157.296C27.681 156.496 27.221 155.696 26.771 154.886C26.731 154.806 26.681 154.716 26.641 154.626C26.221 153.886 25.831 153.126 25.441 152.366C24.951 151.426 24.491 150.486 24.041 149.526C24.001 149.446 23.961 149.366 23.931 149.286C23.841 149.106 23.751 148.916 23.671 148.736C19.981 140.656 17.401 131.956 16.181 122.816C16.151 122.706 16.141 122.596 16.131 122.486C16.031 121.766 15.951 121.046 15.871 120.316C15.861 120.226 15.851 120.136 15.841 120.036C15.491 116.826 15.321 113.566 15.321 110.266C15.321 98.6061 17.481 87.4561 21.421 77.1761C21.501 76.9761 21.571 76.7861 21.651 76.5861C22.421 74.6161 23.251 72.6761 24.161 70.7761C24.271 70.5361 24.381 70.2961 24.491 70.0661C34.231 49.8961 51.0611 33.7661 71.771 24.8761C71.911 24.8061 72.051 24.7461 72.191 24.6961C72.351 24.6261 72.511 24.5561 72.671 24.4861C72.761 24.4461 72.851 24.4061 72.941 24.3761C78.871 21.9161 85.111 20.0561 91.581 18.8561C91.701 18.8261 91.831 18.8061 91.951 18.7961C92.551 18.6761 93.151 18.5761 93.751 18.4761C93.911 18.4461 94.081 18.4161 94.251 18.3961C99.011 17.6561 103.891 17.2661 108.861 17.2661C127.071 17.2661 144.081 22.4461 158.451 31.4161C158.611 31.5061 158.771 31.6061 158.931 31.7061C164.481 35.2061 169.631 39.2761 174.291 43.8361C174.371 43.8961 174.451 43.9761 174.531 44.0761C174.871 44.3961 175.211 44.7361 175.551 45.0761C175.631 45.1361 175.691 45.2061 175.741 45.2661C178.751 48.3161 181.541 51.5761 184.101 55.0261C184.171 55.1061 184.231 55.1961 184.301 55.2861C189.301 62.0561 193.401 69.5161 196.421 77.5061C196.461 77.5861 196.491 77.6761 196.521 77.7561C198.401 82.7661 199.851 87.9861 200.841 93.3661V93.3761C200.871 93.4861 200.891 93.5961 200.901 93.7061C201.091 94.6861 201.251 95.6761 201.401 96.6761C201.421 96.7661 201.431 96.8661 201.441 96.9561C202.071 101.306 202.391 105.746 202.391 110.266Z" fill="#7282FF"/>
<g opacity="0.79">
<path d="M72.2942 24.52C70.4662 27.802 67.6232 30.688 64.8972 33.286C58.8792 38.973 52.5722 44.66 46.4682 50.165C38.7182 57.167 30.8822 64.244 23.3352 71.577C23.4422 71.331 23.5592 71.085 23.6982 70.84V70.829C31.0742 63.688 38.7172 56.782 46.2752 49.952C52.3792 44.447 58.6862 38.76 64.6942 33.073C67.3132 30.593 70.0392 27.835 71.8562 24.724C71.9952 24.659 72.1452 24.584 72.2942 24.52Z" fill="#FFECE0"/>
<path d="M92.5211 17.9961C92.3811 18.1961 92.2311 18.3861 92.0911 18.5861C92.0411 18.6561 91.9911 18.7261 91.9511 18.7961C88.5211 23.7461 86.5811 29.6661 84.7011 35.4061C82.4011 42.4761 79.9911 49.7761 74.7911 55.1661C71.5511 58.5261 67.4211 60.8761 63.4111 63.1761C59.4311 65.4461 55.3011 67.8161 52.0911 71.1361C48.1711 75.1961 45.7711 80.4961 43.4611 85.6061C42.9311 86.7961 42.3611 88.0361 41.8011 89.2461C35.7411 102.026 26.8911 113.526 16.1811 122.816C16.1511 122.706 16.1411 122.596 16.1311 122.486C26.7611 113.226 35.5311 101.816 41.5411 89.1161C42.1211 87.9261 42.6711 86.6861 43.2211 85.4861C45.5411 80.3461 47.9311 75.0261 51.8911 70.9461C55.1311 67.5861 59.2711 65.2161 63.2811 62.9261C67.2611 60.6561 71.3611 58.2861 74.5911 54.9761C79.7611 49.6261 82.1311 42.3461 84.4311 35.3061C86.2911 29.6361 88.2011 23.7761 91.5811 18.8561C91.6711 18.7161 91.7711 18.5761 91.8711 18.4361C91.9511 18.3161 92.0411 18.2061 92.1211 18.0861C92.2511 18.0461 92.3811 18.0161 92.5211 17.9961Z" fill="#FFECE0"/>
<path d="M174.531 44.0762C174.101 46.1462 173.381 48.1462 172.381 49.9862C170.041 54.2862 166.431 57.1862 162.201 58.1762C156.651 59.4362 151.091 57.4762 145.731 55.5862C143.271 54.7162 140.721 53.8362 138.211 53.2562C127.261 50.7162 114.731 54.0562 104.721 62.1562C96.4311 68.8662 89.6611 78.7162 84.6111 91.4562C83.4111 94.5162 82.3011 97.6662 81.2311 100.746C78.3711 109.006 75.3811 117.536 70.0611 124.586C62.8211 134.176 51.6911 140.346 41.8811 145.776C36.9611 148.506 31.6911 151.416 26.7711 154.886C26.7311 154.806 26.6811 154.716 26.6411 154.626C31.5711 151.166 36.8311 148.266 41.7511 145.536C51.5311 140.106 62.6311 133.966 69.8311 124.416C75.1411 117.396 78.1111 108.886 80.9711 100.646C82.0311 97.5862 83.1311 94.4062 84.3511 91.3662C89.4311 78.5662 96.2111 68.6662 104.531 61.9462C114.641 53.7862 127.241 50.4362 138.271 52.9662C140.801 53.5662 143.351 54.4562 145.821 55.3262C151.141 57.1962 156.661 59.1362 162.131 57.8862C166.281 56.9462 169.831 54.0862 172.131 49.8562C173.141 47.9862 173.871 45.9462 174.291 43.8362C174.371 43.8962 174.451 43.9762 174.531 44.0762Z" fill="#FFECE0"/>
<path d="M184.301 55.2861C182.861 58.6461 181.541 62.0461 180.231 65.3961C178.481 69.8561 176.681 74.4761 174.681 78.8861C167.451 94.8661 158.191 105.296 147.171 109.876C145.641 110.506 144.041 111.046 142.491 111.566C139.581 112.566 136.551 113.576 133.941 115.266C127.601 119.406 124.551 126.746 121.571 133.876C121.201 134.776 120.831 135.686 120.431 136.566C110.171 160.576 91.941 181.146 69.571 194.686C69.461 194.636 69.361 194.586 69.261 194.536C91.651 181.026 109.911 160.476 120.171 136.456C120.561 135.566 120.931 134.666 121.311 133.756C124.291 126.596 127.381 119.196 133.781 115.026C136.421 113.306 139.461 112.286 142.411 111.296C143.951 110.786 145.541 110.256 147.061 109.606C158.001 105.056 167.211 94.6861 174.411 78.7661C176.421 74.3561 178.221 69.7461 179.961 65.2861C181.291 61.8861 182.641 58.4361 184.101 55.0261C184.171 55.1061 184.231 55.1961 184.301 55.2861Z" fill="#FFECE0"/>
<path d="M200.901 93.706C178.811 118.306 161.131 142.986 147.211 168.586C140.691 180.586 136.301 190.566 133.441 200.016H133.431C133.321 200.056 133.211 200.086 133.101 200.116C135.981 190.586 140.391 180.536 146.961 168.446C160.921 142.786 178.661 118.026 200.841 93.376C200.871 93.486 200.891 93.596 200.901 93.706Z" fill="#FFECE0"/>
<path d="M201.181 125.226C201.121 125.626 201.061 126.006 200.981 126.396C200.981 126.396 200.981 126.406 200.981 126.416C197.131 135.376 194.091 144.846 191.291 154.246C191.291 154.246 191.291 154.246 191.281 154.256C191.201 154.416 191.121 154.566 191.031 154.726C190.901 154.966 190.771 155.196 190.641 155.436C193.631 145.306 196.891 135.076 201.081 125.446C201.111 125.376 201.141 125.296 201.181 125.226Z" fill="#FFECE0"/>
</g>
<path d="M40.8009 64.2961C40.1709 69.4161 37.9609 76.2061 36.6009 81.2061C32.7409 95.3761 29.5509 108.656 26.4009 122.446C25.2609 127.436 24.1209 132.496 22.9609 137.686C21.8209 142.736 20.7209 147.796 19.6509 152.856C19.1509 155.206 18.8589 159.034 15.2839 156.225C12.4869 154.027 17.7809 145.786 18.5209 142.316C19.5709 137.366 20.6509 132.416 21.7509 127.476C22.2109 125.406 22.6709 123.336 23.1509 121.266C25.2209 112.086 27.3709 102.926 29.6109 93.7861C32.0909 83.5961 35.8409 73.7961 38.8909 63.7561C39.2309 62.6461 40.9509 63.1361 40.8009 64.2961Z" fill="#502750"/>
<path d="M111.156 70.438L113.071 87.161C113.071 87.161 93.6669 97.757 91.8799 95.204C90.0929 92.651 91.8799 76.821 91.8799 76.821L111.156 70.438Z" fill="#FF8C9C"/>
<path d="M189.661 157.126C189.071 158.136 188.461 159.136 187.821 160.126C187.221 161.086 186.581 162.026 185.941 162.956C179.361 172.446 171.051 180.666 161.471 187.156C161.331 187.266 161.191 187.356 161.051 187.446C149.781 195.006 136.771 200.176 122.741 202.246C122.661 202.256 122.581 202.276 122.501 202.276C121.611 202.406 120.721 202.526 119.831 202.626C116.791 202.976 113.711 203.196 110.591 203.246C110.021 203.256 109.441 203.266 108.861 203.266C104.721 203.266 100.651 202.996 96.6609 202.476C96.1809 202.416 95.6909 202.346 95.2109 202.276C93.7909 202.066 92.3809 201.826 90.9809 201.556C90.9509 201.556 90.9309 201.546 90.9009 201.546C89.5209 201.276 88.1509 200.986 86.7909 200.656C86.2809 200.536 85.7709 200.406 85.2609 200.276C84.3909 200.056 83.5309 199.816 82.6709 199.566C82.6109 199.546 82.5509 199.526 82.4909 199.516C81.6709 199.276 80.8509 199.026 80.0409 198.756C79.9509 198.726 79.8609 198.696 79.7609 198.666C79.0009 198.426 78.2409 198.166 77.4809 197.896C77.3409 197.846 77.2009 197.796 77.0609 197.746C76.2709 197.456 75.4709 197.166 74.6909 196.856C73.8009 196.506 72.9109 196.146 72.0309 195.766C71.8509 195.696 71.6809 195.616 71.5009 195.536H71.4909C71.0609 195.356 70.6509 195.166 70.2209 194.966C69.7909 194.786 69.3609 194.586 68.9409 194.386C68.4609 194.156 67.9809 193.926 67.5109 193.696C67.2309 193.556 66.9409 193.416 66.6609 193.276C66.5709 193.226 66.4809 193.186 66.3909 193.136C65.4709 192.666 64.5509 192.186 63.6509 191.696C63.3209 191.506 63.0009 191.326 62.6709 191.146C59.9109 189.576 57.2409 187.876 54.6609 186.056C54.5809 185.996 54.5009 185.946 54.4209 185.886C51.3409 183.686 48.4009 181.306 45.6209 178.766C44.9409 178.156 44.2809 177.536 43.6309 176.896C40.7309 174.106 38.0209 171.106 35.4909 167.956C34.9509 167.276 34.4209 166.586 33.8909 165.886C33.2509 165.026 32.6109 164.156 32.0009 163.266C30.8209 161.596 29.7109 159.876 28.6409 158.126C28.4709 157.856 28.3109 157.576 28.1509 157.296C27.2009 155.686 26.2909 154.046 25.4409 152.366C28.0709 134.676 31.4609 114.386 33.0709 114.386C33.0809 114.386 33.1009 114.396 33.1109 114.396C33.3009 114.436 33.5409 114.626 33.8509 114.936C35.0409 116.156 37.2809 118.866 39.8909 122.146C42.6809 125.636 45.9009 129.776 48.7109 133.426C52.7009 138.606 55.8809 142.816 55.8809 142.816C55.8809 142.816 75.5809 106.906 82.8209 100.436C90.0509 93.9662 95.1609 93.1161 95.1609 93.1161C95.1609 93.1161 102.391 91.2462 107.241 85.7162C112.091 80.1862 112.691 78.0562 112.691 78.0562C112.691 78.0562 118.821 86.3962 139.071 97.3762C159.331 108.356 169.621 113.626 179.921 134.136C184.841 143.936 187.861 151.696 189.661 157.126Z" fill="#FFA8DE"/>
<path d="M99.6489 102.353L106.331 103.506L101.604 108.368L107.69 105.372L106.718 112.085L109.88 106.082L113.041 112.085L112.07 105.372L118.156 108.368L113.428 103.506L120.111 102.353L113.428 101.199L118.156 96.3371L112.07 99.3331L113.041 92.6211L109.88 98.6231L106.718 92.6211L107.69 99.3331L101.604 96.3371L106.331 101.199L99.6489 102.353Z" fill="#FFECE0"/>
<path d="M134.628 119.204L141.31 120.357L136.583 125.22L142.668 122.223L141.697 128.936L144.859 122.933L148.02 128.936L147.049 122.223L153.134 125.219L148.407 120.357L155.089 119.204L148.407 118.05L153.134 113.188L147.049 116.185L148.02 109.472L144.859 115.474L141.697 109.472L142.668 116.185L136.583 113.188L141.31 118.05L134.628 119.204Z" fill="#FFECE0"/>
<path d="M109.351 144.48L116.033 145.634L111.306 150.496L117.392 147.5L116.421 154.212L119.582 148.21L122.743 154.212L121.772 147.5L127.858 150.496L123.13 145.634L129.813 144.48L123.13 143.327L127.858 138.465L121.772 141.461L122.743 134.748L119.582 140.751L116.421 134.748L117.392 141.461L111.306 138.465L116.033 143.327L109.351 144.48Z" fill="#FFECE0"/>
<path d="M139.341 174.47L146.023 175.623L141.296 180.486L147.381 177.489L146.41 184.202L149.571 178.199L152.733 184.202L151.762 177.489L157.847 180.485L153.12 175.623L159.802 174.47L153.12 173.316L157.847 168.454L151.761 171.451L152.733 164.738L149.571 170.74L146.41 164.738L147.381 171.451L141.296 168.454L146.023 173.316L139.341 174.47Z" fill="#FFECE0"/>
<path d="M164.617 149.193L171.299 150.347L166.572 155.209L172.658 152.212L171.686 158.925L174.848 152.923L178.009 158.925L177.038 152.212L183.124 155.209L178.396 150.347L185.079 149.193L178.396 148.039L183.124 143.177L177.038 146.174L178.009 139.461L174.848 145.464L171.686 139.461L172.658 146.174L166.572 143.177L171.299 148.039L164.617 149.193Z" fill="#FFECE0"/>
<path d="M55.0859 149.193L61.7679 150.347L57.0399 155.209L63.1259 152.212L62.1549 158.925L65.3159 152.923L68.4779 158.925L67.5059 152.212L73.5919 155.209L68.8649 150.347L75.5469 149.193L68.8649 148.039L73.5919 143.177L67.5059 146.174L68.4779 139.461L65.3159 145.464L62.1549 139.461L63.1259 146.174L57.0399 143.177L61.7679 148.039L55.0859 149.193Z" fill="#FFECE0"/>
<path d="M77.291 193.126L71.211 190.126L72.031 195.766C71.851 195.696 71.681 195.616 71.501 195.536H71.491L69.021 190.836L67.511 193.696C67.231 193.556 66.941 193.416 66.661 193.276C66.571 193.226 66.481 193.186 66.391 193.136L66.831 190.126L63.651 191.696C63.321 191.506 63.001 191.326 62.671 191.146L65.471 188.266L58.791 187.106L65.471 185.956L60.741 181.096L66.831 184.086L65.861 177.376L69.021 183.376L72.181 177.376L71.211 184.086L77.291 181.096L72.571 185.956L79.251 187.106L72.571 188.266L77.291 193.126Z" fill="#FFECE0"/>
<path d="M71.8091 119.704L78.4911 120.858L73.7641 125.72L79.8491 122.723L78.8781 129.436L82.0391 123.433L85.2011 129.436L84.2301 122.723L90.3151 125.719L85.5881 120.858L92.2701 119.704L85.5881 118.55L90.3151 113.688L84.2301 116.685L85.2011 109.972L82.0391 115.974L78.8781 109.972L79.8491 116.685L73.7641 113.688L78.4911 118.55L71.8091 119.704Z" fill="#FFECE0"/>
<path d="M49.201 136.836L46.041 130.836L42.881 136.836L43.851 130.126L37.761 133.126L42.491 128.266L35.811 127.106L42.491 125.956L37.761 121.096L39.891 122.146C42.681 125.636 45.901 129.776 48.711 133.426L49.201 136.836Z" fill="#FFECE0"/>
<path d="M46.05 159.799C46.05 159.799 59.327 136.693 64.688 127.501C70.05 118.31 80.773 101.586 80.773 101.586" stroke="#502750" stroke-width="0.5" stroke-miterlimit="10" stroke-linecap="round" stroke-linejoin="round"/>
<path d="M86.791 200.656C88.151 200.986 89.521 201.276 90.901 201.546C89.521 201.286 88.151 200.986 86.791 200.656Z" fill="#993F8D"/>
<path d="M95.211 202.276C93.791 202.076 92.381 201.836 90.981 201.556C92.381 201.826 93.791 202.066 95.211 202.276Z" fill="#993F8D"/>
<path d="M119.831 202.626C116.791 202.976 113.711 203.196 110.591 203.246C110.021 203.256 109.441 203.266 108.861 203.266C104.721 203.266 100.651 202.996 96.6609 202.476C96.1809 202.416 95.6909 202.346 95.2109 202.276C93.7909 202.066 92.3809 201.826 90.9809 201.556C90.9509 201.556 90.9309 201.546 90.9009 201.546C89.5209 201.276 88.1509 200.986 86.7909 200.656C86.2809 200.536 85.7709 200.406 85.2609 200.276C84.3909 200.056 83.5309 199.816 82.6709 199.566C82.6109 199.546 82.5509 199.526 82.4909 199.516C81.6709 199.276 80.8509 199.026 80.0409 198.756C79.9509 198.726 79.8609 198.696 79.7609 198.666C79.0009 198.426 78.2409 198.166 77.4809 197.896C77.3409 197.846 77.2009 197.796 77.0609 197.746C76.2709 197.456 75.4709 197.166 74.6909 196.856C81.8009 162.916 89.3909 129.086 97.4709 95.356C99.2409 132.076 109.041 167.466 119.831 202.626Z" fill="#993F8D"/>
<path d="M101.539 35.5872C91.2508 35.5872 82.8558 43.6001 82.1988 53.7221C82.1958 53.7211 82.1778 53.7151 82.1778 53.7151C82.1778 53.7151 82.0478 55.1051 81.8978 57.2051C79.8518 59.8531 73.7668 67.8861 74.0498 69.3741C74.2678 70.5161 78.4798 70.6501 81.4938 70.5981C81.5878 73.3491 81.8588 75.6742 82.4328 76.8212C84.4758 80.9062 108.348 80.6511 110.901 72.4811C110.959 72.2971 110.98 72.1102 111.004 71.9232C116.932 68.6022 120.944 62.2691 120.944 54.9911C120.944 44.2741 112.256 35.5872 101.539 35.5872Z" fill="#FF8C9C"/>
<path d="M79.4878 70.563C79.7608 69.571 80.2188 68.6291 80.8318 67.8031C80.9638 67.6251 81.1188 67.4411 81.3348 67.3891C81.5528 67.3361 81.7868 67.4361 81.9468 67.5941C82.1068 67.7511 82.2068 67.9591 82.2968 68.1651C82.7098 69.1171 82.9638 70.1281 83.2158 71.1351" stroke="#502750" stroke-width="0.5" stroke-miterlimit="10" stroke-linecap="round" stroke-linejoin="round"/>
<path d="M90.1829 35.4172C88.6709 34.5202 86.8399 34.0192 85.1349 34.4512C83.4309 34.8832 81.9519 36.4162 81.9549 38.1742C81.9559 38.9602 82.2359 39.7212 82.5959 40.4202C81.4779 41.0732 80.2879 41.5702 79.4169 42.5292C78.5459 43.4882 77.9519 44.7752 78.1089 46.0612C78.3069 47.6742 79.6929 48.9822 81.2649 49.3962C82.8369 49.8102 84.5329 49.4452 85.9869 48.7182C87.4409 47.9912 88.6929 46.9262 89.9209 45.8612C89.3269 47.8272 90.1889 50.2332 91.7419 51.5772C93.2949 52.9212 95.6919 53.2112 97.4979 52.2332C98.7619 51.5482 99.6619 50.3592 100.521 49.2062C100.501 49.7132 100.801 50.2882 100.781 50.7952C100.729 52.1132 100.681 53.4652 101.091 54.7192C101.501 55.9732 102.47 57.1312 103.766 57.3792C104.358 57.4932 104.973 57.4112 105.557 57.2582C106.871 56.9152 108.169 56.1112 108.63 54.8352C108.417 56.5192 108.138 58.5412 108.81 60.0992C109.093 60.7552 109.646 61.4102 110.36 61.3892C110.832 61.3752 111.24 61.0682 111.595 60.7572C112.196 60.2322 112.752 59.6572 113.257 59.0402C112.21 62.2712 111.524 65.8752 111.497 69.2722C111.487 70.5122 111.564 71.8142 112.209 72.8742C113.203 74.5062 115.296 75.1322 117.207 75.1262C119.266 75.1192 121.387 74.4861 122.866 73.0541C124.373 71.5961 125.062 69.4912 125.463 67.4332C126.667 61.2432 125.706 54.7192 123.178 48.9422C122.311 46.9612 121.251 45.0402 119.789 43.4472C117.284 40.7172 114.032 38.1582 110.561 36.8612C104.388 34.5572 96.6139 33.9782 90.1829 35.4172Z" fill="#FFECE0"/>
<path d="M111.313 77.973C111.548 78.966 111.901 79.9691 112.603 80.7091C113.305 81.4491 114.428 81.866 115.379 81.495C115.891 81.295 116.381 80.8791 116.918 80.9971C117.212 81.0621 117.444 81.278 117.681 81.465C119.818 83.153 123.211 82.592 125.06 80.594C126.91 78.596 127.313 75.5391 126.544 72.9271C126.273 72.0081 125.872 71.1261 125.677 70.1871C125.25 68.1371 125.834 66.027 125.906 63.934C125.931 63.205 125.883 62.4361 125.494 61.8191C124.67 60.5101 122.788 60.4721 121.267 60.7541C118.131 61.3351 114.965 62.777 113.255 65.469C111.079 68.894 110.395 74.089 111.313 77.973Z" fill="#FFECE0"/>
<path d="M115.273 58.5691C116.797 58.5281 118.437 58.8801 119.468 60.0041C120.382 61.0001 120.662 62.4401 120.578 63.7891C120.412 66.4561 118.835 69.0591 116.418 70.1971C114.001 71.3361 110.826 70.8011 109.105 68.7571C105.392 64.3481 110.614 58.6951 115.273 58.5691Z" fill="#FF8C9C"/>
<path d="M110.802 68.591C111.443 64.708 114.492 61.328 118.289 60.291" stroke="#502750" stroke-width="0.5" stroke-miterlimit="10" stroke-linecap="round" stroke-linejoin="round"/>
<path d="M110.901 68.5871C111.284 67.2781 111.406 66.6591 112.079 66.1551C113.264 65.2671 114.699 64.7571 116.158 64.5041C116.811 64.3911 117.498 64.3291 118.124 64.5451" stroke="#502750" stroke-width="0.5" stroke-miterlimit="10" stroke-linecap="round" stroke-linejoin="round"/>
<path d="M82.0048 70.7261C82.0048 70.7261 76.9438 101.247 76.9438 109.417C76.9438 117.587 79.8378 121.587 86.5608 118.438C93.2838 115.289 95.9229 109.587 98.5609 99.5441C101.199 89.5011 100.689 78.6931 102.816 75.2041C104.944 71.7151 112.178 58.3101 112.178 58.3101C112.178 58.3101 104.114 70.0121 100.114 70.9481C96.1138 71.8841 94.9008 70.3521 90.5608 69.5011C86.2198 68.6511 82.0048 70.7261 82.0048 70.7261Z" fill="#FFECE0"/>
<path d="M89.008 59.2992C89.008 60.2332 88.251 60.9901 87.316 60.9901C86.382 60.9901 85.625 60.2332 85.625 59.2992C85.625 58.3652 86.382 57.6082 87.316 57.6082C88.25 57.6082 89.008 58.3652 89.008 59.2992Z" fill="#502750"/>
<path d="M84.9349 53.6501C84.0429 54.2471 84.0309 55.3551 84.2229 56.3151C84.3789 57.1001 84.7759 57.4851 85.5729 57.6181C87.1269 57.8771 90.7729 58.1451 91.5159 56.2661C91.7529 55.6661 91.5499 54.9581 91.1429 54.4581C90.6879 53.8981 89.9369 53.4191 89.2209 53.2951C87.9719 53.0801 86.1079 52.9151 84.9839 53.6191C84.9679 53.6291 84.9509 53.6391 84.9349 53.6501Z" fill="#FFECE0"/>
<path d="M93.1987 35.0761C93.1987 35.0761 100.688 34.5651 110.901 45.4591C121.114 56.3531 125.88 69.4591 125.88 69.4591L140.178 20.4381L149.199 26.5661C149.199 26.5661 137.795 6.1401 134.731 6.8211C131.667 7.5021 93.1987 35.0761 93.1987 35.0761Z" fill="#502750"/>
<path d="M35.5809 150.476C35.5709 152.086 35.5609 153.656 35.5509 155.176C35.5309 159.896 35.5109 164.146 35.4909 167.956C34.9509 167.276 34.4209 166.586 33.8909 165.886C33.2509 165.026 32.6109 164.156 32.0009 163.266C30.8209 161.596 29.7109 159.876 28.6409 158.126C28.4709 157.856 28.3109 157.576 28.1509 157.296C27.2009 155.686 26.2909 154.046 25.4409 152.366C25.5409 151.716 25.6409 151.056 25.7309 150.396C26.1409 147.736 26.5609 145.036 26.9809 142.376C27.0109 142.166 27.0509 141.956 27.0809 141.746C28.0609 135.546 29.0709 129.566 30.0209 124.796C30.0209 124.776 30.0209 124.766 30.0309 124.746C30.0809 124.506 30.1209 124.266 30.1709 124.036C31.3309 118.226 32.3609 114.386 33.0709 114.386C33.0809 114.386 33.1009 114.396 33.1109 114.396C33.1109 114.396 33.4309 113.926 33.8509 114.936C34.3609 116.166 34.9909 119.586 35.3409 128.716C35.3709 129.446 35.3909 130.206 35.4109 131.006C35.5109 134.266 35.5709 138.156 35.5909 142.796C35.6009 145.156 35.6009 147.706 35.5809 150.476Z" fill="#993F8D"/>
<path d="M35.5809 150.476C35.5709 152.086 35.5609 153.656 35.5509 155.176C33.7009 154.246 31.3109 153.106 28.8909 152.136C28.6709 152.056 28.4609 151.956 28.2509 151.866C27.3709 151.456 26.5309 150.956 25.7309 150.396C22.2509 147.956 19.6909 144.556 19.4909 144.276C19.4909 144.276 19.4909 144.266 19.4809 144.266C19.4809 144.266 10.1309 141.266 7.82093 137.416C6.52093 135.236 6.95093 132.396 7.57093 130.326V130.316C8.04093 128.716 8.63093 127.596 8.63093 127.596C8.63093 127.596 8.28093 127.416 7.77093 126.766C7.69093 126.676 7.68093 126.536 7.72093 126.416C7.72093 126.416 7.72093 126.416 7.73093 126.406C7.73093 126.396 7.73093 126.386 7.74093 126.376C7.74093 126.356 7.75093 126.326 7.77093 126.306C7.78093 126.276 7.79093 126.246 7.82093 126.216C7.82093 126.196 7.84093 126.166 7.86093 126.146C8.07093 125.846 8.46093 125.506 8.84093 125.236C8.88093 125.206 8.92093 125.176 8.96093 125.136C9.00093 125.106 9.04093 125.076 9.07093 125.046C9.11093 125.016 9.15093 124.986 9.19093 124.966C9.20093 124.956 9.21093 124.946 9.23093 124.936C9.57093 124.716 9.83093 124.566 9.83093 124.566C9.83093 124.566 9.82093 124.556 9.81093 124.506C9.61093 124.016 8.18093 120.376 8.64093 118.586C9.13093 116.676 16.1609 116.276 18.2809 116.016C20.3909 115.766 26.4609 122.856 26.4609 122.856C26.4609 122.856 26.5009 122.876 26.5909 122.936C26.6109 122.956 26.6309 122.966 26.6509 122.966C26.7109 123.006 26.7809 123.036 26.8409 123.076C26.8709 123.096 26.9009 123.106 26.9409 123.126C26.9809 123.136 27.0109 123.156 27.0409 123.186C27.7309 123.566 28.9109 124.216 30.0209 124.796C30.7209 125.156 31.3809 125.496 31.8709 125.726C31.8709 125.736 31.8809 125.736 31.8809 125.736C31.9209 125.746 31.9509 125.766 31.9809 125.776C32.0009 125.786 32.0209 125.796 32.0309 125.816C32.0409 125.826 32.0509 125.826 32.0509 125.826C32.0609 125.826 32.0609 125.826 32.0609 125.826C32.6209 126.076 33.9409 128.286 35.4109 131.006C35.5109 134.266 35.5709 138.156 35.5909 142.796C35.6009 145.156 35.6009 147.706 35.5809 150.476Z" fill="#FF8C9C"/>
<path d="M32.0529 125.822C32.0529 125.822 24.8899 121.956 22.5739 120.986C20.2579 120.016 18.3209 119.014 16.8119 119.924C15.3039 120.834 7.38994 125.74 7.73794 126.475C8.08594 127.21 10.9879 129.696 12.0949 129.679C13.2009 129.662 18.1849 126.932 18.1849 126.932L24.5579 131.399C24.5579 131.399 22.7439 134.799 23.7499 137.674C24.7559 140.549 30.2349 144.156 30.2349 144.156" stroke="#502750" stroke-width="0.5" stroke-miterlimit="10" stroke-linecap="round" stroke-linejoin="round"/>
<path d="M8.67285 125.48C8.98985 125.866 9.38485 126.289 9.88385 126.261C10.1189 126.248 10.3339 126.132 10.5409 126.02C11.3599 125.574 12.1909 125.118 12.8489 124.457C12.9929 124.312 13.1339 124.146 13.1659 123.944C13.1909 123.785 13.1449 123.624 13.0989 123.47C13.0169 123.194 12.9359 122.919 12.8539 122.643" stroke="#502750" stroke-width="0.5" stroke-miterlimit="10" stroke-linecap="round" stroke-linejoin="round"/>
<path d="M12.0959 129.68C12.0959 129.68 16.8329 133.54 18.3429 134.234C19.8529 134.928 23.3699 135.186 23.3699 135.186" stroke="#502750" stroke-width="0.5" stroke-miterlimit="10" stroke-linecap="round" stroke-linejoin="round"/>
<path d="M7.54492 130.293C7.54492 130.293 14.9629 137.422 18.0929 138.533C21.2229 139.644 23.0329 140.275 23.0329 140.275L24.0979 138.409" stroke="#502750" stroke-width="0.5" stroke-miterlimit="10" stroke-linecap="round" stroke-linejoin="round"/>
<path d="M19.4739 144.261C19.4739 144.261 20.6439 145.003 21.0779 144.489C21.5119 143.975 23.0339 140.275 23.0339 140.275" stroke="#502750" stroke-width="0.5" stroke-miterlimit="10" stroke-linecap="round" stroke-linejoin="round"/>
<path d="M16.4448 142.992C16.5398 142.493 16.6368 141.985 16.8708 141.534C17.1048 141.083 17.4998 140.688 17.9958 140.578C18.3988 140.489 18.8188 140.594 19.2128 140.716C20.2798 141.044 21.3078 141.497 22.2698 142.061" stroke="#502750" stroke-width="0.5" stroke-miterlimit="10" stroke-linecap="round" stroke-linejoin="round"/>
<path d="M18.2788 138.424C18.5728 137.643 18.9118 136.81 19.6168 136.364C20.1958 135.997 20.9388 135.961 21.6038 136.127C22.2688 136.293 22.8738 136.639 23.4568 137.001C23.5098 137.034 23.5688 137.077 23.5718 137.139" stroke="#502750" stroke-width="0.5" stroke-miterlimit="10" stroke-linecap="round" stroke-linejoin="round"/>
<path d="M40.8009 64.2961C40.1709 69.4161 37.9609 76.2061 36.6009 81.2061C32.7409 95.3761 29.5509 108.656 26.4009 122.446L23.1509 121.266C25.2209 112.086 27.3709 102.926 29.6109 93.7861C32.0909 83.5961 35.8409 73.7961 38.8909 63.7561C39.2309 62.6461 40.9509 63.1361 40.8009 64.2961Z" fill="#502750"/>
<path d="M25.511 63.544L35.591 65.284L28.46 72.619L37.64 68.099L36.174 78.225L40.944 69.17L45.713 78.225L44.248 68.099L53.428 72.619L46.297 65.284L56.377 63.544L46.297 61.804L53.428 54.469L44.247 58.99L45.713 48.863L40.944 57.918L36.174 48.863L37.64 58.99L28.459 54.469L35.591 61.804L25.511 63.544Z" fill="#FFA861"/>
<path opacity="0.25" d="M41.4539 86.6512C55.5548 86.6512 66.9859 75.2201 66.9859 61.1191C66.9859 47.0182 55.5548 35.5872 41.4539 35.5872C27.3529 35.5872 15.9219 47.0182 15.9219 61.1191C15.9219 75.2201 27.3529 86.6512 41.4539 86.6512Z" fill="#FFA861"/>
</svg>
