<svg width="217" height="233" viewBox="0 0 217 233" fill="none" xmlns="http://www.w3.org/2000/svg">
<path d="M108.438 232.988C105.651 232.988 103.352 231.34 102.582 228.79C102.502 228.524 102.442 228.254 102.401 227.979C102.331 227.569 102.298 227.136 102.298 226.664C102.298 226.453 102.306 226.192 102.319 225.906C102.319 225.906 102.357 225.235 102.378 224.967C102.38 224.934 102.488 223.723 102.489 223.71C102.549 223.079 102.633 222.301 102.732 221.431C102.735 221.407 102.738 221.382 102.74 221.358C102.94 219.615 103.214 217.432 103.561 214.831C100.509 214.692 97.4598 214.424 94.4498 214.03C93.9118 213.961 93.3448 213.88 92.7888 213.799C91.1438 213.568 89.4838 213.287 87.8838 212.97C87.8838 212.97 87.8118 212.954 87.7768 212.947C86.3528 212.683 84.8318 212.354 83.1338 211.941C82.6078 211.824 82.0878 211.693 81.5628 211.559L81.3478 211.505C80.4858 211.288 79.5638 211.033 78.4608 210.708C78.3398 210.68 78.2198 210.648 78.0998 210.613C77.1658 210.334 76.2308 210.045 75.3058 209.748C75.2338 209.725 75.0098 209.647 74.9718 209.634C74.0968 209.362 73.2228 209.06 72.3498 208.748L72.0838 208.654C71.9758 208.62 71.8908 208.591 71.7848 208.55L70.8848 208.215C70.2978 207.997 69.7108 207.779 69.1348 207.552C68.1158 207.152 67.0948 206.732 66.0828 206.302C65.4268 206.03 64.7418 205.724 64.0548 205.407C63.9078 205.346 63.2958 205.077 63.2238 205.044C63.2238 205.044 62.8108 204.851 62.7228 204.806C62.6288 204.767 62.5658 204.739 62.4738 204.695L62.1738 204.548C62.0328 204.488 61.4228 204.222 61.3628 204.194L61.0738 204.056C60.9818 204.015 60.8918 203.973 60.8028 203.928C60.7208 203.894 60.6108 203.844 60.5308 203.805C59.5848 203.353 58.6598 202.902 57.7238 202.429C54.7068 200.909 51.6948 199.22 48.7798 197.415C48.1118 197 47.5498 196.463 47.1138 195.842C46.7808 195.612 46.4498 195.381 46.1198 195.149C45.9868 195.059 45.8538 194.966 45.7198 194.866C42.2278 192.369 38.8398 189.627 35.6478 186.715C34.8108 185.964 34.0408 185.238 33.3288 184.528C30.0928 181.414 26.9498 177.96 23.9878 174.263C23.3598 173.473 22.7548 172.69 22.1518 171.898L21.8598 171.503C21.2038 170.617 20.5458 169.726 19.9198 168.812C18.7088 167.091 17.4448 165.155 16.0928 162.947C15.8858 162.607 15.6808 162.264 15.4878 161.922C14.9518 161.017 14.4248 160.103 13.9198 159.18C13.8488 159.052 13.7788 158.917 13.7078 158.773C13.2558 157.962 12.8268 157.135 12.3978 156.307C11.8028 155.159 11.2838 154.105 10.8168 153.092C10.7538 152.966 10.3788 152.17 10.3788 152.17C6.03378 142.662 3.14279 132.698 1.74979 122.475C1.68979 122.183 1.6568 121.92 1.6348 121.69C1.5318 120.907 1.4368 120.116 1.3508 119.326C1.3458 119.289 1.31778 118.988 1.31778 118.988C1.25678 118.422 1.19778 117.856 1.15378 117.284C1.13978 117.183 1.1298 117.088 1.1218 116.999C1.1008 116.814 1.0888 116.643 1.0838 116.489C0.840801 113.683 0.716797 110.739 0.716797 107.735C0.716797 94.6059 3.08277 81.772 7.74777 69.587C7.77777 69.509 7.80877 69.4319 7.84277 69.3559C7.87877 69.2719 7.90779 69.1919 7.93979 69.1109L8.01779 68.9079C8.94479 66.5279 9.88677 64.345 10.8988 62.239C11.0068 61.998 11.2748 61.42 11.2878 61.392C11.9618 59.996 12.6758 58.5959 13.4118 57.2319C13.5908 56.8869 13.7788 56.553 13.9678 56.22C24.8118 36.537 42.0498 20.387 62.4808 10.799C62.7008 10.69 62.9238 10.589 63.1448 10.489C63.9768 10.098 64.8178 9.72294 65.6588 9.35994C65.8778 9.25494 66.0978 9.15895 66.3178 9.07195C66.3178 9.07195 66.8278 8.85095 66.8858 8.82695C67.0118 8.77495 67.1388 8.72396 67.2658 8.67696C72.9528 6.33296 78.8548 4.47496 84.8138 3.15196C85.0558 3.08896 85.2928 3.03796 85.5278 2.99696C86.4948 2.78196 87.4688 2.58396 88.4428 2.40196C88.6848 2.34596 88.9318 2.30197 89.1848 2.26897C89.6478 2.17897 90.1118 2.09995 90.5748 2.02095L91.1608 1.91995C91.3638 1.88495 91.5748 1.84995 91.7828 1.82295C97.3188 0.966952 102.945 0.532959 108.511 0.532959C128.752 0.532959 148.457 6.14396 165.509 16.76C165.761 16.901 166.006 17.05 166.249 17.211C169.793 19.446 173.221 21.906 176.44 24.527C176.629 24.667 176.81 24.8159 176.985 24.9729C179.292 26.8509 181.548 28.864 183.697 30.961C183.953 31.179 184.16 31.389 184.316 31.56C184.608 31.841 184.899 32.1299 185.19 32.4209C185.378 32.5909 185.534 32.753 185.664 32.896C186.748 33.993 187.786 35.094 188.752 36.169C188.863 36.288 188.969 36.41 189.072 36.531C191.176 38.866 193.245 41.397 195.164 43.989C195.212 44.051 195.386 44.2809 195.433 44.3429C201.229 52.1919 205.917 60.773 209.368 69.853C209.43 70.003 209.491 70.157 209.544 70.306C210.172 71.977 210.787 73.7589 211.372 75.6059C211.39 75.6619 211.472 75.931 211.492 76.002C212.721 79.953 213.724 84.0199 214.473 88.0929C214.529 88.3259 214.572 88.562 214.604 88.802C214.812 89.89 214.979 90.954 215.118 91.879C215.166 92.123 215.195 92.341 215.216 92.53C215.527 94.69 215.776 96.95 215.955 99.25C215.98 99.469 215.996 99.684 216.003 99.898C216.195 102.471 216.293 105.106 216.293 107.735C216.293 113.499 215.832 119.243 214.922 124.812C214.915 124.859 214.909 124.906 214.901 124.952C214.832 125.39 214.763 125.82 214.68 126.256C214.675 126.285 214.671 126.315 214.666 126.343C214.103 129.576 213.375 132.827 212.497 136.028C213.207 139.327 213.753 142.516 214.124 145.535C214.167 145.709 214.201 145.886 214.227 146.066C214.673 149.161 218.243 176.644 206.253 188.332C199.664 194.755 172.124 207.546 156.294 214.597C149.397 217.667 114.689 232.988 108.438 232.988Z" fill="white"/>
<path d="M211.551 107.732C211.551 113.291 211.104 118.745 210.228 124.047C210.228 124.066 210.228 124.066 210.228 124.066C210.161 124.494 210.095 124.913 210.009 125.342C210.009 125.342 210.009 125.351 210.009 125.361C208.324 135.023 205.25 144.199 201.004 152.709C200.499 153.727 199.976 154.736 199.433 155.736C199.433 155.736 199.433 155.736 199.424 155.745C199.338 155.916 199.253 156.078 199.157 156.259C199.014 156.516 198.871 156.773 198.729 157.03C198.72 157.04 198.72 157.04 198.72 157.04C198.377 157.668 198.016 158.268 197.663 158.877C197.016 159.981 196.349 161.066 195.655 162.152C194.998 163.199 194.294 164.227 193.599 165.236C189.801 170.719 185.479 175.802 180.691 180.419C180.548 180.571 180.396 180.714 180.244 180.857C176.122 184.817 171.648 188.434 166.898 191.651C166.746 191.765 166.593 191.87 166.432 191.965C157.322 198.076 147.185 202.759 136.305 205.682H136.295C136.171 205.73 136.057 205.758 135.933 205.787C133.411 206.463 130.84 207.044 128.232 207.519C128.137 207.538 128.032 207.557 127.937 207.576C126.842 207.776 125.738 207.957 124.624 208.119C124.538 208.129 124.453 208.148 124.367 208.148C123.396 208.291 122.425 208.424 121.454 208.529C118.132 208.91 114.772 209.157 111.364 209.205C110.745 209.214 110.117 209.234 109.479 209.234C104.958 209.234 100.522 208.939 96.1617 208.368C95.6387 208.301 95.1047 208.225 94.5817 208.149C93.0297 207.93 91.4977 207.673 89.9647 207.368C89.9357 207.368 89.9167 207.349 89.8787 207.349C88.3747 207.073 86.8797 206.74 85.3957 206.378C84.8337 206.254 84.2817 206.112 83.7207 205.969C82.7787 205.731 81.8357 205.464 80.9027 205.188C80.8357 205.169 80.7697 205.15 80.7027 205.14C79.8077 204.873 78.9127 204.597 78.0277 204.312C77.9327 204.274 77.8277 204.245 77.7227 204.207C76.8947 203.95 76.0667 203.664 75.2387 203.369C75.0767 203.312 74.9247 203.255 74.7727 203.207C73.9157 202.883 73.0407 202.569 72.1937 202.236C71.2227 201.855 70.2517 201.455 69.2907 201.046C68.6247 200.77 67.9677 200.475 67.3107 200.17C67.0727 200.075 66.8347 199.961 66.6067 199.865C66.4827 199.808 66.3787 199.751 66.2637 199.703C66.1497 199.646 66.0257 199.589 65.9117 199.541C65.0737 199.141 64.2557 198.741 63.4277 198.322C60.7437 196.97 58.1157 195.495 55.5647 193.915C53.7847 192.811 52.0337 191.649 50.3297 190.441C50.2437 190.384 50.1587 190.327 50.0727 190.26C46.7127 187.861 43.5047 185.263 40.4677 182.493C39.7247 181.827 39.0017 181.151 38.2977 180.446C35.1277 177.4 32.1767 174.135 29.4167 170.689C28.8267 169.947 28.2457 169.195 27.6657 168.433C26.9707 167.491 26.2667 166.548 25.5997 165.577C24.3147 163.749 23.1057 161.874 21.9347 159.961C21.7537 159.666 21.5727 159.361 21.4017 159.057C20.8877 158.191 20.3837 157.315 19.8977 156.43C19.8497 156.344 19.8027 156.249 19.7547 156.144C19.2977 155.335 18.8697 154.507 18.4407 153.679C17.9077 152.651 17.4037 151.632 16.9177 150.576C16.8697 150.49 16.8317 150.405 16.7937 150.319C16.6987 150.119 16.6037 149.919 16.5087 149.719C12.4817 140.904 9.67371 131.405 8.34171 121.429C8.30371 121.315 8.2937 121.191 8.2847 121.067C8.1797 120.287 8.08469 119.496 7.99869 118.706C7.98869 118.601 7.9797 118.506 7.9697 118.401C7.9027 117.782 7.83671 117.164 7.79871 116.535V116.526C7.78871 116.488 7.78869 116.45 7.77969 116.412C7.76069 116.336 7.76068 116.26 7.76068 116.174C7.51268 113.395 7.39868 110.577 7.39868 107.731C7.39868 95.014 9.7597 82.839 14.0527 71.626C14.1477 71.407 14.2237 71.198 14.3097 70.979C15.1477 68.828 16.0517 66.715 17.0517 64.639C17.1657 64.382 17.2897 64.115 17.4037 63.868C18.0507 62.526 18.7267 61.203 19.4307 59.899C19.5827 59.604 19.7447 59.318 19.9067 59.033C30.2537 40.252 46.3887 25.098 65.9307 15.941C66.1207 15.846 66.3117 15.76 66.5017 15.674C67.3297 15.284 68.1677 14.912 69.0047 14.551C69.1567 14.475 69.3097 14.408 69.4617 14.351C69.6327 14.275 69.8137 14.199 69.9857 14.122C70.0807 14.084 70.1857 14.036 70.2807 14.008C75.6877 11.771 81.3227 9.98101 87.1487 8.69601C87.2817 8.65801 87.4057 8.62899 87.5387 8.60999H87.5487C88.5667 8.38199 89.5947 8.17199 90.6237 7.98199C90.7567 7.94399 90.8997 7.92501 91.0237 7.91501C91.6807 7.78201 92.3377 7.67699 92.9947 7.56299C93.1657 7.53399 93.3567 7.49599 93.5377 7.47699C98.7347 6.66799 104.056 6.23999 109.482 6.23999C129.358 6.23999 147.919 11.894 163.597 21.689C163.778 21.784 163.949 21.889 164.12 22.003C167.537 24.154 170.812 26.506 173.934 29.057C174.02 29.114 174.115 29.19 174.201 29.276C176.514 31.151 178.751 33.15 180.883 35.244C180.978 35.301 181.064 35.396 181.15 35.501C181.521 35.853 181.893 36.224 182.264 36.596C182.35 36.663 182.416 36.739 182.473 36.805C183.52 37.862 184.539 38.937 185.529 40.041C185.605 40.117 185.672 40.203 185.738 40.279C187.804 42.573 189.755 44.962 191.592 47.447C191.668 47.542 191.735 47.637 191.811 47.733C197.265 55.12 201.739 63.268 205.042 71.987C205.08 72.073 205.118 72.168 205.147 72.254C205.775 73.92 206.356 75.614 206.898 77.328C206.927 77.433 206.965 77.537 206.993 77.642C208.173 81.431 209.135 85.324 209.858 89.293V89.302C209.896 89.426 209.915 89.54 209.925 89.664C210.134 90.73 210.306 91.815 210.468 92.9C210.497 93.005 210.506 93.11 210.515 93.214C210.829 95.375 211.067 97.564 211.239 99.773C211.258 99.906 211.268 100.04 211.268 100.173C211.456 102.668 211.551 105.19 211.551 107.732Z" fill="#FFA8DE"/>
<g opacity="0.78">
<path d="M66.5017 15.675C64.7787 17.969 62.6847 20.0541 60.6567 21.9951C54.4507 27.8591 47.9487 33.7221 41.6477 39.3961C34.2227 46.1161 26.7027 52.9031 19.4307 59.9001C19.5827 59.6051 19.7447 59.3191 19.9067 59.0341C26.9797 52.2571 34.2517 45.6881 41.4477 39.1771C47.7487 33.5041 54.2507 27.6401 60.4477 21.7761C62.3417 19.9771 64.2937 18.0451 65.9307 15.9411C66.1207 15.8461 66.3107 15.76 66.5017 15.675Z" fill="#FFECE0"/>
<path d="M87.5378 8.61206C84.6158 13.3711 82.8258 18.854 81.0838 24.175C78.7038 31.476 76.2198 39.0051 70.8608 44.5551C67.5098 48.0201 63.2548 50.447 59.1238 52.817C55.0208 55.159 50.7568 57.5951 47.4438 61.0321C43.3978 65.2201 40.9328 70.6751 38.5528 75.9391C38.0008 77.1761 37.4198 78.4521 36.8298 79.6991C30.0998 93.9111 20.0288 106.581 7.79678 116.528V116.537H7.78677C7.77777 116.499 7.7778 116.461 7.7778 116.413C7.7588 116.337 7.75879 116.261 7.75879 116.175C19.8858 106.266 29.8908 93.6821 36.5628 79.5651C37.1628 78.3371 37.7338 77.0521 38.2948 75.8241C40.6838 70.5221 43.1588 65.0391 47.2328 60.8321C50.5738 57.3671 54.8578 54.9211 58.9888 52.5601C63.0918 50.2091 67.3178 47.7811 70.6498 44.3641C75.9808 38.8431 78.4268 31.3421 80.7968 24.0791C82.5198 18.8251 84.2808 13.4271 87.1458 8.69608C87.2808 8.65908 87.4048 8.63106 87.5378 8.61206Z" fill="#FFECE0"/>
<path d="M174.199 29.2771C174.047 32.7421 173.133 36.1881 171.496 39.2151C169.088 43.6511 165.356 46.6401 160.997 47.6581C155.276 48.9531 149.536 46.9441 144.015 44.9931C141.483 44.0981 138.846 43.1841 136.257 42.5851C124.968 39.9771 112.05 43.4131 101.722 51.7711C93.1739 58.6821 86.1969 68.8481 80.9799 81.9841C79.7519 85.1351 78.5999 88.3901 77.4959 91.5601C74.5449 100.07 71.4699 108.875 65.9779 116.147C58.5149 126.037 47.0449 132.396 36.9169 137.993C30.4349 141.591 23.3909 145.494 17.2219 150.482C17.1739 150.396 17.1359 150.311 17.0889 150.215C23.2759 145.218 30.3109 141.334 36.7929 137.755C46.8739 132.158 58.3149 125.818 65.7499 115.966C71.2139 108.732 74.2789 99.955 77.2389 91.455C78.3239 88.304 79.4569 85.0301 80.7229 81.8891C85.9579 68.6861 92.9449 58.4821 101.531 51.5521C111.945 43.1371 124.948 39.6721 136.323 42.2901C138.931 42.9091 141.558 43.8231 144.109 44.7271C149.592 46.6501 155.284 48.6491 160.929 47.3641C165.203 46.3931 168.868 43.4421 171.238 39.0831C172.885 36.0371 173.799 32.5441 173.932 29.0601C174.018 29.1151 174.113 29.1911 174.199 29.2771Z" fill="#FFECE0"/>
<path d="M185.736 40.281C183.48 45.164 181.519 50.181 179.587 55.112C177.788 59.71 175.932 64.469 173.866 69.019C166.422 85.506 156.856 96.253 145.49 100.974C143.919 101.631 142.273 102.183 140.674 102.716C137.666 103.744 134.544 104.791 131.859 106.533C125.32 110.797 122.169 118.375 119.104 125.723C118.714 126.656 118.333 127.589 117.924 128.502C105.93 156.564 83.3798 180.066 56.0228 193.63C55.9278 193.592 55.8328 193.525 55.7278 193.459C83.0948 179.933 105.664 156.449 117.658 128.378C118.058 127.464 118.448 126.541 118.829 125.608C121.904 118.221 125.092 110.587 131.699 106.294C134.421 104.514 137.544 103.457 140.59 102.439C142.18 101.915 143.817 101.363 145.387 100.707C156.676 96.005 166.167 85.315 173.592 68.895C175.667 64.345 177.523 59.595 179.313 54.997C181.264 50.028 183.244 44.964 185.529 40.043C185.602 40.119 185.669 40.205 185.736 40.281Z" fill="#FFECE0"/>
<path d="M206.991 77.6431C181.347 105.219 161.148 132.824 145.537 161.524C137.189 176.888 132.23 189.024 129.441 200.923C128.965 202.893 128.508 205.149 128.232 207.52V207.549C128.127 207.568 128.032 207.578 127.937 207.587V207.577C128.213 205.159 128.68 202.875 129.155 200.857C131.944 188.939 136.932 176.765 145.28 161.382C160.929 132.616 181.185 104.954 206.896 77.3301C206.925 77.4331 206.963 77.5381 206.991 77.6431Z" fill="#FFECE0"/>
<path d="M180.691 180.418C183.528 172.279 185.955 163.969 188.344 155.755C192.104 142.857 195.969 129.511 201.375 117.137C203.707 111.768 206.801 105.524 211.265 100.174C211.265 100.041 211.256 99.9069 211.236 99.7739C206.648 105.2 203.497 111.558 201.098 117.032C195.691 129.416 191.817 142.762 188.067 155.669C185.64 164.055 183.165 172.546 180.243 180.856L180.691 180.418Z" fill="#FFECE0"/>
</g>
<path d="M209.728 148.931C209.182 150.034 209.121 150.136 208.534 151.218C208.534 151.218 208.534 151.218 208.524 151.228C208.431 151.414 208.339 151.589 208.235 151.785C208.08 152.063 207.926 152.341 207.771 152.62C207.761 152.63 207.761 152.63 207.761 152.63C207.39 153.31 206.998 153.96 206.617 154.619C205.916 155.815 205.195 156.99 204.442 158.165C203.731 159.299 202.968 160.412 202.216 161.504C194.445 172.718 184.622 182.437 173.306 190.105C173.141 190.229 172.976 190.342 172.801 190.445C162.938 197.062 151.961 202.133 140.18 205.297H140.17C140.036 205.348 139.912 205.379 139.778 205.41C135.789 206.482 131.698 207.317 127.534 207.935C127.441 207.945 127.348 207.966 127.256 207.966C126.205 208.121 125.153 208.265 124.102 208.378C120.505 208.79 116.867 209.058 113.177 209.11C112.507 209.12 111.827 209.141 111.136 209.141C106.24 209.141 101.437 208.822 96.7168 208.203C96.1498 208.131 95.5728 208.048 95.0058 207.966C93.3258 207.729 91.6667 207.451 90.0067 207.121C89.9757 207.121 89.9548 207.1 89.9138 207.1C88.2848 206.801 86.6668 206.44 85.0598 206.049C84.4518 205.915 83.8538 205.76 83.2458 205.606C82.2258 205.348 81.2048 205.06 80.1948 204.761C80.1228 204.74 80.0508 204.72 79.9788 204.709C79.0098 204.42 78.0408 204.122 77.0828 203.812C76.9798 203.771 76.8667 203.74 76.7527 203.699C75.8557 203.421 74.9597 203.112 74.0627 202.792C73.8877 202.73 73.7228 202.668 73.5578 202.617C72.6308 202.267 71.6818 201.927 70.7648 201.566C69.7138 201.154 68.6618 200.721 67.6218 200.278C66.9008 199.979 66.1888 199.66 65.4778 199.33C65.2198 199.227 64.9628 199.103 64.7148 199C64.5808 198.938 64.4677 198.876 64.3438 198.825C64.2198 198.763 64.0858 198.701 63.9628 198.65C63.0558 198.217 62.1698 197.784 61.2728 197.331C58.3658 195.867 55.5218 194.27 52.7598 192.559L60.0778 117.145L91.6577 60.035L138.76 54.511L154.024 70.435C154.024 70.435 159.621 72.538 168.897 77.928C185.378 87.524 193.767 94.244 202.188 117.671C206.555 129.822 208.958 140.304 209.728 148.931Z" fill="#7282FF"/>
<path d="M88.0297 43.9998C89.0977 39.1178 91.4117 34.4388 95.0287 30.9898C100.183 26.0758 107.552 24.0418 114.672 23.9658C121.191 23.8968 128.216 25.6278 132.343 30.6748C136.199 35.3898 136.738 41.9298 136.842 48.0198C136.982 56.2578 136.418 65.1238 131.327 71.6018C127.315 76.7068 120.945 79.5658 114.513 80.4568C109.455 81.1568 104.159 80.7208 99.5107 78.6078C95.2767 76.6838 90.9757 72.9318 89.4687 68.3938C88.9427 66.8108 88.9157 65.1058 88.6817 63.4668C88.2627 60.5358 87.5927 57.6769 87.3767 54.7129C87.1137 51.1339 87.2617 47.5108 88.0297 43.9998Z" fill="#993F8D"/>
<path d="M135.521 41.1729C135.521 42.6159 135.346 44.0069 135.047 45.3579C134.532 51.5939 133.398 61.4569 131.306 65.1259C128.152 70.6499 97.4476 67.6719 96.1286 63.2809C94.8196 58.9009 96.7466 39.6889 96.7466 39.6889H96.8186C97.0656 36.3909 98.1486 33.3089 99.8586 30.6809C103.302 25.3319 109.3 21.7959 116.133 21.7959C126.594 21.7959 135.128 30.0829 135.51 40.4509C135.521 40.6889 135.521 40.9359 135.521 41.1729Z" fill="#FF8C9C"/>
<path d="M95.8458 52.0549C97.8538 52.3759 99.8788 52.6059 101.877 52.2309C103.753 53.0019 105.432 53.6409 107.443 53.9029C109.455 54.1649 111.549 54.0229 113.425 53.2509C116.531 55.0079 120.338 54.9019 123.89 54.5559C126.039 54.3469 128.241 53.9949 130.091 52.8809C132.28 51.5629 133.732 49.3349 135.106 47.1819C135.604 49.5119 137.351 55.5999 137.709 57.4069C138.431 61.0429 138.406 64.8119 139.329 68.4029C141.228 75.7909 143.518 83.0729 146.051 90.2669C148.897 98.3469 151.991 106.338 155.145 114.302C156.722 118.285 158.317 122.26 159.904 126.241C162.784 133.463 165.001 138.938 155.981 142.057C139.479 147.763 122.259 151.054 104.87 152.454C93.6208 153.358 82.1058 153.464 71.1548 150.647C71.0528 150.621 70.9508 150.594 70.8478 150.567C54.9068 146.378 47.6778 127.869 56.1698 113.743C66.0898 97.2429 77.1238 81.3309 87.4468 65.1259C90.0948 60.9669 93.1478 56.5939 95.8458 52.0549Z" fill="#502750"/>
<path d="M135.51 40.4519C135.283 40.7299 135.026 40.9879 134.727 41.2039C133.707 41.9559 132.253 42.1929 131.151 41.5649C130.141 40.9979 129.615 39.8539 129.224 38.7619C127.967 35.1549 127.647 31.2179 128.317 27.4449C127.668 29.2489 126.596 30.9909 124.957 31.9799C123.318 32.9689 121.03 33.0309 119.587 31.7739C118.515 30.8459 118.072 29.4029 117.68 28.0529C117.443 29.6819 117.144 31.3309 116.453 32.8349C115.762 34.3399 114.629 35.6999 113.114 36.3599C111.599 37.0089 109.672 36.8339 108.486 35.6799C107.115 34.3509 107.053 32.2169 107.074 30.3099C106.548 31.3199 106.012 32.3509 105.188 33.1339C104.364 33.9279 103.188 34.4329 102.086 34.1539C100.705 33.8239 99.8287 32.3399 99.8387 30.9179C99.8387 30.8349 99.8387 30.7629 99.8597 30.6809C103.303 25.3319 109.301 21.7959 116.134 21.7959C126.595 21.7969 135.129 30.0829 135.51 40.4519Z" fill="#502750"/>
<path d="M106.484 48.986C104.812 49.59 103.102 50.332 101.977 51.708C100.852 53.084 100.526 55.267 101.701 56.6C102.449 57.448 103.614 57.783 104.727 57.986C106.97 58.395 109.281 58.429 111.535 58.087C112.034 58.011 112.547 57.91 112.96 57.62C114.044 56.856 113.941 55.236 113.649 53.942C112.968 50.924 111.818 47.905 109.846 45.484C109.447 44.994 107.267 42.352 106.577 43.142C106.254 43.511 106.655 45.425 106.655 45.963C106.655 46.973 106.598 47.982 106.484 48.986Z" fill="#FF8C9C"/>
<path d="M98.9867 38.5189C98.6877 38.6729 98.4148 38.8689 98.1948 39.1219C97.5548 39.8589 97.4187 41.0669 97.5217 42.0049C97.5697 42.4449 97.7288 42.8859 98.0448 43.1949C98.4138 43.5549 98.9438 43.6919 99.4538 43.7639C100.64 43.9309 101.846 43.8209 103.036 43.6839C103.748 43.6019 104.464 43.5079 105.15 43.3019C105.433 43.2169 105.72 43.1069 105.934 42.9019C106.295 42.5579 106.381 42.0219 106.447 41.5269C106.534 40.8719 106.616 40.1729 106.334 39.5759C106.066 39.0079 105.505 38.6259 104.916 38.4039C103.327 37.8059 101.509 37.7079 99.8777 38.1759C99.5737 38.2639 99.2697 38.3729 98.9867 38.5189Z" fill="#502750"/>
<path d="M116.092 38.5189C115.793 38.6729 115.52 38.8689 115.3 39.1219C114.66 39.8589 114.524 41.0669 114.627 42.0049C114.675 42.4449 114.834 42.8859 115.15 43.1949C115.519 43.5549 116.049 43.6919 116.559 43.7639C117.745 43.9309 118.951 43.8209 120.141 43.6839C120.853 43.6019 121.568 43.5079 122.255 43.3019C122.538 43.2169 122.825 43.1069 123.039 42.9019C123.4 42.5579 123.486 42.0219 123.552 41.5269C123.64 40.8719 123.721 40.1729 123.439 39.5759C123.171 39.0079 122.61 38.6259 122.021 38.4039C120.432 37.8059 118.614 37.7079 116.983 38.1759C116.679 38.2639 116.374 38.3729 116.092 38.5189Z" fill="#502750"/>
<path d="M106.006 44.073C105.993 45.727 105.841 47.379 105.554 49.008C105.514 49.234 105.47 49.465 105.352 49.662C105.241 49.848 105.073 49.991 104.901 50.122C104.223 50.636 103.442 50.997 102.723 51.454C102.004 51.91 101.322 52.495 100.999 53.282" stroke="#502750" stroke-width="0.5153" stroke-miterlimit="10" stroke-linecap="round" stroke-linejoin="round"/>
<path d="M109.058 58.4549C109.132 57.6849 109.396 56.9329 109.822 56.2869C110.032 55.9689 110.293 55.6649 110.644 55.5159C111.258 55.2549 111.994 55.5469 112.447 56.0359C112.9 56.5249 113.132 57.1729 113.354 57.8019" stroke="#502750" stroke-width="0.5153" stroke-miterlimit="10" stroke-linecap="round" stroke-linejoin="round"/>
<path d="M101.843 49.1598C102.854 49.1598 103.674 48.3401 103.674 47.3288C103.674 46.3176 102.854 45.4978 101.843 45.4978C100.831 45.4978 100.012 46.3176 100.012 47.3288C100.012 48.3401 100.831 49.1598 101.843 49.1598Z" fill="#502750"/>
<path d="M119.069 47.1538C119.069 48.1898 118.23 49.0288 117.194 49.0288C116.159 49.0288 115.319 48.1898 115.319 47.1538C115.319 46.1188 116.158 45.2788 117.194 45.2788C118.229 45.2788 119.069 46.1178 119.069 47.1538Z" fill="#502750"/>
<path d="M89.2888 62.6689C89.2888 62.6689 80.4728 28.9859 112.446 24.7749C112.446 24.7749 124.946 23.4589 129.946 33.0639C132.874 38.6899 134.74 46.3219 136.13 51.7479C137.113 55.5859 138.108 58.3479 137.972 58.3929C137.645 58.4999 154.024 70.4319 154.024 70.4319C154.024 70.4319 152.182 67.4059 157.05 61.3529C161.918 55.3009 175.602 42.5379 166.655 32.6699C157.708 22.8019 143.761 13.3279 132.182 12.8019C120.603 12.2759 104.156 13.7229 93.4988 24.6439C85.1438 33.2049 78.7628 46.7479 89.2888 62.6689Z" fill="#7282FF"/>
<path d="M18.8838 118.357C18.8838 118.357 26.8048 103.446 50.3368 108.339C73.8678 113.232 84.3528 125.347 84.3528 125.347C84.3528 125.347 92.2748 108.572 121.863 103.447C151.452 98.3209 157.509 107.408 157.509 107.408L158.441 112.534L84.5848 132.571L18.8838 118.357Z" fill="#FFECE0"/>
<path d="M17.4087 117.813L83.8867 126.977L161.858 109.115L168.537 181.184L92.1187 190.193L41.1727 176.991L17.4087 117.813Z" fill="#993F8D"/>
<path d="M83.8867 126.977L92.1187 190.193" stroke="#FFA861" stroke-width="0.9125" stroke-miterlimit="10"/>
<path d="M138.58 157.26C140.501 162.798 142.737 168.228 145.273 173.513C140.879 168.73 136.109 165.946 131.101 161.202C128.133 167.285 126.051 171.837 123.083 177.919C122.807 171.955 122.678 165.826 122.794 159.856C116.76 159.63 110.898 159.06 104.897 158.384C111.076 156.633 117.442 154.415 123.485 152.241C124.14 145.217 124.796 138.193 125.451 131.17C128.191 137.807 130.733 142.967 133.473 149.604C138.931 149.019 144.882 149.172 150.305 148.318C149.59 149.082 148.67 149.616 147.787 150.177C144.686 152.147 141.357 154.853 138.58 157.26Z" fill="#FFA861"/>
<path d="M203.236 184.241C192.97 194.249 109.816 229.766 109.022 227.138L109.012 227.066C108.991 226.973 108.981 226.829 108.981 226.664C108.981 219.82 119.813 151.61 119.813 151.61L187.971 151.352L209.543 146.879C209.543 146.879 213.491 174.244 203.236 184.241Z" fill="#7282FF"/>
<path d="M124.235 178.871C123.019 185.096 120.968 192.424 118.752 199.464C114.217 213.904 109.022 227.138 109.022 227.138L109.012 227.066L108.981 226.664C108.981 224.139 110.455 213.286 112.31 200.578C113.712 190.982 115.34 180.336 116.721 171.42C118.463 160.113 119.813 151.61 119.813 151.61C119.813 151.61 124.286 152.929 125.337 167.926C125.533 170.719 125.09 174.522 124.235 178.871Z" fill="#502750"/>
<path d="M124.235 178.871C123.019 185.096 120.968 192.424 118.752 199.464C116.783 199.814 114.516 200.206 112.31 200.577C108.682 201.185 105.25 201.721 103.632 201.876C101.2 202.103 94.2528 201.196 88.6148 200.227C88.4498 200.196 88.2748 200.165 88.1098 200.134C85.6778 199.712 83.5239 199.289 82.1529 198.949C81.9779 198.908 81.8228 198.867 81.6788 198.825C81.1118 198.681 80.7308 198.547 80.6068 198.454C79.7208 197.784 80.5039 194.249 80.7819 193.136C80.8339 192.92 80.8639 192.796 80.8639 192.796C80.8639 192.796 80.2248 192.528 79.2968 192.126C79.1418 192.064 78.9778 191.992 78.8018 191.92C78.6158 191.838 78.4208 191.755 78.2248 191.662C78.1528 191.631 78.0698 191.6 77.9978 191.569C76.9468 191.105 75.7918 190.6 74.8438 190.157C74.8338 190.157 74.8228 190.157 74.8128 190.147C74.6268 190.065 74.4628 189.992 74.2978 189.91C74.1328 189.828 73.9678 189.755 73.8238 189.683C73.4318 189.498 73.1338 189.343 72.9688 189.24C72.0518 188.673 73.9578 184.561 74.4428 183.551C74.5148 183.407 74.5558 183.324 74.5558 183.324C74.5558 183.324 74.4728 183.272 74.3388 183.18C73.7828 182.799 72.2469 181.727 71.1439 180.851C71.0199 180.748 70.9068 180.655 70.7928 180.573C70.4838 180.305 70.2258 180.078 70.0818 179.903C69.3808 179.089 73.3078 175.296 74.2358 174.42C74.3488 174.307 74.4218 174.245 74.4218 174.245C74.4218 174.245 74.3598 174.183 74.2468 174.059C74.0198 173.822 73.6078 173.389 73.2058 172.894C73.0928 172.76 72.9788 172.626 72.8758 172.482C72.7108 172.276 72.5668 172.07 72.4428 171.874C71.7938 170.823 74.4218 168.06 76.1328 167.143C76.2568 167.081 76.3908 167.05 76.5658 167.04C78.8638 166.957 85.7288 171.894 92.7058 173.853C100.209 175.955 106.125 175.43 106.393 173.853C106.661 172.276 103.239 160.691 102.178 158.063C101.127 155.435 105.208 153.322 106.919 153.198C107.094 153.188 107.321 153.342 107.589 153.641C107.692 153.754 107.795 153.899 107.919 154.053C108.702 155.135 109.764 157.155 110.908 159.495C110.98 159.649 111.052 159.804 111.135 159.959C113.062 163.948 115.206 168.72 116.721 171.42C117.03 171.976 117.319 172.451 117.576 172.801C119.184 175.048 122.153 177.387 124.235 178.871Z" fill="#FF8C9C"/>
<path d="M111.135 159.959C110.599 160.175 110.022 160.289 109.434 160.289C108.805 160.289 108.177 160.155 107.61 159.887C106.198 159.217 105.188 157.733 105.106 156.166C105.096 155.96 105.096 155.692 105.199 155.434C105.354 155.053 105.673 154.805 105.962 154.61C106.488 154.249 107.024 153.919 107.591 153.641C107.694 153.754 107.797 153.899 107.921 154.053C107.344 154.342 106.787 154.661 106.262 155.032C106.035 155.187 105.778 155.382 105.685 155.63C105.613 155.785 105.623 155.991 105.623 156.145C105.695 157.516 106.582 158.835 107.829 159.422C108.788 159.875 109.932 159.875 110.911 159.494C110.98 159.649 111.052 159.804 111.135 159.959Z" fill="#502750"/>
<path d="M77.7048 176.674C77.6108 176.674 77.5178 176.627 77.4718 176.543C77.3558 176.335 77.4638 176.257 77.8658 175.97C78.3428 175.63 79.4578 174.834 79.7268 174.43C80.0138 173.999 80.0218 173.35 79.7468 172.814C79.4968 172.324 78.9958 171.976 78.5038 171.661C77.8908 171.269 77.2588 170.893 76.6248 170.542C76.3958 170.415 76.1788 170.301 75.9738 170.337C75.8408 170.358 75.7058 170.448 75.5788 170.538C74.6558 171.19 73.8538 171.987 73.1948 172.908C73.1118 173.024 72.9488 173.051 72.8358 172.967C72.7198 172.884 72.6938 172.724 72.7768 172.608C73.4678 171.641 74.3108 170.802 75.2808 170.117C75.4488 169.997 75.6488 169.866 75.8908 169.827C76.2478 169.774 76.5728 169.926 76.8738 170.091C77.5168 170.447 78.1588 170.829 78.7808 171.226C79.3328 171.579 79.8968 171.975 80.2048 172.58C80.5668 173.287 80.5468 174.125 80.1548 174.716C79.8338 175.198 78.7478 175.973 78.1648 176.39C78.0548 176.469 77.9688 176.53 77.9168 176.568C77.8908 176.604 77.8538 176.634 77.8078 176.653C77.7768 176.667 77.7398 176.674 77.7048 176.674Z" fill="#502750"/>
<path d="M99.0249 182.923C99.0209 182.923 99.0169 182.923 99.0129 182.923C89.9159 182.49 81.7329 179.279 78.7129 177.357C78.2419 177.057 77.7779 176.772 77.3279 176.494C74.9929 175.057 72.9759 173.815 72.2099 171.975C71.2589 169.692 76.1409 166.696 76.3489 166.569C76.4719 166.499 76.6289 166.534 76.7029 166.656C76.7759 166.778 76.7379 166.936 76.6159 167.01C75.3019 167.808 72.0359 170.22 72.6849 171.778C73.3879 173.463 75.3389 174.665 77.5989 176.056C78.0509 176.335 78.5169 176.622 78.9889 176.923C81.9659 178.817 90.0409 181.981 99.0379 182.409C99.1799 182.416 99.2899 182.537 99.2839 182.679C99.2759 182.815 99.1619 182.923 99.0249 182.923Z" fill="#502750"/>
<path d="M97.6438 189.83C97.6338 189.83 97.6228 189.829 97.6118 189.828C97.4898 189.813 85.3378 188.282 79.2568 185.798C74.4368 183.829 71.3688 181.953 69.8758 180.062C68.7888 178.684 73.3338 174.809 74.2558 174.046C74.3668 173.954 74.5288 173.97 74.6178 174.08C74.7078 174.19 74.6928 174.352 74.5838 174.442C72.1148 176.485 69.7678 179.092 70.2798 179.741C71.7148 181.561 74.7158 183.386 79.4508 185.32C85.4668 187.779 97.5528 189.301 97.6748 189.316C97.8158 189.333 97.9158 189.462 97.8978 189.604C97.8838 189.735 97.7728 189.83 97.6438 189.83Z" fill="#502750"/>
<path d="M97.4468 195.884C97.4428 195.884 97.4398 195.884 97.4358 195.884C97.3438 195.88 88.2678 195.47 83.3578 193.965C78.0028 192.323 74.0558 190.628 72.7968 189.433C71.3708 188.077 74.0268 183.685 74.3338 183.189C74.4108 183.068 74.5678 183.031 74.6888 183.106C74.8098 183.182 74.8468 183.34 74.7718 183.461C73.6948 185.198 72.3038 188.255 73.1508 189.059C74.3558 190.203 78.2278 191.853 83.5088 193.473C88.3548 194.96 97.3678 195.366 97.4578 195.37C97.5998 195.376 97.7108 195.497 97.7048 195.639C97.6988 195.776 97.5838 195.884 97.4468 195.884Z" fill="#502750"/>
<path d="M75.7387 183.963C75.6807 183.963 75.6217 183.957 75.5617 183.945C75.4227 183.916 75.3337 183.779 75.3617 183.64C75.3897 183.501 75.5197 183.415 75.6667 183.44C75.8867 183.486 76.1467 183.297 76.3907 183.086C76.8687 182.669 77.3627 182.238 77.6977 181.709C78.0527 181.146 78.1667 180.536 78.0097 180.036C77.8727 179.6 77.5307 179.234 77.2207 178.925C76.4857 178.193 75.6907 177.428 74.7537 176.795C73.2947 177.803 72.0937 179.162 71.2747 180.736C71.2107 180.863 71.0547 180.912 70.9277 180.846C70.8007 180.781 70.7527 180.625 70.8177 180.499C71.7027 178.798 73.0127 177.336 74.6087 176.272C74.6937 176.214 74.8047 176.215 74.8927 176.27C75.9337 176.948 76.7927 177.774 77.5857 178.562C77.9387 178.914 78.3297 179.335 78.5017 179.882C78.7047 180.527 78.5707 181.294 78.1337 181.986C77.7597 182.578 77.2357 183.034 76.7297 183.476C76.5247 183.651 76.1667 183.963 75.7387 183.963Z" fill="#502750"/>
<path d="M78.9599 192.397C78.9009 192.397 78.8409 192.377 78.7929 192.336C78.6839 192.243 78.672 192.08 78.764 191.973C79.313 191.33 79.437 190.662 79.459 189.792C79.481 188.922 79.1669 188.075 78.5969 187.466C78.2409 187.084 77.7779 186.791 77.3309 186.529C77.0579 186.37 76.7839 186.275 76.4949 186.176C76.3269 186.118 76.1569 186.059 75.9849 185.988C75.1459 187.166 74.5619 188.533 74.2929 189.955C74.2659 190.094 74.1279 190.187 73.9909 190.16C73.8509 190.133 73.759 189.998 73.786 189.858C74.083 188.293 74.7419 186.791 75.6929 185.514C75.7659 185.414 75.896 185.381 76.01 185.436C76.232 185.541 76.4489 185.615 76.6629 185.69C76.9639 185.794 77.2749 185.9 77.5909 186.086C78.0719 186.367 78.5719 186.686 78.9739 187.116C79.6349 187.824 79.9999 188.804 79.9739 189.806C79.9499 190.762 79.8009 191.553 79.1559 192.309C79.1049 192.367 79.0329 192.397 78.9599 192.397Z" fill="#502750"/>
<path d="M88.3677 200.418C88.2347 200.418 88.1217 200.314 88.1137 200.18C87.9977 198.435 87.5897 197.331 86.8297 196.706C86.5917 196.511 86.2957 196.347 85.8947 196.19C85.0797 195.873 84.1937 195.718 83.3197 195.753C83.2327 195.756 83.1367 195.763 83.0907 195.799C83.0397 195.84 82.9967 195.96 82.9697 196.039C82.6497 196.953 82.3847 197.907 82.1827 198.872C82.1547 199.009 82.0267 199.092 81.8807 199.069C81.7427 199.04 81.6557 198.905 81.6837 198.767C81.8907 197.78 82.1617 196.805 82.4887 195.87C82.5357 195.735 82.6077 195.534 82.7737 195.4C82.9557 195.256 83.1807 195.248 83.3007 195.243C84.2377 195.206 85.1987 195.372 86.0797 195.715C86.5317 195.893 86.8727 196.082 87.1527 196.313C88.3037 197.258 88.5427 198.953 88.6217 200.146C88.6317 200.287 88.5247 200.408 88.3847 200.417C88.3787 200.418 88.3727 200.418 88.3677 200.418Z" fill="#502750"/>
<path d="M119.813 151.61L177.093 151.087L174.462 123.544" stroke="#502750" stroke-width="0.5153" stroke-miterlimit="10" stroke-linecap="round" stroke-linejoin="round"/>
<path d="M177.093 151.087L189.023 150.956" stroke="#502750" stroke-width="0.5153" stroke-miterlimit="10" stroke-linecap="round" stroke-linejoin="round"/>
<path d="M57.8307 94.338C57.7017 94.318 57.7078 94.1299 57.8378 94.1189C59.6008 93.9679 63.0257 93.55 63.4097 92.558C63.8167 91.507 64.5688 87.452 64.8758 85.747C64.8988 85.621 65.0797 85.6269 65.0947 85.7539C65.3107 87.6549 65.9198 92.4539 66.6128 92.9039C67.2718 93.3319 70.3607 93.7849 71.7997 93.9769C71.9247 93.9939 71.9287 94.173 71.8047 94.195C70.6527 94.401 69.4997 94.646 68.3837 95.001C67.8207 95.18 67.1977 95.397 66.7197 95.782C66.1627 96.23 66.0437 96.763 65.8927 97.424C65.5537 98.917 65.3247 100.438 65.0987 101.951C65.0797 102.079 64.8947 102.075 64.8797 101.947C64.6867 100.276 64.1347 96.795 62.8037 95.781C61.8477 95.055 59.2797 94.566 57.8307 94.338Z" fill="#FFECE0"/>
<path d="M79.3517 113.247C79.2677 113.234 79.2717 113.112 79.3567 113.104C80.5037 113.006 82.7307 112.734 82.9807 112.089C83.2457 111.405 83.7347 108.769 83.9337 107.66C83.9487 107.578 84.0667 107.582 84.0757 107.665C84.2167 108.901 84.6127 112.022 85.0627 112.315C85.4907 112.593 87.4997 112.888 88.4367 113.013C88.5177 113.024 88.5207 113.141 88.4397 113.155C87.6907 113.289 86.9407 113.448 86.2147 113.679C85.8487 113.796 85.4437 113.937 85.1327 114.187C84.7707 114.478 84.6927 114.825 84.5947 115.255C84.3737 116.226 84.2247 117.215 84.0787 118.199C84.0667 118.282 83.9457 118.28 83.9357 118.196C83.8107 117.109 83.4507 114.845 82.5857 114.186C81.9647 113.712 80.2947 113.395 79.3517 113.247Z" fill="#FFECE0"/>
<path d="M94.3848 92.027C94.2978 92.013 94.3028 91.887 94.3898 91.879C95.5758 91.777 97.8788 91.496 98.1368 90.83C98.4108 90.123 98.9168 87.396 99.1228 86.249C99.1378 86.165 99.2608 86.168 99.2698 86.254C99.4148 87.533 99.8248 90.76 100.291 91.063C100.734 91.351 102.812 91.656 103.78 91.785C103.864 91.796 103.867 91.917 103.783 91.932C103.008 92.071 102.233 92.235 101.482 92.474C101.103 92.595 100.684 92.741 100.362 92.999C99.9868 93.3 99.9068 93.659 99.8058 94.104C99.5778 95.108 99.4238 96.131 99.2718 97.149C99.2588 97.235 99.1348 97.232 99.1248 97.146C98.9948 96.022 98.6238 93.681 97.7288 92.999C97.0868 92.509 95.3588 92.18 94.3848 92.027Z" fill="#FFECE0"/>
<path d="M61.0687 57.034C60.9847 57.021 60.9887 56.898 61.0737 56.891C62.2267 56.792 64.4667 56.519 64.7177 55.87C64.9837 55.182 65.4757 52.53 65.6767 51.415C65.6917 51.333 65.8107 51.337 65.8197 51.419C65.9607 52.663 66.3597 55.801 66.8127 56.096C67.2437 56.376 69.2637 56.672 70.2057 56.798C70.2877 56.809 70.2907 56.926 70.2087 56.941C69.4557 57.076 68.7007 57.236 67.9707 57.468C67.6027 57.585 67.1947 57.727 66.8817 57.979C66.5177 58.272 66.4397 58.62 66.3407 59.053C66.1187 60.029 65.9687 61.024 65.8217 62.014C65.8097 62.098 65.6877 62.095 65.6787 62.011C65.5527 60.918 65.1917 58.641 64.3207 57.978C63.6967 57.503 62.0167 57.183 61.0687 57.034Z" fill="#FFECE0"/>
<path d="M110.912 60.44C110.85 60.43 110.853 60.3409 110.916 60.3349C111.758 60.2629 113.393 60.0629 113.577 59.5899C113.771 59.0879 114.131 57.152 114.277 56.338C114.288 56.278 114.375 56.281 114.381 56.341C114.484 57.249 114.775 59.54 115.106 59.755C115.421 59.959 116.896 60.176 117.583 60.268C117.643 60.276 117.645 60.362 117.585 60.372C117.035 60.47 116.484 60.5869 115.951 60.7569C115.682 60.8429 115.385 60.946 115.156 61.13C114.89 61.344 114.833 61.598 114.761 61.914C114.599 62.627 114.49 63.3529 114.382 64.0759C114.373 64.1369 114.284 64.135 114.277 64.074C114.185 63.276 113.921 61.614 113.286 61.13C112.831 60.782 111.604 60.548 110.912 60.44Z" fill="#FFECE0"/>
<path d="M75.0867 75.9529L81.9737 77.1419L77.1017 82.1529L83.3737 79.0649L82.3727 85.9829L85.6317 79.7969L88.8897 85.9829L87.8887 79.0649L94.1607 82.1529L89.2887 77.1419L96.1757 75.9529L89.2887 74.7639L94.1607 69.7529L87.8887 72.8409L88.8897 65.9219L85.6317 72.1089L82.3727 65.9219L83.3737 72.8409L77.1017 69.7529L81.9737 74.7639L75.0867 75.9529Z" fill="#FFA861"/>
<path d="M34.5527 91.4841L38.8497 92.2261L35.8107 95.3521L39.7237 93.425L39.0987 97.7421L41.1317 93.882L43.1647 97.7421L42.5407 93.425L46.4537 95.3521L43.4137 92.2261L47.7107 91.4841L43.4137 90.7421L46.4537 87.6151L42.5397 89.5421L43.1647 85.2261L41.1317 89.0861L39.0987 85.2261L39.7237 89.5421L35.8097 87.6151L38.8497 90.7421L34.5527 91.4841Z" fill="#FFA861"/>
<path d="M116.556 87.836L121 88.603L117.856 91.837L121.903 89.844L121.257 94.308L123.36 90.316L125.462 94.308L124.816 89.844L128.864 91.836L125.72 88.603L130.164 87.836L125.72 87.069L128.863 83.835L124.816 85.828L125.462 81.364L123.36 85.356L121.257 81.364L121.903 85.828L117.856 83.835L121 87.069L116.556 87.836Z" fill="#FFA861"/>
<path d="M86.1308 98.9831C86.1308 100 85.3058 100.825 84.2888 100.825C83.2718 100.825 82.4468 100 82.4468 98.9831C82.4468 97.9661 83.2718 97.1411 84.2888 97.1411C85.3058 97.1411 86.1308 97.9661 86.1308 98.9831Z" fill="#FFA861"/>
<path d="M109.935 74.4509C109.935 75.5029 109.082 76.3559 108.03 76.3559C106.978 76.3559 106.125 75.5029 106.125 74.4509C106.125 73.3989 106.978 72.5459 108.03 72.5459C109.082 72.5459 109.935 73.3989 109.935 74.4509Z" fill="#FFA861"/>
<path d="M64.2887 74.51C64.2887 75.527 63.4637 76.352 62.4467 76.352C61.4297 76.352 60.6047 75.527 60.6047 74.51C60.6047 73.493 61.4297 72.668 62.4467 72.668C63.4647 72.668 64.2887 73.493 64.2887 74.51Z" fill="#FFECE0"/>
<path d="M90.2038 57.1701C90.2038 58.2221 89.3508 59.0751 88.2988 59.0751C87.2468 59.0751 86.3938 58.2221 86.3938 57.1701C86.3938 56.1181 87.2468 55.2651 88.2988 55.2651C89.3508 55.2651 90.2038 56.1181 90.2038 57.1701Z" fill="#FFECE0"/>
<path d="M126.808 65.198C126.808 66.25 125.955 67.103 124.903 67.103C123.851 67.103 122.998 66.25 122.998 65.198C122.998 64.146 123.851 63.293 124.903 63.293C125.956 63.293 126.808 64.146 126.808 65.198Z" fill="#FFECE0"/>
</svg>
