<svg width="473" height="1040" viewBox="0 0 473 1040" fill="none" xmlns="http://www.w3.org/2000/svg">
<path d="M468.83 801.47C455.34 872.67 405.76 932.3 337.17 962.72C176.26 1037.91 -4.46038 937.53 0.269622 759.53C0.529622 749.94 1.02962 740.88 1.76962 732.3C13.7696 591.58 86.7197 579.28 115.43 470.82C117.51 462.95 119.35 454.59 120.93 445.64C145.41 306.48 77.7696 104.76 76.8696 102.1C76.8596 102.07 35.2795 110.29 33.1895 106.89C31.6995 106.66 24.6197 104.92 23.9297 104.37C18.4797 100.01 13.9197 84.0397 17.5497 73.2697C17.6397 71.7297 17.9196 70.4497 18.4496 69.5797C18.6596 69.2297 19.2196 68.8295 20.0996 68.3795C20.4596 67.9095 20.8396 67.4597 21.2596 67.0397C30.5896 57.6997 190.18 30.3097 197.09 35.3297C206.44 42.1097 205.97 76.7896 197.71 79.4996C194.7 80.4896 158.47 86.6197 153.75 87.2997C154.39 104.1 163.45 306.01 232.44 423.49C248.63 451.07 265.43 470.63 282.51 486.25C341.36 540.13 403.46 547.3 455.15 675.45C472.72 719.01 476.32 762.02 468.83 801.47Z" fill="#28AACE"/>
<path d="M283.433 1023.93C329.903 1015.55 365.905 999.5 363.846 988.086C361.788 976.672 322.448 974.215 275.978 982.596C229.509 990.978 193.507 1007.02 195.565 1018.44C197.624 1029.85 236.964 1032.31 283.433 1023.93Z" fill="#3ED9F2"/>
<path d="M358.746 937.287L363.861 988.187L195.576 1018.54L182.233 967.09L358.746 937.287Z" fill="#3ED9F2"/>
<path d="M37.5274 74.603C37.5274 74.603 24.2645 29.2371 29.4595 24.2351C34.6545 19.2341 75.3325 8.00005 111.868 2.25905C122.779 0.545047 163.123 -0.887964 167.947 3.32204C172.771 7.53304 178.692 57.2711 174.933 58.9651C171.174 60.6591 45.2074 83.379 37.5274 74.603Z" fill="#932121"/>
<path d="M277 941C192.43 966.19 139.02 942.67 105.31 902.24C45.32 830.32 47.63 704.89 47.63 704.89L317.19 568.38C317.19 568.38 325.98 579.85 338.05 598.87C387.02 676.06 489.85 877.6 277 941Z" fill="#EA801F"/>
<path d="M206.21 663.37C203.53 664.77 200.81 666.17 198.07 667.56C123.64 705.26 56.2801 721.97 47.6301 704.89C41.4401 692.66 67.0101 666.43 109.36 638.68C126.16 627.67 145.6 616.42 166.75 605.71C241.19 568.01 308.54 551.3 317.19 568.38C325.52 584.83 276.36 626.63 206.21 663.37Z" fill="#FF933B"/>
<path d="M146 821.333C173.246 821.333 195.333 799.246 195.333 772C195.333 744.754 173.246 722.667 146 722.667C118.754 722.667 96.667 744.754 96.667 772C96.667 799.246 118.754 821.333 146 821.333Z" fill="#FF933B"/>
<path d="M264.027 818.5C266.735 807.034 259.635 795.544 248.168 792.837C236.702 790.129 225.212 797.23 222.505 808.696C219.797 820.162 226.898 831.652 238.364 834.359C249.83 837.067 261.32 829.967 264.027 818.5Z" fill="#FF933B"/>
<path d="M332.667 898.667C348.131 898.667 360.667 886.131 360.667 870.667C360.667 855.203 348.131 842.667 332.667 842.667C317.203 842.667 304.667 855.203 304.667 870.667C304.667 886.131 317.203 898.667 332.667 898.667Z" fill="#FF933B"/>
<path d="M136.667 874.667C145.504 874.667 152.667 867.504 152.667 858.667C152.667 849.83 145.504 842.667 136.667 842.667C127.83 842.667 120.667 849.83 120.667 858.667C120.667 867.504 127.83 874.667 136.667 874.667Z" fill="#FF933B"/>
<path d="M304.667 657.333C313.504 657.333 320.667 650.17 320.667 641.333C320.667 632.496 313.504 625.333 304.667 625.333C295.83 625.333 288.667 632.496 288.667 641.333C288.667 650.17 295.83 657.333 304.667 657.333Z" fill="#FF933B"/>
<path d="M79.7772 638.801C68.4852 610.008 35.9912 595.82 7.19824 607.112C35.9912 595.82 50.1793 563.326 38.8883 534.533C50.1803 563.326 82.6743 577.514 111.467 566.222C82.6743 577.513 68.4862 610.008 79.7772 638.801Z" fill="#FFFEF5"/>
<path opacity="0.51" d="M277 941C192.43 966.19 139.02 942.67 105.31 902.24C141.86 909 223.649 912.03 292.669 828C364.629 740.39 348.49 638.92 338.05 598.87C387.02 676.06 489.85 877.6 277 941Z" fill="#EA801F"/>
<path d="M206.209 663.37C232.279 641.28 286.699 593.52 284.669 581.33C282.699 569.52 168.839 614.38 109.359 638.68C126.159 627.67 145.599 616.42 166.749 605.71C241.189 568.01 308.539 551.3 317.189 568.38C325.519 584.83 276.359 626.63 206.209 663.37Z" fill="#FFC89F"/>
<path d="M308.667 553.333C274 554.666 380.667 688 403.334 672C426 656 343.333 552 308.667 553.333Z" fill="white"/>
<path d="M120.929 445.64C145.409 306.48 77.7691 104.76 76.8691 102.1C77.7991 104 128.719 209.31 133.999 352C135.899 403.33 127.299 442.12 115.429 470.8C117.509 462.95 119.349 454.59 120.929 445.64Z" fill="white"/>
<path d="M282.51 486.25C262.49 484.09 199.42 470.81 179.33 389.33C155.33 292 153.75 87.2998 153.75 87.2998C154.39 104.1 163.45 306.01 232.44 423.49C248.63 451.07 265.43 470.63 282.51 486.25Z" fill="#DAF1F7"/>
<path d="M38 22.6671C44.667 21.3341 146 2.66715 154 6.66715C162 10.6671 171.333 46.6671 152.667 54.6671C134 62.6671 54 72.0001 47.334 65.3341C40.667 58.6671 40.667 32.0011 40.667 32.0011L108.667 22.6681L38 22.6671Z" fill="#721919"/>
<path opacity="0.5" d="M27.9995 91.9996C27.9995 91.9996 21.9995 67.9996 27.9995 65.9996C33.9995 63.9996 185.999 33.9996 191.999 41.9996C197.999 49.9996 197.999 67.9996 191.999 71.9996C185.999 75.9996 137.999 81.9996 137.999 81.9996C137.999 81.9996 153.999 378 255.999 474C357.999 570 423.999 584 449.999 702C475.999 820 345.999 936 345.999 936C345.999 936 351.999 980 343.999 986C335.999 992 251.999 1014 251.999 1014L325.999 976C325.999 976 221.999 1002 213.999 1002C205.999 1002 201.999 978 201.999 978C201.999 978 79.9995 958 33.9995 822C2.37445 728.5 55.8274 615.148 92.3244 553.435C128.092 492.952 145.828 423.404 142.291 353.225C142.204 351.495 142.107 349.753 141.999 348C135.999 250 89.9995 87.9996 89.9995 87.9996L27.9995 91.9996Z" fill="#80E1FF"/>
<path opacity="0.6" d="M468.83 801.47C455.34 872.67 405.76 932.3 337.17 962.72C176.26 1037.91 -4.46038 937.53 0.269622 759.53C0.529622 749.94 1.02962 740.88 1.76962 732.3C58.1596 696.67 147.97 665.13 260 712C456 794 382 912 382 912C382 912 441.09 867.35 468.83 801.47Z" fill="#42B3DB"/>
</svg>
