<svg width="898" height="1086" viewBox="0 0 898 1086" fill="none" xmlns="http://www.w3.org/2000/svg">
<path d="M159.33 929.67C121.12 938.8 86.5397 977.43 62.6697 1004.62C48.2197 1021.07 37.6997 1033.34 32.6697 1032.33C19.3297 1029.67 -3.33029 1024.33 0.669714 965.67C3.02971 931.09 15.58 895.12 25.49 871.41C32.39 854.88 37.9998 844.33 37.9998 844.33C37.9998 844.33 220.67 915 159.33 929.67Z" fill="#5932A5"/>
<path d="M505.999 991C343.059 1002.24 176.539 973.63 81.7591 902.67C79.0991 900.68 76.4895 898.66 73.9495 896.6C59.6295 885.02 47.1392 872.38 36.7992 858.67C31.5392 851.69 26.8293 844.44 22.7093 836.91C5.52931 805.48 -1.33065 769.21 4.99935 728C22.5194 613.87 88.2392 522.72 142.089 465.02C183.559 420.6 217.999 396 217.999 396C217.999 396 150.999 396 139.999 390C128.999 384 127.999 363 127.999 363H795.999C795.999 363 794.999 385 783.999 390C772.999 395 712.999 397 712.999 397C712.999 397 883.999 571 896.999 737C910.289 906.72 766.999 973 505.999 991Z" fill="#6743BF"/>
<path d="M506 991C299.66 1005.23 87.58 955.56 22.71 836.91C90.01 918.02 203.82 986.78 386 921.67C736.67 796.33 542 496.33 542 496.33C542 496.33 555.33 500.33 590 525.67C624.67 551 640.67 584.33 640.67 584.33C640.67 584.33 644.67 533.67 606 481.67C567.33 429.67 483.33 411 472.67 409.67C462 408.33 330 397.67 330 397.67C330 397.67 467.33 399 475.33 395C483.33 391 410 365.67 410 365.67L422.47 363H796C796 363 795 385 784 390C773 395 713 397 713 397C713 397 884 571 897 737C910.29 906.72 767 973 506 991Z" fill="#542DA0"/>
<path d="M796 363C796 367.64 769.63 371.91 725.39 375.3C705.14 376.85 681.15 378.22 654.23 379.36C613.1 381.09 565.13 382.29 513.22 382.76C497.81 382.91 482.04 382.99 466.01 382.99C464.68 383 463.34 383 462 383C396.72 383 335.82 381.88 284.37 379.94C247.81 378.56 216.02 376.77 190.83 374.68C151.29 371.39 128 367.36 128 363C128 359.4 143.92 356.02 171.77 353.09C191.22 351.05 216.51 349.24 246.26 347.73C304.46 344.78 379.76 343 462 343C476.86 343 491.49 343.06 505.83 343.17C523.67 343.31 541.07 343.53 557.91 343.84C604.71 344.68 647.19 346.11 682.89 348C707.46 349.3 728.83 350.8 746.16 352.48C777.76 355.54 796 359.14 796 363Z" fill="#7F2626"/>
<path opacity="0.51" d="M746.161 352.48C741.031 361.3 733.831 368.85 725.391 375.3C705.141 376.85 681.151 378.22 654.231 379.36C599.871 381.65 533.561 383 462.001 383C396.721 383 335.821 381.88 284.371 379.94C247.811 378.56 216.021 376.77 190.831 374.68C182.841 369.95 174.201 362.78 171.771 353.09C171.081 350.37 170.881 347.45 171.331 344.33C175.331 316.33 200.67 313.67 200.67 313.67C200.67 313.67 179.841 264.29 227.331 192.33C271.331 125.67 310 157.67 312.67 175C315.33 192.33 308.67 211 308.67 211L348.67 147C348.67 147 292.671 153.67 314.001 99C335.331 44.33 444.671 -28.9999 518.001 12.3301C591.331 53.6701 572.67 117.67 572.67 117.67C572.67 117.67 610.001 105.67 642.001 136.33C674.001 167 663.331 212.33 663.331 212.33C663.331 212.33 743.331 223 754.001 312.33C755.871 328.02 752.691 341.28 746.161 352.48Z" fill="#EADCF4"/>
<path opacity="0.51" d="M248.357 91.6191C233.464 92.7121 220.741 102.472 214.734 116.143C210.515 125.746 209.134 137.439 219.333 147C240.666 167 275.333 115 266 99.0002C262.267 92.6002 255.333 91.1071 248.357 91.6191Z" fill="#EADCF4"/>
<path d="M770 125.67C770 125.67 746 156.33 742 157.67C738 159 714 180.33 711.33 185.67C708.67 191 659.33 247 659.33 247C659.33 247 659.33 249.67 654 257.67C653.67 258.16 652.73 259.17 651.25 260.64C647.83 264.02 641.54 269.82 633.33 277.22C614.5 294.22 585.55 319.68 557.91 343.84C541.82 357.89 526.18 371.51 513.22 382.76C504.95 382.84 496.57 382.9 488.11 382.94C480.81 382.97 473.44 382.99 466.01 382.99L505.83 343.17C544.72 304.28 591.67 257.33 594 255C597.94 251.06 591.52 270.43 591.34 270.99C591.91 270.67 610.04 260.23 612.67 253.67C615.33 247 619.33 228.33 623.33 224.33C627.33 220.33 626 160.33 630 152.33C631.23 149.87 636.13 140.96 642.51 129.73C645.62 124.26 649.09 118.24 652.65 112.14C665.53 90.1097 679.72 67.1098 683.33 65.6698C684.62 65.1498 687.4 63.8399 691.01 62.0999C706.05 54.8699 735.38 40.2898 730 45.6698C723.33 52.3298 694 65.6698 688.67 73.6698C683.33 81.6698 646 149.67 646 157.67C646 165.67 642 216.33 639.33 223C636.72 229.53 634.11 239.9 634.01 240.32C634.89 239.33 691.38 176.3 698 172.33C704.67 168.33 736.67 112.33 740.67 112.33C744.67 112.33 743.33 129.67 743.33 129.67L727.33 156.33L738.11 146.15L751.33 133.67L770 125.67Z" fill="#932121"/>
<path d="M608.667 40.3329C608.667 40.3329 606 69.6659 610 77.6659C614 85.6659 643.333 130.999 643.333 130.999L656.666 116.332C656.666 116.332 616.666 74.9989 616.666 69.6649C616.666 64.3319 612.666 13.6649 611.333 20.3319C610 26.9999 608.667 40.3329 608.667 40.3329Z" fill="#932121"/>
<path d="M683.332 65.6669C683.332 65.6669 677.999 22.9999 681.999 24.3339C685.999 25.6669 691.332 64.3339 691.332 64.3339L683.332 65.6669Z" fill="#932121"/>
<path d="M620.667 276.333C620.667 276.333 695.334 281.666 704.667 281.666C714 281.666 778 269.666 783.334 265.666C788.667 261.666 840.667 208.333 834.001 212.333C827.335 216.333 782.001 252.333 775.334 255C768.667 257.667 710.001 269.667 706.001 269.667C702.001 269.667 642 259 642 259L620.667 276.333Z" fill="#932121"/>
<path d="M819.333 283L783.333 265.667L788.666 252.334C788.666 252.334 819.333 277.667 819.333 283Z" fill="#932121"/>
<path d="M867.331 971C864.671 1037.67 840.671 1084.33 827.331 1085.67C814.001 1087 800.67 1083 780.67 1039C775.86 1028.41 768.571 1016.35 760.271 1004.14C734.131 965.64 698.001 925.67 698.001 925.67C691.331 911 695.33 891 724.67 855C737.8 838.88 757.611 829.18 776.811 823.85C800.491 817.29 823.231 817.39 831.331 820.33C846.001 825.67 870.001 904.33 867.331 971Z" fill="#542DA0"/>
<path d="M812.681 900.35C813.191 901.78 840.321 977.88 803.331 1000.33C786.791 1010.38 771.811 1008.9 760.271 1004.14C734.131 965.64 698.001 925.67 698.001 925.67C691.331 911 695.33 891 724.67 855C737.8 838.88 757.611 829.18 776.811 823.85C782.521 825.37 787.88 827.28 792.67 829.67C827.33 847 830.001 923 830.001 923L812.681 900.35Z" fill="#6743BF"/>
<path d="M62.6697 1004.62C48.2197 1021.07 37.6997 1033.34 32.6697 1032.33C19.3297 1029.67 -3.33029 1024.33 0.669714 965.67C3.02971 931.09 15.58 895.12 25.49 871.41C23.39 878.82 15.5097 908.74 16.6697 937.67C17.9597 969.96 22.9999 987.23 23.3099 988.28L9.99979 960.33C9.99979 960.33 7.32987 1008.33 31.3299 1011C40.6099 1012.03 52.0797 1008.88 62.6697 1004.62Z" fill="#7D4DDB"/>
<path d="M282 975C282 975 311.333 1027 324.667 1031C338 1035 367.334 1000.33 374 987C380.666 973.667 282 975 282 975Z" fill="#512793"/>
<path d="M188 727L276 645L264 627L188 727Z" fill="#542DA0"/>
<path d="M176.667 743C176.667 743 262 815 272 817C282 819 354 732.333 354 732.333L268 793L176.667 743Z" fill="#542DA0"/>
<path d="M179.333 725.667L188.666 720.334L264.666 637.667L340.666 728.334L270 787C270 787 187.333 737.667 182 740.333C176.667 743 176.667 743 176.667 743C176.667 743 262 803 268.667 803C275.334 803 354 732.333 354 732.333C354 732.333 268.667 616.333 262 619C255.333 621.667 176.667 713.667 175.333 719C174 724.333 179.333 725.667 179.333 725.667Z" fill="#3ED9F2"/>
<path d="M91.4994 911.84C87.2694 908.38 81.1995 903.23 73.9495 896.6C63.3695 886.92 50.2892 874.07 36.7992 858.67C31.5392 851.69 26.8293 844.44 22.7093 836.91C5.52931 805.48 -1.33065 769.21 4.99935 728C22.5194 613.87 88.2392 522.72 142.089 465.02C119.059 496.42 90.2894 538.93 75.9994 573C49.9994 635 45.9994 663 45.9994 663C45.9994 663 83.9994 613 77.9994 689C71.9994 765 35.9994 787 29.9994 765C23.9994 743 23.9994 743 23.9994 743C23.9994 743 11.9994 771 35.9994 831C49.9294 865.82 68.5691 889.19 81.7591 902.67C85.5291 906.52 88.8594 909.57 91.4994 911.84Z" fill="#8861E5"/>
<path d="M91.6895 912C95.1995 914.87 97.3996 916.55 97.8896 916.92C97.3796 916.57 95.1295 914.95 91.6895 912Z" fill="#8861E5"/>
<path d="M136 371C136 371 242 379 338 381C434 383 534 381 534 381C534 381 422 399 306 395C190 391 136 371 136 371Z" fill="#9B7FEF"/>
<path d="M243.333 412.333C243.333 412.333 238 429.666 218 415C198 400.334 215.333 369.667 211.333 361.667C207.333 353.667 187.333 359 186 379C184.667 399 194 441.667 218 444.333C242 447 243.333 412.333 243.333 412.333Z" fill="#421B7F"/>
<path d="M686 372.333C686 372.333 703.333 365.666 707.333 373.666C711.333 381.666 706 440.333 674 440.333C642 440.333 634 405.666 640.667 407C647.334 408.333 651.334 427 675.334 420.333C699.333 413.667 686 372.333 686 372.333Z" fill="#421B7F"/>
<path d="M683.331 596.33C380.671 639 215.331 419 218.001 415C220.671 411 239.331 419 239.331 419C239.331 419 298.001 513.67 463.331 556.33C465.621 556.92 467.911 557.49 470.201 558.04C633.361 597.6 799.181 547.59 788.671 495C778.001 441.67 675.331 420.33 675.331 420.33C675.331 420.33 675.331 407 688.671 401.67C698.521 397.73 746.201 418.53 770.451 429.66C785.871 436.75 799.69 447.01 810.55 460.06C838.47 493.57 879.181 568.73 683.331 596.33Z" fill="#1EBDE2"/>
<path d="M800 531L792 517C792 517 784 583 618 583C558.88 583 509.41 572.09 470.2 558.04C633.36 597.6 799.18 547.59 788.67 495C778 441.67 675.33 420.33 675.33 420.33C675.33 420.33 736 411 774 447C812 483 800 531 800 531Z" fill="#17A2CC"/>
<path d="M770 125.67C770 125.67 746 156.33 742 157.67C738 159 714 180.33 711.33 185.67C708.67 191 659.33 247 659.33 247C659.33 247 659.33 249.67 654 257.67C653.67 258.16 652.73 259.17 651.25 260.64C647.83 264.02 641.54 269.82 633.33 277.22C614.5 294.22 585.55 319.68 557.91 343.84C541.82 357.89 526.18 371.51 513.22 382.76C504.95 382.84 496.569 382.9 488.109 382.94L736 149L738.109 146.15L751.33 133.67L770 125.67Z" fill="#721A1A"/>
<path opacity="0.36" d="M654.231 379.36C599.871 381.65 533.561 383 462.001 383C396.721 383 335.821 381.88 284.371 379.94C271.241 374.15 255.31 364.16 246.26 347.73C241.02 338.23 235.208 326.016 239.331 312.33C256.001 257 322.001 291 322.001 291C322.001 291 332.108 106.281 458.001 112.33C576.001 118 564.671 229.67 564.671 229.67C564.671 229.67 591.001 203 616.001 225C644.538 250.113 618.001 285.67 618.001 285.67C618.001 285.67 671.29 275.605 684.671 317.67C694.001 347 670.001 376 654.231 379.36Z" fill="#EADCF4"/>
<path d="M272 389C272 389 208 385 244 401C280 417 360 406.34 330 397.67C300 389 272 389 272 389Z" fill="#9B7FEF"/>
<path d="M733.333 845.667C733.333 845.667 712.666 863.667 698.666 889.667C684.666 915.667 698.666 929 700.666 932.334C702.666 935.667 724.666 957.001 724.666 957.001C724.666 957.001 707.999 939.668 703.333 921.668C698.666 903.668 732 865.001 732 865.001C732 865.001 722 872.334 718 871.668C714 871 733.333 845.667 733.333 845.667Z" fill="#9B7FEF"/>
</svg>
