<svg width="998" height="899" viewBox="0 0 998 899" fill="none" xmlns="http://www.w3.org/2000/svg">
<path d="M525.331 752C478.311 763.84 437.451 762.05 406.521 753.69C374.731 745.09 353.421 729.54 346.671 714.67C333.331 685.33 362.671 656 362.671 656H576.001C576.001 656 630.341 725.56 525.331 752Z" fill="#5932A5"/>
<path d="M525.331 752C478.311 763.84 437.451 762.05 406.521 753.69C426.751 753.71 451.52 750.08 472 736C514.67 706.67 442.67 677.33 442.67 677.33L557.09 656H576C576 656 630.341 725.56 525.331 752Z" fill="#471E87"/>
<path d="M384 744C384 744 346 722 310 736C274 750 262 814 262 814C262 814 286 840 258 854C230 868 168 870 162 848C160.7 843.23 163.82 839.02 169.51 835.35C184.39 825.77 216.86 819.91 233.58 817.41C239.92 816.46 244 816 244 816L244.09 815.18C244.83 808.87 250.97 767.19 286 734C297.58 723.03 310.63 718.37 323.2 717.2C351.89 714.53 378 730 378 730L384 744Z" fill="#5932A5"/>
<path d="M555.707 730C555.707 730 609.707 698 647.707 734C685.707 770 689.707 816 689.707 816C689.707 816 777.707 826 771.707 848C765.707 870 703.707 868 675.707 854C647.707 840 671.707 814 671.707 814C671.707 814 659.707 750 623.707 736C587.707 722 549.707 744 549.707 744L555.707 730Z" fill="#471E87"/>
<path d="M454 752C454 752 456 842 456 850C456 858 416 872 422 886C428 900 496 902 510 892C524 882 480 858 480 858C480 858 466 782.667 464 762.667C462 742.667 454 752 454 752Z" fill="#471E87"/>
<path d="M246.65 837.34C245.78 837.97 212.92 861.22 182.67 853.33C170.15 850.07 167.85 842.8 169.51 835.35C184.39 825.77 216.861 819.91 233.581 817.41C258.441 825.46 224.001 844 224.001 844L246.65 837.34Z" fill="#7752D1"/>
<path d="M323.2 717.2C311.66 720.77 292.6 728.78 278.67 745.33C257.33 770.67 244 816 244 816L244.09 815.18C244.83 808.87 250.97 767.19 286 734C297.58 723.03 310.63 718.37 323.2 717.2Z" fill="#5D38A5"/>
<path d="M454.667 865.333C454.667 865.333 421.334 878.666 436 886.666C450.666 894.666 501.333 894.666 498.667 883.999C496 873.332 469.334 866.666 469.334 866.666C469.334 866.666 489.334 877.333 476.001 879.999C462.668 882.665 441.333 868 454.667 865.333Z" fill="#5932A5"/>
<path d="M456.001 850L454.668 762.667C454.668 762.667 464.001 826.667 456.001 850Z" fill="#4A2289"/>
<path d="M802.67 346.67C802.67 372.89 799.76 398.43 794.24 422.99C790 441.89 784.2 460.21 777.01 477.8C769.87 495.25 761.36 511.99 751.59 527.88C690.61 627.14 581.04 693.33 456 693.33C399.91 693.33 346.94 680.01 300.06 656.35C244.98 628.58 198.33 586.53 164.95 535.08C157.95 524.29 151.54 513.09 145.75 501.52C122.44 454.91 109.33 402.33 109.33 346.67C109.33 287.62 124.09 232.02 150.13 183.36C193.83 101.69 269.28 39.56 359.99 13.47C390.48 4.69997 422.69 0 456 0C542.4 0 621.41 31.6 682.11 83.89C726.69 122.28 761.39 171.82 781.88 228.18C795.33 265.15 802.67 305.05 802.67 346.67Z" fill="#3ED9F2"/>
<path d="M788 134C788 113.013 770.987 96 750 96C770.987 96 788 78.987 788 58C788 78.987 805.013 96 826 96C805.013 96 788 113.013 788 134Z" fill="#FFFEF5"/>
<path opacity="0.54" d="M466.668 677.333C643.399 677.333 786.668 534.064 786.668 357.333C786.668 180.602 643.399 37.333 466.668 37.333C289.937 37.333 146.668 180.602 146.668 357.333C146.668 534.064 289.937 677.333 466.668 677.333Z" fill="#3ED9F2"/>
<path d="M802.671 346.67C802.671 393.07 793.55 437.35 777.01 477.8C769.87 495.25 761.361 511.99 751.591 527.88L621.331 522.67L634.671 365.33C634.671 365.33 594.671 317.33 618.671 277.33C642.371 237.83 689.471 250.34 690.651 250.66C689.331 249.38 632.091 193.94 640.001 130.67C643.431 103.28 661.991 90.0501 682.111 83.8901C755.931 147.46 802.671 241.61 802.671 346.67Z" fill="#77A6E8"/>
<path opacity="0.43" d="M520 357.33L421.33 490.67L164.95 535.08C157.95 524.29 151.54 513.09 145.75 501.52C122.44 454.91 109.33 402.33 109.33 346.67C109.33 287.62 124.09 232.02 150.13 183.36C167.36 179.6 187.93 178.54 210.67 184C277.33 200 293.33 304 293.33 304C293.33 304 309.33 277.33 330.67 285.33C352 293.33 352 328 352 328C352 328 392 282.67 445.33 293.33C498.67 304 520 357.33 520 357.33Z" fill="#8CB1F4"/>
<path opacity="0.72" d="M250.668 184C250.668 184 266.668 130.667 296.001 109.333C325.334 88 458.668 77.333 530.668 90.666C602.668 103.999 712.001 290.666 714.668 317.333C717.335 344 738.668 538.666 512.001 570.666C285.334 602.666 229.334 423.999 224.001 370.666C218.668 317.333 312.001 226.666 333.334 218.666C354.667 210.666 533.334 221.333 552.001 229.333C570.668 237.333 629.334 365.333 624.001 389.333C618.668 413.333 522.668 496 458.668 493.333C394.668 490.666 301.335 373.333 301.335 349.333C301.335 325.333 362.668 269.333 392.002 266.666C421.335 263.999 496.002 304.003 498.669 325.333C501.336 346.663 466.669 410.666 461.336 402.666C456.001 394.667 456.001 328 456.001 328C456.001 328 410.668 293.333 400.001 301.333C389.334 309.333 357.334 344 362.668 357.333C368.001 370.666 450.668 450.666 474.668 448C498.668 445.334 562.668 378.667 565.335 368C568.002 357.333 514.668 269.333 493.335 258.667C472.002 248 373.335 250.667 346.668 264C320.001 277.333 258.668 354.667 266.668 384C274.668 413.333 384.001 522.667 429.335 533.333C474.668 544 618.675 493.326 640.005 474.663C661.335 456 696.001 344 674.668 304C653.334 264 544.001 136 504.001 128C464.001 120 362.668 117.333 346.668 122.667C330.668 128 250.668 184 250.668 184Z" fill="#5C27A0"/>
<path opacity="0.49" d="M777.01 477.8C725.3 604.24 601.06 693.33 456 693.33C320.2 693.33 202.63 615.25 145.75 501.52C150.68 469.77 165.55 428.07 208 405.33C282.67 365.33 341.33 424 341.33 424C341.33 424 344 394.67 373.33 392C402.67 389.33 410.67 400 410.67 400C410.67 400 482.67 277.33 605.33 322.67C728 368 658.67 485.33 658.67 485.33C658.67 485.33 701.33 437.33 749.33 445.33C765.52 448.03 773.52 461.34 777.01 477.8Z" fill="#AEC7FF"/>
<path d="M184.001 290.667C176.001 248 141.334 250.667 136.001 338.667C130.668 426.667 208.001 565.334 234.668 568C261.335 570.667 237.565 515.588 232.001 493.333C213.334 418.667 192.001 333.333 184.001 290.667Z" fill="white"/>
<path opacity="0.84" d="M794.241 422.99C790.001 441.89 784.201 460.21 777.011 477.8C769.871 495.25 761.361 511.99 751.591 527.88C690.611 627.14 581.041 693.33 456.001 693.33C399.911 693.33 346.941 680.01 300.061 656.35C265.041 592.47 210.691 444.52 373.331 330.67C586.671 181.33 725.331 432 725.331 432C725.331 432 720.001 368 682.671 309.33C645.331 250.67 552.001 229.33 552.001 229.33C552.001 229.33 682.668 213.333 746.668 309.333C771.557 346.673 787.421 379.96 794.241 422.99Z" fill="#3AC7D6"/>
<path d="M269.334 602.667C269.334 602.667 304.001 642.667 336.001 645.334C368.001 648.001 336.001 605.334 314.668 600.001C293.335 594.668 269.335 578.668 258.668 584.001C248.001 589.333 269.334 602.667 269.334 602.667Z" fill="white"/>
<path opacity="0.49" d="M82.6677 344C82.6677 344 26.6677 389.333 32.0007 429.333C37.3337 469.333 72.0007 472 72.0007 472C72.0007 472 32.0007 429.333 64.0007 442.667C96.0007 456 146.668 549.334 117.334 549.334C88.0007 549.334 74.6667 536.001 74.6667 536.001C74.6667 536.001 95.9997 594.668 154.667 600.001C213.334 605.334 277.334 570.668 277.334 570.668C277.334 570.668 320.001 658.668 538.667 626.668C757.334 594.668 800 506.668 800 506.668C800 506.668 765.333 533.335 736 525.335C706.667 517.335 813.333 378.668 850.667 373.335C888 368.002 864 437.335 864 437.335C864 437.335 920 378.668 904 314.668C888 250.668 834.668 208 834.668 208C834.668 208 877.335 189.333 930.668 245.333C984.001 301.333 952.001 330.666 952.001 330.666C952.001 330.666 1069.33 429.333 925.334 567.999C781.334 706.665 474.667 666.666 445.334 661.332C416.001 655.999 314.667 711.999 117.334 634.665C-79.9993 557.333 18.6677 365.333 82.6677 344Z" fill="#EADCF4"/>
<path d="M781.88 228.18C753.25 171.77 697.66 98.82 592 53.33C500.82 14.08 419.87 8.49997 359.99 13.47C390.48 4.69997 422.69 0 456 0C542.4 0 621.41 31.6 682.11 83.89C726.69 122.28 761.39 171.82 781.88 228.18Z" fill="#96E9ED"/>
</svg>
