<svg width="679" height="932" viewBox="0 0 679 932" fill="none" xmlns="http://www.w3.org/2000/svg">
<path d="M678.67 888.33C678.67 891 675.33 909.67 653.33 920.33C631.33 931 611.33 934.33 607.33 929.67C603.33 925 458.67 581.67 458 579C457.33 576.33 461.78 566.33 461.78 566.33C461.78 566.33 322.43 258.59 293.3 191.87C289.9 184.08 288 179.57 288 179.22C288 175.89 293.33 168.56 293.33 168.56C293.33 168.56 283.33 171.89 280 169.89C276.82 167.98 221.48 34.26 216.38 14.97C216.13 14.04 216 13.37 216 13C216 4.99998 220 0.999979 220 0.999979C222.67 -1.67002 228.67 4.32998 233.33 13.67C238 23 343.21 232.36 348.89 242.78C356.79 257.26 405.46 346.78 406.64 348.96C406.36 348.55 403.88 345.04 402 345.67C400 346.33 406.67 377 412 380.33C417.33 383.67 418.67 380.33 418.67 380.33L506.67 545C506.67 545 514.67 546.33 517.33 546.33C520 546.33 678.67 885.67 678.67 888.33Z" fill="#EE86F7"/>
<path d="M508 563L472 578C472 578 315 223 306 201C300.32 187.11 295.83 188.77 293.3 191.87C289.9 184.08 288 179.57 288 179.22C288 175.89 293.33 168.56 293.33 168.56C293.33 168.56 283.33 171.89 280 169.89C276.82 167.98 221.48 34.2599 216.38 14.9699C217.64 12.0199 219.46 9.57987 222 9.99987C228 10.9999 395 345 395 345C395 345 390 355 400 375C410 395 419 391 419 391L508 563Z" fill="#8F279B"/>
<path d="M678.67 888.33C678.67 891 675.33 909.67 653.33 920.33C631.33 931 611.33 934.33 607.33 929.67C603.33 925 458.67 581.67 458 579C457.33 576.33 461.78 566.33 461.78 566.33C461.78 566.33 478 564 490 557C502 550 506.67 545 506.67 545C506.67 545 514.67 546.33 517.33 546.33C519.86 546.33 662.96 852.08 677.48 885.41C678.26 887.2 678.67 888.19 678.67 888.33Z" fill="#C656CC"/>
<path d="M517.33 546.33C517.33 546.33 553 553 569 599C585 645 525 738 524 760C523 782 542 809 553 809C564 809 631 815 639 815C647 815 636 796 636 796C636 796 654 815 656 820C658 825 556 822 546 819C536 816 511 778 515 762C519 746 565 626 564 612C563 598 549 559.33 517.33 546.33Z" fill="#8F279B"/>
<path d="M555.111 584.111C555.111 584.111 544.444 567.222 539.555 564.556C534.666 561.889 527.555 565.445 527.555 565.445L517.329 546.331C517.329 546.331 536.888 550.779 549.332 570.779C561.778 590.778 555.111 584.111 555.111 584.111Z" fill="#8F279B"/>
<path d="M678.67 888.33C678.67 891 675.33 909.67 653.33 920.33C631.33 931 611.33 934.33 607.33 929.67C603.33 925 458.67 581.67 458 579C457.33 576.33 461.78 566.33 461.78 566.33C461.78 566.33 463.11 576.11 464.44 577.44C465.78 578.78 482.22 573.44 495.11 567.67C505.99 562.79 512.75 554.43 514.59 551.94C512.38 555.01 503.09 567.14 491.11 572.56C477.33 578.78 471.56 581 469.33 581.89C467.11 582.78 613.78 916.56 614.67 918.33C615.56 920.11 640.001 917 648.891 913C657.781 909 673.78 890.33 673.78 887.67C673.78 885.08 662.1 858.73 661.37 857.08L677.48 885.41C678.26 887.2 678.67 888.19 678.67 888.33Z" fill="#8F279B"/>
<path d="M484.444 593C484.444 593 531.111 708.556 535.111 716.111C539.111 723.667 555.111 763.667 556.444 768.556C557.777 773.445 572.888 802.334 572.888 802.334C572.888 802.334 550.221 740.556 547.999 734.778C545.777 729 527.555 691.667 524.888 683.667C522.221 675.667 508.443 626.778 501.777 618.778C495.11 610.778 494.666 609 491.11 601.445C487.555 593.89 481.332 584.112 481.332 584.112L484.444 593Z" fill="#8F279B"/>
<path d="M565.778 770.778C565.778 770.778 592 844.556 593.778 849C595.556 853.444 610.223 869.889 612.89 876.556C615.557 883.223 626.667 907.667 626.667 907.667C626.667 907.667 612.889 867.222 609.778 864.556C606.667 861.889 596.89 847.667 596.89 845.445C596.89 843.223 588.445 809.445 585.334 803.667C582.222 797.889 565.778 770.778 565.778 770.778Z" fill="#8F279B"/>
<path d="M510.223 557.889C510.223 557.889 532.001 598.333 543.112 622.333C545.489 627.466 557.334 649.889 559.557 655.222C561.779 660.555 569.779 683.666 569.779 683.666C569.779 683.666 553.779 645.444 549.779 640.555C545.779 635.666 535.557 620.999 533.779 615.222C532.001 609.444 536.446 613.444 536.446 613.444C536.446 613.444 529.335 599.222 526.224 593C523.113 586.778 510.223 557.889 510.223 557.889Z" fill="#8F279B"/>
<path d="M627.111 789L654.667 846.778C654.667 846.778 644 808.556 627.111 789Z" fill="#8F279B"/>
<path d="M547.556 566.778C547.556 566.778 542.667 551.222 546.667 546.334C550.667 541.446 560.889 533.445 563.556 535.667C566.223 537.889 562.223 554.778 560.889 556.556C559.556 558.333 547.556 566.778 547.556 566.778Z" fill="#8F279B"/>
<path d="M566.222 608.111C566.222 608.111 552.889 595.667 548.444 593.444C544 591.222 520.444 590.777 520 593.444C519.556 596.111 540.444 615.222 543.111 615.222C545.778 615.222 566.222 613.444 566.222 613.444V608.111Z" fill="#8F279B"/>
<path d="M567.111 599.222C567.111 599.222 568.889 589.444 571.556 586.778C574.223 584.111 597.333 575.222 597.333 577.889C597.333 580.556 594.222 601.444 592 603.222C589.778 605 568.89 606.333 568.89 606.333L567.111 599.222Z" fill="#8F279B"/>
<path d="M523.111 749C523.111 749 513.778 733.444 509.333 730.778C504.889 728.111 471.111 726.334 470.222 728.556C469.333 730.778 493.333 749.889 497.333 750.334C501.333 750.778 520.444 751.223 520.444 751.223L523.111 749Z" fill="#8F279B"/>
<path d="M529.333 732.556C529.333 732.556 541.778 724.556 546.222 725.445C550.667 726.334 572.444 736.556 570.666 738.778C568.888 741 543.999 743.667 540.444 743.667C536.889 743.667 529.333 732.556 529.333 732.556Z" fill="#8F279B"/>
<path d="M523.112 790.333C523.112 790.333 510.223 796.555 507.557 800.555C504.89 804.555 499.557 817.444 500.001 818.777C500.445 820.11 519.112 812.11 521.334 810.333C523.556 808.555 526.667 793.444 526.667 793.444L523.112 790.333Z" fill="#8F279B"/>
<path d="M560 818.333C560 818.333 548.444 837.889 548.444 843.222C548.444 848.555 553.333 867.666 557.333 867.666C561.333 867.666 572 845.888 572 841.888C572 837.888 560 818.333 560 818.333Z" fill="#8F279B"/>
<path d="M608.445 815.667C608.445 815.667 603.112 805.889 603.112 804.111C603.112 802.333 602.667 785.444 604.889 787.222C607.112 789 615.556 799.222 616.445 801.889C617.334 804.556 612.445 816.111 612.445 816.111L608.445 815.667Z" fill="#8F279B"/>
<path d="M637.333 821.444C637.333 821.444 633.777 837.444 633.777 841.444C633.777 845.444 641.777 858.777 641.777 858.777C641.777 858.777 647.11 845.444 647.11 841.444C647.11 837.444 639.11 820.111 639.11 820.111L637.333 821.444Z" fill="#8F279B"/>
<path d="M645.778 807.222C645.778 807.222 643.111 793.889 644.445 792.555C645.778 791.222 655.556 783.222 655.556 785.888C655.556 788.554 656.445 796.999 654.667 800.11C652.889 803.222 645.778 807.222 645.778 807.222Z" fill="#8F279B"/>
<path opacity="0.52" d="M176 13C176 13 -59.9998 53 16.0002 129C92.0002 205 208 181 216 209C224 237 148 269 120 273C92.0002 277 60.0002 281 60.0002 281L156 289C156 289 164 329 220 301C276 273 248 257 248 257C248 257 336 197 288 141C240 85 120 113 84.0002 101C48.0002 89 84.0002 61 84.0002 61C84.0002 61 88.0002 69 120 65C152 61 148 37 136 37C124 37 124 37 124 37C124 37 135.62 11.03 176 13Z" fill="#EADCF4"/>
</svg>
