<svg width="925" height="915" viewBox="0 0 925 915" fill="none" xmlns="http://www.w3.org/2000/svg">
<path d="M782.51 621.524C782.51 621.524 823.29 592.993 845.832 596.718C868.374 600.442 922.517 602.999 924.576 609.062C926.635 615.125 865.767 680.662 850.645 687.613C835.523 694.564 753.807 672.014 746.996 664.101C740.184 656.188 782.51 621.524 782.51 621.524Z" fill="#01737C"/>
<path d="M775.001 666C775.001 666 822.001 696 833.001 718C844.001 740 831.001 791 827.001 790C823.001 789 767.001 748 762.001 739C757.001 730 775.001 666 775.001 666Z" fill="#01737C"/>
<path d="M782 640C782 640 824 612 837 611C850 610 899 615 899 615L842 642C842 642 899 627 894 631C889 635 855 678 838 678C821 678 779 675 779 675C779 675 805 710 814 728C823 746 829 777 826 777C823 777 754 732 754 732L745 651L782 640Z" fill="#02595B"/>
<path d="M837 629C835 633 756 720 751 724C746 728 635 750 635 750L557 672L577.06 611.83L588 579C588 579 595.84 568.33 607.06 553.11C634.39 516.01 681.81 451.85 684.91 449.07L685 449C687.97 447.02 781.87 393.22 787.83 392.02L788 392C792 392 818 413 818 413C818 413 792 549 790 556C787.96 563.05 737 623 737 623C737 623 839 625 837 629Z" fill="#9469E8"/>
<path d="M488 787C488 787 464 827 460 843C456 859 487 913 498 914C509 915 534 854 534 846C534 838 505 782 505 782L488 787Z" fill="#01A8B1"/>
<path d="M718.001 786C718.001 786 717.001 819 724.001 826C731.001 833 767.001 847 771.001 845C775.001 843 760.001 816 757.001 811C754.001 806 728.001 780 728.001 780L718.001 786Z" fill="#01A8B1"/>
<path d="M490 799C490 799 467 838 467 849C467 860 497 906 497 906C497 906 503 859 503 853C503 847 504 828 504 828C504 828 512 853 511 861C510 869 505 895 505 895C505 895 525 855 525 847C525 839 511 805 511 805L490 799Z" fill="#19DDDD"/>
<path d="M727.001 786C727.001 786 725.001 820 731.001 824C737.001 828 763.001 845 759.001 836C755.001 827 732.001 780 732.001 780L727.001 786Z" fill="#19DDDD"/>
<path d="M125 573C125 573 89.0001 566 78.0001 563C67.0001 560 54.0001 552 47.0001 555C40.0001 558 57.0001 655 73.0001 669C89.0001 683 174 685 174 685L208 667L153 600L125 573Z" fill="#01737C"/>
<path d="M156 747C156 747 92.0004 747 67.0004 758C42.0004 769 23.0004 799 19.0004 804C15.0004 809 -1.99964 815 1.00036 819C4.00036 823 75.0004 833 100 829C125 825 172 772 172 772L156 747Z" fill="#01737C"/>
<path d="M217 784C217 784 172 821 171 835C170 849 159 882 161 887C163 892 227 852 229 844C231 836 227 782 227 782L217 784Z" fill="#01A8B1"/>
<path d="M524.19 225.52L525.667 240.333L548.333 241L545.667 214.333L524.19 225.52Z" fill="#8B62CC"/>
<path d="M122 581C122 581 94 573 89 572C84 571 60 562 60 562C60 562 91 617 104 630C117 643 187 684 187 684L186 635L122 581Z" fill="#02595B"/>
<path d="M207 786C207 786 204 829 202 836C200 843 168 877 173 877C178 877 221 850 222 842C223 834 226 778 226 778L207 786Z" fill="#19DDDD"/>
<path d="M157 761C157 761 79.0004 763 69.0004 770C59.0004 777 28.0004 800 31.0004 803C34.0004 806 85.0004 819 102 817C119 815 164 771 164 771L157 761Z" fill="#02595B"/>
<path d="M666.03 321.92L666 322C664.7 324.6 625.93 483.39 598.87 594.58C584.22 654.76 573 701 573 701L499 677L472.1 453.07L459 344C459 344 469.51 324.65 483.43 299.24C494.88 278.34 508.65 253.34 520.77 231.64L542 227L524.19 225.52C538.38 200.19 549.63 180.69 551 180C555 178 644 123 645 126C645.99 128.98 667.76 315.95 666.03 321.92Z" fill="#9A73E5"/>
<path d="M292.001 612L260.001 714C260.001 714 242.831 703.4 220.811 689.62C182.731 665.79 130.171 632.44 127.001 628C122.001 621 82.0009 456 83.0009 453C84.0009 450 109.001 442 113.001 441C117.001 440 150.001 461 150.001 461L229.001 520L292.001 612Z" fill="#7657C4"/>
<path d="M255 687.67L220.81 689.62C182.73 665.79 130.17 632.44 127 628L171 615L255 687.67Z" fill="#704FBF"/>
<path opacity="0.32" d="M171 615L204.333 591L225 554.333L255 611L275 696.333L171 615Z" fill="#9469E8"/>
<path d="M666 322C664.7 324.6 625.93 483.39 598.87 594.58L550.33 649L615 347L666 322Z" fill="#8461D8"/>
<path d="M561 281L484.33 469L472.1 453.07L459 344C459 344 469.51 324.65 483.43 299.24L561 281Z" fill="#6246AF"/>
<path d="M475.671 461V726.33L253.001 714.33C253.001 714.33 183.281 335.98 176.121 274.62C176.121 274.59 176.111 274.56 176.111 274.53C175.541 269.67 175.381 266.82 175.671 266.33C179.301 260.28 246.741 94.7101 263.061 62.4101C264.711 59.1501 265.841 57.2501 266.331 57.0001C271.521 54.4101 316.981 0.21012 324.441 0.81012C324.661 0.82012 324.851 0.890123 325.001 1.00012C329.211 4.16012 401.731 116.45 435.241 169.96C444.131 184.15 450.271 194.21 451.671 197C455.681 205.03 463.571 299.16 469.211 372.76C472.931 421.35 475.671 461 475.671 461Z" fill="#9469E8"/>
<path opacity="0.32" d="M249 677C249 677 207 398 208 387C209 376 242 332 246 337C250 342 268 401 268 401C268 401 273 333 276 332C279 331 337 264 336 267C335 270 349 371 349 371L357 674L249 677Z" fill="#9469E8"/>
<path d="M703.667 661.667L677.667 700.333L774.333 682.333L837 629L745.667 644.333L703.667 661.667Z" fill="#704FBF"/>
<path d="M549.001 699L421.001 732L375.001 701C375.001 701 363.65 680.01 348.08 651.21C314.53 589.13 261.371 490.73 260.001 488C258.001 484 311.001 389 311.001 389L322.001 407L314.001 380C314.001 380 350.001 321 353.001 321C355.841 321 479.311 364.79 492.811 374.64C493.591 375.22 494.001 375.67 494.001 376C494.001 380.28 522.05 543.16 538.08 635.94C544.5 673.09 549.001 699 549.001 699Z" fill="#B79BF9"/>
<path d="M733.667 691L837 629L765 710.333L733.667 691Z" fill="#6246AF"/>
<path d="M709 580.33L646.33 671.67L573.67 658.33L577.06 611.83L588 579C588 579 680.54 452.99 684.91 449.07L685 449L709 580.33Z" fill="#B79BF9"/>
<path d="M431 653.67L348.08 651.21C314.53 589.13 261.37 490.73 260 488L350 433L396 474L431 653.67Z" fill="#704FBF"/>
<path d="M538.08 635.94L531.67 689L445.67 676.33L396 474L494 376C494 378.85 506.45 452.1 519.5 528.11C526.04 566.2 532.73 604.97 538.08 635.94Z" fill="#9469E8"/>
<path d="M521.963 671.748C521.963 671.748 474.63 639.121 471.546 631.671C468.463 624.222 446.286 535.943 451.277 531.46C456.268 526.978 529.489 567.012 537.923 575.066C546.358 583.119 561.552 642.205 561.552 642.205L521.963 671.748Z" fill="#01737C"/>
<path d="M548.222 642.757C548.222 642.757 563.492 600.192 571.111 593.95C578.73 587.709 622.462 569.473 624.486 573.065C626.51 576.657 624.189 602.184 621.656 608.065C619.123 613.946 613.094 625.973 613.094 625.973L548.222 642.757Z" fill="#01737C"/>
<path d="M469.21 372.76L467 376.33L363.67 375.67L341 183C341 183 375.67 148.33 377.67 149C378.89 149.41 410.67 160.99 435.24 169.96C444.13 184.15 450.27 194.21 451.67 197C455.68 205.03 463.57 299.16 469.21 372.76Z" fill="#704FBF"/>
<path d="M451.67 197L341 183L325 1C330.33 5 445 183.67 451.67 197Z" fill="#B79BF9"/>
<path d="M406 190C406 190 410 219 411 224C412 229 415 244 415 244C415 244 414 195 414 190C414 185 411 168 411 168L406 190Z" fill="#B79BF9"/>
<path d="M150 461L142 481L125 486L83 453C84 450 109 442 113 441C117 440 150 461 150 461Z" fill="#D8C0FF"/>
<path d="M645.001 126C645.001 126 565.001 279 561.001 281C557.601 282.71 501.401 295.25 484.671 298.96C484.521 299 484.381 299.03 484.241 299.06C483.911 299.13 483.671 299.18 483.551 299.21C483.471 299.23 483.431 299.24 483.431 299.24C494.881 278.34 508.651 253.34 520.771 231.64L542.001 227L524.191 225.52C538.381 200.19 549.631 180.69 551.001 180C551.001 180 551.141 179.93 551.401 179.78C559.021 175.52 644.021 123.07 645.001 126Z" fill="#C7ADF7"/>
<path d="M666.03 321.92L666 322C666 322 620.33 347.67 615 347C609.67 346.33 561 281 561 281L645 126C645.99 128.98 667.76 315.95 666.03 321.92Z" fill="#D3C5FF"/>
<path d="M818 413L781 429L788 392C792 392 818 413 818 413Z" fill="#D8C0FF"/>
<path d="M171.001 615L127.001 628C122.001 621 82.0009 456 83.0009 453L125.001 486L171.001 615Z" fill="#9469E8"/>
<path d="M142 481L225 554.333L147.667 479.667L150 461L142 481Z" fill="#D8C0FF"/>
<path d="M818 413C818 413 792 549 790 556C788.78 556.38 710.32 580.99 709 580.33C707.67 579.67 781 429 781 429L818 413Z" fill="#6246AF"/>
<path d="M737 623L703.667 661.667L837 629L737 623Z" fill="#6246AF"/>
<path d="M516 653C516 653 490.292 634.267 484 624C477.667 613.667 454 540 462 547C470 554 527 630 527 630C527 630 500 574 495 568C490 562 482 555 482 555C482 555 534 575 537 587C540 599 548.221 642.757 548.221 642.757C548.221 642.757 570 606 579 602C588 598 613 588 611 592C609 596 604 617 600 619C596 621 578 639 578 639L516 653Z" fill="#02595B"/>
<path d="M341.001 183C340.001 186 259.001 251 253.001 254C247.001 257 260.001 310 261.001 314C262.001 318 267.001 377 267.001 377C267.001 377 261.001 337 258.001 333C255.001 329 239.001 275 239.001 272C239.001 269 238.001 262 235.001 262C234.751 262 234.121 262.09 233.181 262.25C233.161 262.25 233.131 262.26 233.111 262.26C223.881 263.88 185.551 272.42 176.111 274.53C175.541 269.67 175.381 266.82 175.671 266.33C179.301 260.28 246.741 94.7101 263.061 62.4101C264.711 59.1501 265.841 57.2501 266.331 57.0001C271.521 54.4101 316.981 0.21012 324.441 0.81012L325.001 1.00012C325.001 1.00012 342.001 180 341.001 183Z" fill="#D8C0FF"/>
<path d="M325 1C325 1 332 175 332 183C332 191 360 356 360 356C360 356 346 193 345 183C344 173 325 1 325 1Z" fill="#F3F0FF"/>
<path d="M494 376L396 474L350 433L353 321C353.08 321 353.28 321.04 353.57 321.12C363.45 323.7 479.73 365.1 492.81 374.64C492.83 374.65 494 376 494 376Z" fill="#D8C0FF"/>
<path d="M233.181 262.25C234.051 262.13 234.641 262.05 234.881 262.02L176.121 274.62C176.121 274.59 176.111 274.56 176.111 274.53C175.541 269.67 175.381 266.82 175.671 266.33C179.301 260.28 246.741 94.71 263.061 62.41L266.311 57.04C264.841 60.42 174.071 268 183.001 268C190.871 268 224.711 263.42 233.111 262.26C233.131 262.26 233.161 262.25 233.181 262.25Z" fill="white"/>
<path d="M645.001 126C645.001 126 565.001 279 561.001 281C555.471 282.84 494.211 296.79 484.671 298.96C484.511 298.99 484.371 299.03 484.241 299.06C483.911 299.13 483.671 299.18 483.551 299.21C486.641 298.31 550.151 279.93 556.001 277C561.951 274.03 628.771 140.47 633.871 136.09C629.041 138.73 557.391 176.62 551.401 179.78C559.021 175.52 644.021 123.07 645.001 126Z" fill="white"/>
<path d="M350 433C350 433 391 467 396 466C401 465 494 376 494 376C494 376 403 478 399 478C395 478 350 433 350 433Z" fill="white"/>
<path d="M504 424C504 424 560 302 563 302C566 302 602 343 599 351C596 359 562 589 562 589C562 589 619 354 623 351C627 348 666.03 321.92 666.03 321.92C666.03 321.92 616 343 612 343C608 343 561 281 561 281L504 424Z" fill="#B193F9"/>
<path d="M490 392C491.97 383.13 446.331 426.73 445.031 427.97C445.411 427.48 450.181 421.48 456.181 413.82C466.611 400.48 480.75 382.12 482 379C483.98 374.04 355.021 321.82 353.021 321.01L353.57 321.12C363.45 323.7 479.731 365.1 492.811 374.64C492.831 374.65 494 376 494 376C494 378.85 506.45 452.1 519.5 528.11C507.87 479.96 488.6 398.32 490 392Z" fill="#F3F0FF"/>
<path d="M692.001 454C692.001 456.91 701.381 535.83 701.971 540.76C701.271 535.7 689.751 453.21 682.001 460C674.061 466.95 607.061 553.63 606.011 554.98L607.061 553.11C634.391 516.01 681.811 451.85 684.911 449.07L685.001 449C687.971 447.02 781.871 393.22 787.831 392.02L788.001 392C788.001 392 692.001 451 692.001 454Z" fill="#F3F0FF"/>
<path d="M260.791 749.03C260.501 754.44 259.931 760.12 259.001 766C253.001 804 169.001 810 146.001 773C123.301 736.48 147.361 712.63 147.991 712.02C148.001 712 147.001 670 186.001 664C225.001 658 256.001 698 256.001 698C256.001 698 256.211 698.7 256.541 700.03C257.261 702.87 258.551 708.56 259.571 716.34C260.711 725.02 261.501 736.27 260.791 749.03Z" fill="#B248B5"/>
<path d="M156.333 695.667C156.333 695.667 162.333 725.667 183.666 742.334C205 759 241 755 241 755C241 755 175.667 743 156.333 695.667Z" fill="#9D2BAA"/>
<path d="M230.333 680.333C230.333 680.333 241.666 709 229.666 727C217.666 745 203 748.333 203 748.333C203 748.333 233.667 735.667 230.333 680.333Z" fill="#9D2BAA"/>
<path d="M169.667 721C169.667 721 181 683.667 203.667 683.667C226.334 683.667 233 698.334 233 698.334C233 698.334 221 683.667 199.667 691.001C178.333 698.333 169.667 721 169.667 721Z" fill="#9D2BAA"/>
<path d="M188.333 734.333C188.333 734.333 189 712.333 206.333 713C223.666 713.667 223 729.667 223 729.667C223 729.667 205 711 188.333 734.333Z" fill="#9D2BAA"/>
<path opacity="0.29" d="M260.791 749.03C260.501 754.44 259.931 760.12 259.001 766C253.001 804 169.001 810 146.001 773C123.301 736.48 147.361 712.63 147.991 712.02C147.691 713.06 138.001 747.24 159.671 763C167.121 768.42 175.031 770.09 182.241 769.93C180.531 760.55 181.271 748.86 186.331 734.33C203.741 684.42 245.921 696.15 256.541 700.03C258.121 700.6 259.001 701 259.001 701L259.571 716.34C259.571 716.36 260.791 749.03 260.791 749.03Z" fill="#9D2BAA"/>
<path d="M755.001 768C755.001 768 754.001 783 736.001 790C718.001 797 719.001 790 719.001 790C719.001 790 665.001 794 656.001 763C647.001 732 669.001 709 669.001 709C669.001 709 669.191 708.51 669.601 707.66C671.111 704.5 675.62 696.33 684.39 689.69C689.44 685.87 695.891 682.56 704.001 681C730.001 676 775.001 687 779.001 723C783.001 759 755.001 768 755.001 768Z" fill="#B248B5"/>
<path opacity="0.29" d="M755.001 768C755.001 768 754.001 783 736.001 790C718.001 797 719.001 790 719.001 790C719.001 790 665.001 794 656.001 763C647.001 732 669.001 709 669.001 709C669.001 709 669.191 708.51 669.601 707.66L671.001 707C671.001 707 667.671 736.33 681.001 757.67C690.351 772.63 705.62 773.49 713.89 772.67L704.331 774.33C704.331 774.33 711.001 781.67 730.331 776.33C749.671 771 751.001 748.33 751.001 748.33L741.681 758.98C742.081 758.09 753.651 731.53 733.001 704.33C719.181 686.12 697.55 686.98 684.39 689.69C689.44 685.87 695.891 682.56 704.001 681C730.001 676 775.001 687 779.001 723C783.001 759 755.001 768 755.001 768Z" fill="#9D2BAA"/>
<path d="M645 769C631 776 623 768 623 768C623 768 618 811 551 816C484 821 450 783 450 783L457.78 705.21L461 673C461 673 513 610 605 636C648.29 648.23 662.79 676.84 664.56 704.44C666.56 735.51 652.41 765.29 645 769Z" fill="#AD32B7"/>
<path opacity="0.29" d="M645 769C631 776 623 768 623 768C623 768 618 811 551 816C484 821 450 783 450 783L457.78 705.21L460.33 697C460.33 697 505 649.67 566.33 691.67C627.2 733.35 601.41 792.08 601.01 792.99C601.5 792.54 617.04 778.02 619.67 758.33C621.75 742.71 616.51 722.61 614.12 714.56C616.77 722.13 624.32 738.93 638.33 736.33C653.16 733.59 661.66 721.34 664.56 704.44C666.56 735.51 652.41 765.29 645 769Z" fill="#9D2BAA"/>
<path d="M485 779C461 830 370 855 324 840C278 825 274 806 274 806C274 806 249 803 245 772C242.5 752.66 246.24 741.88 249.4 736.51C251.24 733.38 252.88 732.09 252.99 732.01C253 732 233 696 260 661C287 626 323 644 323 644C323 644 342 605 410 617C413.26 617.58 416.38 618.3 419.37 619.16C478.66 636.21 485 706 485 706C485 706 509 728 485 779Z" fill="#CC60D8"/>
<path d="M323 644C323 644 379.667 651.667 407.667 678.333C435.667 705 385 758.333 385 758.333C385 758.333 426.333 673.667 323 644Z" fill="#B248B5"/>
<path d="M255 693C255 693 258.333 745.667 341 759.667C423.667 773.667 483 709 483 709C483 709 421.667 764.333 333 749.667C273.462 739.818 255 693 255 693Z" fill="#B248B5"/>
<path d="M375.668 665.667C375.668 665.667 344.335 655.667 315.001 670.334C285.668 685.001 291.668 737.667 291.668 737.667C291.668 737.667 295.001 663.667 375.668 665.667Z" fill="#B248B5"/>
<path d="M333 749.667C333 749.667 358.333 736.334 363.667 711.667C369 687 325.667 677 325.667 677C325.667 677 350.334 687 350.334 705C350.334 723 333 749.667 333 749.667Z" fill="#B248B5"/>
<path d="M298.333 706.333C298.333 706.333 321.666 685.666 334.333 703.666C347 721.667 333 747 333 747C333 747 340.333 686.333 298.333 706.333Z" fill="#B248B5"/>
<path opacity="0.35" d="M485 779C461 830 370 855 324 840C278 825 274 806 274 806C274 806 249 803 245 772C242.5 752.66 246.24 741.88 249.4 736.51C249.41 736.48 252.99 732.01 252.99 732.01C253 732 239 760.333 275 785C290.725 795.775 319 791 319 791L297.67 803.67C297.67 803.67 333.67 838.33 408.33 801C483 763.67 477 719.67 477 719.67L483 732.33C483 732.33 476.6 650.67 419.37 619.16C478.66 636.21 485 706 485 706C485 706 509 728 485 779Z" fill="#CC60D8"/>
<path opacity="0.29" d="M613.021 711.07C613.121 711.36 613.541 712.61 614.121 714.56C613.461 712.69 613.101 711.39 613.021 711.07Z" fill="#9D2BAA"/>
<path d="M515.001 646.333C515.001 646.333 492.687 686.795 516.334 735.666C536.334 777 623.001 768 623.001 768C623.001 768 485.668 763 515.001 646.333Z" fill="#80208E"/>
<path d="M583.667 663C583.667 663 619.667 671 620.334 709C621.001 747 588.334 763 588.334 763C588.334 763 644.333 706.333 583.667 663Z" fill="#80208E"/>
<path d="M525 731C525 731 534.333 690.333 571.667 689C609 687.667 617 708.333 617 708.333C617 708.333 575 671 525 731Z" fill="#80208E"/>
<path d="M583.667 759.667C583.667 759.667 589.667 742.334 583.667 725.667C577.667 709 550.334 705 550.334 705C550.334 705 587 725.667 583.667 759.667Z" fill="#80208E"/>
<path d="M545.667 751.667C545.667 751.667 545.667 736.334 559 733.667C572.333 731 581.667 737 581.667 737C581.667 737 551 737 545.667 751.667Z" fill="#80208E"/>
<path opacity="0.29" d="M719.621 771.68C719.281 771.78 717.121 772.35 713.891 772.67L719.621 771.68Z" fill="#9D2BAA"/>
<path d="M701.667 707C701.667 707 675 716.333 679.667 741.667C684.333 767 713 765 713 765C713 765 673 744.333 701.667 707Z" fill="#9D2BAA"/>
<path d="M725.667 717C725.667 717 741 725.667 742.334 741.667C743.667 757.667 729.667 761 729.667 761C729.667 761 745 733.667 725.667 717Z" fill="#9D2BAA"/>
<path d="M685.667 745C685.667 745 692.728 734.747 707 736.333C719 737.666 720.333 749 720.333 749C720.333 749 701.667 733.667 685.667 745Z" fill="#9D2BAA"/>
</svg>
