<svg width="1694" height="1295" viewBox="0 0 1694 1295" fill="none" xmlns="http://www.w3.org/2000/svg">
<path d="M1149 676C1149 676 1169 594 1233 584C1297 574 1339 556 1339 556C1339 556 1325 656 1285 690C1245 724 1151 716 1151 716L1149 676Z" fill="#01737C"/>
<path d="M1113 694C1113 694 1085 644 1089 610C1093 576 1135 532 1135 532C1135 532 1175 646 1149 676C1123 706 1113 694 1113 694Z" fill="#01737C"/>
<path d="M478.822 746.634C478.822 746.634 415 686 325 706C235 726 221 732 207 734C193 736 279 788 361 790C443 792 478.822 746.634 478.822 746.634Z" fill="#01737C"/>
<path d="M1097.67 645.333C1097.67 645.333 1095 606.666 1095.67 600.666C1096.33 594.666 1134.33 539.333 1133 543.999C1131.67 548.665 1112.33 650.666 1112.33 650.666C1112.33 650.666 1126.33 604.666 1127.67 597.333C1129 590 1133.67 557.333 1137.67 562.666C1141.67 567.999 1153 651.999 1151.67 661.333C1150.33 670.666 1149.67 672.666 1149.67 672.666C1149.67 672.666 1202.33 613.333 1223 607.999C1243.67 602.665 1297.67 586.666 1305.67 581.999C1313.67 577.332 1325 563.999 1323 570.666C1321 577.333 1311 640.666 1301.67 655.333C1292.33 670 1271.67 690 1271.67 690L1284.33 650C1284.33 650 1258.33 697.333 1245.67 700.667C1233 704 1169 718 1169 718L1147 704.667L1080.33 677.334L1097.67 645.333Z" fill="#005E60"/>
<path d="M469 718C469 718 463.75 719.69 455.31 721.7C443.96 724.4 426.86 727.67 409.03 728.14C394.6 728.53 379.69 727.08 367 722C359.68 719.07 352.57 712.73 345.82 704.32C315.7 666.77 293 588 293 588C293 588 333 596 395 620C457 644 469 718 469 718Z" fill="#01737C"/>
<path d="M458.333 746.667C458.333 746.667 333 725.334 323.666 725.334C314.333 725.334 242.333 736.001 242.333 742.667C242.333 749.334 334.333 784 334.333 784L458.333 746.667Z" fill="#005E60"/>
<path d="M479.67 750.67C466.24 748.23 436.9 738.24 409.03 728.14C379.14 717.3 350.93 706.32 345.82 704.32C315.7 666.77 293 588 293 588L374.33 654.67L353 626.67C353 626.67 375.67 642.67 393 654.67C403.59 662 433.58 696.19 455.31 721.7C469.17 737.95 479.67 750.67 479.67 750.67Z" fill="#005E60"/>
<path d="M37 936C37 936 109 980 127 988C145 996 173 1002 179 996C185 990 185 990 185 990C185 990 247 1026 285 1054C323 1082 335 1104 335 1104C335 1104 377 1076 377 1084C377 1092 379 1150 393 1150C407 1150 599 1248 599 1248C599 1248 725 1262 741 1268C757 1274 831 1294 831 1294L947 1220L975.67 1225.33L993 1214C993 1214 1037 1214 1049 1212C1061 1210 1074.33 1204 1074.33 1204C1074.33 1204 1553 962 1561 954C1569 946 1547 938 1547 938C1547 938 1577 940 1587 938C1597 936 1693 870.67 1693 870.67L1495 890L37 936Z" fill="#3C1966"/>
<path d="M1693 870.67C1687.67 881.33 1597 918.67 1586.33 926.67C1575.67 934.67 1509 924 1509 924C1509 924 1549 950.67 1538.33 953.33C1527.67 956 1498.33 974.67 1498.33 974.67C1498.33 974.67 1493 1006.67 1437 1044C1381 1081.33 1085 1201.33 1074.33 1204C1063.67 1206.67 1045 1198.67 1031.67 1198.67C1018.33 1198.67 994.33 1204 983.67 1196C973 1188 943.67 1169.33 943.67 1169.33C943.67 1169.33 983.67 1217.33 975.67 1225.33C967.67 1233.33 843 1300 831 1294C819 1288 727 1248 699 1250C671 1252 611 1256 587 1250C563 1244 405 1164 393 1150C386.34 1142.23 386.46 1123.99 388.21 1107.59C389.63 1094.42 392.11 1082.45 393 1078C395 1068 455 1012 429 1028C403 1044 335 1104 335 1104C335 1104 327 1094 323 1082C319 1070 223 988 175 966C127 944 167 984 153 988C150.15 988.81 145.32 988.39 139.21 987.05C115.28 981.84 71.7097 962.75 50.9997 950C24.9997 934 30.9997 908 16.9997 900C2.99972 892 -7.00028 886 6.99972 880C17.1797 875.64 199.74 805.35 355.51 760.92C413.95 744.25 468.62 731.22 509 726.67C509 726.67 559.34 641.2 565 628C577 600 672.82 401.98 719.67 306.67C758.33 228 799.98 121.78 827.78 63.7601C835.36 47.9501 841.48 36.2202 845.57 30.5602C846.34 29.4802 847.04 28.6201 847.67 28.0001C856.6 19.0701 873.83 10.9801 891.02 6.03012C904.64 2.10012 918.24 0.150049 927.67 1.33005C949 4.00005 983.67 -1.32995 978.33 17.33C973 36 941 65.33 941 65.33C941 65.33 1026.33 372 1058.33 468C1090.33 564 1141 734.67 1143.67 745.33C1146.33 756 1698.33 860 1693 870.67Z" fill="#5C27A0"/>
<path d="M626.333 260.667C626.333 239.68 609.32 222.667 588.333 222.667C609.32 222.667 626.333 205.654 626.333 184.667C626.333 205.654 643.346 222.667 664.333 222.667C643.346 222.667 626.333 239.68 626.333 260.667Z" fill="#FFFEF5"/>
<path d="M509.04 742.03L564 774.47C530.16 761.35 509.99 742.92 509.04 742.03Z" fill="#4A2289"/>
<path d="M1693 870.67C1687.67 881.33 1597 918.67 1586.33 926.67C1575.67 934.67 1509 924 1509 924C1509 924 1549 950.67 1538.33 953.33C1527.67 956 1498.33 974.67 1498.33 974.67C1498.33 974.67 1493 1006.67 1437 1044C1381 1081.33 1085 1201.33 1074.33 1204C1074.33 1204 1209 1058 1035 950C861 842 779 862 779 862L675 840L564 774.47C615.68 794.52 699.25 802.18 795 716C955 572 927 264 925 256C923 248 909 282 909 282C909 282 943 77.33 941 65.33C939.86 58.5 954.333 1.33312 891.02 6.03012C904.64 2.10012 918.24 0.150049 927.67 1.33005C949 4.00005 983.67 -1.32995 978.33 17.33C973 36 941 65.33 941 65.33C941 65.33 1026.33 372 1058.33 468C1090.33 564 1141 734.67 1143.67 745.33C1146.33 756 1698.33 860 1693 870.67Z" fill="#471E87"/>
<path d="M175.667 945.333L509 726.67L495.667 710.667C495.667 710.667 285 830.667 175.667 945.333Z" fill="#471E87"/>
<path d="M541 720C541 720 667 822 847 804C1027 786 1099 712 1099 712L1085 774L949 842L701 854L579 798L541 720Z" fill="#01737C"/>
<path d="M493 772C493 772 451 783.429 453 787.714C455 792 515 792 515 792L493 772Z" fill="#01A8B1"/>
<path d="M630.622 830.961C630.622 830.961 623.571 873.913 628.301 873.874C633.03 873.835 657.954 819.257 657.954 819.257L630.622 830.961Z" fill="#01A8B1"/>
<path d="M552.947 699.772C552.947 699.772 579.153 665.017 574.947 662.854C570.741 660.691 523.307 697.433 523.307 697.433L552.947 699.772Z" fill="#01A8B1"/>
<path d="M733.201 857.394C733.201 857.394 755.728 894.638 759.299 891.538C762.87 888.438 746.387 830.746 746.387 830.746L733.201 857.394Z" fill="#01A8B1"/>
<path d="M818.065 810.237C818.065 810.237 797.537 771.854 793.807 774.762C790.077 777.669 803.489 836.151 803.489 836.151L818.065 810.237Z" fill="#01737C"/>
<path d="M950.412 793.895C950.412 793.895 915.418 768.01 913.293 772.236C911.168 776.461 948.345 823.556 948.345 823.556L950.412 793.895Z" fill="#01737C"/>
<path d="M1041.3 763.594C1041.3 763.594 1037.13 720.267 1032.57 721.514C1028 722.761 1017.87 781.899 1017.87 781.899L1041.3 763.594Z" fill="#01737C"/>
<path d="M1086.86 717.925C1086.86 717.925 1045.44 731.289 1047.63 735.477C1049.83 739.665 1109.76 736.884 1109.76 736.884L1086.86 717.925Z" fill="#01A8B1"/>
<path d="M1011.43 830.424C1011.43 830.424 999.437 872.267 1004.14 872.777C1008.84 873.287 1039.93 821.973 1039.93 821.973L1011.43 830.424Z" fill="#01A8B1"/>
<path d="M1160.91 759.794C1160.91 759.794 1194.62 787.328 1196.95 783.21C1199.27 779.091 1164.4 730.267 1164.4 730.267L1160.91 759.794Z" fill="#01A8B1"/>
<path d="M1192.24 724.369C1192.24 724.369 1229.71 702.225 1226.65 698.622C1223.58 695.019 1180 710 1180 710L1192.24 724.369Z" fill="#01A8B1"/>
<path d="M1154.6 676.695C1154.6 676.695 1193.14 656.464 1190.26 652.712C1187.38 648.959 1143.1 661.729 1143.1 661.729L1154.6 676.695Z" fill="#01A8B1"/>
<path d="M894.98 861.396C894.98 861.396 934.783 879.015 935.933 874.428C937.084 869.84 901 844 901 844L894.98 861.396Z" fill="#01A8B1"/>
<path d="M479.679 724.466C479.679 724.466 438.815 707.881 437.119 713.035C435.423 718.189 481.489 756.633 481.489 756.633L479.679 724.466Z" fill="#01A8B1"/>
<path d="M531.711 658.304C531.711 658.304 531.071 614.75 526.377 615.599C521.682 616.448 506.625 674.528 506.625 674.528L531.711 658.304Z" fill="#01A8B1"/>
<path d="M514.609 677.248C514.609 677.248 485.49 644.852 482.511 648.579C479.532 652.306 506.374 705.966 506.374 705.966L514.609 677.248Z" fill="#01A8B1"/>
<path d="M658.333 802C658.333 802 774.333 837.333 871 828C967.667 818.667 1025 773.333 1025 773.333L970.333 815.333L1055.67 759.333L1031.67 814L909 851.333L747 847.333L658.333 802Z" fill="#005E60"/>
<path d="M1083 814C1083 814 1085 886 1165 898C1245 910 1287 878 1287 878C1287 878 1265 822 1211 800C1157 778 1083 814 1083 814Z" fill="#01A8B1"/>
<path d="M905 1082C905 1082 845 1066 821 1006C802.7 960.24 826.27 904.02 838.5 879.9C842.29 872.4 845 868 845 868C845 868 917 904 927 964C933.58 1003.46 905 1082 905 1082Z" fill="#01A8B1"/>
<path d="M577 834C577 834 497 830 463 860C429 890 409 936 395 940C381 944 373 952 373 952C373 952 459 962 527 930C595 898 577 834 577 834Z" fill="#01A8B1"/>
<path d="M638.999 796C638.999 796 596.999 756 588.999 724C580.999 692 594.999 642 594.999 642C594.999 642 646.999 684 654.999 714C662.999 744 638.999 796 638.999 796Z" fill="#01A8B1"/>
<path d="M655 804C655 804 661 738 679 724C697 710 777 690 775 700C773 710 745 770 729 782C713 794 655 804 655 804Z" fill="#01A8B1"/>
<path d="M1121.49 723.556C1121.49 723.556 1065.78 723.486 1040.54 696.746C1015.3 670.006 988.509 622.444 988.509 622.444C988.509 622.444 1034.6 619.774 1065.17 638.048C1095.73 656.322 1121.49 723.556 1121.49 723.556Z" fill="#01A8B1"/>
<path d="M908 979L888 940C888 940 904 990 904 1010C904 1030 899 1062 905 1082C905 1082 845 1066 821 1006C802.7 960.24 826.27 904.02 838.5 879.9C842.62 877.17 846.67 875.23 848 877C851 881 883 902 896 928C909 954 908 979 908 979Z" fill="#009093"/>
<path d="M653 465.333C653 465.333 754.333 246.666 767.667 228C781 209.333 813 129.333 813 129.333C813 129.333 773 278.666 757 300C741 321.334 626.333 548 626.333 548L653 465.333Z" fill="#6D3EC6"/>
<path d="M757 300C757 300 778.333 270.667 782.333 294.667C786.333 318.667 741 417.334 715.666 417.334C690.333 417.334 728.999 325.334 728.999 325.334L757 300Z" fill="#6D3EC6"/>
<path d="M698.999 1250C670.999 1252 610.999 1256 586.999 1250C562.999 1244 404.999 1164 392.999 1150C386.339 1142.23 386.459 1123.99 388.209 1107.59C390.399 1121.09 393.519 1135.88 396.999 1138.67C403.669 1144 515.669 1180 515.669 1180C515.669 1180 459.669 1170.67 466.329 1177.33C472.999 1184 574.329 1229.33 588.999 1236C603.669 1242.67 698.999 1250 698.999 1250Z" fill="#6D3EC6"/>
<path d="M59.6696 946.67C66.1896 949.93 119.66 977.11 139.21 987.05C115.28 981.84 71.7097 962.75 50.9997 950C24.9997 934 30.9997 908 16.9997 900C2.99972 892 -7.00028 886 6.99972 880C17.1797 875.64 199.74 805.35 355.51 760.92C239.82 802.79 38.8498 876.03 30.3298 882.67C18.3298 892 34.3297 892 40.9997 897.33C47.6697 902.67 51.6696 942.67 59.6696 946.67Z" fill="#6D3EC6"/>
<path d="M1065 528C1065 507.013 1047.99 490 1027 490C1047.99 490 1065 472.987 1065 452C1065 472.987 1082.01 490 1103 490C1082.01 490 1065 507.013 1065 528Z" fill="#FFFEF5"/>
<path d="M573 838C573 838 483.667 858.667 470.333 869.333C457 880 409 925.333 422.333 930.666C435.666 935.999 510.333 919.999 534.333 906.666C558.333 893.333 573 838 573 838Z" fill="#05E2E2"/>
<path d="M1106.33 814.667C1106.33 814.667 1150.33 874.667 1202.33 878.667C1254.33 882.667 1277.67 871.334 1277.67 871.334C1277.67 871.334 1268.33 845.334 1248.33 831.334C1228.33 817.334 1213 810.667 1213 810.667L1238.33 838C1238.33 838 1205.67 802 1178.33 800.667C1151 799.333 1106.33 814.667 1106.33 814.667Z" fill="#05E2E2"/>
<path d="M1120 660C1120 660 1135 638 1147 648C1167.67 665.226 1165 712 1165 712C1165 712 1179 696 1189 696C1199 696 1215 744 1125 798C1029.13 855.522 945 852 945 852C945 852 836.068 895.013 651 858C471 822 469 734 469 718C469 702 503 650 509 648C515 646 549 652 549 652C549 652 553 708 621 770C689 832 824.917 844 849 844C883 844 935 838 935 838C935 838 995 820 1061 750C1127 680 1120 660 1120 660Z" fill="#01A8B1"/>
<path d="M726.222 826.767C726.222 826.767 752.578 792.126 748.381 789.944C744.185 787.762 696.592 824.299 696.592 824.299L726.222 826.767Z" fill="#01A8B1"/>
<path d="M840.222 859.767C840.222 859.767 866.578 825.126 862.381 822.944C858.185 820.762 810.592 857.299 810.592 857.299L840.222 859.767Z" fill="#01A8B1"/>
<path d="M1014.75 797.174C1014.75 797.174 971.906 789.486 971.875 794.215C971.844 798.944 1026.05 824.676 1026.05 824.676L1014.75 797.174Z" fill="#01A8B1"/>
<path opacity="0.5" d="M514.332 662.667C514.332 662.667 487.665 684 482.332 708C476.999 732 494.332 768.667 535.665 801.333C576.999 834 714.332 852 714.332 852L674.999 840C674.999 840 751.666 857.333 799.666 857.333C847.666 857.333 882.333 846.666 882.333 846.666C882.333 846.666 827 850.666 762.333 840.666C697.666 830.666 639 793.333 636.333 795.333C633.666 797.333 653.666 812.666 653.666 812.666C653.666 812.666 622.999 797.333 609.666 784.666C596.332 772 576.999 746 576.999 746C576.999 746 606.101 763.434 600.999 758C539.666 692.667 542.332 658.667 539.666 657.333C536.999 656 533.666 698.666 533.666 698.666L514.332 662.667Z" fill="#05E2E2"/>
<path d="M962.333 842C962.333 842 1006.72 813.725 1032.33 794.667C1089.67 752 1127 676 1127.67 671.333C1128.33 666.666 1139.67 650 1141.67 650C1143.67 650 1155.67 666 1156.33 674C1157 682 1157.67 711.333 1157.67 711.333C1157.67 711.333 1113 768.666 1115 769.333C1117 770 1166.33 721.333 1169 718C1171.67 714.667 1181 703.333 1183 702.667C1185 702 1189 732.667 1184.33 738C1179.67 743.333 1150.33 782 1101 804.667C1051.67 827.333 962.333 842 962.333 842Z" fill="#05E2E2"/>
<path d="M663.667 796.667C663.667 796.667 685 747.334 699.667 738.667C714.334 730 771 695.334 768.334 702.667C765.667 710 734.334 772 726.334 780C718.334 788 663.667 796.667 663.667 796.667Z" fill="#009093"/>
<path d="M639.667 782.667C639.667 782.667 638.334 729.334 630.334 714.667C622.334 700 597.667 648 597.667 648C597.667 648 649.667 692.667 652.334 716C655 739.333 639.667 782.667 639.667 782.667Z" fill="#009093"/>
<path d="M993 624.667C993 624.667 1046.33 646.667 1055.67 654C1065 661.333 1095.67 708.667 1095.67 708.667C1095.67 708.667 1076.33 712.667 1071 712C1065.67 711.333 1041 694 1037 687.333C1033 680.667 993 624.667 993 624.667Z" fill="#009093"/>
</svg>
